<?xml version="1.0" encoding="utf-8"?>
<!-- Generator: Adobe Illustrator 24.2.3, SVG Export Plug-In . SVG Version: 6.00 Build 0)  -->
<svg version="1.1" id="Layer_1" xmlns="http://www.w3.org/2000/svg" xmlns:xlink="http://www.w3.org/1999/xlink" x="0px" y="0px"
	 viewBox="0 0 24 24" style="enable-background:new 0 0 24 24;" xml:space="preserve">
<style type="text/css">
	.st0{clip-path:url(#SVGID_2_);}
	.st1{fill:none;stroke:#00A9E0;stroke-width:1.5;stroke-linejoin:round;}
</style>
<g>
	<g>
		<defs>
			<rect id="SVGID_1_" x="0.6" y="0.6" width="22.8" height="22.8"/>
		</defs>
		<clipPath id="SVGID_2_">
			<use xlink:href="#SVGID_1_"  style="overflow:visible;"/>
		</clipPath>
		<g class="st0">
			<path class="st1" d="M9.1,1.5c-0.5,0-1,0.4-1,1v5.7H2.5c-0.5,0-1,0.4-1,1v5.7c0,0.5,0.4,1,1,1h5.7v5.7c0,0.5,0.4,1,1,1h5.7
				c0.5,0,1-0.4,1-1v-5.7h5.7c0.5,0,1-0.4,1-1V9.1c0-0.5-0.4-1-1-1h-5.7V2.5c0-0.5-0.4-1-1-1H9.1z"/>
		</g>
	</g>
</g>
</svg>
