<svg width="24" height="24" viewBox="0 0 24 24" fill="none" xmlns="http://www.w3.org/2000/svg">
<path d="M8.24803 20.8819L1.61703 14.2499C1.0868 13.6902 0.795884 12.9456 0.806172 12.1747C0.81646 11.4038 1.12714 10.6673 1.67212 10.1219C2.2171 9.57655 2.95337 9.26534 3.72429 9.2545C4.49521 9.24366 5.23993 9.53405 5.80003 10.0639L10.018 14.2819L17.918 3.74888C18.1512 3.43771 18.4434 3.17551 18.7779 2.97726C19.1123 2.77901 19.4826 2.64858 19.8675 2.59342C20.2524 2.53826 20.6444 2.55945 21.0211 2.65579C21.3978 2.75212 21.7519 2.92172 22.063 3.15488C22.3742 3.38804 22.6364 3.68021 22.8347 4.0147C23.0329 4.34919 23.1633 4.71946 23.2185 5.10436C23.2737 5.48925 23.2525 5.88125 23.1561 6.25796C23.0598 6.63466 22.8902 6.98871 22.657 7.29988L12.71 20.5649C12.4555 20.9042 12.131 21.1848 11.7586 21.3878C11.3861 21.5908 10.9745 21.7114 10.5514 21.7414C10.1283 21.7715 9.70366 21.7103 9.30627 21.562C8.90888 21.4137 8.548 21.1818 8.24803 20.8819Z" stroke="#5B9C11" stroke-width="1.5" stroke-linejoin="round"/>
</svg>
