<svg width="24" height="24" viewBox="0 0 24 24" fill="none" xmlns="http://www.w3.org/2000/svg">
<g clip-path="url(#clip0_9099_14781)">
<path d="M16.501 11.9971H7.50098" stroke="white" stroke-width="1.5" stroke-linecap="round" stroke-linejoin="round"/>
<path d="M12.751 8.24707L16.501 11.9971L12.751 15.7471" stroke="white" stroke-width="1.5" stroke-linecap="round" stroke-linejoin="round"/>
<path d="M1.50098 11.9971C1.50098 14.7818 2.60722 17.4526 4.57636 19.4217C6.54549 21.3908 9.2162 22.4971 12.001 22.4971C14.7857 22.4971 17.4565 21.3908 19.4256 19.4217C21.3947 17.4526 22.501 14.7818 22.501 11.9971C22.501 9.2123 21.3947 6.54158 19.4256 4.57245C17.4565 2.60332 14.7857 1.49707 12.001 1.49707C9.2162 1.49707 6.54549 2.60332 4.57636 4.57245C2.60722 6.54158 1.50098 9.2123 1.50098 11.9971Z" stroke="white" stroke-width="1.5" stroke-linecap="round" stroke-linejoin="round"/>
</g>
<defs>
<clipPath id="clip0_9099_14781">
<rect width="24" height="24" fill="white"/>
</clipPath>
</defs>
</svg>
