<svg width="48" height="48" viewBox="0 0 48 48" fill="none" xmlns="http://www.w3.org/2000/svg">
<path fill-rule="evenodd" clip-rule="evenodd" d="M18.614 27.9995C16.7137 24.8072 15.5823 20.7054 15.0173 16.2683C14.8627 15.0535 15.7634 14 16.9058 14H32.0931C33.2356 14 34.1363 15.0535 33.9829 16.2684C33.4223 20.7077 32.3064 24.7961 30.3907 28L27.1413 27.6943L25.3988 23.1344C25.069 22.2712 23.93 22.2712 23.6001 23.1344L21.8576 27.6943L18.614 27.9995Z" fill="#E0E0E0"/>
<path d="M21 14V18" stroke="#616161" stroke-width="1.71429" stroke-linecap="round" stroke-linejoin="round"/>
<path d="M27 14V18" stroke="#616161" stroke-width="1.71429" stroke-linecap="round" stroke-linejoin="round"/>
<path d="M23.5719 22.6378C23.9123 21.7874 25.0877 21.7874 25.4281 22.6378L27.2262 27.1304L32.083 27.5666C32.9784 27.647 33.3267 28.8002 32.6323 29.3847L29.521 32.0035C29.2305 32.2479 29.0979 32.6382 29.1772 33.0146L30.1758 37.752C30.3662 38.655 29.3873 39.3368 28.6377 38.8234L24.5 35.9881L20.3622 38.8234C19.6126 39.3368 18.6337 38.655 18.8241 37.752L19.8227 33.0146C19.9021 32.6382 19.7694 32.2479 19.479 32.0035L16.3677 29.3847C15.6733 28.8002 16.0217 27.647 16.9168 27.5666L21.7737 27.1304L23.5719 22.6378Z" stroke="#616161" stroke-width="1.71429" stroke-linejoin="round"/>
<path d="M18.618 27C16.7152 23.8081 15.5827 19.7055 15.0173 15.2671C14.8627 14.0529 15.7634 13 16.9058 13H32.0931C33.2356 13 34.1363 14.0529 33.9829 15.2673C33.4221 19.7075 32.305 23.7965 30.3872 27" stroke="#616161" stroke-width="1.71429" stroke-linecap="round" stroke-linejoin="round"/>
</svg>
