<svg width="281" height="281" viewBox="0 0 281 281" fill="none" xmlns="http://www.w3.org/2000/svg">
<path d="M45.3069 127.185C48.7168 127.477 157.486 144.426 166.861 146.325C173.821 147.73 172.776 170.358 178.442 192.045C181.821 204.971 187.575 214 194.779 225.451C197.699 230.087 207.947 247.152 211.358 251.419C212.482 252.543 164.209 251.629 149.668 253.369C133.707 255.282 87.5103 256.608 82.8569 254.832C79.9907 253.743 38.9057 162.38 40.0648 126.45C41.7747 126.913 43.5357 127.16 45.3069 127.185Z" fill="#D6F2FF"/>
<path d="M239.158 176.319C228.487 164.968 200.977 135.012 193.317 131.941C192.707 131.818 192.333 132.793 191.975 134.013C191.775 134.662 190.885 143.408 182.953 145.113C182.158 145.328 181.326 145.368 180.514 145.234C181.874 146.627 194.444 155.285 194.535 160.229C194.571 161.114 194.778 161.984 195.145 162.79L197.706 162.668C200.912 156.039 213.13 172.902 231.599 186.564C233.671 188.149 235.866 189.49 237.816 191.201C240.626 193.539 240.254 194.063 240.865 196.81C243.086 196.173 245.022 194.796 246.351 192.908C250.728 186.827 242.815 180.219 239.158 176.319Z" fill="#5DBFEC"/>
<path d="M191.975 134.012C190.902 140.509 186.864 144.254 182.831 145.228C182.831 145.228 125.119 94.1439 121.872 90.7312C121.393 90.2268 124.129 89.6634 127.114 88.2921C133.346 85.4329 132.012 83.4406 133.698 79.3928C134.186 78.4178 134.551 77.808 135.039 78.6608C136.503 80.1248 138.072 81.6113 139.675 82.9278C143.415 86.0202 186.976 127.306 191.975 134.012Z" fill="#5DBFEC"/>
<path d="M229.526 57.0821C238.597 52.9219 240.14 57.335 236.963 59.642C232.582 62.8243 223.448 65.3856 220.016 69.8844C217.591 73.0625 222.097 77.6892 220.992 81.3436C219.297 86.9552 208.336 89.4406 203.923 91.4596C201.74 92.46 198.92 93.9015 197.218 91.9471C195.628 90.1206 197.602 88.082 199.291 87.1912C203.732 84.8491 209.875 84.3658 213.554 80.4866C216.463 77.4208 212.828 73.9027 212.579 70.8553C212.34 67.9287 215.12 65.7074 217.091 64.2714C219.939 62.193 222.957 60.3577 226.112 58.7849C227.329 58.1794 228.435 57.5822 229.526 57.0821Z" fill="#5DBFEC"/>
<path d="M194.292 35.7459C199.872 27.4368 203.565 30.5067 201.973 34.1611C199.79 39.1643 193.362 45.9912 192.707 51.5943C192.25 55.5002 198.521 57.3337 199.412 60.9825C200.817 66.7276 192.668 74.3638 189.903 78.295C188.541 80.231 186.85 82.9455 184.416 82.1966C182.095 81.4815 182.84 78.6659 183.806 77.0754C186.392 72.8225 191.48 69.2706 192.707 64.03C193.676 59.8838 188.672 58.7964 186.855 56.228C185.137 53.7974 186.344 50.4872 187.343 48.1816C188.725 44.9483 190.4 41.8477 192.345 38.9184C192.95 37.8183 193.557 36.8404 194.292 35.7459Z" fill="#5DBFEC"/>
<path d="M107.73 57.9366C107.242 60.6187 104.682 63.0564 102.488 64.3996C101.621 64.7968 100.725 65.1229 99.8055 65.3747V64.7649C95.7971 60.7564 97.2498 62.0954 94.5621 59.1561C91.8159 56.2485 89.3276 53.1077 87.1254 49.7693C86.7461 49.168 85.1753 47.0872 85.785 46.3552C86.1503 45.9899 87.0032 46.2329 87.3699 46.3552C88.8807 46.8423 90.3486 47.4532 91.7591 48.1817C97.2456 51.1584 102.576 54.4144 107.73 57.9366Z" fill="#007BB5"/>
<path d="M240.865 197.043C232.818 198.995 223.104 188.218 217.334 183.389C215.275 181.665 206.017 173.491 203.558 171.197C200.655 168.489 196.609 166.32 195.145 162.907L197.706 162.786C200.973 156.032 214.107 174.042 231.599 186.683C241.06 193.518 240.016 192.945 240.865 197.043Z" fill="white"/>
<path d="M107.73 56.3507C107.73 64.7315 97.9579 65.3539 98.0984 65.4944C99.1929 67.3223 123.7 89.6393 123.7 89.6393C133.395 86.4078 131.966 83.7032 133.639 79.543C114.176 62.1561 107.73 56.2074 107.73 56.3507Z" fill="white"/>
<path d="M184.416 252.151C171.25 252.272 156.62 252.517 149.669 253.369C133.699 255.196 87.3701 256.661 82.8586 254.832C79.9039 253.589 38.1431 160.03 40.3096 126.45C34.2456 132.399 34.07 133.219 34.4564 139.616C35.0676 150.224 35.9204 160.832 36.651 171.438C39.2151 218.608 38.1291 220.216 40.1874 246.052C40.6089 250.311 42.5408 271.213 45.0641 273.731C47.1365 275.557 177.711 270.196 181.246 269.221C183.441 268.611 186.355 265.191 186.001 262.637C185.647 260.083 185.016 255.473 184.416 252.151Z" fill="white"/>
<path fill-rule="evenodd" clip-rule="evenodd" d="M184.291 251.46C184.673 251.391 185.038 251.644 185.107 252.026C185.679 255.196 186.279 259.525 186.64 262.135L186.696 262.54C186.911 264.091 186.141 265.776 185.137 267.085C184.128 268.4 182.734 269.537 181.435 269.898H181.433C181.259 269.946 180.967 269.985 180.628 270.023C180.267 270.062 179.792 270.106 179.213 270.152C178.056 270.245 176.465 270.352 174.507 270.47C170.591 270.707 165.189 270.99 158.802 271.294C146.027 271.907 129.307 272.611 112.633 273.228C95.9587 273.844 79.3279 274.374 66.7341 274.635C60.4383 274.766 55.1463 274.829 51.3606 274.804C49.4694 274.79 47.9449 274.755 46.8562 274.693C46.3137 274.662 45.8655 274.624 45.5289 274.576C45.3618 274.553 45.2062 274.524 45.0734 274.489C44.9766 274.464 44.7668 274.405 44.5995 274.258C44.3084 274 44.2804 273.556 44.537 273.266C44.766 273.006 45.1442 272.957 45.4298 273.131C45.4315 273.131 45.4332 273.132 45.435 273.132C45.4905 273.146 45.584 273.166 45.7249 273.186C46.0042 273.225 46.4073 273.26 46.9359 273.291C47.9893 273.35 49.4861 273.385 51.3705 273.399C55.1361 273.424 60.4129 273.361 66.7051 273.23C79.2877 272.971 95.9099 272.441 112.581 271.824C129.251 271.207 145.967 270.503 158.734 269.892C165.118 269.586 170.514 269.304 174.422 269.067C176.377 268.949 177.957 268.844 179.101 268.751C179.674 268.705 180.132 268.664 180.474 268.626C180.644 268.607 180.781 268.59 180.885 268.574C180.937 268.567 180.978 268.56 181.009 268.553C181.026 268.55 181.037 268.549 181.047 268.546L181.057 268.543H181.058C181.953 268.295 183.114 267.415 184.021 266.231C184.935 265.039 185.445 263.735 185.305 262.734L185.249 262.335C184.888 259.717 184.291 255.415 183.725 252.276C183.656 251.894 183.909 251.529 184.291 251.46ZM45.3956 273.12C45.3958 273.12 45.4001 273.121 45.4074 273.124C45.3989 273.121 45.3953 273.12 45.3956 273.12Z" fill="#007BB5"/>
<path d="M44.332 258.34C43.5382 258.34 43.2698 260.659 40.863 221.07C40.6228 217.106 39.9638 205.8 39.8557 204.935C39.8419 204.842 39.8468 204.748 39.87 204.657C39.8932 204.567 39.9343 204.481 39.991 204.407C40.0476 204.332 40.1185 204.269 40.1996 204.223C40.2808 204.176 40.3704 204.145 40.4635 204.134C40.5563 204.123 40.6506 204.13 40.7408 204.155C40.831 204.18 40.9152 204.224 40.9884 204.282C41.0616 204.341 41.1224 204.412 41.1672 204.495C41.212 204.577 41.24 204.668 41.2494 204.761C41.6175 207.701 43.836 251.869 45.019 257.493C45.0407 257.596 45.0391 257.701 45.0145 257.802C44.9899 257.905 44.9432 257.999 44.8773 258.08C44.8115 258.162 44.7283 258.227 44.6341 258.272C44.5398 258.317 44.4365 258.34 44.332 258.34Z" fill="#007BB5"/>
<path d="M178.809 262.175C175.09 262.175 49.8298 267.05 49.8298 267.05C49.8579 264.466 48.9868 257.79 47.8628 249.462C42.4479 209.323 42.6727 162.601 42.1093 155.532C42.1019 155.44 42.0764 155.35 42.0343 155.267C41.9921 155.185 41.9342 155.111 41.8637 155.052C41.7933 154.991 41.7117 154.946 41.6237 154.917C41.5356 154.889 41.4428 154.878 41.3506 154.886C41.1643 154.9 40.9915 154.989 40.8702 155.131C40.7491 155.274 40.6894 155.458 40.7043 155.645C41.6162 167.025 40.5048 195.058 45.4616 241.861C46.0236 246.992 48.4838 263.226 48.4121 267.068C46.9903 268.48 45.7594 270.074 44.7507 271.807C40.9741 260.09 39.4525 223.1 38.9424 210.82C37.4686 175.353 37.0597 171.86 34.8848 139.089C34.6333 135.295 34.5237 133.188 36.9797 130.518C37.9421 129.694 39.6787 127.862 40.5652 126.934C40.6328 126.868 40.6863 126.79 40.7229 126.703C40.7594 126.616 40.7779 126.522 40.7775 126.428C40.7771 126.334 40.7577 126.24 40.7205 126.154C40.6832 126.067 40.6289 125.989 40.5607 125.923C40.4926 125.858 40.4121 125.807 40.3238 125.774C40.2356 125.741 40.1416 125.725 40.0473 125.729C39.9531 125.733 39.8605 125.755 39.7752 125.796C39.6899 125.836 39.6136 125.893 39.5508 125.963C38.6685 126.888 36.9586 128.685 36.0046 129.51C33.0836 132.685 33.2241 135.27 33.4756 139.175C35.3723 167.781 36.3615 180.895 37.2775 204.995C37.8114 219.068 38.4099 232.968 39.5944 246.352C39.8754 249.983 42.1023 271.938 44.1789 273.981C44.7802 275.186 46.0995 274.217 45.4954 273.419C46.3993 271.532 47.6461 269.829 49.1722 268.399C51.0971 269.188 172.263 263.575 178.795 263.575C178.982 263.575 179.16 263.501 179.292 263.369C179.423 263.237 179.497 263.058 179.497 262.873C179.497 262.686 179.423 262.508 179.292 262.376C179.16 262.243 178.982 262.17 178.795 262.17L178.809 262.175Z" fill="#007BB5"/>
<path d="M50.247 271.991C50.1549 271.984 50.0649 271.957 49.9827 271.915C49.9005 271.873 49.8275 271.814 49.7678 271.744C49.7081 271.673 49.663 271.591 49.6349 271.502C49.6068 271.415 49.5964 271.322 49.6042 271.229C49.6121 271.137 49.6381 271.047 49.6805 270.965C49.7231 270.882 49.7814 270.809 49.8522 270.75C49.923 270.69 50.0048 270.645 50.093 270.617C50.1813 270.589 50.2743 270.579 50.3664 270.586C54.521 270.94 79.6228 269.968 87.3587 269.853C87.5439 269.854 87.7215 269.927 87.8545 270.055C87.9874 270.184 88.0655 270.36 88.0724 270.544C88.074 270.637 88.0573 270.728 88.0231 270.815C87.9891 270.901 87.9385 270.978 87.8742 271.045C87.8098 271.111 87.733 271.165 87.6483 271.201C87.5634 271.238 87.4722 271.256 87.3798 271.258C82.281 271.339 53.9829 272.314 50.247 271.991Z" fill="#007BB5"/>
<path d="M90.4173 271.265C90.231 271.265 90.0523 271.19 89.9207 271.058C89.7889 270.926 89.7148 270.748 89.7148 270.562C89.7148 270.376 89.7889 270.197 89.9207 270.065C90.0523 269.933 90.231 269.86 90.4173 269.86C90.5578 269.86 113.559 268.438 138.3 267.3C138.486 267.292 138.668 267.358 138.806 267.483C138.943 267.609 139.025 267.783 139.034 267.97C139.042 268.157 138.976 268.338 138.851 268.476C138.725 268.614 138.549 268.697 138.363 268.705C127.976 269.181 90.4679 271.265 90.4173 271.265Z" fill="#007BB5"/>
<path d="M152.837 173.963C138.526 171.39 90.1745 165.003 81.4354 163.97C81.2526 163.945 81.0868 163.85 80.9738 163.705C80.8609 163.559 80.8096 163.375 80.8311 163.191C80.8527 163.008 80.9453 162.841 81.0892 162.726C81.2329 162.61 81.4163 162.556 81.5998 162.575C92.6993 163.907 138.901 170.03 153.086 172.579C153.27 172.611 153.433 172.715 153.538 172.868C153.645 173.021 153.687 173.211 153.654 173.395C153.621 173.578 153.516 173.741 153.363 173.848C153.21 173.954 153.021 173.995 152.837 173.963Z" fill="#007BB5"/>
<path d="M155.767 194.821C84.5066 190.876 91.8885 191.167 88.9155 191.524C88.8238 191.535 88.7309 191.528 88.642 191.503C88.553 191.477 88.47 191.435 88.3975 191.379C88.3249 191.321 88.2643 191.251 88.2192 191.17C88.1741 191.09 88.1452 191.001 88.1343 190.91C88.1234 190.817 88.1307 190.724 88.1557 190.636C88.1807 190.547 88.2231 190.463 88.2802 190.391C88.3374 190.318 88.4082 190.258 88.4888 190.213C88.5693 190.168 88.658 190.138 88.7497 190.129C89.3862 190.054 90.891 189.88 91.1495 189.88C91.9292 189.88 148.062 193.037 155.8 193.416C155.987 193.42 156.164 193.498 156.292 193.633C156.421 193.768 156.49 193.949 156.486 194.134C156.482 194.321 156.403 194.498 156.268 194.627C156.133 194.755 155.954 194.825 155.767 194.821Z" fill="#007BB5"/>
<path d="M100.292 218.961C100.106 218.963 99.9257 218.892 99.7919 218.761C99.6582 218.632 99.5816 218.455 99.5788 218.268C99.576 218.081 99.6474 217.901 99.7771 217.768C99.9069 217.634 100.084 217.558 100.271 217.556C104.511 217.415 159.344 214.874 165.884 214.874C166.071 214.874 166.249 214.947 166.382 215.079C166.512 215.211 166.587 215.389 166.587 215.576C166.587 215.761 166.512 215.94 166.382 216.072C166.249 216.204 166.071 216.279 165.884 216.279C157 216.279 127.254 218.4 100.292 218.961Z" fill="#007BB5"/>
<path d="M109.709 244.226C109.709 243.272 109.709 243.272 149.96 241.039C163.507 240.289 176.299 239.579 182.661 239.135C182.848 239.123 183.031 239.185 183.173 239.307C183.313 239.43 183.399 239.603 183.412 239.79C183.426 239.976 183.364 240.16 183.24 240.302C183.118 240.442 182.945 240.528 182.758 240.54C167.989 241.57 113.57 244.302 110.711 244.864C110.604 244.914 110.486 244.937 110.367 244.93C110.249 244.923 110.135 244.885 110.035 244.821C109.935 244.757 109.852 244.67 109.795 244.566C109.739 244.462 109.709 244.345 109.709 244.226Z" fill="#007BB5"/>
<path d="M187.028 147.283C188.7 146.312 190.237 145.128 191.601 143.758C196.853 138.832 195.305 136.095 195.546 134.4C195.559 134.309 195.59 134.221 195.638 134.142C195.684 134.062 195.747 133.993 195.82 133.938C195.895 133.882 195.978 133.842 196.068 133.819C196.158 133.796 196.25 133.791 196.342 133.805C196.433 133.818 196.52 133.849 196.6 133.896C196.679 133.943 196.749 134.005 196.804 134.079C196.86 134.153 196.899 134.237 196.922 134.326C196.946 134.415 196.95 134.508 196.937 134.6C196.746 135.92 198.297 139.403 192.582 144.767C191.119 146.238 189.464 147.507 187.664 148.539C187.497 148.624 187.305 148.638 187.128 148.58C186.949 148.521 186.802 148.396 186.717 148.229C186.633 148.063 186.619 147.869 186.677 147.692C186.736 147.514 186.861 147.368 187.028 147.283Z" fill="#007BB5"/>
<path d="M239.575 194.112C238.509 192.311 235.302 190.074 233.591 188.869C214.469 175.398 201.072 157.31 198.338 162.969C198.257 163.136 198.112 163.265 197.936 163.326C197.761 163.388 197.567 163.376 197.4 163.295C197.231 163.213 197.103 163.069 197.041 162.893C196.981 162.717 196.992 162.524 197.074 162.356C197.262 161.918 197.55 161.53 197.917 161.225C198.283 160.92 198.716 160.705 199.181 160.6C204.98 159.4 215.401 174.333 234.393 187.717C236.36 189.099 239.561 191.343 240.776 193.393C240.844 193.471 240.894 193.564 240.922 193.664C240.95 193.764 240.957 193.868 240.941 193.97C240.925 194.073 240.886 194.171 240.828 194.257C240.769 194.343 240.693 194.416 240.605 194.469C240.515 194.522 240.415 194.555 240.313 194.566C240.209 194.577 240.105 194.565 240.006 194.531C239.908 194.497 239.819 194.441 239.744 194.369C239.669 194.298 239.611 194.209 239.575 194.112Z" fill="#007BB5"/>
<path d="M123.58 90.0914C123.168 90.0914 124.893 91.5695 97.618 66.1292C97.5372 66.0543 97.4752 65.9615 97.437 65.8583C97.3988 65.755 97.3853 65.6443 97.3978 65.5348C97.4103 65.4255 97.4483 65.3206 97.5087 65.2285C97.5691 65.1365 97.6503 65.0601 97.7459 65.0052C98.0985 64.8014 107.027 63.728 107.027 56.4684C107.027 55.9429 107.394 55.461 108.42 56.2267C110.146 57.5165 115.436 62.2935 133.802 78.8683C133.873 78.9294 133.931 79.0042 133.973 79.088C134.015 79.1719 134.039 79.2632 134.045 79.3567C134.051 79.4501 134.038 79.5437 134.007 79.632C133.976 79.7206 133.928 79.8018 133.865 79.8713C133.802 79.9407 133.726 79.9971 133.642 80.0367C133.557 80.0765 133.465 80.0988 133.371 80.1024C133.278 80.1061 133.184 80.0911 133.097 80.0582C133.009 80.0253 132.929 79.9751 132.861 79.9108C131.377 78.5718 112.91 61.9408 108.33 57.9071C107.558 63.1323 102.624 65.2131 99.5485 66.0055L124.062 88.8761C124.164 88.9726 124.236 89.0978 124.267 89.2354C124.298 89.3731 124.286 89.5168 124.234 89.6479C124.182 89.7791 124.092 89.8915 123.975 89.9706C123.858 90.0497 123.721 90.0919 123.58 90.0914Z" fill="#007BB5"/>
<path d="M238.627 198.105C230.717 198.105 222.114 188.71 216.634 184.055C213.057 181.105 202.798 171.649 199.832 169.329C197.613 167.591 195.319 165.794 194.255 163.315C193.828 162.429 193.601 161.461 193.589 160.478C193.589 156.498 181.676 147.636 181.366 147.32C179.358 145.824 179.456 145.527 179.582 145.151C179.652 144.971 179.785 144.823 179.957 144.735C180.129 144.645 180.326 144.622 180.514 144.667C181.211 144.733 181.915 144.691 182.599 144.545C185.952 143.735 188.922 140.504 190.255 137.854C190.987 136.617 191.004 130.317 193.462 131.298C193.62 131.362 193.751 131.482 193.828 131.636C193.904 131.789 193.922 131.965 193.877 132.131C193.834 132.297 193.73 132.44 193.588 132.535C193.445 132.63 193.272 132.669 193.102 132.645C192.36 133.71 192.127 137.462 191.486 138.53C189.8 141.909 185.978 145.578 182.011 146.05C185.506 148.808 195 156.097 195 160.478C195 164.895 200.589 167.739 203.805 170.822C213.006 179.148 217.304 182.702 220.685 185.788C226.344 190.955 234.089 198.043 240.462 196.492C242.523 195.918 244.318 194.638 245.534 192.876C245.586 192.8 245.653 192.735 245.73 192.685C245.808 192.636 245.895 192.6 245.985 192.584C246.076 192.567 246.169 192.568 246.259 192.588C246.35 192.606 246.434 192.644 246.512 192.696C246.587 192.748 246.652 192.815 246.703 192.893C246.752 192.97 246.787 193.056 246.804 193.147C246.821 193.238 246.819 193.331 246.8 193.421C246.78 193.511 246.743 193.597 246.691 193.672C245.798 195 244.599 196.096 243.196 196.867C241.794 197.637 240.227 198.063 238.627 198.105Z" fill="#007BB5"/>
</svg>
