<?xml version="1.0" encoding="utf-8"?>
<!-- Generator: Adobe Illustrator 24.2.3, SVG Export Plug-In . SVG Version: 6.00 Build 0)  -->
<svg version="1.1" id="Layer_1" xmlns="http://www.w3.org/2000/svg" xmlns:xlink="http://www.w3.org/1999/xlink" x="0px" y="0px"
	 viewBox="0 0 24 24" style="enable-background:new 0 0 24 24;" xml:space="preserve">
<style type="text/css">
	.st0{clip-path:url(#SVGID_2_);}
	.st1{fill:none;stroke:#00A9E0;stroke-width:1.5;stroke-linecap:round;stroke-linejoin:round;}
</style>
<g>
	<defs>
		<rect id="SVGID_1_" width="24" height="24"/>
	</defs>
	<clipPath id="SVGID_2_">
		<use xlink:href="#SVGID_1_"  style="overflow:visible;"/>
	</clipPath>
	<g class="st0">
		<path class="st1" d="M19.5,1.5h-15c-1.7,0-3,1.3-3,3v15c0,1.7,1.3,3,3,3h15c1.7,0,3-1.3,3-3v-15C22.5,2.8,21.2,1.5,19.5,1.5z"/>
		<path class="st1" d="M16.5,9.7L12,14.2"/>
		<path class="st1" d="M12,9.7l4.5,4.5"/>
		<path class="st1" d="M11.1,6H18c0.4,0,0.8,0.2,1.1,0.4c0.3,0.3,0.4,0.7,0.4,1.1v9c0,0.4-0.2,0.8-0.4,1.1S18.4,18,18,18h-6.9
			c-0.4,0-0.8-0.2-1.1-0.4l-5.3-5c-0.1-0.1-0.1-0.2-0.2-0.2c0-0.1-0.1-0.2-0.1-0.3c0-0.1,0-0.2,0.1-0.3c0-0.1,0.1-0.2,0.2-0.2l5.3-5
			C10.3,6.2,10.7,6,11.1,6z"/>
	</g>
</g>
</svg>
