<svg width="65" height="70" viewBox="0 0 65 70" fill="none" xmlns="http://www.w3.org/2000/svg">
<circle cx="32.5" cy="35" r="31" stroke="#81C6ED" stroke-width="2"/>
<path d="M27.5 24H25.5C24.3954 24 23.5 24.8954 23.5 26V44C23.5 45.1046 24.3954 46 25.5 46H27.5C28.6046 46 29.5 45.1046 29.5 44V26C29.5 24.8954 28.6046 24 27.5 24Z" stroke="#81C6ED" stroke-width="2" stroke-linecap="round" stroke-linejoin="round"/>
<path d="M39.5 24H37.5C36.3954 24 35.5 24.8954 35.5 26V44C35.5 45.1046 36.3954 46 37.5 46H39.5C40.6046 46 41.5 45.1046 41.5 44V26C41.5 24.8954 40.6046 24 39.5 24Z" stroke="#81C6ED" stroke-width="2" stroke-linecap="round" stroke-linejoin="round"/>
</svg>
