<svg width="64" height="70" viewBox="0 0 64 70" fill="none" xmlns="http://www.w3.org/2000/svg">
<circle cx="32" cy="35" r="32" fill="#5B9C11"/>
<g clip-path="url(#clip0_9107_5557)">
<path d="M32.4933 49.0532L32.5066 49.0626C33.6587 49.7961 35.0266 50.1146 36.3842 49.9655C37.7418 49.8165 39.0079 49.2086 39.9733 48.2426L40.812 47.4039C40.9978 47.2182 41.1453 46.9976 41.2459 46.7549C41.3464 46.5121 41.3982 46.252 41.3982 45.9892C41.3982 45.7265 41.3464 45.4663 41.2459 45.2236C41.1453 44.9808 40.9978 44.7603 40.812 44.5746L37.2746 41.0399C37.0889 40.854 36.8684 40.7066 36.6256 40.606C36.3829 40.5054 36.1227 40.4536 35.86 40.4536C35.5972 40.4536 35.337 40.5054 35.0943 40.606C34.8516 40.7066 34.631 40.854 34.4453 41.0399C34.0703 41.4148 33.5616 41.6255 33.0313 41.6255C32.501 41.6255 31.9924 41.4148 31.6173 41.0399L25.9613 35.3826C25.5864 35.0075 25.3757 34.4989 25.3757 33.9686C25.3757 33.4382 25.5864 32.9296 25.9613 32.5546C26.1472 32.3688 26.2946 32.1483 26.3952 31.9055C26.4958 31.6628 26.5476 31.4026 26.5476 31.1399C26.5476 30.8771 26.4958 30.617 26.3952 30.3742C26.2946 30.1315 26.1472 29.911 25.9613 29.7252L22.4253 26.1906C22.0503 25.8156 21.5416 25.605 21.0113 25.605C20.481 25.605 19.9724 25.8156 19.5973 26.1906L18.7573 27.0292C17.7914 27.9948 17.1839 29.261 17.035 30.6186C16.8862 31.9762 17.2049 33.344 17.9386 34.4959L17.9466 34.5092C21.8216 40.2423 26.7595 45.1794 32.4933 49.0532Z" stroke="white" stroke-width="2" stroke-linecap="round" stroke-linejoin="round"/>
<path d="M31 30C32.5913 30 34.1174 30.6321 35.2426 31.7574C36.3679 32.8826 37 34.4087 37 36" stroke="white" stroke-width="2" stroke-linecap="round" stroke-linejoin="round"/>
<path d="M31 25C33.9174 25 36.7153 26.1589 38.7782 28.2218C40.8411 30.2847 42 33.0826 42 36" stroke="white" stroke-width="2" stroke-linecap="round" stroke-linejoin="round"/>
<path d="M31 20C35.2435 20 39.3131 21.6857 42.3137 24.6863C45.3143 27.6869 47 31.7565 47 36" stroke="white" stroke-width="2" stroke-linecap="round" stroke-linejoin="round"/>
</g>
<defs>
<clipPath id="clip0_9107_5557">
<rect width="32" height="32" fill="white" transform="translate(16 19)"/>
</clipPath>
</defs>
</svg>
