<?xml version="1.0" encoding="utf-8"?>
<!-- Generator: Adobe Illustrator 24.2.3, SVG Export Plug-In . SVG Version: 6.00 Build 0)  -->
<svg version="1.1" id="Layer_1" xmlns="http://www.w3.org/2000/svg" xmlns:xlink="http://www.w3.org/1999/xlink" x="0px" y="0px"
	 viewBox="0 0 24 24" style="enable-background:new 0 0 24 24;" xml:space="preserve">
<style type="text/css">
	.st0{fill:none;stroke:#00A9E0;stroke-width:1.5;stroke-linecap:round;stroke-linejoin:round;}
	.st1{fill:none;stroke:#00A9E0;stroke-width:1.5;}
</style>
<path class="st0" d="M15,15.8v4.8c0,0.4-0.1,0.7-0.2,1c-0.1,0.3-0.3,0.6-0.6,0.9c-0.3,0.3-0.6,0.5-0.9,0.6c-0.3,0.1-0.7,0.2-1,0.2
	H5.7c-0.4,0-0.7-0.1-1-0.2c-0.3-0.1-0.6-0.3-0.9-0.6c-0.3-0.3-0.5-0.6-0.6-0.9c-0.1-0.3-0.2-0.7-0.2-1V5c0-0.7,0.3-1.4,0.8-1.9
	C4.3,2.5,5,2.3,5.7,2.3h1.8"/>
<path class="st0" d="M3,18.8h12"/>
<path class="st0" d="M15,12.8c3.3,0,6-2.7,6-6c0-3.3-2.7-6-6-6s-6,2.7-6,6C9,10.1,11.7,12.8,15,12.8z"/>
<path class="st0" d="M15,9.8v-3"/>
<path class="st1" d="M15,4.5c-0.2,0-0.4-0.2-0.4-0.4s0.2-0.4,0.4-0.4"/>
<path class="st1" d="M15,4.5c0.2,0,0.4-0.2,0.4-0.4S15.2,3.8,15,3.8"/>
</svg>
