<svg width="64" height="70" viewBox="0 0 64 70" fill="none" xmlns="http://www.w3.org/2000/svg">
<circle cx="32" cy="35" r="32" fill="#DF1642"/>
<path d="M32.002 49.7884V31.4036M32.002 49.7884L37.6588 44.1316M32.002 49.7884L26.3451 44.1316M21.7159 21.9868L21.6999 21.9897C20.3666 22.2856 19.1741 23.0276 18.3196 24.093C17.465 25.1584 16.9995 26.4835 17 27.8492L17 29.0353C16.9999 29.298 17.0516 29.5582 17.1521 29.801C17.2526 30.0438 17.4 30.2643 17.5858 30.4501C17.7716 30.6359 17.9922 30.7833 18.2349 30.8838C18.4777 30.9843 18.7379 31.036 19.0006 31.0359L24.0013 31.034C24.2641 31.0341 24.5242 30.9824 24.767 30.8819C25.0098 30.7814 25.2304 30.634 25.4162 30.4482C25.6019 30.2625 25.7493 30.0419 25.8498 29.7991C25.9503 29.5563 26.002 29.2961 26.0019 29.0334C26.002 28.5031 26.2127 27.9945 26.5877 27.6195C26.9627 27.2445 27.4713 27.0338 28.0016 27.0337L36.0014 27.0346C36.5317 27.0347 37.0403 27.2454 37.4153 27.6204C37.7903 27.9954 38.001 28.504 38.0011 29.0343C38.001 29.2971 38.0527 29.5573 38.1532 29.8C38.2537 30.0428 38.4011 30.2634 38.5869 30.4492C38.7727 30.635 38.9932 30.7823 39.236 30.8829C39.4788 30.9834 39.739 31.0351 40.0017 31.035L45.0014 31.034C45.5318 31.034 46.0403 30.8232 46.4153 30.4482C46.7903 30.0733 47.001 29.5647 47.0011 29.0343L47.0021 27.8473C47.0023 26.4816 46.5366 25.1566 45.6818 24.0914C44.8271 23.0262 43.6346 22.2844 42.3012 21.9887L42.2861 21.985C35.4923 20.671 28.5095 20.6717 21.7159 21.9868Z" stroke="white" stroke-width="2" stroke-linecap="round" stroke-linejoin="round"/>
</svg>
