<svg width="65" height="70" viewBox="0 0 65 70" fill="none" xmlns="http://www.w3.org/2000/svg">
<circle cx="32.5" cy="35" r="31" stroke="#81C6ED" stroke-width="2"/>
<g clip-path="url(#clip0_9107_5422)">
<path d="M37.5747 20.9893C40.8943 22.1605 43.6908 24.4713 45.467 27.5105C47.2432 30.5497 47.8838 34.1204 47.275 37.5876C46.6662 41.0547 44.8473 44.1935 42.142 46.4457C39.4366 48.698 36.0201 49.9177 32.5 49.8879" stroke="#81C6ED" stroke-width="2" stroke-linecap="round" stroke-linejoin="round"/>
<path d="M38.5 24L37.5747 20.9893L40.5 20" stroke="#81C6ED" stroke-width="2" stroke-linecap="round" stroke-linejoin="round"/>
<path d="M27.4252 49.0105C24.1056 47.8392 21.3091 45.5285 19.5329 42.4893C17.7567 39.4501 17.1161 35.8794 17.7249 32.4122C18.3337 28.9451 20.1526 25.8063 22.858 23.554C25.5633 21.3018 28.9799 20.0821 32.4999 20.1119" stroke="#81C6ED" stroke-width="2" stroke-linecap="round" stroke-linejoin="round"/>
<path d="M26.5 46L27.4253 49.0107L24.5 50" stroke="#81C6ED" stroke-width="2" stroke-linecap="round" stroke-linejoin="round"/>
<path d="M27.868 29L29.9667 27H35L37.0987 29H39.192C39.7981 29.0267 40.3719 29.2804 40.7995 29.7107C41.2271 30.141 41.4772 30.7165 41.5 31.3227V38.9227C41.4669 39.5033 41.2058 40.0473 40.7736 40.4364C40.3413 40.8254 39.7729 41.028 39.192 41H25.808C25.228 41.0281 24.6603 40.8262 24.2282 40.4383C23.7961 40.0504 23.5344 39.5077 23.5 38.928V31.328C23.5215 30.7209 23.771 30.1441 24.1988 29.7127C24.6265 29.2812 25.2011 29.0268 25.808 29H27.868Z" stroke="#81C6ED" stroke-width="2" stroke-linecap="round" stroke-linejoin="round"/>
<path d="M29.5 35C29.5 35.7956 29.8161 36.5587 30.3787 37.1213C30.9413 37.6839 31.7044 38 32.5 38C33.2956 38 34.0587 37.6839 34.6213 37.1213C35.1839 36.5587 35.5 35.7956 35.5 35C35.5 34.2044 35.1839 33.4413 34.6213 32.8787C34.0587 32.3161 33.2956 32 32.5 32C31.7044 32 30.9413 32.3161 30.3787 32.8787C29.8161 33.4413 29.5 34.2044 29.5 35Z" stroke="#81C6ED" stroke-width="2" stroke-linecap="round" stroke-linejoin="round"/>
</g>
<defs>
<clipPath id="clip0_9107_5422">
<rect width="32" height="32" fill="white" transform="translate(16.5 19)"/>
</clipPath>
</defs>
</svg>
