<?xml version="1.0" encoding="utf-8"?>
<!-- Generator: Adobe Illustrator 24.2.3, SVG Export Plug-In . SVG Version: 6.00 Build 0)  -->
<svg version="1.1" id="Layer_1" xmlns="http://www.w3.org/2000/svg" xmlns:xlink="http://www.w3.org/1999/xlink" x="0px" y="0px"
	 viewBox="0 0 24 24" style="enable-background:new 0 0 24 24;" xml:space="preserve">
<style type="text/css">
	.st0{fill:#00A9E0;}
</style>
<path class="st0" d="M16.2,9.4c-0.1-0.1-0.2-0.2-0.3-0.3C15.7,9,15.6,9,15.4,9H7.3C7.2,9,7,9,6.9,9.1C6.8,9.2,6.7,9.3,6.6,9.4
	C6.5,9.5,6.5,9.7,6.5,9.8c0,0.1,0,0.3,0.1,0.4l4.1,6.7c0.1,0.1,0.2,0.2,0.3,0.3c0.1,0.1,0.3,0.1,0.4,0.1s0.3,0,0.4-0.1
	c0.1-0.1,0.2-0.2,0.3-0.3l4.1-6.7c0.1-0.1,0.1-0.3,0.1-0.4C16.3,9.7,16.2,9.5,16.2,9.4z"/>
</svg>
