<?xml version="1.0" encoding="utf-8"?>
<!-- Generator: Adobe Illustrator 24.2.3, SVG Export Plug-In . SVG Version: 6.00 Build 0)  -->
<svg version="1.1" id="Layer_1" xmlns="http://www.w3.org/2000/svg" xmlns:xlink="http://www.w3.org/1999/xlink" x="0px" y="0px"
	 viewBox="0 0 24 24" style="enable-background:new 0 0 24 24;" xml:space="preserve">
<style type="text/css">
	.st0{clip-path:url(#SVGID_2_);}
	.st1{fill:none;stroke:#616161;stroke-width:1.5;stroke-linecap:round;stroke-linejoin:round;}
</style>
<g>
	<defs>
		<rect id="SVGID_1_" width="24" height="24"/>
	</defs>
	<clipPath id="SVGID_2_">
		<use xlink:href="#SVGID_1_"  style="overflow:visible;"/>
	</clipPath>
	<g class="st0">
		<path class="st1" d="M0.7,12c0,3,1.2,5.8,3.3,8c2.1,2.1,5,3.3,8,3.3c3,0,5.8-1.2,8-3.3c2.1-2.1,3.3-5,3.3-8c0-3-1.2-5.8-3.3-8
			c-2.1-2.1-5-3.3-8-3.3C9,0.8,6.2,1.9,4,4C1.9,6.2,0.7,9,0.7,12z"/>
		<path class="st1" d="M7.5,16.5l9-9"/>
		<path class="st1" d="M16.5,16.5l-9-9"/>
	</g>
</g>
</svg>
