<?xml version="1.0" encoding="utf-8"?>
<!-- Generator: Adobe Illustrator 24.2.3, SVG Export Plug-In . SVG Version: 6.00 Build 0)  -->
<svg version="1.1" id="Layer_1" xmlns="http://www.w3.org/2000/svg" xmlns:xlink="http://www.w3.org/1999/xlink" x="0px" y="0px"
	 viewBox="0 0 24 24" style="enable-background:new 0 0 24 24;" xml:space="preserve">
<style type="text/css">
	.st0{fill:none;stroke:#323232;stroke-width:1.5;stroke-linejoin:round;}
</style>
<path class="st0" d="M18.2,2.6c-0.4-0.4-1-0.4-1.4,0l-4.2,4.2L8.3,2.6c-0.4-0.4-1-0.4-1.4,0L2.6,6.8c-0.4,0.4-0.4,1,0,1.4l4.2,4.2
	l-4.2,4.2c-0.4,0.4-0.4,1,0,1.4l4.2,4.2c0.4,0.4,1,0.4,1.4,0l4.2-4.2l4.2,4.2c0.4,0.4,1,0.4,1.4,0l4.2-4.2c0.4-0.4,0.4-1,0-1.4
	L18,12.4l4.2-4.2c0.4-0.4,0.4-1,0-1.4L18.2,2.6z"/>
</svg>
