<?xml version="1.0" encoding="utf-8"?>
<!-- Generator: Adobe Illustrator 24.2.3, SVG Export Plug-In . SVG Version: 6.00 Build 0)  -->
<svg version="1.1" id="Layer_1" xmlns="http://www.w3.org/2000/svg" xmlns:xlink="http://www.w3.org/1999/xlink" x="0px" y="0px"
	 viewBox="0 0 72 73" style="enable-background:new 0 0 72 73;" xml:space="preserve">
<style type="text/css">
	.st0{fill:#00A9E0;}
	.st1{clip-path:url(#SVGID_2_);}
	.st2{fill:none;stroke:#FFFFFF;stroke-width:2;stroke-linecap:round;stroke-linejoin:round;}
</style>
<g>
	<circle class="st0" cx="36" cy="35" r="32"/>
	<g>
		<defs>
			<rect id="SVGID_1_" x="20" y="19" width="32" height="32"/>
		</defs>
		<clipPath id="SVGID_2_">
			<use xlink:href="#SVGID_1_"  style="overflow:visible;"/>
		</clipPath>
		<g class="st1">
			<path class="st2" d="M44,29.8l-4.2-4.2L31.3,34l4.2,4.2L44,29.8z M44,29.8l5-5 M49,24.8l1.4,1.4c0.4,0.4,0.6,0.9,0.6,1.4
				s-0.2,1-0.6,1.4L44,35.4 M49,24.8c0.4-0.4,0.6-0.9,0.6-1.4c0-0.5-0.2-1-0.6-1.4l-1.4-1.4c-0.4-0.4-0.9-0.6-1.4-0.6
				c-0.5,0-1,0.2-1.4,0.6l-5,4.9"/>
			<path class="st2" d="M25,44h-1c-0.8,0-1.6,0.3-2.1,0.9C21.3,45.4,21,46.2,21,47c0,0.8,0.3,1.6,0.9,2.1c0.6,0.6,1.3,0.9,2.1,0.9
				h21 M33.4,40.4c-1.2,1.2-5.7,1.4-5.7,1.4s0.2-4.5,1.4-5.7c0.6-0.6,1.3-0.9,2.1-0.9c0.8,0,1.6,0.3,2.1,0.9
				c0.6,0.6,0.9,1.3,0.9,2.1C34.3,39.1,34,39.8,33.4,40.4z"/>
		</g>
	</g>
</g>
</svg>
