<?xml version="1.0" encoding="utf-8"?>
<!-- Generator: Adobe Illustrator 24.2.3, SVG Export Plug-In . SVG Version: 6.00 Build 0)  -->
<svg version="1.1" id="Layer_1" xmlns="http://www.w3.org/2000/svg" xmlns:xlink="http://www.w3.org/1999/xlink" x="0px" y="0px"
	 viewBox="0 0 24 24" style="enable-background:new 0 0 24 24;" xml:space="preserve">
<style type="text/css">
	.st0{fill-rule:evenodd;clip-rule:evenodd;fill:#5DBFEC;}
	.st1{fill:none;stroke:#FFFFFF;stroke-width:2;stroke-linecap:round;stroke-linejoin:round;}
	.st2{fill:#007BB5;stroke:#FFFFFF;stroke-width:2;stroke-linecap:round;stroke-linejoin:round;}
</style>
<path class="st0" d="M10,19.3l9-8.5c1.5-1.4,1.4-3.9-0.3-5.5c-1.6-1.6-4-1.7-5.4-0.2l-8.8,9c0,0,1.9,0.8,3.3,2.1
	C9.2,17.4,10,19.3,10,19.3z"/>
<path class="st1" d="M10,19.3l9-8.5c1.5-1.4,1.4-3.9-0.3-5.5c-1.6-1.6-4-1.7-5.4-0.2l-8.8,9c0,0,1.9,0.8,3.3,2.1
	C9.2,17.4,10,19.3,10,19.3z"/>
<path class="st2" d="M4.2,20.9l5.9-1.5c0,0-0.8-1.9-2.1-3.3C6.5,14.7,4.6,14,4.6,14L3,19.7C2.9,20.4,3.5,21,4.2,20.9z"/>
</svg>
