<svg width="24" height="24" viewBox="0 0 24 24" fill="none" xmlns="http://www.w3.org/2000/svg">
<g clip-path="url(#clip0_6667_5921)">
<path d="M19.8763 10.2661L13.8065 4.19629C12.6083 5.31284 11.3978 6.46302 10.1992 7.6616C8.2856 9.57525 6.49532 11.5193 4.76833 13.3947C4.64645 13.5271 4.52489 13.6591 4.40362 13.7907C3.36335 14.9199 3.09226 16.6567 3.88421 17.972C4.15767 18.4261 4.46456 18.8588 4.83917 19.2334C5.21375 19.608 5.64639 19.9148 6.10059 20.1883C7.41589 20.9803 9.15269 20.7092 10.2819 19.669C10.4135 19.5476 10.5455 19.4261 10.6779 19.3042C12.5532 17.5772 14.4973 15.7869 16.4109 13.8733C17.6095 12.6747 18.7598 11.4642 19.8763 10.2661Z" fill="#D6F2FF"/>
<path d="M19.8763 10.2661L13.8065 4.19629C12.6083 5.31285 11.3978 6.46304 10.1992 7.66161C8.2856 9.57525 6.49534 11.5193 4.76835 13.3947C4.64646 13.5271 4.5249 13.6591 4.40362 13.7907C3.36335 14.9199 3.09226 16.6567 3.88421 17.972C4.15767 18.4261 4.46456 18.8588 4.83917 19.2334C5.21375 19.608 5.64639 19.9148 6.10059 20.1884C7.41589 20.9803 9.15268 20.7092 10.2819 19.669C10.4135 19.5476 10.5455 19.4261 10.6779 19.3042C12.5532 17.5772 14.4973 15.7869 16.4109 13.8733C17.6095 12.6747 18.7598 11.4642 19.8763 10.2661Z" stroke="#007BB5" stroke-width="2" stroke-linejoin="round"/>
<path d="M4.40458 19.3848L1.44987 22.3395" stroke="#007BB5" stroke-width="2" stroke-linecap="round" stroke-linejoin="round"/>
<path d="M4.82132 5.87684L7.9041 2.98683C9.25412 1.72123 11.3649 1.75529 12.6734 3.06377L13.8584 4.24882" stroke="#007BB5" stroke-width="2" stroke-linecap="round" stroke-linejoin="round"/>
<path d="M19.9025 10.2928L13.78 4.17038C14.2771 3.70687 14.7734 3.25123 15.2662 2.80173C17.0441 1.18002 19.799 0.870671 21.5006 2.57227C23.2022 4.27387 22.8927 7.0287 21.271 8.8066C20.8215 9.29941 20.3659 9.79569 19.9025 10.2928Z" stroke="#007BB5" stroke-width="2" stroke-linejoin="round"/>
</g>
<defs>
<clipPath id="clip0_6667_5921">
<rect width="24" height="24" fill="white"/>
</clipPath>
</defs>
</svg>
