<?xml version="1.0" encoding="utf-8"?>
<!-- Generator: Adobe Illustrator 24.2.3, SVG Export Plug-In . SVG Version: 6.00 Build 0)  -->
<svg version="1.1" id="Layer_1" xmlns="http://www.w3.org/2000/svg" xmlns:xlink="http://www.w3.org/1999/xlink" x="0px" y="0px"
	 viewBox="0 0 24 24" style="enable-background:new 0 0 24 24;" xml:space="preserve">
<style type="text/css">
	.st0{clip-path:url(#SVGID_2_);}
	.st1{fill:none;stroke:#FFFFFF;stroke-width:1.5;stroke-linecap:round;stroke-linejoin:round;}
</style>
<g>
	<defs>
		<rect id="SVGID_1_" width="24" height="24"/>
	</defs>
	<clipPath id="SVGID_2_">
		<use xlink:href="#SVGID_1_"  style="overflow:visible;"/>
	</clipPath>
	<g class="st0">
		<path class="st1" d="M1,5h22"/>
		<path class="st1" d="M14.3,1H9.8C9.4,1,9,1.2,8.7,1.4C8.4,1.7,8.3,2.1,8.3,2.5V5h7.5V2.5c0-0.4-0.2-0.8-0.4-1.1
			C15,1.2,14.6,1,14.3,1z"/>
		<path class="st1" d="M9.8,17.8v-7.5"/>
		<path class="st1" d="M14.3,17.8v-7.5"/>
		<path class="st1" d="M18.9,21.6c0,0.4-0.2,0.7-0.5,1c-0.3,0.3-0.6,0.4-1,0.4H6.6c-0.4,0-0.7-0.1-1-0.4c-0.3-0.3-0.4-0.6-0.5-1
			L3.8,5h16.5L18.9,21.6z"/>
	</g>
</g>
</svg>
