<svg width="64" height="70" viewBox="0 0 64 70" fill="none" xmlns="http://www.w3.org/2000/svg">
<circle cx="32" cy="35" r="31" stroke="#81C6ED" stroke-width="2"/>
<g clip-path="url(#clip0_9107_15468)">
<path d="M17 23C17 23.394 17.0776 23.7841 17.2284 24.1481C17.3791 24.512 17.6001 24.8427 17.8787 25.1213C18.1573 25.3999 18.488 25.6209 18.8519 25.7716C19.2159 25.9224 19.606 26 20 26C20.394 26 20.7841 25.9224 21.1481 25.7716C21.512 25.6209 21.8427 25.3999 22.1213 25.1213C22.3999 24.8427 22.6209 24.512 22.7716 24.1481C22.9224 23.7841 23 23.394 23 23C23 22.606 22.9224 22.2159 22.7716 21.8519C22.6209 21.488 22.3999 21.1573 22.1213 20.8787C21.8427 20.6001 21.512 20.3791 21.1481 20.2284C20.7841 20.0776 20.394 20 20 20C19.606 20 19.2159 20.0776 18.8519 20.2284C18.488 20.3791 18.1573 20.6001 17.8787 20.8787C17.6001 21.1573 17.3791 21.488 17.2284 21.8519C17.0776 22.2159 17 22.606 17 23Z" stroke="#81C6ED" stroke-width="2" stroke-linecap="round" stroke-linejoin="round"/>
<path d="M29 23C29 23.7956 29.3161 24.5587 29.8787 25.1213C30.4413 25.6839 31.2044 26 32 26C32.7956 26 33.5587 25.6839 34.1213 25.1213C34.6839 24.5587 35 23.7956 35 23C35 22.2044 34.6839 21.4413 34.1213 20.8787C33.5587 20.3161 32.7956 20 32 20C31.2044 20 30.4413 20.3161 29.8787 20.8787C29.3161 21.4413 29 22.2044 29 23Z" stroke="#81C6ED" stroke-width="2" stroke-linecap="round" stroke-linejoin="round"/>
<path d="M41 23C41 23.7956 41.3161 24.5587 41.8787 25.1213C42.4413 25.6839 43.2044 26 44 26C44.7956 26 45.5587 25.6839 46.1213 25.1213C46.6839 24.5587 47 23.7956 47 23C47 22.2044 46.6839 21.4413 46.1213 20.8787C45.5587 20.3161 44.7956 20 44 20C43.2044 20 42.4413 20.3161 41.8787 20.8787C41.3161 21.4413 41 22.2044 41 23Z" stroke="#81C6ED" stroke-width="2" stroke-linecap="round" stroke-linejoin="round"/>
<path d="M17 35C17 35.394 17.0776 35.7841 17.2284 36.1481C17.3791 36.512 17.6001 36.8427 17.8787 37.1213C18.1573 37.3999 18.488 37.6209 18.8519 37.7716C19.2159 37.9224 19.606 38 20 38C20.394 38 20.7841 37.9224 21.1481 37.7716C21.512 37.6209 21.8427 37.3999 22.1213 37.1213C22.3999 36.8427 22.6209 36.512 22.7716 36.1481C22.9224 35.7841 23 35.394 23 35C23 34.606 22.9224 34.2159 22.7716 33.8519C22.6209 33.488 22.3999 33.1573 22.1213 32.8787C21.8427 32.6001 21.512 32.3791 21.1481 32.2284C20.7841 32.0776 20.394 32 20 32C19.606 32 19.2159 32.0776 18.8519 32.2284C18.488 32.3791 18.1573 32.6001 17.8787 32.8787C17.6001 33.1573 17.3791 33.488 17.2284 33.8519C17.0776 34.2159 17 34.606 17 35Z" stroke="#81C6ED" stroke-width="2" stroke-linecap="round" stroke-linejoin="round"/>
<path d="M29 35C29 35.7956 29.3161 36.5587 29.8787 37.1213C30.4413 37.6839 31.2044 38 32 38C32.7956 38 33.5587 37.6839 34.1213 37.1213C34.6839 36.5587 35 35.7956 35 35C35 34.2044 34.6839 33.4413 34.1213 32.8787C33.5587 32.3161 32.7956 32 32 32C31.2044 32 30.4413 32.3161 29.8787 32.8787C29.3161 33.4413 29 34.2044 29 35Z" stroke="#81C6ED" stroke-width="2" stroke-linecap="round" stroke-linejoin="round"/>
<path d="M41 35C41 35.7956 41.3161 36.5587 41.8787 37.1213C42.4413 37.6839 43.2044 38 44 38C44.7956 38 45.5587 37.6839 46.1213 37.1213C46.6839 36.5587 47 35.7956 47 35C47 34.2044 46.6839 33.4413 46.1213 32.8787C45.5587 32.3161 44.7956 32 44 32C43.2044 32 42.4413 32.3161 41.8787 32.8787C41.3161 33.4413 41 34.2044 41 35Z" stroke="#81C6ED" stroke-width="2" stroke-linecap="round" stroke-linejoin="round"/>
<path d="M29 47C29 47.7956 29.3161 48.5587 29.8787 49.1213C30.4413 49.6839 31.2044 50 32 50C32.7956 50 33.5587 49.6839 34.1213 49.1213C34.6839 48.5587 35 47.7956 35 47C35 46.2044 34.6839 45.4413 34.1213 44.8787C33.5587 44.3161 32.7956 44 32 44C31.2044 44 30.4413 44.3161 29.8787 44.8787C29.3161 45.4413 29 46.2044 29 47Z" stroke="#81C6ED" stroke-width="2" stroke-linecap="round" stroke-linejoin="round"/>
</g>
<defs>
<clipPath id="clip0_9107_15468">
<rect width="32" height="32" fill="white" transform="translate(16 19)"/>
</clipPath>
</defs>
</svg>
