<svg width="73" height="72" viewBox="0 0 73 72" fill="none" xmlns="http://www.w3.org/2000/svg">
<circle cx="64" cy="57.5" r="1.5" fill="#95D120"/>
<path d="M61.2454 60.7454C61.6378 61.1378 61.6386 61.7751 61.2355 62.1564C54.9705 68.0813 46.7762 71.5688 38.14 71.9626C29.1688 72.3717 20.3686 69.413 13.4667 63.6671C6.56489 57.9212 2.05986 49.8032 0.83591 40.9064C-0.388039 32.0096 1.75748 22.9766 6.85133 15.5805C11.9452 8.18433 19.6195 2.95912 28.3679 0.930502C37.1164 -1.09812 46.3072 0.216342 54.1362 4.61588C61.9653 9.01541 67.8673 16.1823 70.6838 24.7098C73.3951 32.9188 73.0585 41.818 69.7567 49.7838C69.5442 50.2964 68.9485 50.5228 68.442 50.2961C67.9355 50.0694 67.7102 49.4755 67.9219 48.9625C71.0193 41.4547 71.3298 33.073 68.7757 25.34C66.1165 17.2885 60.5439 10.5216 53.1518 6.36765C45.7597 2.21368 37.082 0.972592 28.8219 2.88798C20.5617 4.80337 13.3158 9.73692 8.50624 16.7202C3.69671 23.7036 1.67095 32.2324 2.82658 40.6325C3.98221 49.0327 8.23578 56.6976 14.7524 62.1228C21.269 67.548 29.578 70.3416 38.0485 69.9553C46.1839 69.5843 53.904 66.3057 59.814 60.7349C60.2178 60.3543 60.853 60.353 61.2454 60.7454Z" fill="#95D120"/>
<path d="M32.0122 31C34.9117 31 37.2622 28.6495 37.2622 25.75C37.2622 22.8505 34.9117 20.5 32.0122 20.5C29.1127 20.5 26.7622 22.8505 26.7622 25.75C26.7622 28.6495 29.1127 31 32.0122 31Z" stroke="#95D120" stroke-width="2" stroke-linecap="round" stroke-linejoin="round"/>
<path d="M32.5122 41.5H23.0122C23.0124 39.7035 23.5502 37.9482 24.5565 36.4599C25.5628 34.9716 26.9914 33.8186 28.6585 33.1492C30.3257 32.4797 32.155 32.3245 33.9111 32.7036C35.6672 33.0826 37.2696 33.9785 38.5122 35.276" stroke="#95D120" stroke-width="2" stroke-linecap="round" stroke-linejoin="round"/>
<path d="M27.4802 49.5H20.0122C18.4209 49.5 16.8948 48.8679 15.7696 47.7426C14.6443 46.6174 14.0122 45.0913 14.0122 43.5V19.5C14.0122 17.9087 14.6443 16.3826 15.7696 15.2574C16.8948 14.1321 18.4209 13.5 20.0122 13.5H44.0122C45.6035 13.5 47.1296 14.1321 48.2548 15.2574C49.3801 16.3826 50.0122 17.9087 50.0122 19.5V28.5" stroke="#95D120" stroke-width="2" stroke-linecap="round" stroke-linejoin="round"/>
<path d="M39.936 50.4542L47.58 42.8102C48.1173 42.2946 48.8352 42.0101 49.5799 42.0178C50.3245 42.0254 51.0364 42.3246 51.563 42.8512C52.0896 43.3778 52.3888 44.0897 52.3964 44.8343C52.4041 45.579 52.1196 46.2969 51.604 46.8342L42.724 55.7122C41.6517 56.7533 40.2129 57.3307 38.7184 57.3197C37.2238 57.3087 35.7937 56.7101 34.7369 55.6533C33.6801 54.5965 33.0815 53.1663 33.0705 51.6718C33.0594 50.1773 33.6369 48.7385 34.678 47.6662L44.42 37.9262C46.0211 36.3259 48.1923 35.4272 50.4561 35.4277C52.7198 35.4283 54.8907 36.3281 56.491 37.9292C58.0913 39.5303 58.99 41.7016 58.9895 43.9653C58.9889 46.2291 58.0891 48.3999 56.488 50.0002L47.982 58.5002" stroke="#95D120" stroke-width="2" stroke-linecap="round" stroke-linejoin="round"/>
</svg>
