<?xml version="1.0" encoding="utf-8"?>
<!-- Generator: Adobe Illustrator 24.2.3, SVG Export Plug-In . SVG Version: 6.00 Build 0)  -->
<svg version="1.1" id="Layer_1" xmlns="http://www.w3.org/2000/svg" xmlns:xlink="http://www.w3.org/1999/xlink" x="0px" y="0px"
	 viewBox="0 0 17 16" style="enable-background:new 0 0 17 16;" xml:space="preserve">
<style type="text/css">
	.st0{fill:#00A9E0;}
</style>
<path class="st0" d="M13.2,4.4c-0.1-0.1-0.2-0.2-0.3-0.3C12.7,4,12.6,4,12.4,4H4.3C4.2,4,4,4,3.9,4.1C3.8,4.2,3.7,4.3,3.6,4.4
	C3.5,4.5,3.5,4.7,3.5,4.8c0,0.1,0,0.3,0.1,0.4l4.1,6.7c0.1,0.1,0.2,0.2,0.3,0.3c0.1,0.1,0.3,0.1,0.4,0.1s0.3,0,0.4-0.1
	c0.1-0.1,0.2-0.2,0.3-0.3l4.1-6.7c0.1-0.1,0.1-0.3,0.1-0.4C13.3,4.7,13.2,4.5,13.2,4.4z"/>
</svg>
