<svg width="44" height="44" viewBox="0 0 44 44" fill="none" xmlns="http://www.w3.org/2000/svg">
<circle cx="22" cy="22" r="21" fill="#007BB5" stroke="#F5F5F5" stroke-width="2"/>
<path fill-rule="evenodd" clip-rule="evenodd" d="M20.0309 29.3314L29.047 20.7952C30.5456 19.3764 30.4297 16.8646 28.7912 15.254C27.1914 13.6813 24.7516 13.5733 23.3414 15.0126L14.5713 23.9643C14.5713 23.9643 16.5141 24.7372 17.8794 26.0794C19.2447 27.4216 20.0309 29.3314 20.0309 29.3314Z" fill="white" fill-opacity="0.05"/>
<path fill-rule="evenodd" clip-rule="evenodd" d="M20.0309 29.3314L29.047 20.7952C30.5456 19.3764 30.4297 16.8646 28.7912 15.254C27.1914 13.6813 24.7516 13.5733 23.3414 15.0126L14.5713 23.9643C14.5713 23.9643 16.5141 24.7372 17.8794 26.0794C19.2447 27.4216 20.0309 29.3314 20.0309 29.3314Z" stroke="white" stroke-width="2" stroke-linecap="round" stroke-linejoin="round"/>
<path d="M14.1531 30.8506L20.026 29.3389C20.026 29.3389 19.2415 27.4283 17.8774 26.0849C16.5133 24.7415 14.5713 23.9668 14.5713 23.9668L13.0285 29.716C12.855 30.3628 13.5041 31.0175 14.1531 30.8506Z" stroke="white" stroke-width="2" stroke-linecap="round" stroke-linejoin="round"/>
</svg>
