<svg width="25" height="24" viewBox="0 0 25 24" fill="none" xmlns="http://www.w3.org/2000/svg">
<path fill-rule="evenodd" clip-rule="evenodd" d="M10.5311 19.3314L19.5471 10.7952C21.0457 9.37635 20.9298 6.86463 19.2913 5.25402C17.6916 3.68133 15.2517 3.57326 13.8415 5.01262L5.07141 13.9643C5.07141 13.9643 7.01419 14.7372 8.3795 16.0794C9.74481 17.4216 10.5311 19.3314 10.5311 19.3314Z" fill="white" fill-opacity="0.05"/>
<path fill-rule="evenodd" clip-rule="evenodd" d="M10.5311 19.3314L19.5471 10.7952C21.0457 9.37635 20.9298 6.86463 19.2913 5.25402C17.6916 3.68133 15.2517 3.57326 13.8415 5.01262L5.07141 13.9643C5.07141 13.9643 7.01419 14.7372 8.3795 16.0794C9.74481 17.4216 10.5311 19.3314 10.5311 19.3314Z" stroke="white" stroke-width="2" stroke-linecap="round" stroke-linejoin="round"/>
<path d="M4.65316 20.8503L10.526 19.3386C10.526 19.3386 9.74153 17.4281 8.37746 16.0846C7.01338 14.7412 5.07132 13.9666 5.07132 13.9666L3.52857 19.7158C3.35503 20.3626 4.00414 21.0173 4.65316 20.8503Z" stroke="white" stroke-width="2" stroke-linecap="round" stroke-linejoin="round"/>
</svg>
