<?xml version="1.0" encoding="utf-8"?>
<!-- Generator: Adobe Illustrator 24.2.3, SVG Export Plug-In . SVG Version: 6.00 Build 0)  -->
<svg version="1.1" id="Layer_1" xmlns="http://www.w3.org/2000/svg" xmlns:xlink="http://www.w3.org/1999/xlink" x="0px" y="0px"
	 viewBox="0 0 25 24" style="enable-background:new 0 0 25 24;" xml:space="preserve">
<style type="text/css">
	.st0{clip-path:url(#SVGID_2_);}
	.st1{fill:none;stroke:#00A9E0;stroke-width:1.5;stroke-linecap:round;stroke-linejoin:round;}
</style>
<g>
	<defs>
		<rect id="SVGID_1_" x="0.5" width="24" height="24"/>
	</defs>
	<clipPath id="SVGID_2_">
		<use xlink:href="#SVGID_1_"  style="overflow:visible;"/>
	</clipPath>
	<g class="st0">
		<path class="st1" d="M18.5,8.1l-3.2-3.2L9,11.3l3.2,3.2L18.5,8.1z M18.5,8.1l3.7-3.7 M22.2,4.4l1.1,1.1c0.3,0.3,0.4,0.7,0.4,1.1
			s-0.2,0.8-0.4,1.1l-4.8,4.8 M22.2,4.4c0.3-0.3,0.4-0.7,0.4-1.1s-0.2-0.8-0.4-1.1l-1.1-1.1c-0.3-0.3-0.7-0.4-1.1-0.4
			s-0.8,0.2-1.1,0.4l-3.7,3.7"/>
		<path class="st1" d="M4.2,18.8H3.5c-0.6,0-1.2,0.2-1.6,0.7c-0.4,0.4-0.7,1-0.7,1.6c0,0.6,0.2,1.2,0.7,1.6c0.4,0.4,1,0.7,1.6,0.7
			h15.8 M10.6,16c-0.9,0.9-4.2,1.1-4.2,1.1s0.2-3.4,1.1-4.2c0.4-0.4,1-0.7,1.6-0.7s1.2,0.2,1.6,0.7c0.4,0.4,0.7,1,0.7,1.6
			C11.2,15,11,15.6,10.6,16z"/>
	</g>
</g>
</svg>
