<?xml version="1.0" encoding="utf-8"?>
<!-- Generator: Adobe Illustrator 24.2.3, SVG Export Plug-In . SVG Version: 6.00 Build 0)  -->
<svg version="1.1" id="Layer_1" xmlns="http://www.w3.org/2000/svg" xmlns:xlink="http://www.w3.org/1999/xlink" x="0px" y="0px"
	 viewBox="0 0 24 24" style="enable-background:new 0 0 24 24;" xml:space="preserve">
<style type="text/css">
	.st0{fill:none;stroke:#00A9E0;stroke-width:1.5;stroke-linecap:round;stroke-linejoin:round;}
</style>
<path class="st0" d="M20.9,3.9c-0.3-0.3-0.6-0.5-1-0.7C19.5,3.1,19.1,3,18.7,3c-0.4,0-0.8,0.1-1.2,0.2c-0.4,0.2-0.7,0.4-1,0.7
	L4.5,16L3,21.8l5.8-1.5L20.8,8.2c0.3-0.3,0.5-0.6,0.7-1c0.2-0.4,0.2-0.8,0.2-1.2c0-0.4-0.1-0.8-0.2-1.2C21.4,4.5,21.1,4.2,20.9,3.9z
	"/>
<path class="st0" d="M16.2,4.3l4.3,4.3"/>
<path class="st0" d="M4.5,16l4.3,4.3"/>
</svg>
