<svg width="48" height="48" viewBox="0 0 48 48" fill="none" xmlns="http://www.w3.org/2000/svg">
<g clip-path="url(#clip0_8300_7357)">
<path d="M46.3239 24.0381C46.3239 36.3429 36.3429 46.2858 24.0762 46.2858C11.7715 46.2858 1.82861 36.3048 1.82861 24.0381C1.82861 11.7715 11.8096 1.79053 24.0762 1.79053C36.3429 1.79053 46.3239 11.7715 46.3239 24.0381Z" stroke="#58595B" stroke-width="1.77905" stroke-miterlimit="10"/>
<path d="M36.6476 20.5715C35.5428 17.562 36.4571 15.0477 38.7047 13.943C38.819 13.8668 38.9714 13.943 39.0476 14.0954C39.7333 16.1144 39.619 17.562 39.0476 18.5906M36.6476 26.3239C36.838 23.0858 38.7047 21.143 41.2571 21.0668C41.3714 21.0668 41.4476 21.143 41.4476 21.2573C41.2952 23.4287 40.5714 24.7239 39.6571 25.4477M34.8952 31.543C36.2285 28.5335 38.6285 27.4287 40.9904 28.3811C41.0666 28.4192 41.0666 28.4954 41.0666 28.5335C40.1523 30.5906 39.0476 31.543 37.9428 31.8477M31.619 35.8096C34.019 33.6382 36.4952 33.6382 38.0571 35.543C38.0952 35.6192 38.0952 35.7335 38.019 35.7715C36.7618 36.9144 35.8476 37.4858 34.9333 37.562M8.60946 18.5906C8.03804 17.562 7.92375 16.1144 8.60946 14.0954C8.64756 13.943 8.79994 13.9049 8.95232 13.943C11.1999 15.0096 12.1142 17.5239 11.0095 20.5715M8.03804 25.4858C7.12375 24.762 6.39994 23.4668 6.24756 21.2954C6.24756 21.1811 6.32375 21.1049 6.43803 21.1049C8.99042 21.143 10.8571 23.0858 11.0476 26.362M9.71423 31.8858C8.60946 31.543 7.5047 30.5906 6.59042 28.5715C6.55232 28.4954 6.59042 28.4192 6.66661 28.4192C9.02851 27.4287 11.4285 28.5335 12.7618 31.5811M12.7237 37.562C11.7714 37.4858 10.8571 36.9144 9.63803 35.7715C9.56184 35.6954 9.56184 35.6192 9.59994 35.543C11.1618 33.6382 13.638 33.6382 16.038 35.8096M27.2761 38.7811C30.0952 37.2954 32.5714 38.0573 33.6761 40.4954C33.6761 40.5335 33.6761 40.5335 33.638 40.5715C29.9047 42.5525 28.1523 40.8382 27.238 38.8573C27.238 38.8192 27.238 38.7811 27.2761 38.7811ZM20.419 38.8192C19.5047 40.8001 17.7523 42.5144 14.019 40.5335C13.9809 40.5335 13.9809 40.4954 13.9809 40.4573C15.0857 38.0192 17.5618 37.2192 20.3809 38.743C20.419 38.7811 20.419 38.8192 20.419 38.8192Z" stroke="#525151" stroke-width="1.09105" stroke-miterlimit="10" stroke-linecap="round"/>
<path d="M24.5714 33.4477C28.9524 33.2953 32.3809 29.562 32.3809 25.1429V24.2286C32.3809 22.5905 30.819 21.2572 28.9905 21.2572H27.2C27.0095 21.2572 26.819 21.3715 26.7047 21.5239L24.4571 24.8382C24.3809 24.9524 24.2286 24.9524 24.1524 24.8382L21.9809 21.562C21.8667 21.3715 21.6762 21.2953 21.4476 21.2953H19.5809C17.7143 21.2953 16.2286 22.6286 16.2286 24.2667V25.3715C16.1905 29.9048 19.9619 33.6001 24.5714 33.4477Z" fill="#95C93D"/>
<path d="M28.1144 14.8953C28.1144 17.0287 26.4001 18.743 24.2668 18.743C22.1335 18.743 20.4192 17.0287 20.4192 14.8953C20.4192 12.762 22.1335 11.0477 24.2668 11.0477C26.4001 11.0477 28.1144 12.762 28.1144 14.8953Z" fill="#95C93D"/>
</g>
<defs>
<clipPath id="clip0_8300_7357">
<rect width="48" height="48" fill="white"/>
</clipPath>
</defs>
</svg>
