<svg width="281" height="281" viewBox="0 0 281 281" fill="none" xmlns="http://www.w3.org/2000/svg">
<path d="M232.528 114.252C230.292 108.944 227.014 104.139 222.888 100.121C219.564 96.9054 216.482 96.0343 212.855 94.0251C211.108 97.1457 207.245 99.6901 203.736 101.005C197.594 103.309 191.232 102.989 186.424 98.5647C185.027 97.2791 185.202 97.5615 184.878 96.0638C177.345 97.7498 171.825 96.7663 166.561 101.226C159.246 107.42 157.148 117.581 153.426 125.971C151.989 128.743 150.374 131.078 148.451 133.539C148.173 133.896 147.476 134.499 146.685 136.4C145.318 139.975 146.075 140.101 145.928 141.006C145.633 142.012 145.276 142.014 145.276 142.014C145.402 142.877 145.59 144.666 145.59 144.666C146.832 144.666 149.283 144.57 152.216 144.666C154.217 144.844 156.201 145.173 158.152 145.649C160.119 146.13 164.429 146.693 167.099 147.216L167.763 147.567C169.87 145.066 172.502 147.567 174.872 146.874C177.131 146.217 176.783 146 176.951 146.392C176.77 146.432 176.62 147.105 176.569 147.245C175.479 150.315 174.741 153.499 174.37 156.736C174.188 158.322 174.109 159.618 174.109 159.758C173.954 161.124 174.002 162.504 174.25 163.855L173.998 164.087C173.627 163.675 173.245 163.264 172.845 162.852C170.533 160.482 165.258 164.381 164.318 160.431C164.058 159.011 164.089 157.551 164.409 156.143L164.068 156.073C161.886 156.752 159.636 157.193 157.359 157.388L157.368 157.559C157.458 157.951 156.254 158.615 156.034 158.724C154.678 159.399 152.93 159.688 152.521 161.394L152.441 161.675C159.989 163.747 159.541 163.543 159.541 163.684L159.771 163.694C159.771 163.694 160.489 165.621 158.969 166.054C158.766 166.112 156.287 166.064 153.349 165.994L153.339 166.185C166.625 169.217 185.044 186.205 191.961 194.434L196.831 199.78C197.596 200.482 198.432 201.105 199.325 201.637C200.388 202.311 201.644 202.618 202.899 202.511C207.267 202.057 212.752 196.646 212.238 192.068C212.009 190.019 209.941 188.593 209.979 186.554C210.031 183.775 212.675 182.005 213.664 178.591L212.981 178.109C214.761 178.161 216.527 177.775 218.123 176.985C222.915 174.54 225.585 166.823 227.593 162.935C232.587 153.271 229.453 148.757 230.254 142.991C231.394 134.88 237.031 127.643 232.528 114.252Z" fill="#5DBFEC"/>
<path d="M206.636 86.5037L206.506 86.5233C202.68 90.0134 195.643 90.203 190.508 89.8279C190.761 91.4439 190.704 93.0933 190.338 94.6878C188.52 95.1908 186.702 95.6713 184.874 96.0633C185.2 97.5624 185.026 97.2814 186.42 98.5642C191.24 102.998 197.606 103.302 203.732 101.005C207.254 99.684 211.11 97.1353 212.851 94.0246C209.605 92.2347 207.159 90.1581 206.636 86.5037Z" fill="white"/>
<path d="M191.964 194.438C185.047 186.209 166.627 169.221 153.342 166.189L153.352 165.998C142.747 165.762 143.31 165.616 143.236 165.756C133.665 161.583 143.044 165.155 91.1861 146.485L89.3778 140.391L89.3582 140.401C69.202 139.781 64.5121 161.175 58.6997 174.453C51.7927 190.236 46.6293 196.076 40.7452 208.196C39.9022 209.932 38.167 212.515 38.3749 214.573C38.4817 215.627 39.5818 216.54 40.2619 217.254C41.5264 218.577 44.3293 221.855 46.8808 222.656C46.3697 223.571 46.1232 224.609 46.1692 225.656C46.215 226.702 46.5515 227.715 47.1407 228.581C51.256 233.986 57.837 237.522 64.3239 239.246C66.1391 239.728 69.4311 240.897 71.0918 239.929C72.2467 239.256 72.9267 237.466 73.5927 236.384C77.4086 230.187 89.1011 212.973 96.7204 198.755C99.9954 192.645 102.638 191.226 105.357 188.603C109.514 192.523 113.929 196.159 118.572 199.489C136.246 211.819 152.083 211.038 152.223 211.067C155.313 212.822 158.647 214.105 162.116 214.874C165.641 215.467 169.251 215.318 172.714 214.437C176.177 213.554 179.419 211.96 182.23 209.752C182.612 210.917 183.264 211.891 184.491 211.941C187.683 212.072 190.326 207.555 192.704 205.946C194.646 204.633 198.293 203.656 199.343 201.637C196.78 200.139 194.639 197.619 191.964 194.438Z" fill="#D6F2FF"/>
<path d="M172.844 162.856C173.245 163.268 173.627 163.68 173.998 164.091L174.249 163.86C173.73 161.02 174.237 153.731 176.569 147.25C176.62 147.109 176.77 146.436 176.951 146.397C176.783 146.005 177.13 146.221 174.872 146.879C171.831 147.764 168.932 143.778 166.442 149.961C165.224 152.573 164.447 155.369 164.142 158.237C163.713 165.605 170.213 160.157 172.844 162.856Z" fill="white"/>
<path d="M118.863 88.6418L125.16 93.1012L122.187 87.3562C132.303 82.9487 138.376 75.5275 138.376 67.5934C138.376 54.4778 122.068 43.8335 101.972 43.8335C81.8763 43.8335 65.5713 54.4778 65.5713 67.5934C65.5713 84.7822 93.5575 97.0844 118.863 88.6418Z" fill="white"/>
<path d="M225.285 89.0241C224.005 84.0968 221.342 80.5632 221.479 75.6766C221.692 68.0236 224.289 61.0955 221.026 53.6336C215.198 40.2987 197.461 31.5751 183.6 37.5252C181.362 38.4705 179.362 39.9011 177.745 41.7135C176.902 42.6633 176.34 43.8899 175.435 44.7863C173.794 46.3992 171.649 46.6128 170.353 48.813C165.886 56.4 170.494 65.3779 170.323 73.6576C170.234 77.8726 167.729 83.6205 167.683 88.7515C167.616 95.9929 172.655 97.4625 172.823 98.0512C182.799 96.0561 180.023 97.5356 190.338 94.6862C191.285 90.6314 189.978 88.4256 189.936 87.2847C185.397 87.4659 182.743 84.7866 179.803 81.6408C175.888 77.4525 174.976 74.4992 175.083 71.1174C175.348 68.2725 175.375 65.4104 175.164 62.5609C174.675 59.3037 174.698 55.9899 175.234 52.74C177.474 54.839 181.058 57.2753 183.428 56.726C185.135 56.3326 185.659 54.145 185.859 52.6697C185.926 52.1667 185.859 50.8011 186.462 50.5622C187.065 50.3234 188.321 51.5345 188.772 51.838C192.257 54.3998 196.412 55.8931 200.731 56.1359C201.334 56.1541 203.119 55.7565 203.583 56.2258C204.083 56.7302 203.347 58.8068 203.282 59.3997C203.067 61.1635 203.166 62.9515 203.573 64.6811C203.75 65.381 204.087 66.0306 204.557 66.5792C204.578 66.5792 206.045 64.0797 206.254 63.7776C207.135 62.5061 209.345 61.0969 210.513 62.5427C211.998 64.3818 211.861 68.8104 210.905 70.9572C209.654 73.7672 207.6 73.3878 207.169 74.6327C206.507 78.553 206.328 82.5397 206.636 86.5035C207.745 94.2633 217.372 94.609 222.885 100.121C224.133 98.5921 225.001 96.7895 225.418 94.8607C225.835 92.932 225.789 90.9318 225.285 89.0241Z" fill="#007BB5"/>
<path d="M133.659 144.93C136.236 143.552 139.047 142.667 141.949 142.32C142.731 142.231 144.487 142.537 145.332 142.058C146.176 141.579 145.86 140.258 145.935 139.426C146.335 135.023 151.153 131.073 153.416 125.971C157.574 116.596 160.794 101.004 172.818 98.0532L172.778 97.9127C171.129 97.0476 169.769 95.7205 168.863 94.0936C167.956 92.4668 167.545 90.6109 167.677 88.7535L166.963 88.7338C163.6 87.6885 158.206 94.0953 156.629 96.1452C152.111 102.018 150.943 109.005 147.497 115.375C146.232 117.681 144.746 119.857 143.058 121.874C141.578 122.936 134.075 121.593 130.395 125.799C130.255 125.817 130.114 124.337 132.967 145.021L133.659 144.93Z" fill="#46C2F2"/>
<path d="M151.061 156.84C149.175 157.423 147.758 158.9 146.061 159.864C146.141 160.004 145.616 159.801 152.438 161.68L152.518 161.399C152.93 159.692 154.678 159.403 156.031 158.73C156.252 158.62 157.456 157.957 157.366 157.565C157.35 157.304 157.482 157.432 156.724 157.394C154.898 157.304 152.88 156.28 151.061 156.84Z" fill="#46C2F2"/>
<path d="M159.538 163.688C159.538 163.548 160.365 163.855 146.102 159.933L146.061 159.862C145.358 160.308 143.859 161.016 143.259 160.384C143.133 160.209 143.063 160.001 143.058 159.785C143.054 159.57 143.116 159.359 143.235 159.179L141.753 158.671L141.332 158.848C140.257 159.269 139.996 158.898 140.107 158.265C139.708 158.209 134.935 156.79 134.603 156.829L128.396 111.837C128.302 111.161 127.977 110.538 127.475 110.074C126.973 109.611 126.327 109.336 125.645 109.297C117.25 108.822 89.5365 107.252 81.5688 106.837C81.3254 106.826 81.0829 106.873 80.8612 106.974C80.6397 107.075 80.4453 107.228 80.2943 107.419C80.1433 107.61 80.04 107.834 79.9929 108.073C79.9457 108.313 79.9561 108.559 80.0233 108.794L91.1846 146.485C143.391 165.28 133.721 161.609 143.234 165.756C143.304 165.616 158.315 166.241 158.96 166.058C160.48 165.626 159.763 163.698 159.763 163.698L159.538 163.688Z" fill="white"/>
<path d="M143.31 153.897C144.201 153.16 145.137 152.476 146.091 151.828C146.252 151.719 147.061 151.335 147.095 151.134C147.15 150.813 146.505 151.379 146.211 151.526C141.36 153.974 138.723 157.521 137.514 156.669C136.785 156.153 137.493 154.603 137.816 154.078C139.108 152.076 140.906 150.452 143.028 149.368C143.262 149.242 145.439 148.323 145.439 148.083C139.869 149.146 137.741 153 135.885 152.902C135.091 152.862 135.141 151.778 135.282 151.235C135.758 149.842 136.656 148.632 137.852 147.771C140.125 146.085 142.81 145.039 145.625 144.744L145.333 142.057C144.49 142.539 142.733 142.229 141.95 142.318C139.049 142.665 136.237 143.55 133.66 144.928L132.978 145.02L134.605 156.829C135.033 156.778 139.46 158.172 140.108 158.265C140.655 156.49 141.783 154.952 143.31 153.897Z" fill="#5DBFEC"/>
<path d="M109.839 58.9376C107.022 59.3326 104.172 59.447 101.333 59.2791C97.8203 59.0079 92.9478 57.6521 91.1803 57.4315C88.331 57.0746 85.2933 57.3289 85.2554 60.1923C85.1149 61.2278 85.077 62.0413 84.9533 63.1147C84.0836 70.7214 81.6305 74.4011 83.4373 77.1844C85.9158 81.0018 95.3798 78.5205 101.433 78.9013C105.573 79.1626 111.098 81.7844 114.047 77.6466C116.661 73.974 116.255 71.0671 116.878 66.8198L117.586 63.6641C117.944 62.807 117.861 61.8804 117.449 60.7827C117.038 59.6851 116.878 59.4404 116.489 59.2791C115.666 58.9376 115.254 58.7246 113.882 58.7246C112.51 58.7246 110.726 58.9376 109.839 58.9376Z" fill="#5DBFEC"/>
<path d="M210.513 62.5426C209.346 61.0968 207.141 62.506 206.254 63.7775C206.045 64.0796 204.578 66.5791 204.557 66.5791C204.088 66.0305 203.752 65.3809 203.573 64.681C203.166 62.9514 203.068 61.1634 203.282 59.3996C203.347 58.8067 204.083 56.7301 203.583 56.2257C203.12 55.7564 201.335 56.154 200.731 56.1358C196.411 55.8986 192.255 54.4048 188.772 51.8379C188.321 51.5344 187.074 50.3205 186.462 50.5621C185.849 50.8038 185.927 52.168 185.859 52.6696C185.66 54.1449 185.136 56.3325 183.428 56.7259C181.058 57.2752 177.474 54.8389 175.234 52.7399C174.699 55.9898 174.675 59.3036 175.164 62.5608C175.375 65.4103 175.348 68.2724 175.083 71.1173C174.976 74.4893 175.882 77.4468 179.804 81.6407C182.764 84.809 185.397 87.4658 189.936 87.2846C190.08 88.1419 190.271 88.9906 190.508 89.8262C194.795 90.6692 203.059 89.6661 206.506 86.5217L206.636 86.502C206.329 82.5382 206.508 78.5517 207.169 74.6312C207.6 73.3863 209.654 73.7601 210.905 70.9557C211.861 68.8103 211.998 64.3817 210.513 62.5426Z" fill="#D6F2FF"/>
<path d="M158.152 145.652C154.065 144.61 149.825 144.303 145.63 144.744C142.818 145.058 140.139 146.102 137.856 147.771C136.66 148.631 135.762 149.842 135.286 151.236C135.146 151.778 135.095 152.863 135.889 152.902C136.863 152.952 137.891 151.975 138.599 151.417C140.563 149.749 142.915 148.603 145.439 148.083C145.439 148.323 143.262 149.242 143.028 149.368C140.906 150.452 139.108 152.076 137.816 154.078C137.493 154.603 136.785 156.153 137.514 156.669C138.699 157.505 141.495 153.906 146.211 151.526C146.505 151.379 147.15 150.813 147.095 151.134C147.061 151.335 146.252 151.719 146.091 151.828C144.399 152.924 142.839 154.211 141.441 155.664C140.826 156.433 140.372 157.318 140.107 158.265C139.996 158.898 140.261 159.282 141.332 158.848C143.637 157.911 144.888 156.42 146.811 155.071C147.161 154.827 148.417 153.637 148.879 153.715C149.182 153.767 148.407 154.086 148.157 154.269C146.173 155.524 144.494 157.204 143.24 159.186C143.12 159.366 143.059 159.577 143.063 159.792C143.067 160.008 143.137 160.216 143.264 160.39C143.869 161.028 145.315 160.32 146.065 159.869C147.604 158.662 149.283 157.647 151.066 156.846C152.884 156.284 154.903 157.309 156.731 157.398C159.227 157.307 161.699 156.864 164.072 156.083L164.413 156.153C164.875 153.892 166.545 149.049 167.767 147.583L167.104 147.231C164.429 146.696 160.121 146.133 158.152 145.652Z" fill="#D6F2FF"/>
<path d="M60.8126 238.133C57.0164 236.783 53.5025 234.745 50.4479 232.117C49.4837 234.884 48.0288 237.453 46.1528 239.704C50.2807 241.712 54.2597 242.985 59.0788 242.119C61.5151 236.549 60.6328 238.582 60.8126 238.133Z" fill="white"/>
<path d="M47.1337 228.582C46.5447 227.715 46.2084 226.702 46.1626 225.657C46.1166 224.61 46.3629 223.572 46.8738 222.657C44.9353 221.828 43.2161 220.56 41.8523 218.952C41.8523 218.952 39.7181 223.746 38.663 226.132C38.931 227.121 39.4013 228.044 40.0439 228.842C40.6866 229.642 41.4877 230.298 42.3967 230.771C43.3059 231.246 44.3032 231.526 45.326 231.595C46.3487 231.663 47.3747 231.52 48.3392 231.173L48.8914 230.632C48.2677 229.982 47.681 229.297 47.1337 228.582Z" fill="white"/>
<path d="M55.3291 28.8708C52.9897 28.802 52.3392 33.1701 49.5545 31.5024C48.3261 30.3843 47.228 29.131 46.2809 27.7665C43.5215 24.3692 42.0406 20.9663 39.8333 19.196C38.3173 17.9821 35.1266 19.366 37.4041 22.9895C38.4691 24.6853 40.0441 26.8757 40.2759 27.227C42.8344 31.1146 46.2219 36.3595 49.6557 38.4445C53.0192 40.4817 53.1429 34.5203 56.3533 35.9745C59.3038 37.3121 61.5799 41.8643 64.2213 44.3286C65.5237 45.5468 67.0102 45.8348 67.2842 44.1277C67.5821 42.2605 66.3007 40.0139 65.0742 38.2941C62.6927 34.9517 58.4327 28.9621 55.3291 28.8708Z" fill="#46C2F2"/>
<path d="M60.4811 239.78L59.8784 239.529C59.5312 240.154 59.2193 240.797 58.9441 241.458L59.0846 242.119C54.9855 242.749 50.7921 242.079 47.0943 240.202C46.2274 239.815 45.8453 239.562 45.598 239.439L46.5323 239.318C48.3981 237.614 48.9391 235.214 50.198 232.388L50.448 232.117C49.9057 231.645 49.3831 231.153 48.8913 230.632L48.3391 231.173C47.3781 231.519 46.3561 231.663 45.3369 231.596C44.3177 231.529 43.3234 231.252 42.4162 230.783C41.509 230.313 40.7084 229.661 40.0648 228.869C39.4212 228.075 38.9481 227.158 38.6755 226.174C39.076 225.226 39.7757 223.751 40.3615 222.427C39.8202 222.028 39.1738 221.798 38.5026 221.764C37.8314 221.73 37.165 221.895 36.5863 222.236C33.9168 223.373 32.0454 225.72 30.1992 227.856C24.2715 234.691 14.0093 235.738 8.73774 243.229C5.10019 248.401 7.35943 254.115 13.7704 254.115C12.9541 259.925 23.8092 265.39 40.3053 260.066C42.6011 259.324 45.0627 258.152 45.206 258.167C47.0325 260.581 53.969 260.525 56.9757 257.102L56.9462 257.032C58.649 256.47 59.0185 254.326 59.7772 253.025C61.5223 250.037 63.2026 242.24 60.4811 239.78Z" fill="#46C2F2"/>
<path d="M19.2487 44.5173C20.9164 45.4601 23.2347 46.5672 23.5873 46.7569C44.7213 58.1374 36.1396 46.9325 41.3015 46.466C44.4445 46.185 48.3926 48.9683 51.7449 49.8099C53.4127 50.2314 54.8219 49.7481 54.3161 48.1633C53.7541 46.4141 51.6466 45.1116 49.8468 44.2293C30.7697 34.872 38.9046 46.0361 33.4673 45.9139C32.2126 45.8844 27.3401 43.5844 26.136 42.9634C24.1294 41.7111 21.9598 40.7415 19.6884 40.0817C17.8437 39.7811 15.6926 42.5068 19.2487 44.5173Z" fill="#46C2F2"/>
<path d="M209.427 66.3158C209.386 66.2327 209.33 66.1585 209.261 66.0974C209.192 66.0363 209.11 65.9894 209.023 65.9593C208.936 65.9293 208.843 65.9167 208.752 65.9225C208.659 65.9283 208.569 65.952 208.487 65.9926C207.788 66.3116 207.18 66.7967 206.713 67.4056C206.246 68.0146 205.935 68.7287 205.809 69.4854C205.785 69.6702 205.834 69.8571 205.948 70.0049C206.062 70.1527 206.229 70.2493 206.414 70.2737C206.6 70.2978 206.787 70.2477 206.934 70.134C207.082 70.0205 207.179 69.8529 207.202 69.6681C207.252 69.3742 207.347 69.0898 207.483 68.8251C207.826 69.0724 207.926 69.2606 208.273 69.2606C208.415 69.2606 208.555 69.2174 208.672 69.1364C208.79 69.0555 208.88 68.9407 208.931 68.8075C208.981 68.6743 208.99 68.5288 208.956 68.3904C208.921 68.252 208.846 68.1272 208.739 68.0327C208.607 67.9161 208.485 67.8219 208.367 67.7348C208.593 67.5446 208.841 67.3823 209.105 67.2515C209.271 67.1694 209.398 67.0252 209.459 66.8498C209.519 66.6746 209.507 66.4825 209.427 66.3158Z" fill="#007BB5"/>
<path d="M227.779 108.958C227.759 108.867 227.721 108.781 227.668 108.705C227.614 108.629 227.547 108.565 227.468 108.515C227.389 108.465 227.302 108.432 227.211 108.416C227.12 108.4 227.026 108.403 226.936 108.424C225.751 108.701 224.608 109.135 223.537 109.714C221.08 105.79 218.007 102.288 214.438 99.339C214.368 99.2768 214.285 99.2293 214.195 99.1995C214.107 99.1697 214.012 99.1583 213.918 99.1658C213.824 99.1732 213.733 99.1995 213.649 99.2431C213.566 99.2865 213.491 99.3463 213.432 99.419C213.372 99.4916 213.327 99.5756 213.3 99.666C213.273 99.7562 213.265 99.851 213.276 99.9446C213.286 100.038 213.316 100.129 213.362 100.211C213.408 100.293 213.47 100.365 213.545 100.422C216.983 103.264 219.944 106.637 222.317 110.413C219.013 112.464 216.342 115.39 214.598 118.867C214.52 119.036 214.513 119.229 214.577 119.404C214.642 119.579 214.773 119.721 214.943 119.799C215.111 119.877 215.304 119.885 215.479 119.821C215.653 119.756 215.795 119.625 215.874 119.456C217.937 114.987 222.927 110.745 227.238 109.795C227.329 109.776 227.415 109.739 227.491 109.686C227.566 109.634 227.633 109.567 227.683 109.489C227.732 109.411 227.767 109.324 227.784 109.233C227.8 109.142 227.798 109.048 227.779 108.958Z" fill="#007BB5"/>
<path d="M223.099 99.3524C221.015 97.4852 218.639 95.973 216.065 94.8761C212.019 92.8965 207.974 90.8901 207.336 86.4461C207.034 82.5807 207.201 78.6929 207.832 74.8675C208.088 74.1327 210.255 74.1271 211.547 71.2454C212.963 68.0547 212.654 61.1013 209.137 61.2334C208.442 61.3264 207.774 61.5657 207.179 61.9355C206.583 62.3053 206.071 62.7972 205.679 63.3788C205.507 63.6247 204.638 65.0957 204.555 65.2376C203.899 63.3926 203.704 61.4151 203.986 59.4771C204.048 58.8505 204.95 56.6011 204.09 55.7426C203.32 54.9558 201.421 55.4616 200.756 55.4406C198.757 55.3804 196.783 54.9858 194.914 54.273C188.668 51.8606 187.74 49.3049 186.203 49.9175C185.311 50.273 185.239 51.4518 185.193 52.233C185.112 53.5888 184.61 55.7455 183.272 56.0517C180.689 56.6475 176.089 52.92 174.314 50.7465C174.195 50.6055 174.026 50.517 173.842 50.5C173.658 50.483 173.475 50.5389 173.332 50.6557C173.19 50.7725 173.099 50.9408 173.079 51.1241C173.06 51.3075 173.113 51.4913 173.227 51.6358C173.619 52.1036 174.037 52.5478 174.48 52.9664C173.397 58.2098 174.973 61.5818 174.504 68.6223C174.084 71.404 174.421 74.2476 175.479 76.8542C176.505 78.7726 177.785 80.5438 179.284 82.1201C182.259 85.3038 184.814 87.8581 189.237 87.9902C190.012 89.941 190.186 92.0795 189.737 94.1301C179.708 96.8796 181.026 95.535 172.836 97.3334C172.668 97.3711 172.519 97.4696 172.419 97.61C172.318 97.7505 172.273 97.923 172.291 98.0948C172.309 98.2665 172.391 98.4254 172.519 98.5411C172.648 98.6567 172.814 98.721 172.986 98.7216C175.277 98.22 177.592 97.8401 179.922 97.5835C181.405 97.4298 182.88 97.2015 184.34 96.8993C185.262 99.4114 190.184 102.887 195.861 103.107C202.024 103.359 209.63 99.9959 213.12 94.9576C215.998 96.4806 217.882 97.2365 219.711 98.4603C221.994 100.017 222.059 100.58 222.626 100.58C222.77 100.582 222.91 100.539 223.028 100.459C223.146 100.378 223.238 100.264 223.288 100.13C223.34 99.9965 223.349 99.8507 223.315 99.7117C223.281 99.5727 223.205 99.4474 223.099 99.3524ZM186.267 85.9698C183.955 84.8155 181.922 83.172 180.308 81.1535C173.547 73.9219 176.617 71.7681 175.864 62.5063C175.492 59.7149 175.435 56.8902 175.698 54.0861C180.817 58.37 185.696 59.4153 186.555 52.7683C186.573 52.2615 186.635 51.7571 186.739 51.2607C187.316 51.5993 187.864 51.9867 188.375 52.4184C191.931 54.8364 197.317 57.2277 201.559 56.7739C201.958 56.7304 202.892 56.6334 203.034 56.6461C203.038 57.2696 202.942 57.8898 202.753 58.4838C202.178 60.8189 202.331 65.0395 204.017 67.0304C204.083 67.1077 204.166 67.1698 204.259 67.2125C204.352 67.2552 204.453 67.2774 204.554 67.2777C204.963 67.2777 204.963 67.2777 205.818 65.8488C206.24 65.1463 206.716 64.3384 206.834 64.1712C207.105 63.7697 207.452 63.4262 207.857 63.1608C208.262 62.8954 208.716 62.7136 209.192 62.6257C211.084 62.533 211.388 68.1277 210.264 70.6623C209.074 73.3192 207.101 72.6588 206.483 74.4713C205.827 78.3102 205.633 82.2141 205.908 86.0991C203.604 87.7806 200.883 88.8009 198.04 89.0496C195.072 89.5034 191.669 89.679 191.111 89.2477C191.021 88.7923 190.899 88.344 190.744 87.9059C196.704 87.2554 201.832 81.9192 204.418 78.6961C204.475 78.6242 204.519 78.5416 204.544 78.4531C204.571 78.3644 204.578 78.2717 204.568 78.1799C204.558 78.0882 204.53 77.9994 204.487 77.9185C204.442 77.8375 204.381 77.7662 204.31 77.7084C204.238 77.6507 204.155 77.6077 204.066 77.5818C203.978 77.5561 203.885 77.548 203.794 77.5579C203.701 77.5681 203.613 77.596 203.533 77.6404C203.451 77.6848 203.379 77.7447 203.322 77.8166C199.089 83.1092 192.571 88.4468 186.267 85.9698ZM185.714 96.5888C186.956 96.3078 188.172 95.9973 189.342 95.6812C189.197 96.1585 189.026 96.6274 188.829 97.0862C188.793 97.1709 188.773 97.2621 188.772 97.3544C188.769 97.4467 188.786 97.5386 188.819 97.6246C188.853 97.7105 188.904 97.789 188.968 97.8554C189.032 97.922 189.109 97.9753 189.193 98.0121C189.277 98.049 189.369 98.0688 189.461 98.0705C189.554 98.0722 189.646 98.0558 189.731 98.0219C189.817 97.9882 189.896 97.9377 189.963 97.8737C190.029 97.8095 190.082 97.7329 190.119 97.6482C191.018 95.5502 191.436 93.2775 191.341 90.9969C191.317 90.5094 191.003 90.9604 193.492 90.9267C193.447 94.3194 192.798 97.6771 191.579 100.843C189.203 100.122 187.138 98.6239 185.714 96.5888ZM196.581 101.697C195.347 101.717 194.118 101.562 192.928 101.237C194.199 97.922 194.865 94.4063 194.895 90.8564C195.757 90.7918 196.621 90.6906 197.403 90.5754C197.495 94.3008 197.22 98.0263 196.581 101.697ZM198.017 101.629C198.647 97.9088 198.91 94.136 198.803 90.3647C199.634 90.2242 200.373 90.0837 201.3 89.8406C201.315 93.4675 201.835 97.0745 202.845 100.558C201.283 101.102 199.663 101.462 198.017 101.629ZM202.687 89.405C203.201 89.2294 203.679 89.0341 204.138 88.829C204.624 92.1507 206.362 95.1609 208.995 97.2421C207.52 98.3956 205.893 99.3412 204.161 100.052C203.188 96.5874 202.692 93.0065 202.687 89.4078V89.405ZM210.083 96.3036C208.22 94.9913 205.473 91.535 205.518 88.1181C205.75 87.9776 205.976 87.8371 206.187 87.6783C206.649 89.1004 207.391 90.4162 208.367 91.5488C209.344 92.6814 210.535 93.6081 211.874 94.2748C211.344 95.0083 210.744 95.6888 210.083 96.3064V96.3036Z" fill="#007BB5"/>
<path d="M110.897 66.2337C113.512 64.12 113.973 63.7322 114.402 63.3894C114.547 63.2729 114.641 63.1035 114.661 62.9181C114.682 62.733 114.628 62.5472 114.511 62.4017C114.395 62.2561 114.225 62.1628 114.04 62.1423C113.855 62.1218 113.669 62.1756 113.524 62.2921C110.077 65.0515 103.127 71.6542 98.9627 70.0708C97.1208 69.3683 95.5753 67.442 94.0831 65.5748C92.3574 63.3584 90.343 61.3828 88.0936 59.7005C88.0232 59.6343 87.9401 59.5833 87.8492 59.5507C87.7584 59.5181 87.6617 59.5046 87.5654 59.5111C87.469 59.5176 87.375 59.5437 87.2893 59.5881C87.2036 59.6325 87.1278 59.694 87.067 59.7689C87.006 59.8439 86.9612 59.9306 86.9354 60.0236C86.9095 60.1166 86.903 60.214 86.9164 60.3096C86.9299 60.4052 86.9629 60.497 87.0133 60.5793C87.0638 60.6616 87.1306 60.7326 87.2099 60.788C88.9126 62.1164 90.499 63.5876 91.9518 65.1856C89.5626 67.6445 87.4863 70.3892 85.7698 73.3571C85.7227 73.4384 85.6924 73.5285 85.6807 73.6218C85.669 73.7152 85.6763 73.8099 85.7019 73.9004C85.7276 73.9909 85.7712 74.0753 85.83 74.1487C85.8889 74.222 85.9618 74.2827 86.0447 74.3274C86.1275 74.3719 86.2184 74.3995 86.3121 74.4083C86.4057 74.417 86.5001 74.407 86.5899 74.3787C86.6795 74.3503 86.7625 74.3042 86.8341 74.2431C86.9056 74.182 86.964 74.1072 87.0062 74.0231C88.6299 71.2156 90.5913 68.6176 92.8468 66.2871C95.0133 68.9721 97.1742 71.7779 100.636 71.7779C103.855 71.7779 107.079 69.3894 109.718 67.2172C110.792 70.631 111.503 74.1484 111.84 77.7112C111.848 77.8035 111.875 77.8931 111.918 77.975C111.961 78.0571 112.02 78.1297 112.091 78.189C112.162 78.2482 112.244 78.2929 112.333 78.3202C112.421 78.3478 112.514 78.3575 112.607 78.3491C112.699 78.3405 112.789 78.3139 112.871 78.2708C112.953 78.2277 113.025 78.1688 113.085 78.0976C113.144 78.0263 113.188 77.9441 113.216 77.8556C113.243 77.7672 113.253 77.6742 113.245 77.5819C112.865 73.7267 112.078 69.9228 110.897 66.2337Z" fill="#007BB5"/>
<path d="M125.163 93.8036C124.812 93.8036 125.177 93.9722 118.751 89.42C92.8312 97.8767 64.8689 85.1024 64.8689 67.5933C64.8689 54.1053 81.5153 43.1309 101.975 43.1309C122.435 43.1309 139.081 54.1039 139.081 67.5933C139.081 75.6552 133.145 83.1284 123.157 87.6946L125.787 92.7779C125.842 92.8851 125.869 93.0047 125.865 93.1251C125.861 93.2457 125.826 93.3631 125.763 93.4662C125.701 93.5692 125.613 93.6544 125.507 93.7135C125.402 93.7727 125.284 93.8037 125.163 93.8036ZM123.212 90.8531C121.552 87.6469 121.385 87.5289 121.526 87.1158C121.558 87.0254 121.609 86.9426 121.675 86.8723C121.74 86.8019 121.82 86.7457 121.908 86.7069C131.789 82.409 137.676 75.2618 137.676 67.5933C137.676 54.8795 121.659 44.5359 101.975 44.5359C82.2909 44.5359 66.2739 54.8795 66.2739 67.5933C66.2739 84.1864 93.6405 96.3171 118.644 87.9756C119.11 87.8183 119.092 87.9405 123.219 90.8587L123.212 90.8531Z" fill="#007BB5"/>
<path d="M57.7147 256.67C57.6155 256.502 57.4572 256.379 57.2712 256.324C57.085 256.268 56.8848 256.285 56.7101 256.369C55.0466 256.963 52.9574 255.245 49.0164 256.168C47.6001 256.517 46.2132 256.975 44.8688 257.539C44.245 257.82 44.4248 258.663 44.925 258.968C45.1554 259.109 45.3339 259.515 45.9464 259.778C49.9071 261.464 55.4555 260.189 57.5264 257.53C57.6594 257.435 57.7524 257.295 57.7872 257.136C57.8219 256.977 57.7962 256.81 57.7147 256.67ZM46.4972 258.485C46.4789 258.477 46.4593 258.457 46.4396 258.446C51.277 256.649 51.9626 257.374 54.9623 257.823C53.6836 258.541 52.2643 258.971 50.8025 259.085C49.3409 259.2 47.8719 258.995 46.4972 258.485Z" fill="#007BB5"/>
<path d="M151.092 202.392C150.991 202.392 150.891 202.371 150.799 202.328C150.706 202.286 150.624 202.224 150.558 202.147C147.813 198.935 144.6 196.155 141.027 193.898C139.12 192.794 136.823 192.581 134.82 191.213C129.229 187.405 124.812 182.852 118.79 179.801C115.296 178.029 112.944 173.197 109.035 174.556C106.773 175.337 105.823 177.918 104.743 180.09C102.97 183.628 101.024 187.509 97.8835 189.998C97.8113 190.056 97.7284 190.099 97.6396 190.125C97.5507 190.151 97.4575 190.158 97.3655 190.149C97.2736 190.139 97.1845 190.109 97.1036 190.066C97.0225 190.021 96.9513 189.96 96.8937 189.887C96.8361 189.814 96.7934 189.731 96.7681 189.643C96.7427 189.554 96.7352 189.46 96.746 189.369C96.7568 189.276 96.7856 189.187 96.8309 189.107C96.8761 189.026 96.9368 188.956 97.0096 188.898C99.9067 186.601 101.778 182.868 103.429 179.576C104.694 177.038 105.728 174.21 108.574 173.228C113.43 171.542 116.193 176.909 119.425 178.549C125.607 181.676 130.075 186.276 135.611 190.053C137.378 191.258 139.729 191.523 141.753 192.697C145.454 195.031 148.782 197.908 151.626 201.233C151.713 201.335 151.769 201.459 151.788 201.592C151.806 201.726 151.786 201.861 151.73 201.983C151.674 202.105 151.584 202.208 151.472 202.281C151.358 202.354 151.227 202.392 151.092 202.392Z" fill="#007BB5"/>
<path d="M256.778 220.096C256.736 220.013 256.677 219.94 256.606 219.881C256.536 219.822 256.455 219.777 256.366 219.749C256.279 219.721 256.186 219.711 256.094 219.718C256.002 219.727 255.912 219.752 255.831 219.795C253.671 220.929 251.578 222.184 249.56 223.555C249.223 222.759 248.646 221.729 247.901 222.142C247.797 222.204 247.711 222.291 247.649 222.395C247.589 222.499 247.554 222.617 247.548 222.738C247.544 222.858 247.569 222.979 247.623 223.087C247.675 223.196 247.753 223.29 247.852 223.361C248.067 223.665 248.241 223.995 248.37 224.345C248.306 224.39 247.309 225.085 246.88 225.393C246.687 224.998 246.443 224.633 246.15 224.307C245.774 223.367 244.018 224.047 245.135 225.278C245.372 225.564 245.574 225.881 245.736 226.218C239.295 230.909 233.164 235.904 225.512 238.363C212.252 242.613 197.877 241.819 183.979 241.052C145.781 238.944 125.261 237.062 90.8277 228.224C89.396 227.857 82.461 226.107 80.952 226.199C86.0437 218.219 91.984 209.087 97.3455 199.083C100.233 193.695 102.881 191.881 105.354 189.564C109.394 193.345 113.678 196.859 118.177 200.081C129.846 208.221 145.083 212.405 152.219 211.867C155.283 213.567 158.577 214.816 161.998 215.575C167.788 216.452 173.706 215.507 178.935 212.873C179.014 212.932 179.105 212.974 179.202 212.997C187.773 214.858 194.859 219.89 198.156 226.452C198.195 226.538 198.251 226.615 198.32 226.68C198.39 226.745 198.472 226.794 198.562 226.826C198.65 226.857 198.746 226.871 198.84 226.865C198.934 226.86 199.027 226.835 199.111 226.792C199.197 226.749 199.271 226.69 199.333 226.618C199.393 226.545 199.44 226.461 199.468 226.371C199.496 226.281 199.506 226.185 199.494 226.091C199.485 225.997 199.457 225.906 199.41 225.823C196.075 219.179 189.107 214.038 180.635 211.899C181.097 211.593 181.54 211.257 181.96 210.896C182.221 211.52 182.695 212.033 183.298 212.342C183.9 212.651 184.593 212.735 185.252 212.582C186.063 212.89 193.841 212.452 199.662 217.64C199.731 217.705 199.811 217.755 199.899 217.789C199.988 217.823 200.082 217.838 200.176 217.834C200.27 217.83 200.363 217.807 200.447 217.767C200.533 217.727 200.609 217.67 200.672 217.599C200.735 217.529 200.783 217.446 200.812 217.358C200.843 217.268 200.855 217.174 200.848 217.08C200.84 216.985 200.815 216.894 200.772 216.81C200.728 216.726 200.669 216.651 200.596 216.592C196.987 213.58 192.523 211.773 187.834 211.427C189.801 209.994 191.608 207.531 193.092 206.531C194.769 205.391 198.019 204.471 199.568 202.559C200.63 203.084 201.816 203.309 202.997 203.211C207.353 202.754 212.586 197.847 212.952 193.183C223.434 188.704 234.969 187.285 246.225 189.089C246.407 189.114 246.594 189.068 246.742 188.959C246.891 188.848 246.991 188.685 247.019 188.502C247.048 188.319 247.003 188.132 246.895 187.982C246.787 187.832 246.624 187.731 246.441 187.701C235.103 185.897 223.486 187.273 212.881 191.674C212.805 191.27 212.679 190.876 212.508 190.503C212.599 190.456 212.68 190.392 212.744 190.313C220.266 180.654 236.058 169.704 243.693 166.632C243.782 166.599 243.864 166.55 243.933 166.486C244.003 166.421 244.058 166.344 244.098 166.258C244.136 166.171 244.157 166.078 244.159 165.984C244.161 165.888 244.144 165.796 244.109 165.707C244.074 165.62 244.02 165.54 243.953 165.473C243.887 165.407 243.807 165.353 243.72 165.318C243.631 165.283 243.537 165.266 243.443 165.267C243.349 165.269 243.255 165.29 243.169 165.329C235.703 168.33 219.655 179.295 211.804 189.245C211.77 189.192 211.738 189.137 211.705 189.084C210.455 187.084 210.019 186.233 212.408 182.673C213.279 181.502 213.938 180.187 214.355 178.791C214.535 178.17 214.341 177.376 213.653 177.4C210.272 177.55 205.981 176.307 203.149 175.65C195.166 173.778 183.303 172.396 177.332 166.626C176.489 165.82 175.767 165 175.07 164.226C174.382 161.783 175.05 156.218 175.649 153.232C176.08 150.972 176.743 148.763 177.627 146.64C180.016 145.686 181.794 144.965 184.32 145.797C189.717 147.58 193.563 152.767 199.073 154.942C201.807 156.017 204.131 154.733 206.493 154.79C207.653 154.92 208.766 155.326 209.737 155.976C210.708 156.627 211.507 157.501 212.068 158.526C212.114 158.606 212.175 158.677 212.248 158.734C212.322 158.79 212.405 158.833 212.495 158.856C212.583 158.88 212.678 158.887 212.769 158.875C212.862 158.863 212.95 158.833 213.03 158.786C213.11 158.74 213.181 158.679 213.237 158.605C213.293 158.532 213.334 158.448 213.358 158.358C213.382 158.268 213.387 158.175 213.374 158.084C213.362 157.991 213.331 157.902 213.285 157.824C212.294 156.121 210.782 154.782 208.973 154.005C209.202 153.881 209.44 153.777 209.686 153.692C211.607 152.969 213.646 152.61 215.698 152.631C215.885 152.631 216.064 152.556 216.196 152.424C216.326 152.292 216.401 152.114 216.401 151.928C216.401 151.741 216.326 151.563 216.196 151.431C216.064 151.299 215.885 151.226 215.698 151.226C213.462 151.22 211.243 151.615 209.145 152.393C209.707 149.982 208.267 148.24 208.109 146.561C208.055 143.761 208.651 140.988 209.849 138.458C212.406 131.995 213.332 131.647 213.013 130.835C212.953 130.681 212.841 130.554 212.696 130.475C212.551 130.396 212.383 130.371 212.221 130.404C212.059 130.436 211.915 130.524 211.812 130.653C211.708 130.782 211.655 130.942 211.658 131.107C211.537 131.449 211.02 132.289 210.923 132.512C208.884 137.066 206.286 142.256 206.708 146.703C206.935 149.141 208.922 150.865 207.129 153.472C204.232 153.131 202.015 154.609 199.575 153.645C194.165 151.514 190.583 146.404 184.746 144.473C180.656 143.122 178.103 145.221 174.667 146.214C172.627 146.813 170.228 144.572 167.736 146.647C166.366 146.356 164.34 146.037 162.868 145.804C164.038 142.485 165.55 142.391 163.417 136.259C162.727 134.657 162.393 132.924 162.433 131.18C162.876 125.691 166.227 120.619 169.756 116.356C169.867 116.212 169.919 116.03 169.898 115.848C169.879 115.667 169.787 115.501 169.647 115.385C169.506 115.269 169.326 115.212 169.145 115.227C168.962 115.241 168.794 115.326 168.673 115.462C164.948 119.968 161.508 125.255 161.033 131.065C160.974 133.005 161.335 134.934 162.095 136.72C164.128 142.571 162.55 142.128 161.464 145.572C157.076 144.849 152.183 143.233 145.557 144.059C142.616 144.343 139.809 145.432 137.447 147.208C136.108 148.155 135.11 149.508 134.602 151.069C134.461 151.579 135.091 154.675 129.089 111.753C128.973 110.916 128.571 110.144 127.95 109.57C127.329 108.996 126.528 108.656 125.684 108.606L81.6025 106.137C81.2472 106.122 80.8932 106.191 80.5701 106.339C80.2468 106.488 79.9637 106.711 79.744 106.99C79.5242 107.27 79.3743 107.598 79.3064 107.947C79.2387 108.296 79.2552 108.656 79.3545 108.998L88.4547 139.707C68.8549 139.848 64.2887 159.882 58.0659 174.172C55.0993 180.891 51.7149 187.419 47.9331 193.716C41.0191 205.518 41.1891 205.927 39.5031 209.042C38.6053 210.715 37.4869 212.799 37.6681 214.648C37.8086 216.009 38.9326 216.886 40.9474 219.019C40.3909 220.636 39.7363 222.216 38.9874 223.755C38.9362 223.596 38.8297 223.461 38.6873 223.374C38.545 223.288 38.3761 223.256 38.2119 223.283C38.0476 223.311 37.8987 223.396 37.7923 223.524C37.6861 223.654 37.6295 223.815 37.633 223.982C37.6507 225.688 38.1761 227.352 39.142 228.759C39.1139 228.834 38.9607 229.049 38.861 229.275C36.5287 234.437 36.1423 234.919 36.5863 235.502C37.1483 236.272 38.313 235.704 39.1954 235.321C41.251 234.452 43.2447 233.444 45.1624 232.303C45.39 232.324 45.6176 232.362 45.8452 232.362C46.7894 232.359 47.7244 232.176 48.6004 231.825C48.7113 231.777 48.8081 231.703 48.8815 231.609C49.0781 231.804 49.3029 232.005 49.5179 232.203C49.0739 233.22 48.6609 234.451 48.0033 235.881C47.7223 235.621 47.6802 235.741 46.3075 235.499C43.5649 235.017 42.1599 235.196 38.7739 238.042C32.9811 242.902 28.3684 243.14 21.5106 246.135C19.1769 247.156 13.6834 249.971 13.0806 254.003C13.0565 254.186 13.1052 254.37 13.2162 254.517C13.3271 254.665 13.4915 254.762 13.6738 254.79C13.8561 254.816 14.0418 254.77 14.1907 254.662C14.3397 254.554 14.4401 254.391 14.4702 254.21C14.9816 250.774 20.4176 248.143 22.0712 247.419C28.0074 244.828 33.4054 244.06 38.6615 239.946C39.9969 238.614 41.5795 237.555 43.3205 236.83C44.6773 236.65 46.0559 236.73 47.3823 237.069C47.0228 237.729 46.5631 238.33 46.0195 238.85C45.5824 238.61 45.1579 238.347 44.7479 238.065C44.6722 238.011 44.5869 237.973 44.4967 237.954C44.4065 237.933 44.3132 237.931 44.2223 237.947C44.1313 237.964 44.0443 237.997 43.9663 238.046C43.8884 238.096 43.8209 238.16 43.768 238.236C43.7148 238.312 43.6772 238.398 43.6572 238.488C43.6371 238.578 43.635 238.67 43.6511 238.762C43.6669 238.853 43.7008 238.94 43.7504 239.017C43.8 239.096 43.8643 239.163 43.9401 239.217C44.1859 239.388 44.4487 239.54 44.7058 239.7C44.0539 240.358 42.6531 241.75 42.0363 242.236C41.5403 242.628 40.9123 243.11 41.0528 243.782C41.2017 244.484 42.0124 244.494 42.729 244.494C45.3342 244.337 47.8544 243.508 50.0434 242.087C53.3479 243.276 56.9398 243.412 60.3252 242.478C60.4869 242.406 60.616 242.277 60.6868 242.115C60.7576 241.954 60.7648 241.771 60.7071 241.604C60.6493 241.437 60.5307 241.298 60.3752 241.215C60.2195 241.132 60.0381 241.109 59.8671 241.154C60.1674 240.369 60.5852 239.634 61.1064 238.975C61.9775 239.279 63.5187 239.807 66.1531 240.488C67.7632 240.91 69.9986 241.373 71.4359 240.536C72.8016 239.741 73.5083 237.855 74.1799 236.755C75.2421 235.041 79.7367 228.078 80.0472 227.593C84.6232 227.42 104.119 234.242 134.814 238.447C156.549 241.178 190.809 243.061 200.559 243.061C209.144 243.26 217.706 242.124 225.939 239.689C233.703 237.194 239.831 232.259 246.322 227.516C246.451 227.884 246.54 228.266 246.586 228.654C246.596 228.745 246.624 228.834 246.669 228.915C246.714 228.995 246.774 229.067 246.846 229.125C246.917 229.182 247 229.224 247.089 229.25C247.177 229.276 247.27 229.283 247.363 229.274C247.454 229.264 247.543 229.236 247.624 229.191C247.704 229.146 247.776 229.087 247.834 229.014C247.891 228.942 247.933 228.859 247.959 228.771C247.985 228.682 247.992 228.589 247.982 228.498C247.902 227.869 247.737 227.255 247.489 226.672C247.933 226.354 248.377 226.036 248.828 225.722C248.907 225.99 248.998 226.251 249.061 226.524C249.106 226.702 249.219 226.857 249.376 226.953C249.534 227.049 249.722 227.08 249.902 227.038C250.082 226.996 250.237 226.886 250.337 226.731C250.436 226.575 250.469 226.386 250.43 226.206C250.326 225.761 250.188 225.333 250.053 224.907C252.116 223.491 254.26 222.199 256.474 221.037C256.639 220.952 256.764 220.804 256.82 220.629C256.876 220.453 256.862 220.261 256.778 220.096ZM118.981 198.924C114.55 195.749 110.331 192.288 106.35 188.567C107.376 187.542 108.31 186.43 109.139 185.241C122.883 193.233 121.191 195.393 140.428 205.235C144.161 207.145 145.707 208.186 149.489 210.354C138.549 209.542 126.613 204.246 118.981 198.924ZM194.71 204.081C192.749 204.862 191.021 206.135 189.692 207.777C188.108 209.435 186.302 211.29 184.509 211.24C182.522 211.158 182.542 207.329 182.001 204.383C180.231 193.113 176.275 184.093 168.118 176.384C167.999 176.25 167.851 176.145 167.687 176.075C161.817 173.176 153.433 169.123 146.903 166.532C148.789 166.588 151.127 166.651 153.246 166.701C165.543 169.744 183.472 185.459 191.414 194.881C193.394 197.505 195.728 199.844 198.349 201.83C197.276 202.784 196.047 203.545 194.713 204.081H194.71ZM180.52 204.065C178.629 205.734 176.28 206.795 173.776 207.11C172.371 204.883 175.942 198.455 178.693 196.173C179.466 198.763 180.077 201.398 180.521 204.065H180.52ZM153.856 162.796C134.889 162.153 137.285 162.375 136.013 161.876L135.436 157.723L139.424 158.827C139.649 159.836 140.621 159.899 141.606 159.496C141.823 159.406 141.668 159.392 142.378 159.636C142.345 159.855 142.362 160.079 142.425 160.292C142.489 160.504 142.6 160.7 142.749 160.864C142.9 161.029 143.084 161.158 143.289 161.242C143.494 161.326 143.716 161.363 143.938 161.352C144.695 161.293 145.429 161.055 146.076 160.659L153.856 162.796ZM147.688 159.642C148.766 158.751 149.974 158.033 151.269 157.512C152.6 157.1 154.039 157.709 155.906 157.998C154.728 158.658 152.683 158.988 151.972 160.822L147.688 159.642ZM159.209 164.382C159.271 164.818 159.24 165.252 158.832 165.366C158.263 165.435 151.386 165.245 143.39 165.054L140.398 163.74L159.209 164.382ZM176.35 167.639C182.639 173.72 194.687 175.108 202.819 177.017C206.09 177.976 209.456 178.574 212.857 178.805C211.825 181.856 209.345 183.563 209.286 186.542C209.24 188.86 211.343 190.312 211.548 192.146C212.019 196.347 206.878 201.408 202.85 201.813C201.738 201.903 200.628 201.629 199.687 201.033C198.841 200.526 198.049 199.934 197.321 199.268C196.597 198.826 192.684 194.194 192.544 194.07C191.257 192.103 172.658 172.696 157.572 166.79C158.098 166.814 158.624 166.797 159.147 166.741C159.466 166.634 159.757 166.459 160 166.227C160.243 165.995 160.433 165.711 160.555 165.399C160.677 165.086 160.729 164.75 160.707 164.415C160.684 164.079 160.589 163.753 160.426 163.459C160.251 162.993 160.315 163.119 153.359 161.211C153.845 160.216 155.178 159.947 156.346 159.366C157.012 159.092 157.579 158.625 157.974 158.025C159.864 157.832 161.732 157.474 163.56 156.957C163.359 158.168 163.383 159.407 163.633 160.61C164.757 165.246 170.415 161.378 172.344 163.355C173.734 164.776 174.959 166.314 176.353 167.639H176.35ZM166.852 156.008C169.066 156.611 171.331 157.014 173.617 157.215C173.553 157.803 173.499 158.401 173.457 159.001C170.46 158.639 166.674 157.877 164.898 157.644C164.96 156.941 165.082 156.246 165.263 155.564C165.772 155.784 166.307 155.933 166.855 156.008H166.852ZM165.652 154.155C165.817 153.624 165.994 153.099 166.188 152.576C168.771 153.308 171.445 153.672 174.13 153.658C174.015 154.293 173.898 155.025 173.79 155.82C171.716 155.664 169.662 155.303 167.66 154.74C167.031 154.65 166.411 154.494 165.814 154.275C165.765 154.227 165.71 154.186 165.649 154.155H165.652ZM173.38 160.41C173.315 162.54 173.477 162.507 173.338 162.366C170.765 159.728 165.734 163.35 164.993 160.274C164.903 159.872 164.853 159.465 164.84 159.055C169.293 159.765 170.918 160.115 173.388 160.41H173.38ZM168.292 148.024C169.26 146.868 170.408 147.08 171.85 147.408C173.155 147.868 174.585 147.827 175.862 147.296C175.052 149.479 175.286 149.158 175.115 149.159C173.082 149.173 171.054 148.95 169.073 148.492C168.593 148.412 168.298 148.351 168.101 148.308C168.178 148.215 168.228 148.111 168.301 148.024H168.292ZM168.988 149.902C170.892 150.353 172.842 150.577 174.797 150.567C174.264 152.576 174.516 152.226 174.292 152.246C171.722 152.295 169.159 151.959 166.688 151.25C166.884 150.671 167.122 150.107 167.397 149.564C167.92 149.722 168.454 149.835 168.996 149.902H168.988ZM135.952 151.459C136.373 150.195 137.188 149.099 138.279 148.333C140.445 146.705 143.018 145.706 145.715 145.447C149.826 145.014 153.98 145.316 157.985 146.336C159.775 146.775 164.299 147.404 166.727 147.865C166.331 148.426 166.018 149.041 165.796 149.692C164.995 151.538 164.347 153.449 163.859 155.403C161.738 156.075 159.546 156.504 157.328 156.687C156.479 156.694 155.633 156.582 154.817 156.353C151.866 155.683 150.818 155.65 147.441 158.092C146.749 158.606 146.026 159.076 145.274 159.497C144.832 159.761 144.336 159.921 143.821 159.965C143.781 159.888 143.764 159.799 143.774 159.712C143.783 159.626 143.819 159.543 143.876 159.479C144.684 157.741 147.248 155.803 148.57 154.842C148.886 154.612 149.766 154.372 149.644 153.641C149.606 153.488 149.526 153.349 149.412 153.241C149.299 153.132 149.158 153.058 149.003 153.027C148.376 152.915 147.715 153.426 146.769 154.211C146.426 154.492 146.081 154.717 144.802 155.747C143.63 156.804 142.291 157.659 140.839 158.276C141.079 157.501 141.46 156.777 141.963 156.142C143.324 154.727 144.843 153.475 146.489 152.41C146.894 152.184 147.695 151.848 147.792 151.264C147.813 151.112 147.795 150.958 147.737 150.817C147.681 150.675 147.587 150.551 147.467 150.457C146.867 150.065 146.241 150.721 145.906 150.897C145.259 151.216 144.624 151.579 144.014 151.952C141.625 153.412 138.484 156.211 137.929 156.1C137.458 155.344 139.896 151.571 143.788 149.79C145.729 148.906 146.147 148.666 146.147 148.083C146.147 147.979 146.124 147.876 146.081 147.782C146.036 147.689 145.972 147.607 145.892 147.541C145.812 147.475 145.72 147.427 145.618 147.4C145.519 147.375 145.413 147.372 145.312 147.392C139.725 148.479 137.304 152.225 135.969 152.233C135.887 151.982 135.881 151.712 135.952 151.459ZM134.828 153.066C135.498 153.977 136.778 153.599 137.728 152.971C137.547 153.215 137.368 153.464 137.207 153.724C136.649 154.568 136.439 155.595 136.619 156.593L135.224 156.207C134.727 152.555 134.727 152.926 134.831 153.066H134.828ZM80.6935 108.598C80.6585 108.471 80.6538 108.339 80.6797 108.21C80.7055 108.082 80.7613 107.961 80.8425 107.858C80.9236 107.755 81.0278 107.673 81.1467 107.618C81.2654 107.563 81.3957 107.537 81.5266 107.541L125.607 110.001C126.127 110.032 126.619 110.242 127.001 110.595C127.383 110.948 127.631 111.423 127.702 111.939C128.104 114.809 134.523 161.339 134.523 161.339L91.762 145.947L80.6935 108.598ZM40.4023 216.405C38.9973 214.971 38.1163 214.597 40.7437 209.706C42.8301 205.817 42.24 206.205 49.14 194.425C52.9526 188.082 56.3618 181.506 59.3473 174.736C65.4942 160.631 69.8567 140.91 88.8635 141.108C90.6198 147.036 90.4877 146.983 90.9528 147.15L95.179 148.673C92.5712 150.734 90.2054 153.086 88.1273 155.681C78.9751 166.403 75.0116 174.139 70.3527 183.464C66.6976 191.259 62.3133 198.692 57.2581 205.663C50.663 215.207 52.7452 212.643 50.0069 216.357C48.6899 218.049 47.529 219.857 46.5379 221.76C43.9541 220.404 42.6994 218.749 40.4023 216.405ZM38.0967 234.263C38.5294 233.156 39.0352 232.155 40.11 229.907C40.9498 230.767 41.9693 231.432 43.0957 231.853C41.5361 232.698 39.8178 233.548 38.0967 234.263ZM39.3991 226.145C40.3801 224.196 41.2626 222.201 42.0433 220.165C43.1957 221.326 44.5231 222.299 45.9773 223.049C45.5492 224.009 45.3793 225.064 45.4843 226.111C45.5893 227.158 45.9655 228.158 46.5758 229.015C46.9889 229.56 47.4371 230.08 47.8951 230.584C47.0462 230.864 46.1497 230.971 45.2589 230.898C44.368 230.825 43.5009 230.573 42.7087 230.16C41.9164 229.746 41.2153 229.177 40.6469 228.487C40.0784 227.797 39.6541 227 39.3991 226.145ZM43.2249 243.075C44.1719 242.232 45.0936 241.333 45.9815 240.424C46.7308 240.83 47.5095 241.18 48.311 241.47C46.7343 242.326 45.0076 242.871 43.2249 243.075ZM58.2964 241.187C58.2553 241.288 58.2399 241.397 58.2514 241.507C54.4821 241.934 50.6703 241.241 47.2924 239.516C48.8885 237.893 49.4645 236.041 50.6349 233.158C53.3716 235.409 56.4559 237.201 59.7674 238.464C59.1471 239.294 58.6515 240.212 58.2964 241.187ZM72.4588 236.972C71.0397 239.65 70.7109 240.351 65.3298 238.798C65.9129 237.955 66.6589 236.894 67.4977 235.699C78.5733 219.905 73.9818 225.758 81.9004 214.913C86.0145 209.606 89.6597 203.954 92.7947 198.018C92.8353 197.934 92.8591 197.844 92.8648 197.752C92.8706 197.66 92.8581 197.567 92.828 197.48C92.7981 197.393 92.7512 197.311 92.6899 197.242C92.6288 197.174 92.5546 197.116 92.4716 197.077C92.3885 197.036 92.2983 197.012 92.206 197.006C92.1139 197.001 92.0214 197.012 91.9339 197.043C91.8465 197.072 91.7658 197.12 91.6966 197.181C91.6273 197.242 91.5708 197.315 91.5302 197.4C88.4294 203.261 84.8267 208.843 80.7623 214.084C72.6723 225.165 77.5996 218.846 66.3442 234.892C65.3607 236.286 64.5177 237.508 63.8981 238.391C57.5454 236.788 51.8686 233.202 47.6914 228.155C44.7409 224.252 50.5337 218.447 52.9082 214.667C56.9602 208.231 61.7231 202.091 65.5939 195.486C69.7274 188.427 72.9646 180.849 76.9927 173.782C81.6289 165.74 87.2538 158.311 93.7361 151.668C94.4077 151.029 96.5966 149.343 96.7372 149.232C140.93 165.145 134.592 162.72 140.802 165.457C149.443 169.251 150.744 169.28 167.09 177.346C172.233 182.102 176.073 188.097 178.242 194.76C175.284 196.867 171.077 203.69 172.277 207.218C167.243 207.372 161.832 205.306 156.787 204.246C156.694 204.221 156.597 204.215 156.503 204.229C156.409 204.244 156.317 204.277 156.236 204.326C156.154 204.377 156.084 204.444 156.029 204.522C155.975 204.6 155.937 204.69 155.917 204.783C155.899 204.877 155.899 204.974 155.918 205.068C155.938 205.162 155.976 205.251 156.031 205.328C156.086 205.407 156.157 205.473 156.239 205.523C156.32 205.574 156.412 205.606 156.506 205.62C164.936 207.391 173.399 211.437 180.793 205.665C180.941 206.94 181.161 208.207 181.446 209.459C179.029 211.462 176.171 212.867 173.109 213.56C159.841 217.247 151.677 209.398 141.682 204.287C137.888 202.351 133.94 200.343 130.366 198.105C122.891 193.424 119.764 189.803 109.875 184.035C110.677 182.584 111.173 180.982 111.331 179.333C111.348 179.146 111.29 178.961 111.171 178.817C111.051 178.673 110.879 178.583 110.693 178.566C110.507 178.547 110.321 178.605 110.177 178.725C110.034 178.845 109.943 179.017 109.926 179.204C109.591 182.821 107.474 185.567 104.857 188.092C102.966 189.918 99.4263 192.19 96.0951 198.406C87.2871 214.861 74.5677 232.991 72.4588 236.97V236.972Z" fill="#007BB5"/>
<path d="M189.283 58.6761C189.116 58.6759 188.954 58.6162 188.826 58.5073C188.7 58.3984 188.616 58.2477 188.589 58.0823C188.564 57.9168 188.597 57.7476 188.685 57.605C188.773 57.4624 188.909 57.3559 189.068 57.3048C190.282 56.6461 191.638 56.296 193.019 56.2852C194.4 56.2745 195.762 56.6033 196.985 57.243C197.067 57.2864 197.138 57.3454 197.197 57.4168C197.256 57.488 197.3 57.5702 197.327 57.6586C197.353 57.7469 197.363 57.8397 197.355 57.9315C197.345 58.0234 197.318 58.1126 197.275 58.1941C197.231 58.2755 197.172 58.3477 197.1 58.4063C197.03 58.4649 196.947 58.5089 196.859 58.5358C196.77 58.5627 196.678 58.5719 196.586 58.563C196.495 58.554 196.405 58.527 196.324 58.4836C192.791 56.5952 189.835 58.6761 189.283 58.6761Z" fill="#007BB5"/>
<path d="M175.01 61.5383C174.876 61.5381 174.747 61.5003 174.635 61.4292C174.522 61.3582 174.432 61.2569 174.376 61.1367C174.318 61.0167 174.297 60.8831 174.313 60.7512C174.33 60.6193 174.382 60.4946 174.466 60.3918C175.022 59.774 175.728 59.3098 176.514 59.0437C177.303 58.7777 178.146 58.7189 178.962 58.873C179.146 58.907 179.308 59.0127 179.413 59.1664C179.518 59.3201 179.559 59.5095 179.525 59.6928C179.49 59.8762 179.385 60.0384 179.232 60.144C179.077 60.2495 178.889 60.2895 178.705 60.2555C178.134 60.1456 177.546 60.1829 176.995 60.3636C176.443 60.5442 175.947 60.8623 175.552 61.2882C175.486 61.3671 175.403 61.4305 175.309 61.4736C175.215 61.5169 175.112 61.539 175.01 61.5383Z" fill="#007BB5"/>
<path d="M191.938 66.4781C191.851 66.5178 191.756 66.5391 191.659 66.5405C191.563 66.5419 191.468 66.5233 191.378 66.4862C191.289 66.449 191.209 66.3939 191.142 66.3244C191.076 66.2548 191.024 66.1722 190.99 66.0819C190.732 65.4165 190.519 64.7339 190.356 64.039C190.327 63.855 190.372 63.6667 190.481 63.5156C190.591 63.3647 190.755 63.2633 190.939 63.2339C191.123 63.2044 191.312 63.2494 191.462 63.3587C191.614 63.468 191.715 63.633 191.745 63.817C191.896 64.4212 192.083 65.0156 192.307 65.5972C192.367 65.7634 192.363 65.9464 192.295 66.1097C192.226 66.2731 192.1 66.4046 191.938 66.4781Z" fill="#007BB5"/>
<path d="M177.571 66.4328C177.311 65.9687 177.137 65.4613 177.058 64.9351C177.037 64.7519 177.088 64.5675 177.2 64.4217C177.314 64.276 177.48 64.1805 177.662 64.1559C177.845 64.1314 178.03 64.1797 178.178 64.2906C178.325 64.4013 178.424 64.5657 178.451 64.7482C178.507 65.0896 178.619 65.4191 178.783 65.7233C178.875 65.8839 178.899 66.0738 178.851 66.252C178.803 66.4303 178.687 66.5824 178.526 66.6756C178.368 66.7689 178.178 66.7956 178 66.7502C177.821 66.7048 177.667 66.5907 177.571 66.4328Z" fill="#007BB5"/>
<path d="M183.126 79.2411C182.973 79.1454 182.864 78.9948 182.819 78.8202C182.774 78.6455 182.797 78.4604 182.886 78.3029C182.973 78.1455 183.119 78.0279 183.291 77.9745C183.463 77.9211 183.649 77.9359 183.81 78.016C185.548 78.0356 187.271 77.6925 188.868 77.0086C189.037 76.9452 189.224 76.949 189.39 77.019C189.556 77.0889 189.688 77.2199 189.759 77.3847C189.831 77.5496 189.838 77.7358 189.776 77.905C189.716 78.0741 189.592 78.2135 189.43 78.2941C187.902 78.9601 184.09 79.8396 183.126 79.2411Z" fill="#007BB5"/>
<path d="M185.624 81.4568C185.466 81.3682 185.349 81.2223 185.296 81.049C185.242 80.8758 185.259 80.6889 185.341 80.5272C185.422 80.3655 185.563 80.2416 185.734 80.1813C185.904 80.1209 186.091 80.1289 186.257 80.2035C186.793 80.2885 187.343 80.2091 187.833 79.9759C188.009 79.9136 188.203 79.9238 188.37 80.004C188.538 80.0842 188.668 80.2279 188.729 80.4037C188.793 80.5793 188.783 80.7725 188.701 80.9408C188.621 81.109 188.478 81.2386 188.302 81.3008C187.457 81.6717 186.507 81.7271 185.624 81.4568Z" fill="#007BB5"/>
<path d="M205.806 63.608C201.731 64.3386 200.013 64.6479 199.275 64.7827C198.452 59.4311 189.874 57.8686 186.238 62.0752C186.042 62.3196 185.903 62.6054 185.831 62.9111C185.064 62.6012 184.228 62.5055 183.411 62.6345C182.595 62.7635 181.828 63.1121 181.194 63.6432C180.748 63.0783 180.194 62.607 179.566 62.2561C178.937 61.9052 178.245 61.6818 177.53 61.5983C176.815 61.515 176.09 61.5733 175.397 61.7701C174.705 61.967 174.058 62.2984 173.494 62.7454C168.998 66.4813 174.176 74.5474 179.445 72.1827C180.656 74.3703 185.287 73.5765 184.335 72.0942C184.233 71.9376 184.075 71.8274 183.893 71.7878C183.711 71.7483 183.521 71.7827 183.364 71.8835C183.005 72.049 182.615 72.134 182.22 72.1326C181.825 72.131 181.436 72.0432 181.079 71.8752C179.761 71.1994 181.433 69.7142 182.304 68.6702C183.007 67.8388 183.486 66.8416 183.695 65.7731C183.836 65.2491 183.966 64.7013 183.414 64.4301C183.289 64.3738 183.152 64.353 183.015 64.3698C182.879 64.3867 182.75 64.4406 182.643 64.5256C182.535 64.6108 182.453 64.7237 182.405 64.8523C182.358 64.9809 182.346 65.1201 182.372 65.2547C182.323 65.534 182.24 65.8062 182.124 66.0654C182.056 65.679 181.961 65.2974 181.843 64.9231C182.342 64.4137 183 64.0885 183.706 64.0011C184.415 63.9139 185.131 64.0696 185.738 64.4427C185.751 64.7237 185.77 64.9907 185.801 65.2408C185.942 68.9163 188.229 72.8094 192.218 72.8094C193.994 72.7411 195.686 72.0365 196.985 70.8242C198.285 69.6119 199.104 67.9727 199.295 66.206C200.537 65.9784 206.039 64.9905 206.039 64.9905C206.213 64.9497 206.365 64.844 206.463 64.6954C206.562 64.5467 206.6 64.366 206.57 64.1901C206.541 64.0141 206.445 63.856 206.303 63.748C206.161 63.6399 205.983 63.5899 205.806 63.608ZM179.251 70.7019C175.417 73.0314 171.01 66.6274 174.38 63.8286C174.823 63.483 175.331 63.2318 175.875 63.0906C176.419 62.9494 176.985 62.9211 177.54 63.0077C178.095 63.0942 178.626 63.2936 179.101 63.5936C179.576 63.8935 179.985 64.2878 180.301 64.7518C180.745 65.8156 180.954 66.962 180.918 68.1139C180.156 68.8245 179.584 69.7142 179.254 70.7019H179.251ZM197.876 66.3281C197.197 70.5192 192.115 73.0919 189.165 70.1217C187.957 68.7332 187.263 66.9719 187.198 65.1326C187.132 64.5543 187.109 63.9719 187.13 63.3903C187.14 63.2424 187.198 63.1015 187.293 62.9886C190.469 59.3285 198.743 61.197 197.879 66.3281H197.876Z" fill="#007BB5"/>
<path d="M75.4472 249.892C84.0177 255.635 94.2742 258.436 104.368 259.994C130.827 264.078 144.024 260.963 155.225 258.318C160.698 257.027 165.693 255.847 171.527 255.675C179.532 255.44 187.397 256.161 195.24 256.88C207.3 257.986 219.307 259.086 231.69 256.699C245.699 254 259.858 247.988 267.06 235.028M75.4472 249.892L76.0042 249.061M75.4472 249.892L76.0039 249.061C76.004 249.061 76.0041 249.061 76.0042 249.061M75.4472 249.892C69.6644 246.013 67.5542 242.635 66.7793 240.948C67.2199 241.05 67.6334 241.132 68.0222 241.192M76.0042 249.061C84.3996 254.687 94.4904 257.457 104.52 259.005C124.106 262.029 136.34 261.081 145.871 259.328C149.16 258.723 152.114 258.025 154.966 257.352C156.276 257.043 157.565 256.738 158.856 256.45C162.934 255.54 166.962 254.809 171.497 254.675L171.497 254.675C179.569 254.439 187.513 255.167 195.363 255.887C197.464 256.079 199.558 256.272 201.646 256.444C211.573 257.266 221.423 257.66 231.501 255.717L231.501 255.717C245.41 253.037 259.2 247.112 266.186 234.543M76.0042 249.061C72.0206 246.39 69.8646 243.991 68.6992 242.287C68.4222 241.882 68.2001 241.515 68.0222 241.192M266.186 234.543C266.185 234.543 266.185 234.543 266.185 234.543L267.06 235.028M266.186 234.543L267.06 235.028M266.186 234.543C272.352 223.44 274.418 210.524 272.023 198.05M267.06 235.028C273.34 223.721 275.445 210.566 273.006 197.862L272.024 198.051C272.024 198.051 272.024 198.051 272.023 198.05M272.023 198.05C271.404 194.834 270.36 191.718 269.292 188.529C269.183 188.205 269.074 187.88 268.965 187.553C267.796 184.049 266.652 180.448 266.159 176.672C265.614 172.49 265.571 168.465 265.608 164.373C265.615 163.581 265.625 162.787 265.635 161.989C265.678 158.649 265.721 155.235 265.552 151.574C265.134 142.543 263.418 132.027 257.129 117.952C254.917 113.001 250.464 105.689 244.713 99.3466C239.161 93.2239 232.532 88.1498 225.667 86.8112M272.023 198.05L225.667 86.8112M225.667 86.8112C225.885 87.4569 226.079 88.1099 226.252 88.7692C226.252 88.7699 226.252 88.7707 226.252 88.7714L225.667 86.8112ZM68.0222 241.192C67.8258 240.834 67.6831 240.529 67.5797 240.285C67.5489 240.212 67.5213 240.144 67.4968 240.081L199.643 202.94C198.876 203.813 197.78 204.451 196.795 204.957C196.352 205.185 195.884 205.409 195.442 205.619C195.23 205.721 195.024 205.819 194.829 205.914C194.204 206.218 193.672 206.496 193.26 206.774L193.26 206.775C192.757 207.115 192.207 207.634 191.578 208.278C191.378 208.483 191.169 208.702 190.953 208.928C190.517 209.384 190.055 209.868 189.594 210.314C188.246 211.62 186.508 213.025 184.445 212.941L184.445 212.941C183.161 212.887 182.349 212.158 181.832 211.304C179.164 213.224 176.157 214.628 172.965 215.441C169.36 216.36 165.602 216.501 161.939 215.859L161.917 215.855L161.895 215.85C158.416 215.079 155.069 213.805 151.958 212.068C151.83 212.069 151.658 212.069 151.444 212.066C150.946 212.06 150.227 212.039 149.314 211.975C147.49 211.847 144.894 211.549 141.747 210.862C135.451 209.487 126.947 206.554 117.996 200.309L117.984 200.301L117.984 200.301C113.564 197.124 109.345 193.674 105.353 189.972C104.967 190.323 104.587 190.656 104.21 190.986C102.097 192.834 100.076 194.603 97.5976 199.228L97.5975 199.228C91.9112 209.837 84.2929 221.605 79.0211 229.747C77.1234 232.678 75.5297 235.14 74.4398 236.909C74.2191 237.268 74.0257 237.611 73.8417 237.945C73.8051 238.011 73.7684 238.078 73.7318 238.145C73.5882 238.406 73.4447 238.667 73.3031 238.908C72.9497 239.511 72.5331 240.126 71.9168 240.58C70.9507 241.291 69.7221 241.453 68.0222 241.192ZM233.452 113.87C231.319 108.686 228.178 103.981 224.215 100.025L212.252 192.068L213.246 191.957C213.246 191.956 213.246 191.956 213.246 191.956C213.111 190.752 212.474 189.738 211.981 188.954C211.943 188.894 211.907 188.836 211.871 188.778C211.314 187.885 210.98 187.257 210.993 186.573C211.015 185.404 211.561 184.487 212.4 183.209C212.435 183.156 212.47 183.102 212.506 183.048C213.209 181.979 214.046 180.708 214.567 179.011C217.719 178.668 220.04 177.273 221.907 175.211C223.87 173.043 225.331 170.135 226.786 167.035C227.009 166.559 227.217 166.103 227.415 165.666C227.79 164.841 228.134 164.085 228.493 163.399L228.496 163.394C231.071 158.408 231.571 154.689 231.51 151.472C231.488 150.334 231.395 149.244 231.308 148.221C231.275 147.835 231.242 147.459 231.215 147.094C231.114 145.733 231.074 144.457 231.259 143.13C231.531 141.187 232.074 139.28 232.691 137.254C232.773 136.984 232.856 136.711 232.941 136.437C233.483 134.669 234.054 132.805 234.491 130.816C235.509 126.172 235.796 120.827 233.475 113.932L233.465 113.901L233.452 113.87Z" fill="white" stroke="#007BB5" stroke-width="2"/>
</svg>
