<svg width="281" height="281" viewBox="0 0 281 281" fill="none" xmlns="http://www.w3.org/2000/svg">
<path fill-rule="evenodd" clip-rule="evenodd" d="M143.65 117.672C138.89 122.054 134.62 137.141 131.901 145.887C128.081 143.93 111.52 146.449 111.52 146.449C111.52 146.449 110.208 143.507 117.149 141.913C124.089 140.32 128.602 141.002 127.754 138.562C126.905 136.123 113.946 132.298 104.9 140.323C104.9 140.323 110.826 134.46 116.14 133.521C121.454 132.583 126.35 131.804 125.459 129.468C124.569 127.131 109.605 124.999 102.742 132.632L104.203 124.469L101.656 116.134C101.656 116.134 95.769 129.402 97.5815 137.037C99.3939 144.671 110.106 150.491 109.504 156.68C108.903 162.869 106.311 187.017 112.4 193.412C118.489 199.808 122.134 206.281 128.608 200.999C135.525 195.362 140.855 184.006 143.656 175.487C146.801 165.925 148.011 162.66 149.364 160.638C150.717 158.616 165.147 111.54 165.147 111.54C165.147 111.54 151.157 110.76 143.65 117.672ZM120.476 150.926C120.476 150.926 127.605 150.513 130.968 148.868C128.95 155.265 127.034 160.894 125.208 163.779C124.307 162.064 120.618 154.771 120.476 150.926Z" fill="#D6F2FF"/>
<path fill-rule="evenodd" clip-rule="evenodd" d="M149.665 74.4238C149.665 74.4238 144.209 89.8788 135.078 88.0327C135.078 88.0327 150.195 113.379 187.153 105.744C224.112 98.1093 229 84.9136 229 84.9136C229 84.9136 201.71 87.628 201.71 74.4238H149.665Z" fill="#007BB5"/>
<path fill-rule="evenodd" clip-rule="evenodd" d="M127.443 112.516C125.131 109.158 123.369 109.858 117.972 109.2C112.65 108.551 104.87 108.23 103.553 109.703C101.077 112.47 100.959 112.439 101.702 115.953L106.468 129.803C110.01 128.018 113.937 127.131 117.903 127.221C125.763 127.41 126.517 130.051 124.757 131.308C122.996 132.566 113.816 132.88 110.61 136.338C121.298 134.641 124.254 135.898 126.328 137.407C128.401 138.916 127.963 140.299 125.511 140.74C123.06 141.181 114.822 140.802 112.495 143.946C112.201 144.343 111.94 144.708 111.713 145.042L112.198 146.447L136.285 145.037C137.326 144.063 138.11 142.849 138.569 141.5C138.569 141.5 129.757 115.874 127.443 112.516Z" fill="#007BB5"/>
<path d="M139.235 141.271C138.874 140.22 130.364 115.514 128.023 112.117C126.006 109.187 124.22 109.043 120.982 108.783C118.054 108.548 105.234 106.791 103.03 109.232C102.209 110.141 100.529 111.893 100.585 113.082C100.841 118.539 105.494 129.605 105.692 130.073C105.727 130.16 105.779 130.239 105.844 130.305C105.91 130.372 105.988 130.425 106.074 130.461C106.16 130.497 106.253 130.516 106.346 130.516C106.44 130.516 106.532 130.497 106.619 130.46C106.705 130.424 106.783 130.371 106.848 130.304C106.913 130.237 106.965 130.158 106.999 130.071C107.033 129.984 107.05 129.891 107.048 129.797C107.045 129.704 107.025 129.612 106.986 129.526C106.939 129.415 102.246 118.26 101.99 113.04C111.151 112.803 121.067 112.961 122.097 113.616C123.405 114.777 130.727 132.732 135.283 144.395L130.172 144.715C129.365 144.767 128.982 146.245 130.814 146.098C136.737 145.621 136.51 145.787 136.765 145.545C137.912 144.475 138.769 143.133 139.256 141.644C139.284 141.519 139.276 141.391 139.235 141.271ZM102.816 111.614C103.273 111.035 103.731 110.552 104.081 110.17C104.958 109.199 111.149 109.074 117.893 109.896C120.029 110.006 122.154 110.268 124.252 110.681L122.649 112.335C120.143 111.329 107.65 111.506 102.816 111.614ZM136.536 143.734C133.615 136.284 126.288 117.766 123.599 113.367L125.521 111.383C126.04 111.827 126.493 112.342 126.866 112.914C128.639 115.486 134.776 132.638 137.837 141.53C137.548 142.341 137.105 143.088 136.532 143.731L136.536 143.734Z" fill="#007BB5"/>
<path d="M104.776 118.984C103.346 117.579 104.33 115.368 107.672 115.425C111.168 115.476 113.011 115.869 113.841 116.739C114.618 117.551 114.544 118.978 112.858 119.651C110.573 120.563 105.875 120.063 104.776 118.984ZM105.552 117.524C105.49 117.672 105.632 117.854 105.761 117.982C107.856 118.815 110.166 118.943 112.339 118.346C112.685 118.206 113.081 117.978 112.826 117.707C112.472 117.337 111.287 116.857 107.652 116.83C107.061 116.826 105.781 116.973 105.552 117.524Z" fill="#007BB5"/>
<path fill-rule="evenodd" clip-rule="evenodd" d="M155.521 176.624C150.702 169.11 148.447 160.237 149.093 151.334C150.445 137.116 165.141 111.539 165.141 111.539L173.179 108.256C173.179 108.256 172.863 103.823 172.863 101.559L197.31 100.213C197.31 100.213 197.972 105.542 200.862 107.923C203.752 110.303 211.93 112.952 211.93 112.952C211.93 112.952 206.425 131.712 209.73 147.313C211.483 155.585 223.149 161.458 223.149 161.458C221.3 168.986 218.857 176.354 215.843 183.496C211.769 193.481 220.435 233.233 229.004 258.038C203.07 265.128 143.654 250.311 143.654 250.311L155.521 176.624Z" fill="#5DBFEC"/>
<path fill-rule="evenodd" clip-rule="evenodd" d="M192.548 263.383C188.055 267.308 183.062 270.621 177.7 273.237C168.74 277.627 129.26 261.253 124.061 254.746C118.863 248.24 127.239 213.796 127.239 213.796C132.438 210.996 144.576 210.23 144.576 210.23L151.179 178.47C151.179 178.47 151.415 175.556 158.291 174.301C165.168 173.047 202.253 180.495 202.253 180.495C202.253 180.495 210.626 181.443 210.816 187.194C211.006 192.944 198.705 228.185 198.705 228.185L192.548 263.383Z" fill="#007BB5"/>
<path fill-rule="evenodd" clip-rule="evenodd" d="M186.786 177.568L174.775 175.601L176.519 168.998L188.191 170.824L186.786 177.568Z" fill="#007BB5"/>
<path d="M211.52 187.171C211.313 180.887 202.701 179.839 202.387 179.808C201.765 179.683 195.392 178.403 187.61 177.037L188.874 170.973C188.894 170.88 188.895 170.783 188.877 170.689C188.859 170.595 188.821 170.507 188.766 170.426C188.713 170.348 188.642 170.28 188.562 170.23C188.481 170.179 188.389 170.145 188.295 170.13L176.623 168.304C176.451 168.277 176.275 168.315 176.129 168.409C175.983 168.504 175.879 168.651 175.834 168.818L174.238 174.859C167.081 173.817 160.695 173.154 158.162 173.609C150.963 174.922 150.506 178.058 150.49 178.327L143.886 210.08C143.851 210.25 143.879 210.425 143.965 210.574C144.052 210.725 144.19 210.837 144.354 210.89C201.107 229.717 198.524 228.874 198.702 228.874C198.848 228.874 198.99 228.83 199.108 228.745C199.228 228.661 199.318 228.542 199.365 228.404C199.875 226.972 211.714 192.987 211.52 187.171ZM177.037 169.791L187.354 171.407L186.23 176.795C182.8 176.198 179.154 175.594 175.642 175.067L177.037 169.791ZM198.271 227.299L145.395 209.766L151.88 178.547C151.88 178.524 152.302 176.11 158.419 174.994C165.087 173.777 201.747 181.112 202.175 181.194C202.253 181.203 209.946 182.133 210.115 187.218C210.286 192.345 199.946 222.462 198.271 227.299Z" fill="#007BB5"/>
<path fill-rule="evenodd" clip-rule="evenodd" d="M211.925 112.963C211.925 112.963 226.382 114.095 232.712 123.763C240.032 134.942 240.814 148.558 248.481 162.24C256.148 175.921 264.639 200.144 260.323 204.68C256.006 209.217 234.537 208.87 226.288 205.192C218.039 201.514 210.13 202.886 206.722 206.737C203.313 210.588 204.213 211.889 200.595 214.379C196.977 216.869 193.832 216.317 192.139 220.223C190.446 224.128 189.488 231.877 187.419 231.033C185.349 230.188 184.537 218.818 188.98 214.594C188.98 214.594 186.002 213.931 183.781 219.231C181.56 224.53 184.394 232.879 181.894 232.921C179.395 232.963 172.916 222.305 180.988 212.023C180.988 212.023 175.354 218.386 175.477 224.822C175.601 231.259 174.916 233.067 172.728 231.232C170.54 229.397 170.4 221.212 171.125 216.707C171.125 216.707 164.187 226.382 161.711 226.107C159.236 225.831 163.343 218.759 164.982 216.016C166.622 213.273 169.912 207.972 175.546 205.73C181.18 203.488 188.073 197.558 191.953 195.281C195.832 193.003 198.369 192.158 204.176 191.331C209.983 190.505 216.754 190.399 222.843 188.425C228.932 186.451 231.454 184.714 235.475 183.31C235.475 183.31 228.155 164.209 223.975 158.671L223.141 161.467C219.363 159.879 216.069 157.326 213.59 154.064C211.111 150.801 209.532 146.945 209.013 142.88C207.423 132.823 208.425 122.525 211.925 112.963Z" fill="#D6F2FF"/>
<path fill-rule="evenodd" clip-rule="evenodd" d="M180.471 101.134L194.91 100.219L196.315 79.6836C195.612 79.0499 203.722 79.2621 201.898 62.2209C199.978 44.2762 187.708 27.9388 164.933 36.5403C141.457 45.4058 143.609 58.5636 148.132 68.9719C150.485 72.9462 152.355 77.1882 153.7 81.607C153.7 81.607 152.642 90.3981 156.608 94.1256C160.575 97.8531 170.026 103.979 176.946 102.511C178.179 102.219 179.366 101.756 180.471 101.134Z" fill="#D6F2FF"/>
<path fill-rule="evenodd" clip-rule="evenodd" d="M171.196 30.2967C170.802 29.5507 165.302 18.9064 171.219 13.7767C177.352 8.45878 190.986 6.87815 197.255 15.4908C203.105 23.5302 199.037 31.4938 190.99 36.5405C192.79 38.0194 194.387 39.7296 195.74 41.6266C205.842 55.7609 201.929 69.1126 201.929 69.1126C200.762 65.4751 198.961 65.8179 197.04 66.6932C193.471 68.3174 191.462 77.1942 191.462 77.1942C188.427 72.7333 188.222 71.4042 189.57 63.1288C190.512 57.3317 189.65 57.8024 189.047 55.893C171.239 45.1574 163.831 49.8782 153.76 67.4913C143.689 85.1044 134.318 85.1156 134.318 85.1156C134.318 85.1156 138.533 84.895 140.055 69.3599C141.534 54.3166 140.711 48.8469 154.105 36.962C158.894 32.8894 164.913 30.5422 171.196 30.2967Z" fill="#007BB5"/>
<path d="M173.179 102.03C172.992 102.03 172.814 102.104 172.682 102.236C172.551 102.367 172.476 102.546 172.476 102.732V107.79C164.212 111.169 164.703 110.9 164.531 111.199C163.928 112.248 149.745 137.068 148.395 151.275C147.519 159.864 149.701 168.488 154.558 175.625C154.613 175.702 154.682 175.767 154.764 175.816C154.844 175.865 154.932 175.898 155.026 175.912C155.119 175.926 155.215 175.921 155.306 175.898C155.397 175.874 155.483 175.833 155.557 175.775C155.632 175.718 155.695 175.646 155.741 175.565C155.788 175.483 155.817 175.392 155.829 175.299C155.84 175.205 155.831 175.111 155.805 175.019C155.778 174.93 155.733 174.845 155.674 174.772C151.082 167.892 149.004 159.639 149.793 151.404C151.05 138.172 164.235 114.571 165.631 112.104L173.444 108.91C173.574 108.857 173.685 108.767 173.762 108.651C173.839 108.536 173.881 108.399 173.881 108.26V102.732C173.881 102.64 173.863 102.549 173.828 102.464C173.793 102.378 173.741 102.301 173.676 102.236C173.61 102.17 173.533 102.119 173.447 102.083C173.363 102.048 173.272 102.03 173.179 102.03Z" fill="#007BB5"/>
<path d="M194.425 79.1424C194.311 79.1422 194.199 79.1143 194.098 79.0608C193.997 79.0074 193.91 78.9301 193.845 78.8357C193.782 78.7413 193.741 78.6327 193.728 78.5191C193.716 78.4056 193.73 78.2907 193.772 78.1842L197.473 68.7159C197.54 68.5422 197.675 68.4027 197.845 68.3278C198.016 68.2531 198.209 68.2491 198.383 68.3169C198.556 68.3847 198.696 68.5188 198.771 68.6895C198.845 68.8602 198.85 69.0536 198.782 69.2273L195.08 78.6956C195.028 78.8274 194.938 78.9405 194.821 79.0201C194.705 79.1 194.567 79.1425 194.425 79.1424Z" fill="#007BB5"/>
<path d="M164.336 90.4816C162.185 88.138 162.695 80.1576 162.759 79.2542C162.766 79.1619 162.79 79.0718 162.832 78.9892C162.873 78.9065 162.931 78.8327 163.001 78.7722C163.071 78.7117 163.151 78.6655 163.24 78.6363C163.327 78.6072 163.42 78.5955 163.512 78.6023C163.605 78.6089 163.695 78.6336 163.778 78.6751C163.859 78.7165 163.934 78.7738 163.994 78.8438C164.055 78.9136 164.101 78.9948 164.131 79.0827C164.159 79.1703 164.171 79.2631 164.164 79.3554C164 81.6399 163.897 87.9259 165.375 89.5332C166.386 90.6333 169.169 88.6902 170.216 86.0446C170.251 85.9589 170.301 85.8809 170.366 85.815C170.431 85.7491 170.508 85.6966 170.592 85.6605C170.678 85.6243 170.768 85.6052 170.861 85.6044C170.953 85.6035 171.045 85.6208 171.13 85.6554C171.216 85.6898 171.293 85.7408 171.359 85.8054C171.425 85.8701 171.479 85.9471 171.514 86.0321C171.55 86.1169 171.57 86.2083 171.57 86.3006C171.572 86.3927 171.555 86.4843 171.52 86.5701C170.072 90.1528 166.181 92.4949 164.336 90.4816Z" fill="#007BB5"/>
<path d="M166.633 93.8915C166.567 93.8269 166.514 93.7499 166.477 93.6649C166.441 93.5799 166.421 93.4885 166.421 93.396C166.419 93.3035 166.436 93.2116 166.47 93.1258C166.505 93.0399 166.556 92.9615 166.62 92.8954C166.685 92.829 166.762 92.7762 166.847 92.7397C166.932 92.7033 167.024 92.6839 167.116 92.6826C167.208 92.6815 167.3 92.6985 167.386 92.7329C167.472 92.7672 167.55 92.8181 167.617 92.8827C168.12 93.376 168.732 93.7447 169.404 93.9591C170.075 94.1736 170.788 94.2279 171.484 94.1177C173.501 93.4911 176.218 89.5767 177.159 87.7179C177.199 87.6326 177.256 87.5564 177.325 87.4934C177.395 87.4305 177.477 87.3823 177.567 87.3515C177.655 87.3209 177.749 87.3082 177.844 87.3147C177.938 87.321 178.029 87.3462 178.112 87.3886C178.196 87.431 178.271 87.4899 178.332 87.5617C178.393 87.6335 178.438 87.7168 178.466 87.8066C178.494 87.8964 178.504 87.9909 178.494 88.0845C178.486 88.1782 178.457 88.269 178.413 88.3516C177.807 89.5486 174.741 94.5771 171.902 95.4595C170.963 95.6729 169.985 95.6409 169.062 95.3662C168.139 95.0915 167.302 94.5836 166.633 93.8915Z" fill="#007BB5"/>
<path d="M170.717 98.4794C170.535 98.4406 170.376 98.3312 170.275 98.1749C170.174 98.0187 170.137 97.8285 170.176 97.6462C170.217 97.4653 170.327 97.3072 170.481 97.2059C170.637 97.1045 170.825 97.0679 171.008 97.1039C172.88 97.5203 174.795 97.7132 176.712 97.6785C176.898 97.6551 177.085 97.7061 177.232 97.8203C177.378 97.9345 177.475 98.1027 177.499 98.2876C177.522 98.4726 177.471 98.6594 177.357 98.8069C177.242 98.9543 177.075 99.0502 176.889 99.0737C174.814 99.1473 172.739 98.9475 170.717 98.4794Z" fill="#007BB5"/>
<path d="M166.743 69.6755C166.602 69.6754 166.464 69.6329 166.348 69.5537C166.233 69.4746 166.143 69.3623 166.091 69.2317C166.039 69.1008 166.027 68.9575 166.058 68.8203C166.088 68.683 166.159 68.5581 166.262 68.4616C169.052 66.0395 172.608 64.6797 176.304 64.6217H176.431C182.581 64.6779 184.042 68.0443 184.101 68.1862C184.136 68.2715 184.155 68.3628 184.155 68.4551C184.155 68.5474 184.136 68.6387 184.101 68.724C184.066 68.8093 184.014 68.8867 183.95 68.9521C183.884 69.0172 183.806 69.0691 183.721 69.1044C183.636 69.1398 183.545 69.1579 183.452 69.158C183.359 69.158 183.268 69.1399 183.184 69.1045C183.098 69.0692 183.021 69.0175 182.955 68.9523C182.89 68.887 182.838 68.8096 182.803 68.7243C182.758 68.6231 181.574 66.0731 176.42 66.0267C173.043 66.0579 169.786 67.2828 167.224 69.4844C167.094 69.6072 166.921 69.6756 166.743 69.6755Z" fill="#007BB5"/>
<path d="M157.63 71.5652C155.827 70.8105 153.8 70.8008 151.99 71.5385C151.823 71.6217 151.629 71.6348 151.451 71.5749C151.274 71.5151 151.127 71.3874 151.045 71.2196C150.962 71.052 150.949 70.8581 151.008 70.6808C151.068 70.5035 151.196 70.3572 151.363 70.274C152.434 69.8229 153.585 69.5881 154.747 69.5832C155.909 69.5784 157.061 69.8037 158.136 70.2459C158.311 70.3131 158.452 70.4469 158.528 70.618C158.605 70.7891 158.609 70.9836 158.542 71.1585C158.476 71.3334 158.341 71.4746 158.171 71.5509C157.999 71.6272 157.805 71.6324 157.63 71.5652Z" fill="#007BB5"/>
<path d="M135.805 134.319C135.693 134.319 135.583 134.292 135.483 134.241C135.384 134.19 135.298 134.117 135.233 134.026C135.168 133.935 135.125 133.83 135.109 133.719C135.092 133.609 135.103 133.496 135.139 133.39C138.142 124.511 140.618 119.502 143.174 117.15C150.811 110.125 164.597 110.809 165.18 110.84C165.366 110.85 165.54 110.934 165.665 111.073C165.789 111.212 165.852 111.394 165.842 111.58C165.829 111.765 165.744 111.938 165.606 112.061C165.468 112.185 165.287 112.25 165.102 112.242C164.961 112.234 151.324 111.556 144.126 118.184C141.052 121.013 138.284 128.474 136.469 133.841C136.422 133.98 136.333 134.101 136.213 134.187C136.094 134.272 135.951 134.319 135.805 134.319Z" fill="#007BB5"/>
<path d="M149.318 160.318C147.868 159.354 146.747 163.837 142.983 175.272C139.294 186.484 133.753 195.899 128.158 200.457C122.283 205.251 119.136 199.485 112.903 192.926C107.329 187.066 109.406 164.922 110.201 156.74C110.846 150.11 100.033 144.323 98.2587 136.868C96.9113 131.185 100.057 122.067 101.556 118.218L103.477 124.504L102.045 132.503C102.018 132.653 102.041 132.808 102.11 132.944C102.18 133.08 102.291 133.19 102.428 133.257C102.566 133.324 102.721 133.345 102.871 133.316C103.021 133.286 103.157 133.209 103.259 133.096C109.872 125.748 124.168 128.055 124.799 129.715C124.841 129.799 124.862 129.891 124.86 129.984C124.858 130.078 124.833 130.169 124.788 130.251C124.135 131.401 120.077 132.114 116.498 132.745C116.358 132.825 111.134 133.166 104.403 139.823C104.277 139.952 104.205 140.126 104.203 140.306C104.202 140.487 104.27 140.662 104.393 140.794C104.517 140.926 104.686 141.004 104.867 141.014C105.047 141.024 105.225 140.965 105.362 140.847C107.791 138.782 110.685 137.337 113.794 136.634C116.904 135.932 120.138 135.993 123.218 136.813C125.631 137.443 126.932 138.349 127.085 138.79C127.148 138.922 127.161 139.072 127.122 139.212C126.309 140.535 113.301 140.038 111.023 144.601C110.847 144.926 110.742 145.284 110.716 145.652C110.691 146.019 110.744 146.388 110.874 146.734C110.937 146.874 111.044 146.99 111.178 147.064C111.313 147.137 111.468 147.164 111.62 147.141C122.228 145.528 131.737 145.399 131.97 146.86C131.985 146.964 131.976 147.07 131.944 147.168C131.912 147.268 131.857 147.359 131.785 147.434C129.745 149.963 119.218 150.384 115.477 150.384C115.385 150.383 115.293 150.4 115.207 150.433C115.121 150.467 115.043 150.516 114.976 150.581C114.842 150.71 114.765 150.887 114.761 151.074C114.757 151.259 114.828 151.439 114.957 151.574C115.087 151.708 115.264 151.786 115.45 151.789C116.459 151.789 117.971 151.821 119.828 151.681C120.41 156.539 127.837 171.815 129.677 174.901C131.591 178.12 132.175 187.204 131.764 190.897C131.753 190.989 131.761 191.081 131.787 191.171C131.813 191.26 131.855 191.341 131.913 191.414C131.971 191.486 132.042 191.546 132.123 191.591C132.203 191.635 132.292 191.663 132.384 191.674C132.476 191.684 132.568 191.676 132.657 191.65C132.746 191.625 132.828 191.582 132.9 191.524C132.973 191.466 133.033 191.396 133.077 191.315C133.122 191.235 133.15 191.145 133.16 191.053C133.592 187.181 133.055 177.832 130.886 174.183C129.127 171.222 126.574 165.588 125.923 164.132C127.679 161.392 129.42 156.393 131.619 149.301C132.687 148.708 133.551 147.85 133.357 146.631C132.785 143.044 118.878 144.643 112.141 145.634C112.452 143.948 115.622 142.973 117.301 142.586C123.445 141.181 127.294 141.603 128.32 139.938C128.459 139.694 128.54 139.421 128.556 139.141C128.573 138.86 128.524 138.58 128.414 138.321C128.028 137.211 126.22 136.135 123.574 135.445C120.056 134.552 116.373 134.536 112.848 135.397C114.065 134.755 115.381 134.323 116.741 134.119C121.378 133.305 125.031 132.663 126.014 130.935C126.161 130.674 126.246 130.382 126.264 130.083C126.281 129.784 126.231 129.485 126.116 129.208C125.055 126.432 111.471 124.522 103.807 130.664C104.991 124.049 104.945 124.49 104.875 124.26L102.328 115.924C102.286 115.787 102.203 115.666 102.091 115.578C101.978 115.489 101.841 115.437 101.698 115.428C101.555 115.419 101.413 115.454 101.291 115.529C101.169 115.603 101.072 115.713 101.014 115.844C100.769 116.396 95.0524 129.418 96.8958 137.2C98.7335 144.95 109.362 150.907 108.803 156.611C107.95 165.322 105.823 187.521 111.884 193.903C117.843 200.168 122.009 207.289 129.046 201.553C134.841 196.832 140.549 187.174 144.317 175.719C147.392 166.376 148.223 163.229 149.516 161.298C149.568 161.221 149.604 161.134 149.623 161.043C149.641 160.951 149.641 160.858 149.621 160.767C149.603 160.676 149.566 160.589 149.514 160.511C149.462 160.434 149.395 160.368 149.318 160.318ZM125.198 162.616C124.083 160.292 121.649 154.931 121.233 151.577C124.179 151.387 127.094 150.869 129.925 150.032C128.71 154.353 127.129 158.564 125.198 162.616Z" fill="#007BB5"/>
<path d="M198.178 227.724C198.132 227.777 193.37 233.029 183.907 232.724C174.206 232.395 127.977 213.335 127.511 213.15C127.34 213.085 127.151 213.091 126.984 213.162C126.817 213.235 126.684 213.37 126.615 213.539C126.545 213.708 126.544 213.897 126.611 214.066C126.679 214.236 126.809 214.372 126.975 214.448C135.613 218.019 175.248 234.143 184.759 234.143C189.395 234.251 193.936 232.817 197.667 230.062L192.669 258.611C192.654 258.701 192.655 258.795 192.676 258.885C192.696 258.975 192.734 259.06 192.787 259.135C192.84 259.211 192.908 259.276 192.985 259.325C193.064 259.374 193.151 259.408 193.242 259.423C193.332 259.439 193.426 259.437 193.516 259.416C193.606 259.397 193.69 259.359 193.766 259.305C193.842 259.252 193.907 259.185 193.956 259.107C194.005 259.029 194.039 258.941 194.054 258.852L199.35 228.595C199.441 227.427 198.611 227.229 198.178 227.724Z" fill="#007BB5"/>
<path d="M186.813 234.028C186.63 233.989 186.441 234.022 186.283 234.124C186.127 234.225 186.016 234.383 185.977 234.565C183.478 246.024 177.038 269.714 176.132 273.034C165.621 275.422 129.702 260.684 124.615 254.309C124.559 254.233 124.488 254.169 124.407 254.12C124.325 254.07 124.235 254.039 124.141 254.027C124.047 254.014 123.951 254.021 123.86 254.046C123.769 254.072 123.683 254.115 123.609 254.174C123.535 254.233 123.474 254.306 123.429 254.391C123.384 254.474 123.356 254.565 123.347 254.659C123.339 254.755 123.35 254.849 123.379 254.94C123.408 255.03 123.455 255.113 123.518 255.185C129.202 262.311 168.932 278.314 178.008 273.871C178.148 273.802 178.262 273.688 178.331 273.548C178.4 273.407 178.42 273.249 178.387 273.095C178.355 272.942 178.272 272.803 178.153 272.703C178.033 272.602 177.883 272.543 177.727 272.538C179.198 267.127 185.005 245.631 187.351 234.867C187.371 234.777 187.374 234.683 187.357 234.591C187.34 234.5 187.306 234.413 187.257 234.336C187.206 234.257 187.142 234.191 187.066 234.138C186.989 234.084 186.903 234.048 186.813 234.028Z" fill="#007BB5"/>
<path d="M143.732 258.446C142.546 257.958 141.559 257.084 140.934 255.966C140.308 254.847 140.079 253.549 140.285 252.285C141.135 246.934 143.747 244.515 148.043 245.095C148.152 245.109 148.256 245.149 148.346 245.21C148.435 245.272 148.51 245.354 148.563 245.449C148.617 245.545 148.646 245.652 148.65 245.761C148.656 245.869 148.635 245.979 148.59 246.079L147.682 248.101C147.644 248.185 147.59 248.262 147.521 248.325C147.453 248.39 147.373 248.439 147.285 248.471C147.198 248.504 147.105 248.519 147.012 248.515C146.918 248.511 146.827 248.488 146.742 248.449C146.313 248.252 145.828 248.219 145.375 248.353C145.024 248.494 144.847 248.775 144.625 249.382C144.097 250.835 143.209 253.264 143.835 254.426C143.935 254.599 144.072 254.746 144.236 254.86C144.4 254.972 144.589 255.048 144.785 255.079C144.879 255.1 144.968 255.142 145.045 255.2C145.122 255.258 145.186 255.331 145.235 255.414C145.283 255.498 145.312 255.591 145.322 255.686C145.333 255.782 145.323 255.879 145.295 255.971L144.664 258.003C144.635 258.096 144.587 258.181 144.524 258.254C144.461 258.328 144.382 258.387 144.295 258.429C144.208 258.469 144.112 258.493 144.015 258.496C143.918 258.499 143.821 258.482 143.732 258.446Z" fill="#007BB5"/>
<path d="M185.974 244.203L187.839 235.121C187.864 234.995 187.924 234.879 188.01 234.785C188.097 234.693 188.208 234.624 188.33 234.589L196.339 232.244C196.456 232.209 196.579 232.206 196.699 232.234C196.817 232.262 196.926 232.321 197.016 232.404C197.105 232.487 197.171 232.592 197.207 232.709C197.244 232.825 197.249 232.949 197.223 233.068L195.142 242.482C195.114 242.608 195.052 242.725 194.961 242.819C194.871 242.912 194.757 242.979 194.63 243.012L186.84 245.021C186.725 245.05 186.604 245.05 186.488 245.021C186.373 244.991 186.266 244.932 186.181 244.851C186.094 244.769 186.029 244.667 185.994 244.553C185.957 244.44 185.95 244.32 185.974 244.203ZM189.13 235.818L187.584 243.383L193.869 241.763L195.6 233.925L189.13 235.818Z" fill="#007BB5"/>
<path d="M171.551 30.9831C178.627 30.5831 185.588 32.9031 191.01 37.4685C191.08 37.5308 191.16 37.5784 191.249 37.6088C191.337 37.6391 191.431 37.6516 191.524 37.6454C191.617 37.6392 191.708 37.6147 191.791 37.5729C191.875 37.5312 191.95 37.4733 192.01 37.4025C192.071 37.3318 192.117 37.2496 192.146 37.1608C192.175 37.072 192.186 36.9783 192.177 36.8853C192.17 36.7924 192.144 36.7018 192.1 36.6192C192.056 36.5365 191.997 36.4631 191.926 36.4035C186.229 31.6159 178.923 29.1757 171.491 29.5781C171.306 29.5861 171.13 29.6676 171.004 29.8045C170.879 29.9415 170.813 30.1228 170.82 30.3087C170.83 30.494 170.913 30.6678 171.049 30.7937C171.185 30.9194 171.365 30.9874 171.551 30.9831Z" fill="#007BB5"/>
<path d="M188.919 52.3247C188.772 52.3247 188.628 52.2782 188.509 52.1921C188.388 52.1058 188.299 51.9842 188.253 51.8444C188.205 51.7044 188.204 51.5534 188.249 51.4127C188.292 51.272 188.38 51.1486 188.498 51.0602C190.982 48.952 192.836 46.2 193.858 43.1065C193.911 42.9279 194.033 42.778 194.198 42.6897C194.361 42.6013 194.553 42.5816 194.732 42.6351C194.91 42.6885 195.06 42.8108 195.149 42.9747C195.237 43.1388 195.257 43.3312 195.204 43.5098C194.106 46.8923 192.078 49.8966 189.349 52.1772C189.225 52.2726 189.075 52.3244 188.919 52.3247Z" fill="#007BB5"/>
<path fill-rule="evenodd" clip-rule="evenodd" d="M202.442 212.843C201.376 214.216 199.899 215.211 198.227 215.683C194.911 225.043 196.159 221.524 190.629 237.129L194.484 236.381C194.484 236.381 197.403 227.749 202.442 212.843Z" fill="#007BB5"/>
<path d="M189.967 236.894L197.565 215.45C197.594 215.36 197.64 215.277 197.702 215.205C197.762 215.134 197.838 215.075 197.922 215.032C198.007 214.99 198.098 214.966 198.192 214.961C198.286 214.955 198.38 214.968 198.469 215C198.559 215.031 198.64 215.08 198.709 215.143C198.779 215.208 198.834 215.284 198.874 215.37C198.913 215.455 198.934 215.548 198.937 215.642C198.94 215.736 198.923 215.83 198.889 215.919L191.702 236.206L193.95 235.772L201.778 212.62C201.841 212.447 201.969 212.308 202.133 212.229C202.299 212.151 202.489 212.14 202.661 212.197C202.834 212.256 202.979 212.38 203.062 212.543C203.145 212.706 203.162 212.894 203.108 213.07L195.155 236.602C195.115 236.719 195.045 236.824 194.952 236.905C194.858 236.987 194.746 237.043 194.623 237.067L190.77 237.815C190.647 237.838 190.522 237.83 190.404 237.791C190.288 237.751 190.182 237.681 190.101 237.587C190.019 237.494 189.964 237.38 189.941 237.258C189.917 237.136 189.926 237.011 189.967 236.894Z" fill="#007BB5"/>
<path d="M249.094 161.893C241.472 148.291 240.692 134.664 233.3 123.374C228.875 116.615 219.703 113.126 211.97 112.259C211.809 112.247 211.651 112.29 211.52 112.381C211.389 112.473 211.294 112.607 211.25 112.761C211.194 112.951 205.734 131.869 209.037 147.465C210.84 155.97 222.338 161.846 222.827 162.092C222.927 162.141 223.035 162.168 223.146 162.166C223.257 162.166 223.367 162.14 223.465 162.088C223.564 162.037 223.649 161.964 223.714 161.873C223.779 161.783 223.821 161.679 223.838 161.569L224.037 160.244C228.636 168.915 233.364 180.068 234.548 182.9C233.113 183.435 231.843 184.013 230.51 184.62C222.035 188.486 218.687 189.093 209.487 190.019C200.8 190.89 196.974 191.521 191.603 194.675C187.641 197.003 180.849 202.865 175.292 205.072C169.283 207.461 165.852 213.202 164.385 215.651C159.987 223.002 159.966 225.037 160.438 225.99C160.551 226.218 160.721 226.412 160.932 226.555C161.141 226.697 161.385 226.782 161.638 226.802C163.746 226.996 167.718 222.358 170.138 219.208C169.857 223.072 170.096 228.051 171.352 230.534C171.44 230.694 171.586 230.815 171.76 230.868C171.934 230.923 172.124 230.908 172.287 230.825C172.45 230.742 172.573 230.6 172.634 230.427C172.693 230.254 172.683 230.066 172.606 229.9C171.465 227.644 171.201 222.407 171.622 218.365C172.136 214.82 173.796 211.54 176.346 209.023C176.479 208.893 176.557 208.714 176.559 208.527C176.561 208.34 176.489 208.161 176.358 208.026C176.229 207.892 176.051 207.816 175.864 207.814C175.677 207.811 175.496 207.882 175.362 208.013C173.076 210.316 171.42 213.167 170.553 216.293C167.331 220.789 163.059 225.524 161.701 225.384C161.701 225.384 160.818 224.339 165.585 216.373C166.977 214.046 170.238 208.595 175.805 206.379C179.929 204.442 183.822 202.046 187.409 199.236C194.021 194.474 196.352 193.151 204.269 192.024C210.282 191.169 216.856 191.098 223.054 189.089C232.145 186.139 233.925 183.469 240.436 183.343C244.485 183.222 248.469 184.396 251.806 186.695C251.952 186.812 252.137 186.865 252.323 186.845C252.507 186.824 252.677 186.732 252.793 186.585C252.91 186.439 252.963 186.254 252.944 186.068C252.923 185.884 252.83 185.714 252.684 185.598C250.271 183.906 247.523 182.753 244.626 182.219C241.729 181.683 238.75 181.779 235.894 182.498C233.07 175.685 222.92 152.188 217.688 148.624C217.533 148.525 217.348 148.49 217.168 148.527C216.988 148.563 216.831 148.669 216.728 148.819C216.624 148.971 216.585 149.156 216.616 149.336C216.648 149.516 216.748 149.677 216.897 149.784C218.497 150.875 220.652 154.117 222.915 158.189L222.587 160.365C219.904 158.838 211.794 153.738 210.403 147.171C207.49 133.423 211.565 116.954 212.432 113.719C215.142 114.054 226.746 115.941 232.114 124.14C239.353 135.198 240.138 148.802 247.859 162.577C256.199 177.46 263.49 200.312 259.801 204.19C255.727 208.48 234.511 208.093 226.562 204.544C217.684 200.588 209.588 202.413 206.181 206.268C202.733 210.173 203.624 211.43 200.183 213.796C196.697 216.201 193.308 215.731 191.482 219.939C190.119 223.084 188.96 229.806 187.671 230.379C187.531 230.322 187.053 229.761 186.722 227.999C186.057 224.475 186.466 217.938 189.452 215.104C189.544 215.017 189.61 214.905 189.646 214.782C189.679 214.659 189.679 214.529 189.646 214.407C189.61 214.284 189.544 214.173 189.452 214.084C189.359 213.997 189.245 213.937 189.12 213.908C188.98 213.879 185.542 213.185 183.119 218.955C181.952 221.733 182.102 225.226 182.223 228.032C182.297 229.771 182.383 231.745 181.869 232.214C181.467 232.214 180.284 231.337 179.226 229.209C178.243 227.224 175.489 220.144 181.527 212.453C181.641 212.31 181.695 212.127 181.676 211.944C181.657 211.762 181.568 211.594 181.426 211.476C181.286 211.36 181.105 211.302 180.922 211.316C180.739 211.33 180.569 211.416 180.448 211.554C180.211 211.822 174.633 218.198 174.761 224.831C174.951 226.871 174.788 228.928 174.28 230.913C174.242 230.997 174.22 231.087 174.217 231.18C174.213 231.271 174.227 231.364 174.259 231.451C174.292 231.537 174.341 231.617 174.403 231.684C174.466 231.752 174.542 231.807 174.625 231.845C174.709 231.884 174.8 231.905 174.892 231.909C174.984 231.912 175.076 231.898 175.163 231.866C175.25 231.833 175.329 231.786 175.396 231.722C175.465 231.659 175.52 231.585 175.558 231.5C176.055 230.419 176.236 228.409 176.166 224.804C176.155 224.034 176.221 223.264 176.364 222.507C176.311 225.042 176.86 227.552 177.967 229.834C179.816 233.553 181.62 233.628 181.891 233.619C185.57 233.591 182.098 225.012 184.42 219.499C184.93 217.994 185.889 216.682 187.169 215.741C184.971 219.316 184.713 224.9 185.342 228.261C185.706 230.191 186.311 231.34 187.142 231.68C187.337 231.763 187.546 231.803 187.759 231.795C187.969 231.788 188.177 231.735 188.366 231.64C189.601 231.034 190.269 228.811 191.258 225.237C192.922 219.236 193.272 218.455 197.159 216.888C198.504 216.394 199.788 215.745 200.984 214.954C204.717 212.387 203.972 210.898 207.239 207.198C210.307 203.728 217.734 202.14 225.994 205.828C234.686 209.705 256.259 209.962 260.824 205.16C265.924 199.802 255.749 173.766 249.094 161.893Z" fill="#007BB5"/>
<path d="M177.09 103.196C178.335 102.908 179.534 102.451 180.655 101.837L196.711 100.955C196.836 101.626 196.995 102.29 197.188 102.945C197.241 103.123 197.362 103.274 197.526 103.363C197.689 103.451 197.882 103.472 198.06 103.419C198.24 103.366 198.39 103.244 198.479 103.08C198.567 102.917 198.588 102.724 198.535 102.546C198.3 101.755 198.122 100.948 198.001 100.132C197.984 99.9534 197.897 99.789 197.759 99.6739C197.622 99.5589 197.445 99.5024 197.266 99.5164L195.656 99.6049L196.985 80.1569C200.687 78.3838 202.593 73.9665 202.413 70.0269V70.0072C202.205 65.632 199.534 64.4603 196.09 66.3879C193.408 67.8899 191.84 72.7203 191.164 75.3434C189.539 72.5247 189.043 69.1941 189.776 66.024H189.803C189.891 66.0236 189.98 66.0069 190.063 65.9749C193.45 64.6289 201.913 60.7764 199.957 57.6516C198.5 55.3179 192.578 57.4128 190.428 58.2713C190.34 57.5912 189.974 55.7282 189.401 55.3896C171.174 44.4011 163.38 49.2469 153.152 67.1396C150.079 72.5165 145.958 78.197 140.846 81.6912C138.949 83.1643 136.693 84.1034 134.311 84.4113C134.125 84.4113 133.946 84.4853 133.814 84.617C133.682 84.7488 133.608 84.9275 133.608 85.1138C133.608 85.3001 133.682 85.4788 133.814 85.6104C133.946 85.7422 134.125 85.8163 134.311 85.8163C134.433 85.8163 137.354 85.7797 141.638 82.8517C144.888 80.5309 147.734 77.6942 150.068 74.454L152.985 81.6954C152.813 83.0484 152.031 90.7815 155.925 94.443C160.872 99.1062 170.369 104.618 177.09 103.196ZM190.578 62.5705C193.969 61.1318 194.991 60.723 195.924 60.3731C197.221 59.887 196.874 58.9962 195.673 59.2899C194.39 59.6046 192.16 60.6864 190.802 60.9871C190.782 60.8241 190.734 59.8083 190.757 59.6524C194.199 58.2474 198.149 57.4198 198.765 58.3977C198.809 58.468 198.836 58.5478 198.843 58.6305C198.85 58.7131 198.836 58.7962 198.803 58.8726C198.272 60.4911 193.712 62.9049 190.432 64.3043C190.474 63.9264 190.498 62.8558 190.583 62.5705H190.578ZM194.238 99.6836L183.163 100.293C188.318 96.5803 192.455 91.6297 195.195 85.8978L194.238 99.6836ZM154.39 81.6996C154.429 81.4313 154.646 82.0804 151.032 73.1066C155.9 66.1786 161.075 53.6797 169.999 51.3601C174.797 50.1068 180.512 51.6944 188.506 56.4911C188.756 56.9941 189.613 59.1606 188.735 63.7507C187.586 69.7515 187.735 72.7428 190.864 77.5689C190.939 77.6862 191.05 77.778 191.18 77.8325C191.309 77.8869 191.451 77.9013 191.589 77.8742C191.726 77.847 191.851 77.7794 191.951 77.6799C192.049 77.5804 192.115 77.4537 192.142 77.316C192.557 75.1046 194.195 69.0476 196.766 67.6075C197.195 67.2794 197.698 67.0604 198.23 66.9693C198.761 66.8783 199.308 66.9179 199.822 67.0848C200.696 67.5709 200.973 68.9605 200.998 70.0494C201.165 77.1657 196.27 78.9416 196.072 79.0119C195.947 79.0551 195.837 79.1325 195.756 79.2351C195.673 79.3377 195.621 79.4615 195.605 79.5921C194.438 89.548 183.05 100.484 176.788 101.815C170.025 103.254 160.447 96.7753 156.87 93.4131C153.229 89.9891 154.381 81.7895 154.394 81.7066L154.39 81.6996Z" fill="#007BB5"/>
<path fill-rule="evenodd" clip-rule="evenodd" d="M156.258 76.0279C156.985 75.6303 158.166 76.389 158.894 77.7139C159.622 79.0388 159.621 80.4494 158.894 80.8457C158.168 81.2419 156.986 80.4846 156.258 79.1597C155.531 77.8347 155.533 76.4311 156.258 76.0279Z" fill="#007BB5"/>
<path fill-rule="evenodd" clip-rule="evenodd" d="M175.366 73.5109C176.094 73.1147 177.274 73.8734 178.002 75.1969C178.73 76.5204 178.73 77.9324 178.002 78.33C177.274 78.7276 176.094 77.9689 175.366 76.637C174.639 75.3051 174.641 73.9043 175.366 73.5109Z" fill="#007BB5"/>
<path fill-rule="evenodd" clip-rule="evenodd" d="M60.7536 79.5022C60.7536 79.5022 58.448 72.4507 60.3602 71.6554C62.4269 70.7914 65.539 77.2177 65.539 77.2177L65.5165 77.2289C71.2883 76.8861 76.3603 84.66 78.4791 89.2206C80.7917 94.1915 81.7429 96.5267 86.3948 98.0722C91.0468 99.6177 92.3085 100.197 91.0201 102.095C90.5101 102.845 84.9407 105.065 78.3934 107.474C78.3934 107.474 80.8802 111.949 76.7734 113.531C72.2128 115.289 70.2682 110.395 70.2682 110.395C62.7557 113.045 56.0876 115.283 56.0876 115.283C56.0876 115.283 54.9299 115.349 56.1438 113.42C57.7417 110.786 58.5872 107.764 58.5885 104.683C58.389 101.838 54.7613 85.7053 60.7536 79.5022Z" fill="#5DBFEC"/>
<path d="M78.4173 106.703C75.5904 107.747 72.5697 108.826 69.688 109.843C69.601 109.874 69.521 109.922 69.4524 109.983C69.3837 110.045 69.3279 110.12 69.2881 110.203C69.2484 110.286 69.2253 110.376 69.2204 110.468C69.2155 110.561 69.2287 110.653 69.2595 110.74C69.2902 110.827 69.3377 110.907 69.3994 110.975C69.4611 111.044 69.5357 111.1 69.6189 111.14C69.7022 111.179 69.7924 111.203 69.8846 111.207C69.9767 111.212 70.0689 111.199 70.1559 111.168C73.0431 110.148 76.0709 109.061 78.9034 108.021C79.0744 107.954 79.2124 107.822 79.2875 107.655C79.3627 107.487 79.3692 107.296 79.3057 107.124C79.242 106.952 79.1135 106.811 78.9474 106.732C78.7813 106.654 78.5909 106.643 78.4173 106.703Z" fill="#007BB5"/>
<path d="M65.2396 76.5398C63.5285 76.7315 61.9221 77.4605 60.6509 78.622C60.5826 78.6841 60.5273 78.759 60.4879 78.8424C60.4486 78.9259 60.4261 79.0164 60.4217 79.1085C60.4174 79.2007 60.4313 79.2929 60.4625 79.3797C60.4937 79.4665 60.5417 79.5463 60.6038 79.6146C60.6659 79.6829 60.7408 79.7382 60.8243 79.7776C60.9079 79.8168 60.9982 79.8393 61.0904 79.8438C61.1826 79.8481 61.2747 79.8342 61.3615 79.803C61.4484 79.7718 61.5282 79.7238 61.5965 79.6617C62.6415 78.7057 63.9608 78.1031 65.3675 77.9391C65.5531 77.9221 65.7244 77.8322 65.8435 77.6891C65.9628 77.5457 66.0202 77.3611 66.0032 77.1755C65.9862 76.9899 65.8963 76.8187 65.7532 76.6995C65.6098 76.5802 65.4252 76.5228 65.2396 76.5398Z" fill="#007BB5"/>
<path fill-rule="evenodd" clip-rule="evenodd" d="M103.399 19.6883L107.221 7.02502L129.041 12.9541L122.699 34.1879C122.699 34.1879 120.259 34.6515 115.624 31.8387C110.989 29.0259 113.396 24.3613 116.224 24.4751C119.053 24.5889 122.999 30.4745 122.999 30.4745L126.472 17.8435L107.419 11.3538L103.532 25.0596C103.532 25.0596 92.5964 22.7919 94.5831 17.3321C96.5697 11.8723 101.522 15.6208 103.399 19.6883Z" fill="#007BB5"/>
<path fill-rule="evenodd" clip-rule="evenodd" d="M59.4498 177.637L63.3725 161.186L85.7781 168.888L79.4696 195.614C79.407 195.885 79.2461 196.123 79.0179 196.283C78.7899 196.441 78.5107 196.51 78.2346 196.477C75.925 196.024 73.7753 194.97 72.0021 193.424C67.2419 189.771 69.7133 183.709 72.6189 183.857C75.5244 184.004 79.5764 191.652 79.5764 191.652L83.1409 175.243L63.5777 166.813L59.8235 183.562C59.7923 183.698 59.7328 183.827 59.6485 183.94C59.5643 184.054 59.4572 184.146 59.3344 184.215C59.2116 184.284 59.0756 184.326 58.9356 184.339C58.7955 184.351 58.6541 184.335 58.5211 184.29C55.7715 183.341 48.7479 180.318 50.396 174.583C52.4318 167.5 57.5221 172.354 59.4498 177.637Z" fill="#007BB5"/>
<path fill-rule="evenodd" clip-rule="evenodd" d="M19.5112 35.4451L25.3069 62.9337C25.3069 62.9337 35.1643 62.0993 34.4 54.2664C33.7158 47.2583 25.8956 55.1388 25.8956 55.1388L21.3391 34.5543L19.5112 35.4451Z" fill="#007BB5"/>
<path d="M46.8357 91.3469C46.8357 91.3469 44.4627 96.4218 49.1525 99.3147L47.0872 100.645C47.0872 100.645 42.3847 95.8514 44.8097 91.2317L46.8357 91.3469Z" fill="#007BB5"/>
<path d="M88.2958 88.2861C88.2958 88.2861 90.5438 83.1522 85.7781 80.3802L87.502 79.0229C87.502 79.0229 93.0223 83.1579 90.7153 87.8379L88.2958 88.2861Z" fill="#007BB5"/>
<path d="M41.5135 90.5091C40.0635 92.4327 39.3557 94.8146 39.5198 97.218C39.6607 98.4179 40.1254 99.5571 40.8638 100.513C41.6024 101.47 42.5869 102.207 43.7123 102.647L42.268 104.333C42.268 104.333 37.8984 101.465 37.328 97.8306C36.7576 94.1959 39.2093 90.0216 39.2093 90.0216L41.5135 90.5091Z" fill="#007BB5"/>
<path d="M93.6376 88.9857C95.0394 87.0265 95.6879 84.6276 95.4641 82.229C95.2923 81.0331 94.7986 79.9061 94.0359 78.969C93.2732 78.0319 92.2701 77.3195 91.1339 76.9083L92.2973 74.9315C92.2973 74.9315 96.7652 77.7611 97.4283 81.3804C97.6811 84.0211 97.172 86.6788 95.9615 89.0391L93.6376 88.9857Z" fill="#007BB5"/>
<path d="M203.627 190.699C205.397 190.434 207.212 190.247 209.133 190.054C215.922 164.829 221.911 134.798 220.277 114.771C219.839 114.366 219.314 114.068 218.742 113.901C218.168 113.733 217.566 113.7 216.978 113.804C217.914 114.029 216.474 133.809 211.218 160.361C209.3 170.04 206.479 179.382 203.627 190.699Z" fill="#007BB5"/>
<path d="M202.761 191.265C205.54 180.155 208.6 169.963 210.527 160.226C215.648 134.375 216.908 116.566 216.468 114.341C216.366 114.25 216.293 114.132 216.256 114.001C216.22 113.869 216.222 113.73 216.265 113.6C216.305 113.47 216.384 113.355 216.491 113.269C216.596 113.183 216.724 113.13 216.86 113.116C217.552 112.998 218.261 113.04 218.934 113.236C219.609 113.433 220.228 113.78 220.748 114.251C220.881 114.371 220.963 114.537 220.977 114.716C222.848 137.633 214.654 172.32 209.615 190.963C209.564 191.142 209.446 191.292 209.285 191.383C209.123 191.475 208.933 191.499 208.755 191.45C208.576 191.402 208.425 191.285 208.332 191.125C208.238 190.965 208.213 190.775 208.259 190.595C213.261 172.124 221.362 137.827 219.6 115.121C219.097 114.711 218.47 114.484 217.821 114.478C218.411 119.805 215.728 141.197 211.905 160.497C209.994 170.157 206.934 180.377 204.124 191.605C204.075 191.783 203.96 191.934 203.801 192.027C203.644 192.12 203.454 192.146 203.277 192.101C203.098 192.058 202.945 191.945 202.848 191.788C202.753 191.632 202.72 191.445 202.761 191.265Z" fill="#007BB5"/>
</svg>
