<?xml version="1.0" encoding="utf-8"?>
<!-- Generator: Adobe Illustrator 24.2.3, SVG Export Plug-In . SVG Version: 6.00 Build 0)  -->
<svg version="1.1" id="Layer_1" xmlns="http://www.w3.org/2000/svg" xmlns:xlink="http://www.w3.org/1999/xlink" x="0px" y="0px"
	 viewBox="0 0 24 24" style="enable-background:new 0 0 24 24;" xml:space="preserve">
<style type="text/css">
	.st0{clip-path:url(#SVGID_2_);}
	.st1{fill:none;stroke:#00A9E0;stroke-width:1.5;stroke-linecap:round;stroke-linejoin:round;}
</style>
<g>
	<defs>
		<rect id="SVGID_1_" width="24" height="24"/>
	</defs>
	<clipPath id="SVGID_2_">
		<use xlink:href="#SVGID_1_"  style="overflow:visible;"/>
	</clipPath>
	<g class="st0">
		<path class="st1" d="M12,23.3v-9"/>
		<path class="st1" d="M8.3,18l3.8-3.8l3.8,3.8"/>
		<path class="st1" d="M17.2,15.8h1.1c0.8,0,1.5-0.2,2.2-0.5c0.7-0.3,1.3-0.8,1.7-1.5c0.5-0.6,0.8-1.3,0.9-2.1
			c0.1-0.8,0.1-1.5-0.2-2.3c-0.2-0.7-0.6-1.4-1.2-1.9c-0.5-0.5-1.2-1-1.9-1.2C19.2,6,18.5,5.9,17.7,6c-0.8,0.1-1.5,0.4-2.1,0.8
			c-0.3-1.3-0.9-2.6-1.8-3.6c-0.9-1-2.1-1.8-3.4-2.2C9.2,0.7,7.8,0.6,6.5,1C5.2,1.3,3.9,2,3,2.9c-1,1-1.7,2.2-2,3.5
			c-0.3,1.3-0.3,2.7,0.1,4c0.4,1.3,1.1,2.5,2.1,3.4c1,0.9,2.2,1.5,3.6,1.8"/>
	</g>
</g>
</svg>
