<svg width="24" height="24" viewBox="0 0 24 24" fill="none" xmlns="http://www.w3.org/2000/svg">
<g clip-path="url(#clip0_4350_7077)">
<path d="M1.64542 17.6032C1.90964 20.0728 3.89599 22.0592 6.36449 22.3343C10.1561 22.7571 13.8437 22.7571 17.6353 22.3343C20.1039 22.0592 22.0902 20.0728 22.3544 17.6032C22.5495 15.78 22.7142 13.9083 22.7142 12C22.7142 10.0917 22.5495 8.21996 22.3544 6.3968C22.0902 3.92712 20.1039 1.94076 17.6353 1.66561C13.8437 1.24297 10.1561 1.24297 6.36449 1.66561C3.89599 1.94076 1.90964 3.92712 1.64542 6.3968C1.45036 8.21996 1.28564 10.0917 1.28564 12C1.28564 13.9083 1.45036 15.78 1.64542 17.6032Z" fill="#007BB5"/>
<path d="M1.64542 17.6031C1.90964 20.0729 3.89599 22.0592 6.36449 22.3344C10.1561 22.7569 13.8437 22.7569 17.6353 22.3344C20.1039 22.0592 22.0902 20.0729 22.3544 17.6031C22.5495 15.78 22.7142 13.9083 22.7142 12C22.7142 10.0917 22.5495 8.21997 22.3544 6.39679C22.0902 3.92712 20.1039 1.94076 17.6353 1.66561C13.8437 1.24297 10.1561 1.24297 6.36449 1.66561C3.89599 1.94076 1.90964 3.92712 1.64542 6.39679C1.45036 8.21997 1.28564 10.0917 1.28564 12C1.28564 13.9083 1.45036 15.78 1.64542 17.6031Z" stroke="#D6F2FF" stroke-width="2"/>
<rect x="5" y="5" width="5" height="5" rx="1" stroke="#D6F2FF" stroke-width="2"/>
<rect x="14" y="5" width="5" height="5" rx="1" stroke="#D6F2FF" stroke-width="2"/>
<rect x="5" y="14" width="5" height="5" rx="1" stroke="#D6F2FF" stroke-width="2"/>
<rect x="14" y="14" width="5" height="5" rx="1" stroke="#D6F2FF" stroke-width="2"/>
</g>
<defs>
<clipPath id="clip0_4350_7077">
<rect width="24" height="24" fill="white"/>
</clipPath>
</defs>
</svg>
