<?xml version="1.0" encoding="utf-8"?>
<!-- Generator: Adobe Illustrator 24.2.3, SVG Export Plug-In . SVG Version: 6.00 Build 0)  -->
<svg version="1.1" id="Layer_1" xmlns="http://www.w3.org/2000/svg" xmlns:xlink="http://www.w3.org/1999/xlink" x="0px" y="0px"
	 viewBox="0 0 64 70" style="enable-background:new 0 0 64 70;" xml:space="preserve">
<style type="text/css">
	.st0{fill:none;stroke:#00A9E0;stroke-width:2;}
	.st1{clip-path:url(#SVGID_2_);}
	.st2{fill:none;stroke:#00A9E0;stroke-width:2;stroke-linecap:round;stroke-linejoin:round;}
</style>
<circle class="st0" cx="32" cy="35" r="31"/>
<g>
	<defs>
		<rect id="SVGID_1_" x="16" y="19" width="32" height="32"/>
	</defs>
	<clipPath id="SVGID_2_">
		<use xlink:href="#SVGID_1_"  style="overflow:visible;"/>
	</clipPath>
	<g class="st1">
		<path class="st2" d="M36,20H18c-0.6,0-1,0.4-1,1v20c0,0.6,0.4,1,1,1h18c0.6,0,1-0.4,1-1V21C37,20.4,36.6,20,36,20z"/>
		<path class="st2" d="M37,36H17"/>
		<path class="st2" d="M41,27.3l5.3,1.8c0.1,0,0.2,0.1,0.3,0.2c0.1,0.1,0.2,0.2,0.2,0.3C47,29.7,47,29.8,47,30c0,0.1,0,0.3,0,0.4
			l-6.3,19c0,0.1-0.1,0.2-0.2,0.3c-0.1,0.1-0.2,0.2-0.3,0.2S39.9,50,39.7,50c-0.1,0-0.3,0-0.4,0L25,45.2"/>
		<path class="st2" d="M23,36l5.5-7.9c0.2-0.2,0.4-0.5,0.7-0.6c0.3-0.1,0.6-0.2,0.9-0.2c0.3,0,0.6,0,0.9,0.2
			c0.3,0.1,0.5,0.3,0.7,0.5L37,34"/>
		<path class="st2" d="M22.8,28c1.2,0,2.3-1,2.3-2.3s-1-2.3-2.3-2.3s-2.3,1-2.3,2.3S21.5,28,22.8,28z"/>
	</g>
</g>
</svg>
