<?xml version="1.0" encoding="utf-8"?>
<!-- Generator: Adobe Illustrator 24.2.3, SVG Export Plug-In . SVG Version: 6.00 Build 0)  -->
<svg version="1.1" id="Layer_1" xmlns="http://www.w3.org/2000/svg" xmlns:xlink="http://www.w3.org/1999/xlink" x="0px" y="0px"
	 viewBox="0 0 44 44" style="enable-background:new 0 0 44 44;" xml:space="preserve">
<style type="text/css">
	.st0{fill:#00A9E0;stroke:#F5F5F5;}
	.st1{fill:none;stroke:#FFFFFF;stroke-linecap:round;stroke-linejoin:round;}
</style>
<circle class="st0" cx="21.6" cy="21.6" r="20.1"/>
<path class="st1" d="M30.1,13.8c-0.3-0.3-0.6-0.5-0.9-0.6C28.8,13.1,28.4,13,28,13c-0.4,0-0.8,0.1-1.1,0.2c-0.4,0.2-0.7,0.4-0.9,0.6
	L14.4,25.4L13,30.9l5.5-1.4L30.1,18c0.3-0.3,0.5-0.6,0.6-0.9s0.2-0.7,0.2-1.1c0-0.4-0.1-0.8-0.2-1.1C30.6,14.4,30.4,14.1,30.1,13.8z
	"/>
<path class="st1" d="M25.6,14.2l4.1,4.1"/>
<path class="st1" d="M14.4,25.4l4.1,4.1"/>
</svg>
