<svg width="25" height="24" viewBox="0 0 25 24" fill="none" xmlns="http://www.w3.org/2000/svg">
<g clip-path="url(#clip0_9287_8807)">
<path d="M15.43 9.32987C15.3768 9.28045 15.3134 9.24322 15.2443 9.22077C15.1753 9.19832 15.1021 9.19119 15.03 9.19987C14.9565 9.20855 14.886 9.23374 14.8236 9.27358C14.7613 9.31341 14.7087 9.36685 14.67 9.42987L12.93 12.1599C12.8848 12.2303 12.8227 12.2882 12.7493 12.3284C12.6759 12.3686 12.5937 12.3897 12.51 12.3899C12.4267 12.388 12.345 12.3661 12.2719 12.3261C12.1989 12.2861 12.1365 12.2291 12.09 12.1599L10.37 9.40987C10.3308 9.34937 10.2794 9.29768 10.2192 9.25808C10.1589 9.21849 10.0911 9.19185 10.02 9.17987C9.94786 9.17049 9.87453 9.17729 9.80534 9.19977C9.73615 9.22226 9.67284 9.25987 9.62 9.30988C8.46 10.3699 8.55 10.7799 6.62 17.9299C6.59969 18.0035 6.59726 18.081 6.61292 18.1558C6.62857 18.2306 6.66185 18.3005 6.71 18.3599C6.75502 18.4212 6.8137 18.4712 6.88139 18.5059C6.94908 18.5406 7.02393 18.5591 7.1 18.5599H9.4C9.45729 18.5591 9.51298 18.5788 9.557 18.6155C9.60101 18.6522 9.63046 18.7034 9.64 18.7599L10.5 23.5999C10.5231 23.7128 10.5844 23.8143 10.6737 23.8872C10.763 23.9601 10.8747 23.9999 10.99 23.9999H13.99C14.1041 23.9995 14.2144 23.9593 14.302 23.8863C14.3896 23.8133 14.4491 23.712 14.47 23.5999L15.39 18.7599C15.4013 18.7042 15.4313 18.6541 15.4749 18.6178C15.5185 18.5814 15.5732 18.561 15.63 18.5599H17.95C18.0274 18.5584 18.1034 18.5397 18.1726 18.5051C18.2418 18.4705 18.3024 18.4209 18.35 18.3599C18.395 18.2989 18.4257 18.2286 18.4395 18.1541C18.4534 18.0796 18.4501 18.0029 18.43 17.9299C16.5 10.7699 16.55 10.3799 15.43 9.32987Z" fill="#0D4C74"/>
<path d="M12.5 8.41024C13.3331 8.41023 14.1474 8.16307 14.84 7.70002C15.5325 7.23698 16.0721 6.57888 16.3905 5.80902C16.7088 5.03916 16.7916 4.19215 16.6284 3.37522C16.4651 2.55829 16.0631 1.80816 15.4734 1.21978C14.8836 0.6314 14.1325 0.231227 13.3152 0.0699147C12.4979 -0.091398 11.6511 -0.00659797 10.882 0.313581C10.1129 0.63376 9.45604 1.17492 8.99464 1.86857C8.53325 2.56221 8.28802 3.37715 8.29 4.21024C8.29265 5.32506 8.73737 6.39333 9.52661 7.18069C10.3158 7.96806 11.3852 8.41024 12.5 8.41024ZM10.5 4.51024C11.1795 4.27824 11.7957 3.89138 12.3 3.38024C12.3495 3.33596 12.4136 3.31148 12.48 3.31148C12.5464 3.31148 12.6105 3.33596 12.66 3.38024C13.1757 3.89666 13.8062 4.28385 14.5 4.51024C14.5596 4.53085 14.6092 4.57322 14.6388 4.62885C14.6685 4.68448 14.6761 4.74927 14.66 4.81024C14.5307 5.27858 14.2514 5.6916 13.8649 5.98593C13.4783 6.28026 13.0059 6.43964 12.52 6.43964C12.0341 6.43964 11.5617 6.28026 11.1751 5.98593C10.7886 5.6916 10.5093 5.27858 10.38 4.81024C10.3613 4.75412 10.363 4.69318 10.385 4.63825C10.407 4.58332 10.4477 4.53796 10.5 4.51024Z" fill="#0D4C74"/>
<path d="M7.78 10.8803C7.80189 10.8405 7.81336 10.7958 7.81336 10.7503C7.81336 10.7049 7.80189 10.6602 7.78 10.6203C6.65 6.29032 6.7 6.23032 6.02 5.60032C5.98908 5.56908 5.95125 5.54556 5.90955 5.53167C5.86786 5.51777 5.82348 5.51388 5.78 5.52032C5.73637 5.52571 5.69431 5.54004 5.65646 5.5624C5.61861 5.58477 5.58578 5.6147 5.56 5.65032L4.5 7.31032C4.47216 7.3508 4.43481 7.38383 4.39122 7.40649C4.34762 7.42916 4.29913 7.44078 4.25 7.44032C4.19978 7.44063 4.15033 7.42789 4.1065 7.40335C4.06268 7.37881 4.02598 7.3433 4 7.30032L3 5.64032C2.97727 5.60403 2.94652 5.57345 2.91011 5.55091C2.87371 5.52837 2.83262 5.51449 2.79 5.51032C2.73986 5.49462 2.68639 5.49284 2.63531 5.50517C2.58423 5.5175 2.53746 5.54347 2.5 5.58032C1.8 6.23032 1.85 6.30032 0.670003 10.5803C0.657891 10.6246 0.6561 10.6711 0.664768 10.7161C0.673437 10.7612 0.692333 10.8037 0.720003 10.8403C0.743396 10.887 0.778976 10.9266 0.822982 10.9547C0.866987 10.9829 0.917783 10.9986 0.970003 11.0003H2.06C2.1784 10.9984 2.29363 11.0385 2.3852 11.1136C2.47676 11.1887 2.5387 11.2938 2.56 11.4103L3.06 14.7603C3.07531 14.8266 3.112 14.886 3.1644 14.9294C3.21681 14.9727 3.28203 14.9977 3.35 15.0003H5.15C5.21847 14.9994 5.28457 14.9751 5.33733 14.9315C5.39008 14.8878 5.42631 14.8274 5.44 14.7603L5.95 11.4103C5.96913 11.2947 6.02909 11.1897 6.11899 11.1145C6.2089 11.0392 6.32279 10.9987 6.44 11.0003H7.55C7.59533 11.0012 7.64016 10.9907 7.68036 10.9697C7.72056 10.9488 7.75482 10.918 7.78 10.8803Z" fill="#0D4C74"/>
<path d="M4.24 5C5.62071 5 6.74 3.88071 6.74 2.5C6.74 1.11929 5.62071 0 4.24 0C2.85929 0 1.74 1.11929 1.74 2.5C1.74 3.88071 2.85929 5 4.24 5Z" fill="#0D4C74"/>
<path d="M24.32 10.6196C23.14 6.29962 23.19 6.22962 22.49 5.61962C22.4577 5.59079 22.4195 5.56954 22.3779 5.55743C22.3364 5.54532 22.2927 5.54265 22.25 5.54962C22.2074 5.55379 22.1663 5.56768 22.1299 5.59022C22.0935 5.61275 22.0627 5.64334 22.04 5.67962L20.99 7.29962C20.964 7.34261 20.9273 7.37811 20.8835 7.40265C20.8397 7.42719 20.7902 7.43993 20.74 7.43962C20.6926 7.43847 20.6461 7.42609 20.6044 7.4035C20.5626 7.3809 20.5269 7.34872 20.5 7.30962L19.5 5.64962C19.4742 5.614 19.4414 5.58407 19.4035 5.56171C19.3657 5.53934 19.3236 5.52501 19.28 5.51962C19.2365 5.51318 19.1921 5.51707 19.1504 5.53097C19.1088 5.54487 19.0709 5.56839 19.04 5.59962C18.36 6.22962 18.41 6.28962 17.23 10.5996C17.2081 10.6395 17.1966 10.6842 17.1966 10.7296C17.1966 10.7751 17.2081 10.8198 17.23 10.8596C17.2557 10.9074 17.2952 10.9463 17.3434 10.9713C17.3916 10.9962 17.4461 11.0061 17.5 10.9996H18.61C18.7272 10.998 18.8411 11.0386 18.931 11.1138C19.0209 11.189 19.0809 11.294 19.1 11.4096L19.61 14.7596C19.6237 14.8267 19.6599 14.8871 19.7127 14.9308C19.7654 14.9744 19.8315 14.9987 19.9 14.9996H21.7C21.768 14.997 21.8332 14.972 21.8856 14.9287C21.938 14.8853 21.9747 14.8259 21.99 14.7596L22.49 11.4096C22.5113 11.2931 22.5732 11.188 22.6648 11.1129C22.7564 11.0378 22.8716 10.9977 22.99 10.9996H24.08C24.1267 11.0004 24.1729 10.9899 24.2147 10.969C24.2565 10.9482 24.2926 10.9175 24.32 10.8796C24.3395 10.8391 24.3496 10.7946 24.3496 10.7496C24.3496 10.7046 24.3395 10.6602 24.32 10.6196Z" fill="#0D4C74"/>
<path d="M20.76 5C22.1407 5 23.26 3.88071 23.26 2.5C23.26 1.11929 22.1407 0 20.76 0C19.3793 0 18.26 1.11929 18.26 2.5C18.26 3.88071 19.3793 5 20.76 5Z" fill="#0D4C74"/>
</g>
<defs>
<clipPath id="clip0_9287_8807">
<rect width="24" height="24" fill="white" transform="translate(0.5)"/>
</clipPath>
</defs>
</svg>
