<svg width="25" height="24" viewBox="0 0 25 24" fill="none" xmlns="http://www.w3.org/2000/svg">
<g clip-path="url(#clip0_9287_8547)">
<path d="M14.478 22.9127L15.137 18.9567H17.775L15.8 13.0227C15.14 11.0447 14.324 9.72266 12.5 9.72266C10.676 9.72266 9.863 11.0407 9.2 13.0227L7.225 18.9567H9.863L10.522 22.9127H14.478Z" stroke="#616161" stroke-width="1.5" stroke-linecap="round" stroke-linejoin="round"/>
<path d="M12.5 8.40779C13.9564 8.40779 15.137 7.22716 15.137 5.77079C15.137 4.31441 13.9564 3.13379 12.5 3.13379C11.0436 3.13379 9.863 4.31441 9.863 5.77079C9.863 7.22716 11.0436 8.40779 12.5 8.40779Z" stroke="#616161" stroke-width="1.5" stroke-linecap="round" stroke-linejoin="round"/>
<path d="M19.75 14.5869H21.5L21.95 11.8869H23.75L22.4 7.83691C21.95 6.48691 21.393 5.58691 20.15 5.58691C18.907 5.58691 18.35 6.48691 17.9 7.83691L17.633 8.63691" stroke="#616161" stroke-width="1.5" stroke-linecap="round" stroke-linejoin="round"/>
<path d="M20.15 4.68691C21.1441 4.68691 21.95 3.88103 21.95 2.88691C21.95 1.8928 21.1441 1.08691 20.15 1.08691C19.1559 1.08691 18.35 1.8928 18.35 2.88691C18.35 3.88103 19.1559 4.68691 20.15 4.68691Z" stroke="#616161" stroke-width="1.5" stroke-linecap="round" stroke-linejoin="round"/>
<path d="M5.25 14.5869H3.5L3.05 11.8869H1.25L2.6 7.83691C3.05 6.48691 3.607 5.58691 4.85 5.58691C6.093 5.58691 6.65 6.48691 7.1 7.83691L7.367 8.63691" stroke="#616161" stroke-width="1.5" stroke-linecap="round" stroke-linejoin="round"/>
<path d="M4.85 4.68691C5.84411 4.68691 6.65 3.88103 6.65 2.88691C6.65 1.8928 5.84411 1.08691 4.85 1.08691C3.85589 1.08691 3.05 1.8928 3.05 2.88691C3.05 3.88103 3.85589 4.68691 4.85 4.68691Z" stroke="#616161" stroke-width="1.5" stroke-linecap="round" stroke-linejoin="round"/>
</g>
<defs>
<clipPath id="clip0_9287_8547">
<rect width="24" height="24" fill="white" transform="translate(0.5)"/>
</clipPath>
</defs>
</svg>
