<svg width="281" height="281" viewBox="0 0 281 281" fill="none" xmlns="http://www.w3.org/2000/svg">
<path d="M254.506 53.5371C247.34 55.7851 206.174 65.3391 206.174 65.3391C206.174 65.3391 201.256 68.1491 200.554 71.6616C199.149 79.1081 196.479 104.82 196.339 104.398L196.058 105.522C215.868 112.266 215.447 112.126 215.868 112.266C219.1 107.77 224.439 105.101 230.059 105.522C237.927 106.084 244.249 112.407 244.952 120.275C245.795 129.267 239.332 137.416 230.199 138.399L204.066 215.394L183.975 207.947L183.553 209.071L180.041 238.295C180.041 238.295 178.636 247.568 183.975 247.849C189.876 248.13 228.092 252.064 228.092 252.064C228.092 252.064 234.274 253.75 236.943 241.667C239.472 229.584 260.969 58.4546 260.969 58.4546C260.969 58.4546 261.531 51.2891 254.506 53.5371Z" fill="white"/>
<path d="M260.407 48.76C244.39 52.413 209.967 60.7025 209.967 60.7025C209.967 60.7025 198.165 62.3885 196.901 73.9095L193.248 104.82L196.198 105.803L196.479 104.679C196.479 104.96 199.289 79.389 200.694 71.9425C201.397 68.2895 206.314 65.62 206.314 65.62C206.314 65.62 247.481 56.0659 254.646 53.8179C261.812 51.5699 261.109 58.1734 261.109 58.1734C261.109 58.1734 239.613 229.443 237.084 241.386C234.555 253.469 228.232 251.783 228.232 251.783C228.232 251.783 190.157 247.849 184.115 247.568C178.776 247.287 180.181 238.014 180.181 238.014L183.694 208.79L184.115 207.666C183.132 207.385 182.148 206.823 181.165 206.542C181.024 206.963 181.024 206.542 177.512 236.89C177.512 236.89 174.421 251.502 180.181 255.998C185.52 260.213 228.513 263.444 228.513 263.444C228.513 263.444 243.406 266.676 245.233 254.312C247.059 241.667 269.258 60 269.258 60C269.258 60 271.928 46.0905 260.407 48.76Z" fill="#5DBFEC"/>
<path d="M193.107 105.382C192.686 105.382 192.405 104.96 192.405 104.539L196.058 73.7693C197.322 61.9673 209.546 60.0003 209.686 60.0003C210.67 59.8598 210.81 61.2648 209.827 61.4053C209.405 61.4053 198.587 63.2318 197.322 74.0503L193.669 104.82C193.81 105.101 193.529 105.382 193.107 105.382Z" fill="black"/>
<path d="M228.794 252.626C228.654 252.626 189.876 248.692 183.975 248.411C179.479 248.271 178.776 242.51 179.338 238.155L182.851 208.931C182.851 208.509 183.272 208.228 183.694 208.369C184.115 208.369 184.396 208.79 184.256 209.212L180.743 238.436C180.743 238.576 180.041 243.775 181.867 246.163C182.429 246.866 183.132 247.147 183.975 247.147C189.876 247.428 226.546 251.221 228.092 251.362C228.232 251.362 229.637 251.643 231.323 250.659C232.869 249.676 234.976 247.287 236.241 241.527C238.77 229.584 260.126 60.0002 260.266 58.3142C260.266 58.3142 260.547 55.9257 259.142 54.8017C258.159 54.0992 256.754 53.9587 254.787 54.6612C248.605 56.6282 217.554 63.9342 208.281 66.0417C204.488 66.8847 201.818 70.2567 201.537 72.2237C200.273 78.6867 198.025 99.3402 197.322 105.944C197.322 106.365 196.901 106.646 196.479 106.506C196.058 106.506 195.777 106.084 195.917 105.663C196.62 99.0592 199.008 78.4057 200.273 71.8022C200.694 69.4137 203.785 65.4797 208.141 64.4962C214.744 62.9507 248.324 55.2232 254.646 53.1157C257.175 52.2727 259.002 52.4132 260.407 53.5372C262.374 55.0827 262.093 58.1737 262.093 58.3142C261.812 60.0002 240.456 229.725 238.067 241.667C236.943 246.725 235.117 250.097 232.588 251.783C230.761 252.486 229.637 252.626 228.794 252.626Z" fill="black"/>
<path d="M241.299 249.816C240.877 249.816 240.596 249.395 240.596 248.973L250.01 172.963C250.01 172.541 250.431 172.26 250.853 172.401C251.274 172.401 251.555 172.822 251.415 173.244L242.001 249.254C242.001 249.535 241.72 249.816 241.299 249.816Z" fill="black"/>
<path d="M254.506 145.144C254.084 145.144 253.803 144.722 253.803 144.301L263.217 68.2897C263.217 67.8682 263.638 67.5872 264.06 67.7277C264.481 67.7277 264.762 68.1492 264.622 68.5707L255.208 144.582C255.208 144.863 254.927 145.144 254.506 145.144Z" fill="black"/>
<path d="M225.001 200.22C224.439 200.22 224.017 199.517 224.439 199.096L244.671 176.897C244.952 176.616 245.373 176.616 245.654 176.897C245.935 177.178 245.935 177.599 245.654 177.88L225.422 200.079C225.422 200.079 225.141 200.22 225.001 200.22Z" fill="black"/>
<path d="M220.083 209.774C219.521 209.774 219.1 209.071 219.521 208.65L239.894 186.591C240.175 186.31 240.596 186.31 240.877 186.591C241.158 186.872 241.158 187.294 240.877 187.575L220.505 209.633C220.505 209.633 220.364 209.774 220.083 209.774Z" fill="black"/>
<path d="M186.223 18.9734C180.462 17.0064 167.536 12.7914 166.974 12.7914C165.85 12.5104 164.726 13.0724 164.305 14.3369L160.09 26.9819C159.668 28.2464 160.371 29.5109 161.635 29.9324C166.131 31.4779 176.247 34.7094 180.603 36.1144C181.727 36.5359 183.132 35.8334 183.553 34.5689C184.537 31.3374 186.785 25.2959 187.768 21.9239C188.19 20.7999 187.487 19.3949 186.223 18.9734Z" fill="#5DBFEC"/>
<path d="M179.198 19.2543C176.529 17.5683 173.016 18.1303 170.908 20.5188C168.239 23.6098 169.222 27.8248 172.313 29.7918C174.983 31.4778 178.636 30.9157 180.744 28.5272C182.992 25.5767 182.289 21.2213 179.198 19.2543Z" fill="#46C2F2"/>
<path d="M177.512 21.924C176.107 21.081 174.421 21.362 173.297 22.6265C172.173 24.0315 172.454 26.2795 173.999 27.263C175.404 28.106 177.09 27.825 178.074 26.701C179.198 25.296 179.479 23.048 177.512 21.924Z" fill="white"/>
<path d="M170.627 10.5432C170.065 10.2622 169.082 9.84072 168.379 10.1217C167.396 10.4027 166.834 12.6507 166.834 12.7912C167.115 12.7912 166.553 12.6507 172.032 14.4772C172.173 14.1962 172.454 13.4937 172.594 13.2127C173.297 11.5267 172.032 11.1052 170.627 10.5432Z" fill="white"/>
<path d="M168.66 16.3037C167.958 15.8822 166.974 16.0227 166.412 16.5847C165.429 17.9897 167.817 19.9567 169.222 18.2707C169.644 17.7087 169.363 16.7252 168.66 16.3037Z" fill="white"/>
<path d="M165.007 51.5694L158.544 53.3959L154.048 49.1809L153.486 55.6439L147.585 59.0159L153.486 61.1234L154.47 67.4459L158.825 62.2473L165.429 62.8094L161.916 57.4703L165.007 51.5694Z" fill="#46C2F2"/>
<path d="M129.883 70.5371L124.544 76.5786L116.816 75.3141L120.891 82.1986L117.238 89.3641L124.965 87.5376L130.445 93.1576L131.147 85.1491L138.172 81.4961L131.007 78.4051L129.883 70.5371Z" fill="#46C2F2"/>
<path d="M97.2868 21.6428C93.4933 20.2378 89.9808 23.6098 86.1873 20.7998C82.6748 18.2708 81.2698 13.6344 79.0218 10.5434C78.3193 9.41935 77.0548 7.31185 75.3688 7.03085C73.9638 6.89035 71.1538 9.27886 70.4513 9.98136C70.1703 9.98136 72.1373 13.6344 72.2778 13.6344C74.3853 17.7088 79.7243 26.7008 84.0798 27.9653C87.8733 29.0893 91.2453 26.8413 94.8983 29.3703C99.2538 32.3208 100.94 38.0813 103.188 42.0153C104.874 44.8253 107.262 46.3708 109.791 44.2633C112.039 42.5773 110.775 39.9078 109.089 37.3788C100.518 24.3123 99.9563 22.6263 97.2868 21.6428Z" fill="#46C2F2"/>
<path d="M103.047 59.7184C90.8239 52.4124 89.5594 51.0074 86.6089 51.1479C82.8154 51.2884 80.9889 55.2224 76.6334 54.5199C70.8729 53.5364 65.3934 46.2304 61.8809 47.2139C60.6164 47.6354 59.0709 50.5859 58.6494 51.4289C58.3684 51.5694 61.5999 53.6769 61.5999 53.8174C64.4099 55.9249 67.3604 57.7514 70.4514 59.4374C72.4184 60.4209 74.9474 61.6854 77.3359 61.2639C80.9889 60.7019 83.0964 57.7514 87.3114 58.3134C92.2289 59.1564 95.8819 63.2309 99.3944 65.6194C101.923 67.3054 104.593 67.7269 105.998 65.1979C107.403 62.6689 105.436 61.1234 103.047 59.7184Z" fill="#46C2F2"/>
<path d="M172.032 15.0393C171.47 15.0393 171.049 14.3368 171.47 13.7748C171.611 13.6343 171.892 12.7913 171.892 12.6508C172.173 11.9483 171.892 11.8078 170.627 11.2458C170.065 10.9648 169.082 10.5433 168.66 10.6838C167.536 11.1053 167.958 13.7748 166.693 13.2128C166.272 13.0723 166.131 12.6508 166.272 12.3698C166.553 11.5268 166.834 9.84083 168.239 9.41933C169.082 9.13833 170.065 9.55982 170.768 9.84082C172.594 10.5433 173.156 10.9648 173.437 11.8078C173.578 12.3698 173.578 12.9318 173.297 13.4938C173.016 13.9153 172.875 15.0393 172.032 15.0393Z" fill="black"/>
<path d="M213.901 116.34L151.66 94.8438L132.271 166.358L206.595 193.053L225.703 138.539C214.885 135.729 210.389 125.051 213.901 116.34Z" fill="white"/>
<path d="M230.059 105.803C220.083 105.1 212.356 113.671 212.777 122.944C213.058 130.671 218.959 138.539 230.199 138.539C238.067 137.696 244.249 131.514 244.952 123.646C245.795 114.654 239.051 106.505 230.059 105.803Z" fill="#46C2F2"/>
<path d="M230.199 138.539C228.935 138.68 227.249 138.539 225.984 138.258L206.876 192.772L132.552 166.077L151.941 94.5626L214.042 116.059C214.463 114.654 215.166 113.39 216.149 112.266C215.447 111.985 158.544 92.7361 148.99 89.5046L125.668 177.176C135.222 170.994 141.263 174.507 140.841 181.391C140.56 184.482 139.577 187.573 137.751 190.102C138.032 190.383 137.751 190.243 204.207 215.533C230.34 138.68 230.199 139.101 230.199 138.539Z" fill="#5DBFEC"/>
<path d="M154.891 197.268L155.173 196.846C137.61 190.102 137.891 190.383 137.61 189.962C136.767 191.086 135.924 192.21 134.8 193.193C138.453 195.722 139.296 200.078 141.544 203.871C144.073 208.086 150.115 212.161 155.032 211.318C160.793 210.194 156.718 200.359 154.891 197.268Z" fill="#007BB5"/>
<path d="M140.56 181.391C140.982 176.052 136.908 172.961 131.709 174.366C129.461 174.928 127.354 176.052 125.387 177.317L132.131 151.746C118.783 147.25 110.213 151.184 97.0056 156.663C89.1376 159.895 79.4432 156.663 72.2777 161.019C65.1122 165.374 63.8477 175.49 60.1947 182.375C54.1532 193.755 45.4422 203.59 37.8552 213.847C33.3592 220.029 29.1442 226.913 23.6647 232.252C20.0117 235.765 14.1107 238.153 12.5652 243.211C9.61465 252.344 17.7637 265.691 24.0862 271.873C28.0202 275.667 31.9542 274.262 35.6072 270.749C41.2272 265.27 45.4422 258.385 52.6077 254.592C62.7237 249.393 74.2446 250.377 83.6581 243.071C95.8816 233.657 100.659 218.624 112.32 209.07C113.023 210.194 116.114 211.318 116.535 214.409C117.097 218.343 116.535 222.277 116.535 226.632C116.676 232.955 121.874 233.095 125.527 228.599C125.808 228.318 126.792 226.913 127.073 226.913C129.602 229.723 133.255 230.566 135.503 227.054C140.42 219.326 139.858 201.904 133.255 194.879C138.453 190.102 140.28 185.887 140.56 181.391Z" fill="#007BB5"/>
<path fill-rule="evenodd" clip-rule="evenodd" d="M98.1771 155.415C110.571 150.259 119.227 146.658 132.355 151.08L131.907 152.411C119.286 148.16 111.082 151.571 98.6071 156.759C98.1684 156.941 97.7246 157.125 97.275 157.312H97.2728C93.5318 158.849 89.4018 158.971 85.4618 159.088C85.1066 159.099 84.7529 159.109 84.4014 159.122C80.0844 159.262 76.0483 159.549 72.6428 161.618C69.2544 163.678 67.2192 167.125 65.566 171.022C64.9341 172.511 64.3675 174.043 63.8003 175.576C63.6257 176.049 63.4509 176.521 63.2741 176.992C62.5288 178.98 61.7515 180.94 60.8155 182.703H60.8154C56.3906 191.039 50.5277 198.571 44.7564 205.986C42.6057 208.749 40.4678 211.496 38.4218 214.262C37.3286 215.766 36.2453 217.321 35.1512 218.892C31.7927 223.715 28.3307 228.686 24.1551 232.755L24.1518 232.758C23.2027 233.671 22.1171 234.501 21.0212 235.302C20.7039 235.534 20.3868 235.762 20.0714 235.989C19.2849 236.556 18.508 237.116 17.7586 237.705C15.6618 239.35 13.9448 241.101 13.2372 243.416L11.8936 243.006C12.7315 240.263 14.7377 238.289 16.891 236.599C17.6646 235.992 18.4782 235.406 19.2738 234.833C19.5838 234.61 19.8913 234.388 20.1925 234.167C21.2781 233.375 22.2993 232.591 23.1761 231.748C27.2459 227.781 30.5975 222.969 33.937 218.174C35.0466 216.582 36.1545 214.99 37.2873 213.433L37.2906 213.429C39.3825 210.601 41.5493 207.816 43.7167 205.032C49.4624 197.65 55.2114 190.264 59.5745 182.044C60.4648 180.367 61.2155 178.48 61.9586 176.499C62.1303 176.041 62.302 175.577 62.4748 175.109C63.0441 173.571 63.6265 171.997 64.2725 170.474C65.956 166.504 68.1359 162.714 71.9131 160.419C75.6731 158.133 80.0668 157.857 84.3555 157.717C84.6976 157.706 85.039 157.696 85.3796 157.686C89.3717 157.565 93.2464 157.447 96.7381 156.014C97.2236 155.812 97.7031 155.612 98.1771 155.415Z" fill="black"/>
<path d="M197.603 126.877C192.967 126.877 188.752 130.671 188.752 135.729C188.752 140.646 192.826 144.58 197.603 144.58C202.521 144.58 206.455 140.506 206.455 135.729C206.455 130.811 202.521 126.877 197.603 126.877Z" fill="#46C2F2"/>
<path d="M125.387 177.879C124.965 177.879 124.544 177.457 124.684 177.036C124.684 176.895 148.007 90.0667 148.148 89.5047C148.288 89.0832 148.429 88.802 148.991 88.9425C215.869 111.704 176.388 98.2155 215.869 111.563C216.29 111.704 216.431 112.125 216.29 112.406C216.15 112.687 215.728 112.968 215.447 112.828C175.967 99.48 215.307 112.968 149.272 90.488L126.089 177.317C125.949 177.738 125.668 177.879 125.387 177.879Z" fill="black"/>
<path d="M204.066 216.235C203.785 216.235 138.594 191.226 137.61 190.945C136.767 190.664 137.048 189.4 137.891 189.54C138.032 189.54 147.866 193.334 203.504 214.549L229.497 138.539C229.637 138.118 230.059 137.977 230.34 138.118C230.761 138.258 230.902 138.68 230.761 138.961C204.488 216.376 204.769 216.235 204.066 216.235Z" fill="black"/>
<path d="M127.494 170.011C124.122 167.622 123.982 166.217 122.577 164.531C122.436 164.391 122.296 164.25 122.155 164.11C121.874 163.829 121.453 163.688 121.172 163.969C120.891 164.25 120.75 164.672 121.031 164.953C121.172 165.093 121.312 165.234 121.593 165.655C118.081 167.06 114.147 170.573 104.593 172.399C103.469 170.994 102.064 168.606 100.237 167.482C99.9564 167.341 99.535 167.341 99.254 167.763C99.1135 168.044 99.1134 168.465 99.5349 168.746C101.221 169.73 102.485 172.118 103.609 173.383C104.874 174.928 106.7 177.738 108.386 181.391C110.353 185.466 109.791 186.309 110.775 186.309C111.196 186.309 111.618 185.887 111.477 185.466C111.056 184.201 110.634 183.077 110.072 181.813C113.163 182.094 119.907 180.97 121.593 180.267C122.015 180.127 122.155 179.705 122.015 179.424C121.874 179.003 121.453 178.862 121.172 179.003C119.486 179.705 111.899 180.829 109.651 180.408H109.51C108.246 177.879 106.981 175.631 105.576 173.804C113.444 172.259 116.957 169.589 121.734 167.341C122.577 166.92 122.155 167.201 122.577 167.06C123.56 168.606 124.965 170.011 126.651 171.275C127.354 171.697 128.197 170.573 127.494 170.011Z" fill="black"/>
<path d="M155.594 196.846C155.453 196.565 155.032 196.425 154.61 196.565C154.329 196.706 154.189 197.127 154.329 197.549C155.734 199.937 158.263 205.979 156.999 209.07C155.172 213.004 145.899 209.913 142.106 203.59C139.999 200.078 139.015 196.003 135.784 193.193C140.841 188.135 143.792 178.722 138.875 174.788C135.081 171.697 129.321 173.945 125.106 176.614C121.734 178.722 117.378 182.515 114.709 184.342C114.147 184.763 105.014 191.507 95.0387 194.458C92.2287 187.152 87.5922 180.97 82.8152 174.788C82.5342 174.507 82.1127 174.366 81.8317 174.647C81.5507 174.928 81.4102 175.35 81.6912 175.631C86.4682 181.672 90.9642 187.714 93.6337 194.739C89.9807 195.722 86.3277 196.144 82.9557 195.582C82.5342 195.582 82.2532 195.722 82.1127 196.144C82.1127 196.565 82.2532 196.846 82.6747 196.987C94.6172 199.094 109.791 190.102 119.345 182.375C123.56 179.003 127.635 175.912 131.85 174.788C136.627 173.523 140.139 176.193 139.718 181.11C138.734 194.879 121.593 199.937 111.618 208.227C99.9562 217.921 95.0387 232.955 83.0962 242.228C73.8232 249.393 62.4427 248.269 52.1862 253.608C39.4007 260.212 33.2187 279.46 24.5077 271.03C24.2267 270.749 23.8052 270.749 23.5242 271.03C23.2432 271.311 23.2432 271.733 23.5242 272.014C27.5987 275.948 31.9542 274.964 36.0287 270.89C37.7147 269.204 39.2601 267.377 40.8056 265.691C49.2356 255.997 52.1862 253.889 66.2362 250.517C80.8482 247.005 86.1872 244.616 99.1132 225.649C102.907 220.029 106.841 214.268 112.039 209.772C112.18 210.053 115.411 211.739 115.833 214.268C116.535 218.062 115.692 222.136 115.833 226.492C115.973 230.145 117.94 233.236 121.453 232.112C123.139 231.409 124.684 230.285 126.089 229.021C126.37 228.74 126.792 228.178 127.213 227.616C130.164 230.426 133.957 230.566 136.205 227.054C141.544 218.764 140.56 201.764 134.098 194.739C134.379 194.458 134.519 194.317 134.8 194.036C137.891 196.565 138.875 200.64 140.982 204.152C145.197 211.177 155.875 214.83 158.263 209.491C159.949 205.838 156.718 198.954 155.594 196.846ZM125.527 227.616C124.544 229.021 122.577 230.285 121.031 230.988C120.188 231.269 119.486 231.128 118.924 230.847C115.833 228.599 118.362 220.45 117.238 214.409C116.816 212.02 114.99 210.615 113.163 209.21C115.973 207.103 118.924 204.995 122.015 203.309C122.015 203.45 122.015 203.59 122.155 203.731C126.792 209.913 121.593 218.062 125.106 224.946C125.387 225.649 125.808 226.211 126.23 226.773C126.089 226.913 125.808 227.194 125.527 227.616ZM134.941 226.351C134.098 227.616 133.114 228.318 131.99 228.318C129.742 228.459 127.213 226.211 126.23 224.103C123.139 217.5 128.197 209.351 123.139 202.607C122.998 202.466 122.998 202.466 122.858 202.466C126.37 200.359 129.742 198.111 132.833 195.582C132.833 195.582 132.833 195.582 132.833 195.722C139.015 202.326 139.999 218.624 134.941 226.351Z" fill="black"/>
<path d="M125.387 185.606C125.106 185.325 125.246 184.904 125.527 184.623C125.808 184.342 126.23 184.482 126.511 184.763C128.056 187.152 130.304 188.697 132.833 187.292C135.924 185.606 138.594 179.705 135.784 177.738C133.817 176.333 130.726 177.738 128.899 179.003C127.916 179.705 125.387 181.251 124.965 182.515C124.684 183.358 123.42 182.937 123.56 182.094C123.982 180.548 125.949 179.284 127.494 178.3C130.304 176.474 133.817 174.788 136.627 176.755C142.528 180.97 132.552 196.284 125.387 185.606Z" fill="black"/>
<path d="M114.147 196.987C113.585 196.987 113.444 196.425 113.163 196.003C112.742 195.16 112.18 193.896 111.477 193.474C111.196 193.193 111.056 192.772 111.337 192.491C111.618 192.21 112.039 192.069 112.32 192.35C113.585 193.193 114.287 195.02 114.709 196.144C114.99 196.425 114.709 196.987 114.147 196.987Z" fill="black"/>
<path d="M115.973 194.739C115.552 194.739 115.411 194.317 115.271 194.036C114.709 192.631 114.428 192.21 114.287 192.069C113.585 191.788 113.725 190.664 114.568 190.664C115.13 190.664 115.552 191.086 116.676 193.615C116.957 194.177 116.535 194.739 115.973 194.739Z" fill="black"/>
<path d="M228.233 264.146C226.406 264.005 184.959 260.774 179.62 256.559C173.719 251.782 176.529 237.31 176.669 236.748L180.182 206.681C180.182 206.26 180.603 205.979 181.025 206.119C181.446 206.119 181.727 206.541 181.587 206.962L177.934 237.029C177.934 237.17 175.124 251.36 180.322 255.435C184.537 258.807 216.29 261.757 228.233 262.741C229.216 262.881 229.076 264.286 228.233 264.146Z" fill="black"/>
<path d="M192.826 166.779C179.479 165.374 180.603 148.233 177.512 139.242C174.14 129.407 164.445 126.035 152.503 137.275C149.833 139.663 147.445 142.473 145.197 145.704C144.916 145.985 144.494 146.126 144.213 145.845C143.932 145.564 143.792 145.142 144.073 144.861C146.321 141.489 148.85 138.68 151.66 136.151C164.445 124.068 175.264 128.002 178.917 138.82C181.867 147.671 180.884 164.11 192.967 165.374C194.372 165.515 196.058 165.515 197.744 165.093C199.711 164.531 202.099 163.969 204.207 162.705C204.488 162.564 204.909 162.705 205.19 162.986C205.331 163.267 205.19 163.688 204.909 163.969C201.959 165.796 196.76 167.341 192.826 166.779Z" fill="black"/>
<path d="M238.348 123.365V119.572L230.761 119.853L230.621 112.125L226.827 112.265L226.968 119.853L219.381 120.134V123.927L226.968 123.787L227.108 131.374L230.902 131.233L230.761 123.646L238.348 123.365Z" fill="white"/>
</svg>
