<svg width="64" height="64" viewBox="0 0 64 64" fill="none" xmlns="http://www.w3.org/2000/svg">
<circle cx="32" cy="32" r="31" stroke="#5DBFEC" stroke-width="2"/>
<path fill-rule="evenodd" clip-rule="evenodd" d="M21.3333 18.6665C19.1241 18.6665 17.3333 20.4574 17.3333 22.6665C17.3333 24.8756 19.1241 26.6665 21.3333 26.6665C23.5424 26.6665 25.3333 24.8756 25.3333 22.6665C25.3333 20.4574 23.5424 18.6665 21.3333 18.6665ZM28 22.6665C28 20.4574 29.7909 18.6665 32 18.6665H42.6667C44.8758 18.6665 46.6667 20.4574 46.6667 22.6665C46.6667 24.8756 44.8758 26.6665 42.6667 26.6665H32C29.7909 26.6665 28 24.8756 28 22.6665ZM28 31.9998C28 29.7907 29.7909 27.9998 32 27.9998H42.6667C44.8758 27.9998 46.6667 29.7907 46.6667 31.9998C46.6667 34.209 44.8758 35.9998 42.6667 35.9998H32C29.7909 35.9998 28 34.209 28 31.9998ZM21.3333 37.3332C19.1242 37.3332 17.3333 39.124 17.3333 41.3332C17.3333 43.5423 19.1242 45.3332 21.3333 45.3332C23.5425 45.3332 25.3333 43.5423 25.3333 41.3332C25.3333 39.124 23.5425 37.3332 21.3333 37.3332ZM32 37.3332C29.7909 37.3332 28 39.124 28 41.3332C28 43.5423 29.7909 45.3332 32 45.3332H42.6667C44.8758 45.3332 46.6667 43.5423 46.6667 41.3332C46.6667 39.124 44.8758 37.3332 42.6667 37.3332H32ZM21.3333 27.9998C19.1242 27.9998 17.3333 29.7907 17.3333 31.9998C17.3333 34.209 19.1242 35.9998 21.3333 35.9998C23.5425 35.9998 25.3333 34.209 25.3333 31.9998C25.3333 29.7907 23.5425 27.9998 21.3333 27.9998Z" fill="white" fill-opacity="0.05"/>
<rect x="18.3333" y="38.3335" width="6" height="6" rx="3" stroke="#5DBFEC" stroke-width="2"/>
<rect x="29" y="38.3335" width="16.6667" height="6" rx="3" stroke="#5DBFEC" stroke-width="2"/>
<rect x="18.3333" y="29" width="6" height="6" rx="3" stroke="#5DBFEC" stroke-width="2"/>
<rect x="29" y="29" width="16.6667" height="6" rx="3" stroke="#5DBFEC" stroke-width="2"/>
<rect x="18.3333" y="19.6665" width="6" height="6" rx="3" stroke="#5DBFEC" stroke-width="2"/>
<rect x="29" y="19.6665" width="16.6667" height="6" rx="3" stroke="#5DBFEC" stroke-width="2"/>
</svg>
