<?xml version="1.0" encoding="utf-8"?>
<!-- Generator: Adobe Illustrator 24.2.3, SVG Export Plug-In . SVG Version: 6.00 Build 0)  -->
<svg version="1.1" id="Layer_1" xmlns="http://www.w3.org/2000/svg" xmlns:xlink="http://www.w3.org/1999/xlink" x="0px" y="0px"
	 viewBox="0 0 24 24" style="enable-background:new 0 0 24 24;" xml:space="preserve">
<style type="text/css">
	.st0{clip-path:url(#SVGID_2_);}
	.st1{fill:none;stroke:#00A9E0;stroke-width:1.5;stroke-linecap:round;stroke-linejoin:round;}
	.st2{fill:none;stroke:#00A9E0;stroke-width:1.5;}
</style>
<g>
	<defs>
		<rect id="SVGID_1_" width="24" height="24"/>
	</defs>
	<clipPath id="SVGID_2_">
		<use xlink:href="#SVGID_1_"  style="overflow:visible;"/>
	</clipPath>
	<g class="st0">
		<path class="st1" d="M14.3,16.5h-0.8c-0.4,0-0.8-0.2-1.1-0.4C12.2,15.8,12,15.4,12,15v-3.8c0-0.2-0.1-0.4-0.2-0.5
			c-0.1-0.1-0.3-0.2-0.5-0.2h-0.8"/>
		<path class="st2" d="M11.6,7.5c-0.2,0-0.4-0.2-0.4-0.4s0.2-0.4,0.4-0.4"/>
		<path class="st2" d="M11.6,7.5c0.2,0,0.4-0.2,0.4-0.4s-0.2-0.4-0.4-0.4"/>
		<path class="st1" d="M12,23.3c6.2,0,11.3-5,11.3-11.3S18.2,0.8,12,0.8S0.8,5.8,0.8,12S5.8,23.3,12,23.3z"/>
	</g>
</g>
</svg>
