<?xml version="1.0" encoding="utf-8"?>
<!-- Generator: Adobe Illustrator 24.2.3, SVG Export Plug-In . SVG Version: 6.00 Build 0)  -->
<svg version="1.1" id="Layer_1" xmlns="http://www.w3.org/2000/svg" xmlns:xlink="http://www.w3.org/1999/xlink" x="0px" y="0px"
	 viewBox="0 0 24 24" style="enable-background:new 0 0 24 24;" xml:space="preserve">
<style type="text/css">
	.st0{fill:none;stroke:#00A9E0;stroke-linecap:round;stroke-linejoin:round;}
</style>
<g>
	<path class="st0" d="M19.7,14l-5.2,1"/>
	<path class="st0" d="M4.2,14.1h2.3l3.3,3.7c0.1,0.1,0.3,0.2,0.4,0.3c0.2,0.1,0.3,0.1,0.5,0.1c1.9-1.4,3.7-2.9,5.4-4.6
		c0.1-0.3-0.1-0.6-0.3-0.8l-2.3-3"/>
	<path class="st0" d="M10.7,7.4l-0.3-0.3C10,6.9,9.6,6.8,9.2,6.8c-0.2,0-0.5,0-0.7,0.1L4.3,8.6"/>
	<path class="st0" d="M1.5,7h1.9C3.6,7,3.8,7,4,7.2c0.2,0.2,0.3,0.4,0.3,0.6v6c0,0.2-0.1,0.4-0.3,0.6s-0.4,0.2-0.6,0.2H1.5"/>
	<path class="st0" d="M22.5,14.7h-1.9c-0.2,0-0.5-0.1-0.6-0.2s-0.3-0.4-0.3-0.6v-6c0-0.2,0.1-0.5,0.3-0.6C20.2,7,20.4,7,20.6,7h1.9"
		/>
	<path class="st0" d="M14.6,9.4l-3.2,1.1c-0.4,0.1-0.7,0.1-1.1,0C9.9,10.3,9.6,10,9.5,9.6C9.3,9.3,9.3,8.9,9.4,8.5
		c0.1-0.4,0.4-0.7,0.7-0.9l3.1-1.6c0.3-0.2,0.6-0.2,1-0.2c0.3,0,0.5,0,0.7,0.1l4.7,1.7"/>
</g>
</svg>
