<svg width="64" height="64" viewBox="0 0 64 64" fill="none" xmlns="http://www.w3.org/2000/svg">
<circle cx="32" cy="32" r="31" stroke="#5DBFEC" stroke-width="2"/>
<path fill-rule="evenodd" clip-rule="evenodd" d="M28.0001 21.3335C28.0001 19.1244 29.791 17.3335 32.0001 17.3335C34.2093 17.3335 36.0001 19.1244 36.0001 21.3335C36.0001 23.5426 34.2093 25.3335 32.0001 25.3335C29.791 25.3335 28.0001 23.5426 28.0001 21.3335ZM38.6668 21.3335C38.6668 19.1244 40.4577 17.3335 42.6668 17.3335C44.8759 17.3335 46.6668 19.1244 46.6668 21.3335C46.6668 23.5426 44.8759 25.3335 42.6668 25.3335C40.4577 25.3335 38.6668 23.5426 38.6668 21.3335ZM21.3334 17.3335C19.1242 17.3335 17.3334 19.1244 17.3334 21.3335C17.3334 23.5426 19.1242 25.3335 21.3334 25.3335C23.5425 25.3335 25.3334 23.5426 25.3334 21.3335C25.3334 19.1244 23.5425 17.3335 21.3334 17.3335ZM38.6668 32.0002C38.6668 29.791 40.4577 28.0002 42.6668 28.0002C44.8759 28.0002 46.6668 29.791 46.6668 32.0002C46.6668 34.2093 44.8759 36.0002 42.6668 36.0002C40.4577 36.0002 38.6668 34.2093 38.6668 32.0002ZM32.0001 28.0002C29.791 28.0002 28.0001 29.791 28.0001 32.0002C28.0001 34.2093 29.791 36.0002 32.0001 36.0002C34.2093 36.0002 36.0001 34.2093 36.0001 32.0002C36.0001 29.791 34.2093 28.0002 32.0001 28.0002ZM17.3335 32.0002C17.3335 29.791 19.1243 28.0002 21.3335 28.0002C23.5426 28.0002 25.3335 29.791 25.3335 32.0002C25.3335 34.2093 23.5426 36.0002 21.3335 36.0002C19.1243 36.0002 17.3335 34.2093 17.3335 32.0002ZM32.0001 38.6668C29.791 38.6668 28.0001 40.4577 28.0001 42.6668C28.0001 44.876 29.791 46.6668 32.0001 46.6668C34.2093 46.6668 36.0001 44.876 36.0001 42.6668C36.0001 40.4577 34.2093 38.6668 32.0001 38.6668Z" fill="white" fill-opacity="0.05"/>
<rect x="39.6667" y="18.3335" width="6" height="6" rx="3" stroke="#5DBFEC" stroke-width="2"/>
<rect x="29.0001" y="18.3335" width="6" height="6" rx="3" stroke="#5DBFEC" stroke-width="2"/>
<rect x="18.3334" y="18.3335" width="6" height="6" rx="3" stroke="#5DBFEC" stroke-width="2"/>
<rect x="29.0001" y="29" width="6" height="6" rx="3" stroke="#5DBFEC" stroke-width="2"/>
<rect x="39.6667" y="29" width="6" height="6" rx="3" stroke="#5DBFEC" stroke-width="2"/>
<rect x="18.3334" y="29" width="6" height="6" rx="3" stroke="#5DBFEC" stroke-width="2"/>
<rect x="29.0001" y="39.6665" width="6" height="6" rx="3" stroke="#5DBFEC" stroke-width="2"/>
</svg>
