<?xml version="1.0" encoding="utf-8"?>
<!-- Generator: Adobe Illustrator 24.2.3, SVG Export Plug-In . SVG Version: 6.00 Build 0)  -->
<svg version="1.1" id="Layer_1" xmlns="http://www.w3.org/2000/svg" xmlns:xlink="http://www.w3.org/1999/xlink" x="0px" y="0px"
	 viewBox="0 0 24 24" style="enable-background:new 0 0 24 24;" xml:space="preserve">
<style type="text/css">
	.st0{clip-path:url(#SVGID_2_);}
	.st1{fill:none;stroke:#00A9E0;stroke-width:1.5;stroke-linecap:round;stroke-linejoin:round;}
</style>
<g>
	<defs>
		<rect id="SVGID_1_" width="24" height="24"/>
	</defs>
	<clipPath id="SVGID_2_">
		<use xlink:href="#SVGID_1_"  style="overflow:visible;"/>
	</clipPath>
	<g class="st0">
		<path class="st1" d="M7.5,12h9"/>
		<path class="st1" d="M11.3,15.7L7.5,12l3.8-3.7"/>
		<path class="st1" d="M1.5,12c0,2.8,1.1,5.5,3.1,7.4c2,2,4.6,3.1,7.4,3.1c2.8,0,5.5-1.1,7.4-3.1c2-2,3.1-4.6,3.1-7.4
			c0-2.8-1.1-5.5-3.1-7.4c-2-2-4.6-3.1-7.4-3.1c-2.8,0-5.5,1.1-7.4,3.1C2.6,6.5,1.5,9.2,1.5,12z"/>
	</g>
</g>
</svg>
