<?xml version="1.0" encoding="utf-8"?>
<!-- Generator: Adobe Illustrator 24.2.3, SVG Export Plug-In . SVG Version: 6.00 Build 0)  -->
<svg version="1.1" id="Layer_1" xmlns="http://www.w3.org/2000/svg" xmlns:xlink="http://www.w3.org/1999/xlink" x="0px" y="0px"
	 viewBox="0 0 48 48" style="enable-background:new 0 0 48 48;" xml:space="preserve">
<style type="text/css">
	.st0{fill:none;stroke:#00A9E0;stroke-width:2;stroke-linecap:round;stroke-linejoin:round;}
	.st1{fill:none;stroke:#00A9E0;stroke-width:2;}
</style>
<path class="st0" d="M23,31H9V9h30v6"/>
<path class="st0" d="M9,21l10,10"/>
<path class="st0" d="M29,9l6,6"/>
<path class="st0" d="M29.6,30l-1.1,7.8c0,0.2,0,0.4,0.1,0.6c0.1,0.2,0.2,0.3,0.4,0.4c0.2,0.1,0.4,0.1,0.6,0.1s0.4-0.1,0.6-0.3L33,36
	l2.7,2.7c0.2,0.2,0.3,0.2,0.6,0.3c0.2,0,0.4,0,0.6-0.1c0.2-0.1,0.3-0.3,0.4-0.4c0.1-0.2,0.1-0.4,0.1-0.6l-1-7.9"/>
<path class="st0" d="M33,31c3.3,0,6-2.7,6-6s-2.7-6-6-6s-6,2.7-6,6S29.7,31,33,31z"/>
<path class="st0" d="M9,19L19,9"/>
<path class="st1" d="M33,25.5c-0.3,0-0.5-0.2-0.5-0.5s0.2-0.5,0.5-0.5"/>
<path class="st1" d="M33,25.5c0.3,0,0.5-0.2,0.5-0.5s-0.2-0.5-0.5-0.5"/>
</svg>
