<?xml version="1.0" encoding="utf-8"?>
<!-- Generator: Adobe Illustrator 24.2.3, SVG Export Plug-In . SVG Version: 6.00 Build 0)  -->
<svg version="1.1" id="Layer_1" xmlns="http://www.w3.org/2000/svg" xmlns:xlink="http://www.w3.org/1999/xlink" x="0px" y="0px"
	 viewBox="0 0 24 24" style="enable-background:new 0 0 24 24;" xml:space="preserve">
<style type="text/css">
	.st0{fill:none;stroke:#00A9E0;stroke-width:1.5;stroke-linecap:round;stroke-linejoin:round;}
</style>
<path class="st0" d="M12,21.8l-9.6-10C1.6,11,1,9.9,0.8,8.7c-0.2-1.2,0-2.4,0.5-3.4c0.4-0.8,1-1.5,1.7-2c0.7-0.5,1.6-0.9,2.5-1
	c0.9-0.1,1.8-0.1,2.7,0.2C9,2.7,9.8,3.2,10.4,3.8L12,5.4l1.6-1.6c0.6-0.6,1.4-1.1,2.3-1.4c0.9-0.3,1.8-0.3,2.7-0.2
	c0.9,0.1,1.7,0.5,2.5,1c0.7,0.5,1.3,1.2,1.7,2c0.5,1.1,0.7,2.3,0.5,3.4c-0.2,1.2-0.7,2.3-1.6,3.1L12,21.8z"/>
</svg>
