<?xml version="1.0" encoding="utf-8"?>
<!-- Generator: Adobe Illustrator 24.2.3, SVG Export Plug-In . SVG Version: 6.00 Build 0)  -->
<svg version="1.1" id="Layer_1" xmlns="http://www.w3.org/2000/svg" xmlns:xlink="http://www.w3.org/1999/xlink" x="0px" y="0px"
	 viewBox="0 0 24 24" style="enable-background:new 0 0 24 24;" xml:space="preserve">
<style type="text/css">
	.st0{clip-path:url(#SVGID_2_);}
	.st1{fill:none;stroke:#00A9E0;stroke-width:1.5;stroke-linecap:round;stroke-linejoin:round;}
</style>
<g>
	<g>
		<defs>
			<rect id="SVGID_1_" width="24" height="24"/>
		</defs>
		<clipPath id="SVGID_2_">
			<use xlink:href="#SVGID_1_"  style="overflow:visible;"/>
		</clipPath>
		<g class="st0">
			<path class="st1" d="M5.7,22.6H0.8V8.7h4.9C5.7,8.7,5.7,22.6,5.7,22.6z M15.8,13.2c-0.6,0-1.1,0.2-1.5,0.6
				c-0.4,0.4-0.6,0.9-0.6,1.5v7.2H8.5V8.7h5.1v1.6c1.2-1,2.7-1.6,4.3-1.6c3.2,0,5.4,2.4,5.4,6.8v7.1h-5.4v-7.2
				c0-0.3-0.1-0.6-0.2-0.8c-0.1-0.3-0.3-0.5-0.5-0.7s-0.4-0.4-0.7-0.5C16.3,13.3,16,13.2,15.8,13.2L15.8,13.2z M5.8,3.9
				c0,0.5-0.1,1-0.4,1.4C5.1,5.7,4.7,6,4.2,6.2s-1,0.2-1.4,0.1C2.3,6.2,1.8,6,1.5,5.6C1.1,5.3,0.9,4.9,0.8,4.4s0-1,0.1-1.4
				c0.2-0.5,0.5-0.8,0.9-1.1s0.9-0.4,1.4-0.4c0.7,0,1.3,0.3,1.8,0.7S5.7,3.2,5.8,3.9L5.8,3.9z"/>
		</g>
	</g>
</g>
</svg>
