<?xml version="1.0" encoding="utf-8"?>
<!-- Generator: Adobe Illustrator 24.2.3, SVG Export Plug-In . SVG Version: 6.00 Build 0)  -->
<svg version="1.1" id="Layer_1" xmlns="http://www.w3.org/2000/svg" xmlns:xlink="http://www.w3.org/1999/xlink" x="0px" y="0px"
	 viewBox="0 0 16 16" style="enable-background:new 0 0 16 16;" xml:space="preserve">
<style type="text/css">
	.st0{fill-rule:evenodd;clip-rule:evenodd;fill:#00A9E0;}
</style>
<path class="st0" d="M0.8,2C0.4,2,0,2.4,0,3s0.4,1,0.8,1h0.3C1.6,4,2,3.6,2,3S1.6,2,1.2,2H0.8z M5,2C4.4,2,4,2.4,4,3s0.4,1,1,1H15
	c0.5,0,1-0.4,1-1s-0.4-1-1-1H5z M4,8c0-0.6,0.4-1,1-1H15c0.5,0,1,0.4,1,1s-0.4,1-1,1H5C4.4,9,4,8.6,4,8z M0.8,7C0.4,7,0,7.4,0,8
	s0.4,1,0.8,1h0.3C1.6,9,2,8.6,2,8S1.6,7,1.2,7H0.8z M4,13c0-0.6,0.4-1,1-1H15c0.5,0,1,0.4,1,1s-0.4,1-1,1H5C4.4,14,4,13.6,4,13z
	 M0.8,12C0.4,12,0,12.4,0,13s0.4,1,0.8,1h0.3C1.6,14,2,13.6,2,13s-0.4-1-0.8-1H0.8z"/>
</svg>
