<svg width="48" height="48" viewBox="0 0 48 48" fill="none" xmlns="http://www.w3.org/2000/svg">
<g clip-path="url(#clip0_822_1049)">
<path d="M46.5677 23.6903C46.5677 36.1161 36.5032 46.2193 24.0387 46.2193C11.5741 46.2193 1.54834 36.1548 1.54834 23.6903C1.54834 11.2258 11.6129 1.16129 24.0774 1.16129C36.5419 1.16129 46.5677 11.2645 46.5677 23.6903Z" stroke="#58595B" stroke-width="1.80039" stroke-miterlimit="10"/>
<mask id="mask0_822_1049" style="mask-type:luminance" maskUnits="userSpaceOnUse" x="4" y="3" width="41" height="41">
<path d="M4.02588 23.6903C4.02588 34.7613 13.0065 43.7032 24.0388 43.7032C35.071 43.7032 44.0517 34.7226 44.0517 23.6903C44.0517 12.6581 35.1097 3.67743 24.0388 3.67743C12.9678 3.67743 4.02588 12.6581 4.02588 23.6903Z" fill="white"/>
</mask>
<g mask="url(#mask0_822_1049)">
<path d="M32.4774 43.7806V33.9871C32.4774 32.2839 30.8516 30.8903 28.9161 30.8903H27.2129C26.8645 30.8903 26.5549 31.0452 26.3613 31.3548L24.3871 34.2581C24.1936 34.5677 23.729 34.5677 23.5355 34.2581L21.6387 31.3548C21.4452 31.0839 21.1355 30.8903 20.7871 30.8903H19.0065C17.071 30.8903 15.4839 32.2839 15.4839 33.9871V43.5097L18.4645 51.1742L28.4516 50.0129L32.4774 43.7806Z" fill="#95C93D"/>
</g>
<mask id="mask1_822_1049" style="mask-type:luminance" maskUnits="userSpaceOnUse" x="4" y="3" width="41" height="41">
<path d="M4.02588 23.6903C4.02588 34.7613 13.0065 43.7032 24.0388 43.7032C35.071 43.7032 44.0517 34.7226 44.0517 23.6903C44.0517 12.6581 35.1097 3.67743 24.0388 3.67743C12.9678 3.67743 4.02588 12.6581 4.02588 23.6903Z" fill="white"/>
</mask>
<g mask="url(#mask1_822_1049)">
<path d="M32.4773 43.7806V33.9871C32.4773 32.2839 30.8515 30.8903 28.916 30.8903H26.9418C26.7483 30.8903 26.5934 30.9677 26.516 31.1226L24.5031 34.1032C24.2708 34.4903 23.6902 34.4516 23.4579 34.1032L21.4838 31.1226C21.3676 30.9677 21.2128 30.8903 21.0579 30.8903H19.045C17.1096 30.8903 15.5225 32.2839 15.5225 33.9871V43.5097L18.5031 51.1742L28.4902 50.0129L32.4773 43.7806Z" stroke="#95C93D" stroke-width="0.903097" stroke-miterlimit="10"/>
</g>
<mask id="mask2_822_1049" style="mask-type:luminance" maskUnits="userSpaceOnUse" x="4" y="3" width="41" height="41">
<path d="M4.02588 23.6903C4.02588 34.7613 13.0065 43.7032 24.0388 43.7032C35.071 43.7032 44.0517 34.7226 44.0517 23.6903C44.0517 12.6581 35.1097 3.67743 24.0388 3.67743C12.9678 3.67743 4.02588 12.6581 4.02588 23.6903Z" fill="white"/>
</mask>
<g mask="url(#mask2_822_1049)">
<path d="M28.0257 22.1032C28.0257 24.3484 26.2064 26.129 23.9999 26.129C21.7548 26.129 19.9741 24.3097 19.9741 22.1032C19.9741 19.8581 21.7935 18.0774 23.9999 18.0774C26.2064 18.0774 28.0257 19.8968 28.0257 22.1032Z" fill="#95C93D"/>
</g>
<mask id="mask3_822_1049" style="mask-type:luminance" maskUnits="userSpaceOnUse" x="4" y="3" width="41" height="41">
<path d="M4.02588 23.6903C4.02588 34.7613 13.0065 43.7032 24.0388 43.7032C35.071 43.7032 44.0517 34.7226 44.0517 23.6903C44.0517 12.6581 35.1097 3.67743 24.0388 3.67743C12.9678 3.67743 4.02588 12.6581 4.02588 23.6903Z" fill="white"/>
</mask>
<g mask="url(#mask3_822_1049)">
<path d="M28.0257 22.1032C28.0257 24.3484 26.2064 26.129 23.9999 26.129C21.7548 26.129 19.9741 24.3097 19.9741 22.1032C19.9741 19.8581 21.7935 18.0774 23.9999 18.0774C26.2064 18.0774 28.0257 19.8968 28.0257 22.1032Z" stroke="#95C93D" stroke-width="0.903097" stroke-miterlimit="10"/>
</g>
<mask id="mask4_822_1049" style="mask-type:luminance" maskUnits="userSpaceOnUse" x="4" y="3" width="41" height="41">
<path d="M4.02588 23.6903C4.02588 34.7613 13.0065 43.7032 24.0388 43.7032C35.071 43.7032 44.0517 34.7226 44.0517 23.6903C44.0517 12.6581 35.1097 3.67743 24.0388 3.67743C12.9678 3.67743 4.02588 12.6581 4.02588 23.6903Z" fill="white"/>
</mask>
<g mask="url(#mask4_822_1049)">
<path d="M6.07739 34.2968V27.1742C6.07739 25.7032 7.47094 24.4645 9.17417 24.4645H11.1097L13.4709 27.9484M41.8838 34.2968V27.1742C41.8838 25.7032 40.4903 24.4645 38.7871 24.4645H36.8516L34.4903 27.9484M26.7871 10.6839C26.7871 12.2322 25.5484 13.471 24 13.471C22.4516 13.471 21.2129 12.2322 21.2129 10.6839C21.2129 9.13547 22.4516 7.89676 24 7.89676C25.5096 7.89676 26.7871 9.13547 26.7871 10.6839ZM9.94836 16.8387C9.94836 18.7742 11.5355 20.3613 13.4709 20.3613C15.4064 20.3613 16.9935 18.7742 16.9935 16.8387C16.9935 14.9032 15.4064 13.3161 13.4709 13.3161C11.5355 13.3161 9.94836 14.9032 9.94836 16.8387ZM38.0129 16.8387C38.0129 18.7742 36.4258 20.3613 34.4903 20.3613C32.5548 20.3613 30.9677 18.7742 30.9677 16.8387C30.9677 14.9032 32.5548 13.3161 34.4903 13.3161C36.4258 13.3161 38.0129 14.9032 38.0129 16.8387Z" stroke="#58595B" stroke-width="1.44039" stroke-miterlimit="10" stroke-linecap="round" stroke-linejoin="round"/>
</g>
</g>
<defs>
<clipPath id="clip0_822_1049">
<rect width="48" height="48" fill="white"/>
</clipPath>
</defs>
</svg>
