<svg width="281" height="281" viewBox="0 0 281 281" fill="none" xmlns="http://www.w3.org/2000/svg">
<path d="M155.955 73.923C156.126 73.4149 156.358 72.9299 156.648 72.4787V20.0131C156.648 20.0131 158.072 5.64004 137.075 7.32744H89.0039C89.0039 7.32744 78.0856 7.07454 78.8176 23.2418C79.4977 38.3343 78.5085 103.347 78.4172 104.015C82.4173 109.88 82.9736 118.866 80.8563 123.545C80.2732 124.856 79.4606 126.052 78.4566 127.077L78.4748 127.097L77.9775 137.709L77.792 137.849C83.0031 144.874 82.7685 152.954 79.8714 157.814L79.9093 157.832C80.3098 158.925 80.7003 160.087 81.0024 161.267L81.0221 161.258C81.1977 161.911 82.4383 165.405 89.823 165.482C90.9653 165.495 146.142 164.875 146.574 164.868C146.574 164.868 153.999 163.444 153.739 156.516C152.275 147.733 152.295 137.267 154.178 133.624C154.779 132.501 155.444 131.413 156.169 130.366L156.042 130.278C156.042 130.137 156.575 91.078 156.715 91.0415C155.252 85.3681 154.321 78.773 155.955 73.923Z" fill="#007BB5"/>
<path d="M113.169 35.7974C113.207 29.1788 107.741 23.8616 101.048 23.8245C96.1767 23.8245 91.7519 26.6876 89.8556 31.1867C88.3683 34.6819 88.6286 38.6979 90.6365 41.9328C94.6894 48.477 102.87 49.4438 108.336 45.428C111.347 43.1226 113.132 39.5903 113.169 35.7974ZM100.973 46.3948C95.0612 46.4691 90.1902 41.6353 90.153 35.7231C90.1159 29.8853 94.8381 25.0887 100.713 25.0515C106.625 24.9771 111.459 29.6994 111.533 35.6115C111.645 41.5238 106.923 46.3204 100.973 46.3948Z" fill="#46C2F2"/>
<path d="M113.169 64.8853C113.207 58.2667 107.741 52.9495 101.048 52.9124C96.1767 52.9124 91.7519 55.7755 89.8556 60.2746C88.3683 63.7698 88.6286 67.7857 90.6365 71.0207C94.6894 77.5649 102.87 78.5317 108.336 74.5159C111.347 72.2105 113.132 68.6781 113.169 64.8853ZM100.973 75.4826C95.0612 75.557 90.1902 70.7232 90.153 64.8109C90.1159 58.9732 94.8381 54.1766 100.713 54.1394C106.625 54.065 111.459 58.7873 111.533 64.6994C111.645 70.6117 106.923 75.4083 100.973 75.4826Z" fill="#46C2F2"/>
<path d="M113.169 96.4429C113.207 89.8243 107.741 84.5072 101.048 84.47C96.1767 84.47 91.7519 87.3331 89.8556 91.8322C88.3683 95.3274 88.6286 99.3434 90.6365 102.578C94.6894 109.123 102.87 110.089 108.336 106.074C111.347 103.768 113.132 100.236 113.169 96.4429ZM100.973 107.04C95.0612 107.115 90.1902 102.281 90.153 96.3686C90.1159 90.5308 94.8381 85.7342 100.713 85.697C106.625 85.6226 111.459 90.3449 111.533 96.257C111.645 102.169 106.923 106.966 100.973 107.04Z" fill="#46C2F2"/>
<path d="M143.904 64.8853C143.941 58.2667 138.475 52.9495 131.782 52.9124C126.911 52.9124 122.486 55.7755 120.59 60.2746C119.103 63.7698 119.363 67.7857 121.371 71.0207C125.424 77.5649 133.604 78.5317 139.07 74.5159C142.082 72.2105 143.867 68.6781 143.904 64.8853ZM131.708 75.4826C125.796 75.557 120.925 70.7232 120.887 64.8109C120.85 58.9732 125.572 54.1766 131.447 54.1394C137.359 54.065 142.193 58.7873 142.268 64.6994C142.379 70.6117 137.657 75.4083 131.708 75.4826Z" fill="#46C2F2"/>
<path d="M143.904 35.7974C143.941 29.1788 138.475 23.8616 131.782 23.8245C126.911 23.8245 122.486 26.6876 120.59 31.1867C119.103 34.6819 119.363 38.6979 121.371 41.9328C125.424 48.477 133.604 49.4438 139.07 45.428C142.082 43.1226 143.867 39.5903 143.904 35.7974ZM131.708 46.3948C125.796 46.4691 120.925 41.6353 120.887 35.7231C120.85 29.8853 125.572 25.0887 131.447 25.0515C137.359 24.9771 142.193 29.6994 142.268 35.6115C142.379 41.5238 137.657 46.3204 131.708 46.3948Z" fill="#46C2F2"/>
<path d="M143.904 96.4429C143.941 89.8243 138.475 84.5072 131.782 84.47C126.911 84.47 122.486 87.3331 120.59 91.8322C119.103 95.3274 119.363 99.3434 121.371 102.578C125.424 109.123 133.604 110.089 139.07 106.074C142.082 103.768 143.867 100.236 143.904 96.4429ZM131.708 107.04C125.796 107.115 120.925 102.281 120.887 96.3686C120.85 90.5308 125.572 85.7342 131.447 85.697C137.359 85.6226 142.193 90.3449 142.268 96.257C142.379 102.169 137.657 106.966 131.708 107.04Z" fill="#46C2F2"/>
<path d="M140.378 145.73C140.378 145.085 140.122 144.468 139.666 144.011C139.211 143.556 138.593 143.3 137.948 143.3C137.808 143.3 97.4199 143.217 96.7665 143.489C96.4621 143.614 96.1854 143.799 95.9525 144.032C95.7197 144.264 95.5351 144.541 95.4093 144.846C95.1536 145.465 95.2098 145.276 95.221 152.502C95.2226 153.121 95.4696 153.717 95.9082 154.155C96.3469 154.594 96.9415 154.841 97.5618 154.842H111.027C111.264 152.828 112.017 150.91 113.212 149.272C116.126 145.853 122.042 147.278 125.03 150.773C125.927 152.001 126.593 153.381 126.997 154.848C138.069 154.848 137.721 154.948 138.518 154.618C138.884 154.466 139.217 154.242 139.498 153.961C139.778 153.68 140 153.346 140.15 152.979C140.454 152.239 140.378 152.277 140.378 145.73Z" fill="#9CF0BB"/>
<path d="M150.116 122.7C150.117 121.961 149.972 121.228 149.69 120.544C149.407 119.861 148.993 119.24 148.469 118.717C147.946 118.194 147.325 117.779 146.642 117.497C145.958 117.214 145.225 117.069 144.486 117.071H128.309L128.494 138.11H145.246C146.208 138.11 147.15 137.825 147.95 137.29C148.75 136.755 149.374 135.995 149.742 135.105C150.239 133.911 150.116 134.249 150.116 122.7ZM138.836 133.2C137.847 133.176 136.901 132.787 136.182 132.107C135.172 130.588 135.231 129.274 134.738 124.895C135.012 124.115 135.851 123.947 136.583 123.813C138.41 123.486 140.276 123.446 142.116 123.695C142.885 123.796 144.076 123.91 144.203 124.867C144.112 127.26 143.702 129.63 142.982 131.914C142.271 133.371 141.076 133.465 138.836 133.2Z" fill="white"/>
<path d="M128.494 138.11H105.964L105.778 117.073H128.309C128.514 139.556 128.494 137.17 128.494 138.11ZM123.986 126.322C126.414 122.529 125.079 119.956 120.345 121.493C116.587 122.714 113.742 125.942 111.759 129.221C111.096 130.301 110.522 131.433 110.042 132.607C109.762 133.313 109.651 134.075 109.719 134.831C110.149 136.431 112.639 135.351 113.74 134.802C117.815 132.882 121.339 129.964 123.986 126.32V126.322Z" fill="white"/>
<path d="M95.2786 123.779C95.2393 123.799 95.2 123.809 95.1606 123.827C95.3166 123.935 94.7897 123.799 94.6141 123.77C93.77 123.545 92.8734 123.628 92.0851 124.004C91.6193 124.262 91.2335 124.643 90.9695 125.106C90.5699 126.015 90.3693 127 90.3812 127.993C90.393 128.987 90.6171 129.966 91.0383 130.866C91.1329 131.319 91.3385 131.742 91.6363 132.096C91.9343 132.45 92.3154 132.724 92.7454 132.895C93.2583 133.003 93.7846 133.033 94.3064 132.984C95.5948 132.944 97.7458 133.104 98.7364 132.086C100.07 130.716 101.413 127.557 100.913 125.645C100.307 123.342 97.1023 123.022 95.2786 123.779ZM105.964 138.11H90.6829C89.4532 138.11 88.2739 137.622 87.4043 136.752C86.5349 135.883 86.0464 134.704 86.0464 133.474V122.114C86.0467 120.777 86.5783 119.494 87.5242 118.548C88.47 117.602 89.7526 117.071 91.0903 117.071H105.778C105.975 138.918 105.964 137.35 105.964 138.11Z" fill="white"/>
<path d="M105.055 165.46L105.045 165.237L110.696 165.041C110.737 167.237 110.643 169.433 110.415 171.618L110.229 171.598C108.824 170.866 107.751 168.729 106.823 167.559L105.712 166.182C105.524 165.949 104.88 165.46 105.055 165.46Z" fill="white"/>
<path d="M250.15 228.722C248.56 223.073 243.165 217.988 239.418 213.714C230.518 203.538 221.434 193.496 210.906 184.969C206.019 181.207 201.542 176.941 197.547 172.244C196.203 170.572 194.948 168.83 193.79 167.025C193.683 166.859 192.2 163.903 192.874 164.42C190.626 155.686 191.317 145.28 190.073 135.758C188.991 127.468 184.745 120.234 182.345 112.331C180.325 105.685 180.159 99.2837 177.798 92.7659C176.003 87.7993 171.845 84.3655 168.976 79.9931C167.074 77.1058 167.571 71.5926 164.645 69.5722C161.507 67.4099 157.208 70.3098 155.961 73.8069C154.321 78.6569 155.258 85.2534 156.712 90.9212L156.166 130.246C155.441 131.293 154.776 132.381 154.175 133.504C152.292 137.157 152.272 147.613 153.736 156.396C153.999 163.324 146.571 164.749 146.571 164.749L128.08 165.061C128.123 171.287 127.436 174.193 127.096 187.591H127.175C130.999 190.401 135.358 196.252 144.597 201.163C150.305 203.964 156.961 204.666 161.956 208.814C168.201 214.005 172.455 221.928 176.895 228.592C179.407 232.353 198.251 260.251 199.825 261.954C204.302 268.158 214.704 267.912 222.258 267.056C231.098 266.062 240.134 262.451 245.862 255.377C251.37 248.572 252.443 236.87 250.15 228.722Z" fill="#D6F2FF"/>
<path fill-rule="evenodd" clip-rule="evenodd" d="M158.566 69.4915C161.161 67.7032 164.486 67.8773 166.488 70.5095C167.718 72.1251 168.399 74.3644 169.041 76.4749C169.068 76.5613 169.095 76.6476 169.12 76.7335C169.808 78.991 170.481 81.0923 171.674 82.5772C172.09 83.0951 172.519 83.6124 172.95 84.1334C175.072 86.6944 177.269 89.3488 178.459 92.6405C179.815 96.3826 180.559 100.273 181.294 104.102L181.304 104.155C182.045 108.019 182.775 111.822 184.1 115.466C184.701 117.122 185.356 118.76 186.019 120.406C186.071 120.533 186.122 120.66 186.174 120.787C186.785 122.304 187.399 123.83 187.974 125.369C189.221 128.705 190.293 132.135 190.77 135.78C191.176 138.893 191.163 142.54 191.149 146.256C191.148 146.832 191.145 147.411 191.145 147.99C191.141 152.329 191.223 156.687 192.009 160.507C192.905 164.867 195.253 168.382 198.088 171.91C202.05 176.568 206.49 180.795 211.335 184.526L211.349 184.537C221.927 193.104 231.047 203.188 239.946 213.365L239.418 213.827L239.946 213.365C240.578 214.085 241.268 214.84 241.983 215.624C243.35 217.12 244.813 218.72 246.141 220.376C248.176 222.913 249.993 225.685 250.826 228.645C252.002 232.821 252.31 237.883 251.627 242.764C250.946 247.641 249.267 252.401 246.409 255.932L245.862 255.489L246.409 255.932C240.528 263.196 231.293 266.86 222.337 267.867C221.951 267.911 221.604 267.634 221.56 267.248C221.517 266.863 221.795 266.514 222.18 266.472C230.905 265.49 239.741 261.933 245.316 255.048C247.966 251.774 249.577 247.281 250.236 242.569C250.894 237.861 250.592 232.997 249.475 229.026C248.717 226.337 247.041 223.742 245.045 221.255C243.741 219.631 242.34 218.098 240.994 216.626C240.269 215.832 239.56 215.055 238.889 214.29C229.993 204.117 220.943 194.117 210.47 185.634C210.473 185.635 210.475 185.637 210.478 185.64L210.906 185.082L210.463 185.628C210.466 185.63 210.468 185.633 210.47 185.634C205.549 181.843 201.037 177.546 197.012 172.812L196.999 172.798C194.125 169.222 191.599 165.489 190.632 160.789C189.814 156.812 189.736 152.32 189.74 147.989C189.74 147.401 189.743 146.82 189.744 146.241C189.758 142.512 189.769 138.974 189.376 135.962V135.962C188.921 132.47 187.889 129.154 186.659 125.86C186.09 124.339 185.481 122.83 184.869 121.31C184.818 121.183 184.767 121.057 184.717 120.931C184.054 119.286 183.391 117.627 182.779 115.946C181.411 112.179 180.661 108.266 179.924 104.42V104.419C179.183 100.554 178.455 96.7556 177.138 93.1187V93.1182C176.038 90.0779 174.029 87.6459 171.913 85.0875C171.47 84.5518 171.024 84.0106 170.578 83.457C169.186 81.7227 168.447 79.3423 167.777 77.1432C167.763 77.1009 167.75 77.0587 167.737 77.0165C167.06 74.7944 166.443 72.7707 165.37 71.3603C163.9 69.4277 161.453 69.2086 159.364 70.6485C158.13 71.4981 157.111 72.7868 156.622 74.1563C156.492 74.5218 156.09 74.7123 155.725 74.5819C155.359 74.4515 155.168 74.0497 155.299 73.6843C155.893 72.0189 157.106 70.4975 158.566 69.4915Z" fill="black"/>
<path d="M84.1734 203.531L84.2619 203.541C85.4421 197.424 88.0666 191.809 94.9399 192.047C103.545 192.345 104.494 204.732 104.463 210.996C104.417 219.762 103.058 222.837 106.249 225.925L106.59 225.965C106.954 221.805 108.362 216.038 108.804 210.137C109.234 204.419 107.716 198.829 108.005 193.137C108.426 184.913 110.316 175.732 110.674 168.06C110.849 164.25 110.334 160.731 111.036 154.854C111.274 152.84 112.026 150.922 113.22 149.283C116.182 145.808 122.129 147.382 125.038 150.785C129.985 157.529 127.536 170.065 127.106 187.718C126.874 197.228 126.753 220.957 127.246 230.494C127.266 230.133 128.66 228.737 128.72 228.681C130.494 227.024 132.478 225.606 134.621 224.466C139.446 221.807 145.648 218.743 151.325 219.909C153.452 220.346 156.383 221.637 156.955 223.984C157.762 227.288 152.257 230.339 146.467 236.757C135.724 248.663 133.507 265.601 123.425 273.962L122.624 273.982C120.902 273.847 119.173 273.85 117.452 273.992C102.537 273.74 52.877 273.509 42.7975 271.192C42.1786 270.932 41.6211 270.545 41.1613 270.055C40.7015 269.566 40.3494 268.986 40.128 268.352C39.7065 258.061 43.115 247.464 45.016 237.498C46.1808 231.401 46.1175 225.095 48.2559 219.193C50.3719 213.356 55.0772 208.635 61.6821 209.498C62.6349 209.744 63.5482 210.122 64.3952 210.622L64.6762 210.691C65.2638 207.403 66.6065 204.297 68.5989 201.616C71.6506 197.591 76.776 195.939 80.9714 199.343C81.6851 199.912 84.3785 202.264 84.1734 203.531Z" fill="#D6F2FF"/>
<path fill-rule="evenodd" clip-rule="evenodd" d="M88.0209 195.843C86.4598 197.851 85.5349 200.654 84.952 203.674C84.8825 204.034 84.5487 204.28 84.1847 204.241L84.0962 204.231C83.9049 204.21 83.7309 204.11 83.6144 203.957C83.4979 203.804 83.4494 203.61 83.4802 203.42C83.4912 203.351 83.467 203.148 83.2515 202.774C83.0517 202.427 82.7482 202.038 82.3954 201.647C81.6921 200.866 80.8713 200.162 80.5338 199.894L80.529 199.889C78.5992 198.324 76.4891 197.936 74.5104 198.38C72.5131 198.829 70.6045 200.137 69.161 202.039C67.2346 204.631 65.9363 207.637 65.3681 210.816C65.3339 211.007 65.2222 211.176 65.0595 211.281C64.897 211.386 64.6978 211.42 64.5093 211.374L64.2283 211.305C64.1615 211.29 64.0973 211.263 64.038 211.228C63.2603 210.768 62.4226 210.418 61.5489 210.191C55.4295 209.414 50.9706 213.768 48.9167 219.433C47.8743 222.31 47.3632 225.3 46.9679 228.363C46.8571 229.222 46.7551 230.088 46.6526 230.961C46.3922 233.177 46.128 235.423 45.7064 237.632C45.2285 240.136 44.6564 242.679 44.0764 245.233C44.0389 245.397 44.0014 245.563 43.9639 245.727C43.4199 248.123 42.8733 250.528 42.3902 252.942C41.3645 258.066 40.6333 263.187 40.826 268.216C41.0162 268.72 41.3041 269.183 41.6735 269.575C42.066 269.993 42.5418 270.323 43.07 270.545C43.4277 270.696 43.5958 271.107 43.4454 271.466C43.2951 271.823 42.8833 271.991 42.5256 271.841C41.8161 271.542 41.1771 271.099 40.6498 270.537C40.1226 269.976 39.7191 269.312 39.4651 268.585C39.4423 268.519 39.4293 268.451 39.4264 268.382C39.2123 263.154 39.9714 257.868 41.0126 252.667C41.4994 250.235 42.0497 247.812 42.5929 245.421C42.6307 245.254 42.6685 245.088 42.7063 244.922C43.2867 242.365 43.8536 239.846 44.3262 237.368C44.7378 235.212 44.9928 233.045 45.251 230.849C45.3548 229.965 45.4591 229.077 45.5744 228.183C45.9733 225.094 46.4998 221.98 47.5957 218.954C49.7689 212.96 54.7047 207.88 61.7734 208.803C61.8016 208.807 61.8297 208.811 61.8573 208.82C62.6555 209.025 63.4275 209.317 64.1598 209.692C64.8366 206.622 66.1561 203.726 68.0355 201.199L68.0394 201.193C69.6473 199.072 71.8264 197.542 74.2027 197.009C76.5977 196.471 79.1471 196.96 81.4121 198.796C81.7897 199.098 82.6702 199.853 83.439 200.706C83.6394 200.928 83.8377 201.164 84.0197 201.404C84.6316 199.02 85.5305 196.758 86.9116 194.98C88.7074 192.67 91.294 191.219 94.9644 191.346C99.7077 191.51 102.262 195.039 103.607 199.063C104.953 203.093 105.181 207.849 105.166 211C105.154 213.21 105.06 215.061 104.975 216.631L104.964 216.846C104.884 218.327 104.82 219.533 104.845 220.574C104.87 221.66 104.993 222.521 105.276 223.278C105.533 223.968 105.935 224.605 106.572 225.257L106.671 225.268C107.056 225.313 107.333 225.661 107.288 226.046C107.244 226.431 106.895 226.708 106.51 226.663L106.169 226.624C106.015 226.607 105.872 226.539 105.76 226.431C104.898 225.597 104.321 224.74 103.959 223.769C103.601 222.808 103.468 221.774 103.44 220.607C103.414 219.509 103.481 218.253 103.559 216.8C103.564 216.718 103.568 216.637 103.573 216.555C103.656 214.989 103.749 213.167 103.761 210.993C103.776 207.881 103.545 203.312 102.274 199.507C101 195.697 98.7783 192.884 94.9159 192.749M88.0209 195.843C89.5507 193.876 91.7131 192.64 94.9159 192.749L88.0209 195.843Z" fill="black"/>
<path d="M78.4174 103.902C82.4175 109.767 82.9598 118.748 80.8565 123.432C78.801 128.007 74.6295 130.763 70.2502 128.018C67.2897 125.903 65.1086 122.872 64.0443 119.393C61.83 112.286 66.2417 107.159 70.718 101.926C72.1891 100.207 75.4796 97.1359 77.8119 96.3547L78.5635 96.3646C78.4427 104.426 78.4525 103.644 78.4174 103.902Z" fill="#D6F2FF"/>
<path d="M78.2909 172.28C77.3789 172.975 76.2821 173.385 75.138 173.46C70.2205 173.732 69.8679 168.835 69.9859 165.137C70.0182 164.125 70.0519 161.42 70.0056 160.736C69.9971 160.61 69.9185 160.315 69.9185 160.229C70.224 160.849 70.6642 161.392 71.2068 161.819C73.5841 163.674 77.0741 161.286 78.6702 159.467C79.1211 158.953 79.5232 158.398 79.8715 157.81L79.9094 157.828C81.8877 163.23 82.9386 168.808 78.2909 172.28Z" fill="#D6F2FF"/>
<path d="M69.9186 160.116C69.2449 158.654 68.7269 157.122 68.3731 155.55C66.8417 150.641 62.7854 144.622 64.286 139.352C65.5842 134.79 68.0205 131.952 69.174 129.869C69.2442 129.742 69.6713 129.004 69.7599 128.908L70.2502 128.014C71.5002 128.902 73.0387 129.286 74.5595 129.091C76.0801 128.896 77.4716 128.135 78.4568 126.96L78.4751 126.98L77.9777 137.596L77.7922 137.737C83.4502 145.365 82.8109 154.647 78.6704 159.359C77.0743 161.177 73.5843 163.566 71.207 161.711C70.6586 161.288 70.2173 160.741 69.9186 160.116Z" fill="#D6F2FF"/>
<path d="M78.1531 71.811L78.8851 71.8195C78.8177 78.423 78.7292 84.6612 78.6603 89.833H78.2585C71.2124 90.2334 62.4284 88.539 58.0405 84.5249C56.0581 82.711 54.2091 79.8322 55.3177 77.0896C55.7687 76.2503 56.3996 75.5211 57.1655 74.954C57.9314 74.3871 58.8132 73.9967 59.7476 73.8104C64.5541 72.3702 69.5587 72.7159 75.9655 72.1623C76.1088 72.1496 78.1531 72.0077 78.1531 71.811Z" fill="#D6F2FF"/>
<path d="M60.6288 40.1524C61.4872 40.5922 62.6183 41.0601 62.2389 41.9185C61.2554 44.1525 59.4092 43.8687 56.7594 43.051C54.3302 42.2979 51.412 40.8859 48.7284 40.6793C46.7193 40.5248 46.7614 43.169 44.5626 42.5817C42.6827 42.0787 34.5759 37.3832 33.9268 37.1668C34.5702 36.4151 35.7814 34.007 36.8773 33.5461C37.6205 33.2356 38.663 33.9269 39.1997 34.1995C43.0902 36.1861 43.2742 36.831 44.8886 37.1275C46.538 37.2539 47.4344 35.4569 48.772 35.02C50.3034 34.5198 53.1753 36.4699 54.2655 37.0109C56.3899 38.0562 58.5395 39.0818 60.6288 40.1524Z" fill="#46C2F2"/>
<path d="M188.678 62.1105C187.715 62.1589 186.502 62.3192 186.401 61.3861C186.136 58.9597 187.876 58.2824 190.58 57.6657C193.06 57.1032 196.294 56.867 198.721 55.7041C200.538 54.8333 199.18 52.5645 201.378 51.9737C203.257 51.4693 212.626 51.4823 213.296 51.3452C213.114 52.3179 213.27 55.009 212.551 55.956C212.063 56.5965 210.814 56.5191 210.213 56.5514C205.85 56.7762 205.369 56.3097 203.822 56.8601C202.331 57.5754 202.453 59.5798 201.513 60.627C200.437 61.8259 196.975 61.5729 195.76 61.6496C193.398 61.8065 191.023 61.9931 188.678 62.1105Z" fill="#46C2F2"/>
<path d="M53.952 56.9362C53.9559 57.1253 53.9361 57.314 53.893 57.4982C53.894 57.8241 53.7991 58.1431 53.6204 58.4156C53.1329 58.913 51.6534 58.5561 51.0535 58.5126C43.2923 57.8944 42.8132 56.4332 41.8226 58.4733C41.4018 59.3501 41.0559 60.261 40.7886 61.1961C40.7099 61.4687 40.6143 62.3693 40.301 62.4944C39.8444 62.6742 39.0731 62.2766 38.6614 62.1234C35.4454 60.9194 30.9634 58.9903 29.7144 58.6489C29.8703 58.0869 30.348 56.6397 30.504 56.0833C30.6599 55.527 30.7765 54.5378 31.295 54.1894C31.7727 53.8761 32.6508 54.4058 33.0906 54.5898C33.9968 54.972 34.9241 55.3218 35.8612 55.6436C36.336 55.8734 36.8554 55.9967 37.3828 56.0047C37.8043 55.9555 38.0783 55.5382 38.3101 55.2249C38.8131 54.5449 39.3737 53.2326 40.1844 52.8729C40.7787 52.6088 41.6386 52.9797 42.2132 53.1455C53.206 56.3264 53.8733 56.2449 53.952 56.9362Z" fill="#46C2F2"/>
<path d="M186.069 44.2372C185.971 44.0754 185.893 43.902 185.839 43.721C185.675 43.4392 185.598 43.1155 185.616 42.7901C185.79 42.1156 187.249 41.685 187.791 41.4227C194.821 38.0775 195.967 39.1034 195.804 36.8413C195.73 35.8716 195.575 34.9098 195.338 33.9662C195.27 33.6908 194.903 32.8631 195.112 32.5982C195.417 32.2141 196.284 32.1728 196.717 32.0996C200.104 31.5343 204.95 30.964 206.203 30.6351C206.349 31.1998 206.658 32.6919 206.802 33.2517C206.945 33.8115 207.338 34.7265 207.064 35.2874C206.806 35.7976 205.781 35.778 205.308 35.8384C204.332 35.9606 203.354 36.1213 202.382 36.3112C201.856 36.3495 201.344 36.5025 200.884 36.7593C200.543 37.0126 200.515 37.511 200.47 37.8983C200.375 38.7387 200.546 40.1554 200.023 40.8723C199.641 41.3982 198.711 41.5069 198.13 41.6506C187.02 44.3922 186.482 44.7965 186.069 44.2372Z" fill="#46C2F2"/>
<path d="M84.9013 16.6378C84.9561 16.4903 84.973 16.4116 85.0938 16.1053C85.5632 15.3819 86.1774 14.7634 86.8974 14.2888C87.6175 13.8141 88.428 13.4936 89.2779 13.3473C94.5635 12.2935 100.509 12.7066 104.924 12.4888C107.113 12.3764 109.591 12.2528 111.192 13.1913C113.346 14.446 114.151 17.7759 117.683 17.7759C122.031 17.766 123.62 13.8545 126.759 12.5773C129.354 11.7714 132.082 11.4849 134.787 11.7343C141.59 11.9198 149.061 12.6504 151.59 18.9912C151.623 19.0776 151.674 19.1564 151.739 19.2233C151.802 19.29 151.879 19.3434 151.965 19.3805C152.049 19.4175 152.14 19.4373 152.233 19.4387C152.326 19.4401 152.419 19.4232 152.504 19.3889C152.59 19.3545 152.669 19.3035 152.735 19.2387C152.801 19.174 152.854 19.0967 152.891 19.0114C152.927 18.9261 152.946 18.8345 152.947 18.7418C152.947 18.6491 152.93 18.5572 152.895 18.4713C149.804 10.7438 140.062 10.4726 134.827 10.3293C131.925 10.0675 129.001 10.3905 126.227 11.2791C122.818 12.6743 121.319 16.3709 117.681 16.3793C114.963 16.3793 114.357 13.4147 111.898 11.9858C109.44 10.5569 105.66 11.1288 103.26 11.1597C98.497 11.0016 93.729 11.2762 89.0152 11.9802C87.9595 12.163 86.9542 12.5668 86.0654 13.1651C85.1766 13.7633 84.4241 14.5427 83.8574 15.452C83.7254 15.7337 83.62 16.0272 83.5427 16.3287C83.5266 16.4986 83.5728 16.6686 83.6728 16.8068C83.7728 16.9452 83.9198 17.0423 84.0862 17.0802C84.2527 17.118 84.4272 17.094 84.5772 17.0127C84.7271 16.9312 84.8423 16.798 84.9013 16.6378Z" fill="black"/>
<path d="M82.3597 105.841C82.546 105.841 82.7247 105.767 82.8565 105.636C82.9882 105.504 83.0622 105.325 83.0622 105.139C83.0622 105.139 83.2407 46.5208 83.3151 29.6285C83.3151 29.4422 83.2411 29.2635 83.1094 29.1317C82.9776 29.0001 82.7989 28.926 82.6126 28.926C82.4263 28.926 82.2476 29.0001 82.116 29.1317C81.9842 29.2635 81.9101 29.4422 81.9101 29.6285C81.8357 46.5222 81.6572 105.146 81.6572 105.146C81.6591 105.331 81.7339 105.508 81.8654 105.638C81.997 105.768 82.1747 105.841 82.3597 105.841Z" fill="black"/>
<path d="M151.911 118.407C152.098 118.407 152.277 118.333 152.409 118.201C152.54 118.069 152.614 117.891 152.614 117.704C152.614 117.704 152.784 59.0863 152.858 42.194C152.858 42.0077 152.784 41.8291 152.653 41.6973C152.521 41.5655 152.343 41.4915 152.156 41.4915C151.969 41.4915 151.791 41.5655 151.659 41.6973C151.528 41.8291 151.453 42.0077 151.453 42.194C151.379 59.0878 151.209 117.711 151.209 117.711C151.21 117.896 151.286 118.073 151.417 118.204C151.549 118.334 151.726 118.407 151.911 118.407Z" fill="black"/>
<path d="M78.3005 90.6453C78.3927 90.6401 78.4829 90.6168 78.5661 90.5767C78.6493 90.5365 78.7237 90.4805 78.7851 90.4116C78.8467 90.3427 78.8939 90.2624 78.9244 90.1752C78.9547 90.0879 78.9676 89.9956 78.9623 89.9035C78.949 89.7186 78.8639 89.546 78.7254 89.4227C78.5869 89.2994 78.4058 89.235 78.2205 89.2431C71.8263 89.6042 62.9397 88.1556 58.5182 84.1177C57.6204 83.2957 54.7865 80.3874 55.9723 77.4636C57.9309 72.6037 71.1603 73.7024 77.3915 72.8383C77.407 72.8383 78.8555 72.8285 78.8555 71.9223C78.8559 71.786 78.8176 71.6524 78.7451 71.5369C78.6726 71.4214 78.5688 71.3289 78.4458 71.2701C78.3229 71.2112 78.1858 71.1884 78.0503 71.2044C77.9149 71.2205 77.7869 71.2744 77.6809 71.3603C76.571 71.63 71.1421 71.8689 69.9942 71.9223C65.0767 72.1372 56.4865 72.4281 54.6699 76.9353C53.144 80.6965 56.4964 84.1753 57.5698 85.1531C62.4255 89.5887 71.6647 91.026 78.3005 90.6453Z" fill="black"/>
<path d="M84.3941 202.854C84.3032 202.837 84.2098 202.837 84.1191 202.857C84.0286 202.875 83.9427 202.911 83.8664 202.963C83.7899 203.017 83.7246 203.083 83.6742 203.16C83.6237 203.237 83.589 203.325 83.5722 203.416C82.4074 209.55 82.4482 218.694 80.7832 227.29C80.7544 227.469 80.7967 227.654 80.9011 227.802C81.0055 227.951 81.1639 228.055 81.3427 228.089C81.5214 228.124 81.7069 228.089 81.8596 227.989C82.0123 227.89 82.1207 227.735 82.1615 227.558C83.8714 218.763 83.759 209.96 84.9533 203.673C84.9874 203.49 84.9477 203.301 84.8428 203.148C84.738 202.994 84.5767 202.889 84.3941 202.854Z" fill="black"/>
<path d="M64.8255 209.991C64.7355 209.97 64.6422 209.967 64.5511 209.983C64.46 209.998 64.3727 210.032 64.2944 210.081C64.2162 210.13 64.1483 210.194 64.0948 210.27C64.0413 210.344 64.0031 210.43 63.9825 210.52C62.5354 216.842 61.9804 225.879 59.9783 233.437C59.9548 233.527 59.9491 233.619 59.9614 233.711C59.9739 233.802 60.0041 233.89 60.0506 233.969C60.097 234.049 60.1587 234.119 60.2322 234.174C60.3055 234.23 60.3892 234.271 60.4785 234.295C60.5677 234.319 60.6607 234.325 60.752 234.312C60.8435 234.299 60.9316 234.27 61.0112 234.223C61.091 234.177 61.1609 234.115 61.2167 234.041C61.2726 233.968 61.3135 233.885 61.3369 233.795C63.4444 225.829 63.8252 217.517 65.3524 210.832C65.3936 210.65 65.3613 210.461 65.2626 210.303C65.1639 210.146 65.0066 210.034 64.8255 209.991Z" fill="black"/>
<path d="M110.316 164.226C104.374 164.607 95.7576 164.727 89.8313 164.664C83.0199 164.592 81.8635 161.566 81.7174 161.043C81.7174 161.021 81.6907 160.89 81.6851 160.868L81.657 160.875C81.4097 159.928 81.095 158.919 80.6609 157.728C83.3824 152.854 83.7687 144.942 78.6644 137.74C78.6731 137.704 78.6783 137.667 78.6798 137.63C79.2109 126.12 79.1013 127.315 79.3107 127.093C80.2099 126.089 80.9473 124.951 81.4968 123.721C83.6718 118.917 83.1828 109.651 78.9973 103.51C78.9466 103.431 78.8806 103.363 78.8032 103.31C78.7256 103.257 78.6384 103.22 78.5463 103.201C78.4543 103.182 78.3596 103.182 78.2676 103.201C78.1756 103.219 78.0882 103.256 78.0106 103.309C77.9329 103.362 77.8667 103.429 77.8159 103.508C77.765 103.587 77.7305 103.676 77.7143 103.768C77.698 103.861 77.7005 103.955 77.7216 104.047C77.7427 104.138 77.7819 104.225 77.8368 104.301C81.702 109.967 82.1923 118.772 80.2155 123.143C79.7264 124.239 79.0698 125.252 78.2696 126.146C76.0806 128.512 73.4757 129.209 70.6235 127.42C67.8047 125.391 65.7288 122.494 64.7141 119.173C62.6207 112.49 66.7654 107.628 71.1574 102.484C72.658 100.728 75.8768 97.7337 78.0349 97.0116C78.2066 96.9486 78.347 96.8213 78.4264 96.6565C78.5056 96.4917 78.5175 96.3026 78.4595 96.1291C78.4015 95.9557 78.2783 95.8117 78.1157 95.7278C77.9533 95.6439 77.7646 95.6265 77.5895 95.6796C75.1266 96.503 71.7742 99.5968 70.0896 101.572C65.647 106.783 61.0485 112.17 63.3723 119.591C64.4546 123.038 66.5623 126.072 69.4138 128.29C69.0963 128.474 69.2481 128.603 67.149 131.78C65.5984 134.045 64.4066 136.537 63.6154 139.166C62.0699 144.618 66.1571 150.787 67.6997 155.704C68.4388 158.833 69.2003 159.919 69.3113 160.658C69.5291 164.486 68.457 169.985 71.2038 172.698C72.2564 173.576 73.5823 174.059 74.9531 174.065C76.3239 174.071 77.6537 173.597 78.7135 172.729C80.057 171.737 81.0973 170.391 81.7177 168.84C82.3383 167.29 82.5142 165.597 82.226 163.953C84.45 165.48 87.1199 166.222 89.813 166.061C95.7955 166.123 104.384 165.864 110.37 165.621C110.555 165.613 110.731 165.532 110.857 165.395C110.983 165.258 111.05 165.077 111.043 164.892C111.039 164.8 111.017 164.711 110.979 164.626C110.94 164.543 110.886 164.469 110.818 164.407C110.751 164.345 110.672 164.297 110.585 164.267C110.499 164.234 110.408 164.222 110.316 164.226ZM64.96 139.556C66.2343 135.079 68.443 132.582 69.7946 130.2C70.2962 129.269 70.4451 129.282 70.4634 128.947C71.5766 129.599 72.8575 129.906 74.145 129.831C75.4326 129.756 76.6691 129.302 77.6991 128.526L77.3479 136.04C77.2164 135.921 77.0448 135.856 76.8674 135.858C76.6899 135.86 76.52 135.929 76.3916 136.052C76.2631 136.174 76.1858 136.34 76.175 136.518C76.1642 136.695 76.2208 136.869 76.3335 137.006C82.7346 144.774 82.3286 154.094 78.1445 158.888C76.6735 160.557 73.6021 162.645 71.645 161.156C71.2503 160.838 70.9171 160.452 70.6615 160.016C70.6412 159.869 70.5742 159.733 70.4704 159.627C69.8693 158.242 69.3926 156.806 69.0457 155.338C67.4665 150.276 63.5676 144.45 64.96 139.556ZM77.8663 171.608C77.0731 172.271 76.0759 172.643 75.0416 172.66C74.0073 172.677 72.9983 172.34 72.1831 171.703C70.1936 169.736 70.7388 165.24 70.7303 162.224C73.449 164.413 77.5895 161.968 79.6914 159.214C81.2805 163.952 81.8523 168.673 77.8663 171.608Z" fill="black"/>
<path d="M172.653 190.175C172.833 190.198 173.015 190.192 173.192 190.157C175.532 189.502 177.768 188.517 179.832 187.233C184.061 184.422 187.483 180.555 189.761 176.016C189.839 175.851 189.851 175.662 189.793 175.489C189.734 175.316 189.61 175.171 189.449 175.088C189.286 175.004 189.096 174.987 188.922 175.041C188.748 175.094 188.6 175.213 188.512 175.374C186.345 179.693 183.09 183.374 179.069 186.052C177.151 187.236 175.08 188.153 172.915 188.779C172.696 188.793 172.072 188.61 171.712 189.077C171.639 189.185 171.591 189.308 171.573 189.439C171.555 189.568 171.566 189.7 171.605 189.824C171.64 189.925 171.699 190.015 171.775 190.09C171.851 190.164 171.942 190.222 172.044 190.255C172.145 190.289 172.252 190.299 172.358 190.285C172.464 190.272 172.565 190.234 172.653 190.175Z" fill="black"/>
<path d="M137.363 155.545C137.852 155.545 138.336 155.449 138.788 155.261C139.24 155.074 139.65 154.799 139.995 154.453C140.341 154.107 140.614 153.696 140.801 153.243C140.986 152.791 141.082 152.306 141.08 151.817V145.729C141.08 145.318 141 144.91 140.843 144.531C140.685 144.15 140.454 143.805 140.163 143.514C139.873 143.223 139.527 142.992 139.147 142.835C138.767 142.678 138.36 142.596 137.948 142.596H97.7289C97.3069 142.595 96.8887 142.678 96.4986 142.838C96.1084 142.999 95.7539 143.235 95.4554 143.533C95.1569 143.833 94.9203 144.187 94.7593 144.577C94.5983 144.966 94.516 145.385 94.5171 145.807V152.503C94.5189 153.309 94.8404 154.083 95.4111 154.653C95.9817 155.223 96.755 155.543 97.5617 155.545H111.05C111.236 155.545 111.415 155.472 111.546 155.34C111.678 155.207 111.752 155.029 111.752 154.842C111.752 154.657 111.678 154.477 111.546 154.346C111.415 154.214 111.236 154.14 111.05 154.14H97.5617C97.1272 154.14 96.7106 153.967 96.4032 153.659C96.0956 153.353 95.9221 152.936 95.9207 152.501V145.805C95.92 145.569 95.9659 145.333 96.0561 145.114C96.1463 144.895 96.2788 144.697 96.4462 144.528C96.6125 144.358 96.8119 144.223 97.0319 144.133C97.2519 144.043 97.4881 143.998 97.7261 144.001H137.948C138.406 144.001 138.846 144.184 139.17 144.508C139.493 144.832 139.675 145.271 139.675 145.729V151.819C139.676 152.124 139.618 152.426 139.502 152.707C139.386 152.989 139.216 153.245 139.001 153.46C138.786 153.676 138.531 153.847 138.25 153.964C137.969 154.081 137.667 154.14 137.363 154.14H126.966C126.779 154.14 126.601 154.214 126.469 154.346C126.337 154.477 126.263 154.657 126.263 154.842C126.263 155.029 126.337 155.207 126.469 155.34C126.601 155.472 126.779 155.545 126.966 155.545H137.363Z" fill="black"/>
<path d="M116.827 13.6498C117.261 13.9224 117.613 13.6807 117.941 13.2971C118.02 13.2072 118.109 13.099 118.147 13.0639C118.535 12.7784 118.941 12.517 119.362 12.2813C119.52 12.188 119.635 12.0364 119.683 11.8591C119.731 11.6819 119.707 11.4929 119.617 11.3328C119.528 11.1726 119.379 11.054 119.203 11.0023C119.026 10.9506 118.837 10.9699 118.675 11.0562C118.196 11.3235 117.736 11.621 117.295 11.9469C117.142 12.0836 117.001 12.2331 116.874 12.3937C116.767 12.4582 116.678 12.5483 116.615 12.6557C116.551 12.7631 116.516 12.8846 116.511 13.0092C116.507 13.1338 116.533 13.2576 116.588 13.3694C116.643 13.4812 116.725 13.5776 116.827 13.6498Z" fill="black"/>
<path d="M85.3452 122.114V133.474C85.3452 134.89 85.9078 136.248 86.909 137.249C87.9103 138.25 89.2683 138.813 90.6842 138.813H145.256C145.988 138.812 146.711 138.668 147.387 138.388C148.063 138.108 148.676 137.697 149.193 137.18C149.71 136.662 150.12 136.048 150.4 135.372C150.679 134.696 150.822 133.972 150.822 133.241V122.703C150.824 121.025 150.158 119.416 148.972 118.228C147.786 117.041 146.178 116.373 144.5 116.371H91.0917C90.3372 116.37 89.59 116.519 88.8928 116.807C88.1957 117.096 87.5622 117.519 87.0285 118.052C86.4949 118.585 86.0716 119.219 85.7827 119.916C85.4939 120.613 85.3452 121.36 85.3452 122.114ZM86.7502 133.473V122.114C86.7499 121.544 86.8619 120.98 87.08 120.453C87.298 119.926 87.6178 119.447 88.021 119.044C88.4243 118.64 88.903 118.321 89.4298 118.103C89.9567 117.885 90.5215 117.773 91.0917 117.773H105.08L105.258 137.408H90.6828C89.6397 137.407 88.6395 136.993 87.902 136.255C87.1646 135.517 86.7502 134.517 86.7502 133.474V133.473ZM106.485 117.773H127.612L127.79 137.408H106.663L106.485 117.773ZM144.497 117.773C145.802 117.775 147.054 118.295 147.976 119.219C148.898 120.143 149.416 121.395 149.415 122.7C149.415 134.387 149.521 133.814 149.099 134.834C148.889 135.338 148.581 135.797 148.194 136.183C147.807 136.568 147.348 136.874 146.842 137.082C145.757 137.533 146.412 137.398 129.195 137.398L129.017 117.766L144.497 117.773Z" fill="black"/>
<path d="M110.451 158.315C103.939 158.414 97.229 158.585 91.3505 158.21C90.4474 158.155 89.5713 157.88 88.799 157.409C88.0268 156.937 87.3818 156.284 86.9205 155.505C86.5472 154.262 86.3228 152.978 86.2517 151.681C86.2467 151.588 86.2236 151.498 86.1837 151.415C86.1438 151.333 86.0879 151.257 86.0191 151.195C85.9504 151.134 85.8702 151.087 85.783 151.056C85.6959 151.025 85.6035 151.012 85.5113 151.016C85.419 151.022 85.3287 151.045 85.2453 151.084C85.162 151.125 85.0873 151.181 85.0256 151.25C84.9639 151.318 84.9164 151.399 84.8857 151.486C84.855 151.573 84.8417 151.664 84.8467 151.757C84.9243 153.194 85.1762 154.616 85.597 155.993C86.1523 157.062 86.9913 157.959 88.022 158.582C88.9981 159.186 90.108 159.541 91.2535 159.612C97.1756 159.99 103.859 159.817 110.461 159.72C110.554 159.719 110.645 159.699 110.73 159.663C110.815 159.626 110.891 159.574 110.956 159.507C111.02 159.441 111.071 159.362 111.105 159.276C111.139 159.191 111.155 159.099 111.154 159.007C111.145 158.824 111.067 158.653 110.937 158.525C110.807 158.397 110.634 158.322 110.451 158.315Z" fill="black"/>
<path d="M122.021 147.62C120.931 147.075 119.743 146.752 118.527 146.671C117.312 146.588 116.091 146.748 114.937 147.141C114.052 147.529 113.268 148.116 112.646 148.857C108.646 154.336 110.538 161.249 109.813 170.411C109.222 169.77 108.692 169.076 108.23 168.337C107.628 167.432 106.971 166.567 106.263 165.745C106.112 165.575 105.95 165.415 105.78 165.266C105.729 165.123 105.637 164.997 105.515 164.908C105.392 164.816 105.246 164.766 105.094 164.76C104.942 164.756 104.792 164.797 104.664 164.877C104.536 164.958 104.435 165.076 104.375 165.217C104.115 165.885 104.896 166.289 105.166 166.622C105.852 167.411 106.485 168.246 107.061 169.12C107.721 170.272 108.605 171.279 109.662 172.083C109.392 174.976 108.999 177.895 108.616 180.724C106.95 193.055 107.048 194.866 107.72 201.388C108.41 208.083 108.455 209.693 106.807 219.562C106.526 221.248 106.245 222.919 106.009 224.596C105.67 224.14 105.391 223.641 105.177 223.115C105.144 223.027 105.094 222.945 105.03 222.876C104.965 222.808 104.888 222.753 104.802 222.715C104.716 222.676 104.623 222.656 104.528 222.654C104.434 222.653 104.34 222.67 104.253 222.706C104.166 222.742 104.087 222.794 104.02 222.861C103.953 222.927 103.901 223.007 103.866 223.094C103.831 223.181 103.813 223.275 103.815 223.37C103.817 223.464 103.837 223.556 103.876 223.644C104.31 224.731 104.982 225.708 105.843 226.503C105.774 227.395 105.663 228.287 105.511 229.164C105.493 229.255 105.493 229.351 105.511 229.442C105.53 229.535 105.567 229.622 105.62 229.699C105.673 229.778 105.741 229.844 105.82 229.894C105.899 229.945 105.988 229.979 106.08 229.996C106.173 230.011 106.268 230.008 106.359 229.987C106.451 229.966 106.537 229.927 106.613 229.871C106.689 229.816 106.753 229.745 106.802 229.665C106.85 229.584 106.882 229.495 106.895 229.403C106.921 229.262 109.316 212.647 109.5 210.192C109.936 204.38 108.411 198.812 108.701 193.166C109.153 184.148 111.641 172.746 111.394 165.002C111.237 161.64 111.346 158.269 111.721 154.925C111.943 153.048 112.64 151.259 113.745 149.727C114.222 149.166 114.821 148.723 115.496 148.428C116.17 148.135 116.903 147.998 117.638 148.031C117.67 148.034 117.703 148.034 117.735 148.031C119.011 148.053 120.268 148.345 121.423 148.889C121.59 148.959 121.779 148.964 121.949 148.899C122.119 148.834 122.258 148.705 122.335 148.541C122.412 148.375 122.422 148.187 122.363 148.015C122.304 147.842 122.181 147.701 122.019 147.618L122.021 147.62Z" fill="black"/>
<path d="M128.265 235.203C127.944 231.471 127.963 230.614 127.934 230.388C127.918 230.268 127.87 230.154 127.797 230.057C127.723 229.961 127.626 229.885 127.515 229.837C127.403 229.789 127.281 229.771 127.161 229.785C127.04 229.798 126.925 229.842 126.827 229.913C126.729 229.986 126.651 230.08 126.6 230.19C126.549 230.299 126.526 230.42 126.533 230.541C126.883 236.907 128.546 249.93 126.466 261.218C126.446 261.31 126.446 261.404 126.463 261.497C126.481 261.588 126.517 261.676 126.57 261.754C126.622 261.832 126.689 261.898 126.767 261.95C126.845 262.002 126.933 262.037 127.025 262.054C127.117 262.07 127.212 262.069 127.303 262.049C127.395 262.03 127.482 261.99 127.558 261.937C127.635 261.882 127.7 261.815 127.749 261.735C127.799 261.654 127.832 261.566 127.847 261.473C129.682 251.517 128.617 239.238 128.265 235.203Z" fill="black"/>
<path d="M200.287 261.535C193.062 251.369 180.15 232.581 174.716 224.022C171.137 218.388 167.436 212.562 162.412 208.384C157.295 204.138 150.536 203.402 144.934 200.657C135.966 195.888 131.446 190.04 127.813 187.301C128.133 174.675 128.768 172.247 128.788 165.869L146.707 165.551C146.772 165.539 151.879 164.503 153.76 160.275C154.574 163.812 155.892 167.862 157.885 169.7C157.953 169.763 158.033 169.813 158.12 169.846C158.206 169.879 158.298 169.894 158.391 169.89C158.484 169.887 158.575 169.865 158.659 169.827C158.744 169.787 158.82 169.732 158.883 169.665C158.946 169.596 158.994 169.516 159.026 169.429C159.058 169.342 159.073 169.249 159.068 169.156C159.064 169.064 159.042 168.972 159.002 168.888C158.963 168.805 158.907 168.729 158.838 168.668C157.059 167.028 155.455 162.571 154.436 156.434C154.45 156.261 154.422 156.089 154.355 155.93C152.927 146.993 153.115 137.204 154.796 133.948C155.384 132.849 156.035 131.784 156.744 130.758C156.825 130.642 156.868 130.506 156.869 130.365C156.871 130.225 156.83 130.088 156.753 129.971C156.77 129.594 157.128 102.811 157.274 95.5087C157.385 95.8563 157.499 96.208 157.617 96.5639C157.644 96.6539 157.689 96.7375 157.749 96.81C157.808 96.8824 157.882 96.942 157.965 96.9854C158.048 97.0288 158.14 97.0549 158.234 97.0625C158.326 97.0701 158.422 97.0587 158.511 97.0292C158.599 96.9997 158.682 96.9527 158.752 96.8907C158.824 96.8289 158.881 96.7534 158.922 96.6688C158.963 96.5844 158.987 96.4925 158.991 96.3987C158.997 96.3049 158.983 96.2111 158.95 96.1229C156.877 89.8566 154.498 80.4431 156.624 74.1557C156.826 73.6429 157.073 73.1483 157.36 72.6776L157.375 72.6144L157.387 72.5456C157.389 72.501 157.389 72.4565 157.387 72.4121V72.3741C157.365 72.2339 157.301 72.1037 157.204 72.0003C157.107 71.8969 156.982 71.8253 156.843 71.7949C156.704 71.7645 156.56 71.7767 156.428 71.83C156.298 71.8831 156.185 71.9748 156.107 72.0931C155.774 72.5937 155.505 73.1337 155.304 73.7005C153.899 77.8424 154.131 83.6493 155.976 90.9553C155.92 91.4259 155.335 129.961 155.355 130.32C154.706 131.282 154.107 132.277 153.561 133.301C151.484 137.323 151.668 148.284 153.044 156.579C153.253 162.776 146.721 164.122 146.571 164.166L128.779 164.471C128.748 164.297 128.653 164.142 128.512 164.035C128.372 163.928 128.196 163.879 128.021 163.896C127.846 163.913 127.683 163.994 127.565 164.127C127.448 164.257 127.383 164.427 127.386 164.604C127.468 169.768 126.707 175.802 126.402 187.693C126.398 187.849 126.447 188 126.539 188.127C126.632 188.252 126.763 188.343 126.913 188.385C130.812 191.306 135.022 196.982 144.3 201.914C150.079 204.749 156.639 205.427 161.52 209.473C166.374 213.509 170.015 219.24 173.536 224.787C179.296 233.855 192.118 252.466 199.147 262.357C199.256 262.509 199.418 262.611 199.603 262.642C199.787 262.675 199.975 262.631 200.127 262.523C200.28 262.415 200.382 262.252 200.413 262.068C200.444 261.884 200.402 261.695 200.294 261.544L200.287 261.535Z" fill="black"/>
<path fill-rule="evenodd" clip-rule="evenodd" d="M157.35 20.0424L157.352 20.0247C157.354 19.9918 157.357 19.9457 157.36 19.8873C157.366 19.7704 157.371 19.6036 157.37 19.3948C157.368 18.9774 157.34 18.3891 157.238 17.691C157.033 16.2973 156.527 14.4464 155.319 12.6458C152.868 8.99247 147.694 5.7753 137.046 6.62453H89.0094L89.0041 6.62444L88.9722 6.62429C88.9458 6.62432 88.9091 6.62467 88.863 6.62588C88.771 6.62829 88.6407 6.63414 88.478 6.64764C88.1531 6.67461 87.6967 6.73229 87.1544 6.85493C86.0711 7.09991 84.633 7.60706 83.2177 8.65735C80.3474 10.7873 77.7421 15.0175 78.1159 23.273M157.35 20.0424V72.4782H155.945V20.0127C155.945 19.99 155.947 19.9672 155.948 19.9444C155.948 19.9442 155.948 19.9447 155.948 19.9444L155.949 19.9411L155.951 19.9186C155.952 19.8971 155.955 19.8627 155.956 19.8163C155.962 19.7234 155.966 19.5829 155.965 19.4021C155.963 19.0402 155.94 18.5187 155.847 17.8957C155.663 16.6471 155.213 15.0101 154.152 13.4284C152.067 10.3203 147.462 7.19702 137.131 8.02726C137.112 8.02877 137.093 8.02953 137.075 8.02953H88.9876L88.9731 8.02929C88.9583 8.0293 88.9337 8.0295 88.8999 8.03038C88.8324 8.03215 88.7288 8.03666 88.5944 8.04782C88.325 8.07017 87.9342 8.11905 87.4643 8.22531C86.5233 8.43814 85.2777 8.87824 84.0549 9.78562C81.649 11.5711 79.1612 15.298 79.5195 23.2097C79.8605 30.7798 79.7828 50.8296 79.6091 69.0437C79.5223 78.1567 79.4113 86.8188 79.3164 93.2447C79.269 96.4575 79.2254 99.1118 79.191 100.984C79.1737 101.92 79.1587 102.662 79.1466 103.18C79.1405 103.439 79.1351 103.643 79.1306 103.789C79.1268 103.906 79.1224 104.043 79.1133 104.11L77.7212 103.92C77.7192 103.935 77.7194 103.931 77.7208 103.894C77.7219 103.866 77.7239 103.818 77.7263 103.745C77.7306 103.605 77.736 103.405 77.742 103.147C77.7539 102.632 77.769 101.893 77.7861 100.958C77.8205 99.0882 77.8641 96.4357 77.9116 93.2239C78.0064 86.8002 78.1174 78.1407 78.2042 69.0304C78.378 50.7984 78.4548 30.7955 78.1159 23.273" fill="black"/>
<path fill-rule="evenodd" clip-rule="evenodd" d="M126.545 230.532C126.05 220.967 126.172 197.216 126.404 187.702L127.808 187.736C127.593 196.588 127.474 217.744 127.855 228.296C129.088 226.85 130.822 225.604 132.615 224.549C135.183 223.04 138.016 221.844 140.041 220.992C143.642 219.478 147.637 218.435 151.467 219.222C152.591 219.454 153.939 219.911 155.097 220.637C156.249 221.358 157.291 222.397 157.638 223.818C157.895 224.874 157.63 225.872 157.079 226.825C156.537 227.76 155.687 228.707 154.679 229.703C153.999 230.376 153.243 231.078 152.433 231.829C150.789 233.354 148.92 235.087 146.988 237.229C141.925 242.842 138.777 249.598 135.736 256.127C135.602 256.414 135.469 256.701 135.335 256.987C132.19 263.728 129.056 270.207 123.874 274.505C123.752 274.604 123.6 274.662 123.442 274.666L122.641 274.686L122.607 273.281L123.162 273.267C127.953 269.204 130.932 263.102 134.062 256.393C134.203 256.089 134.345 255.786 134.487 255.48C137.508 248.994 140.736 242.062 145.946 236.287C147.914 234.104 149.881 232.279 151.548 230.732C152.34 229.996 153.065 229.323 153.69 228.705C154.682 227.722 155.42 226.886 155.864 226.121C156.298 225.37 156.419 224.748 156.273 224.151C156.048 223.225 155.34 222.447 154.351 221.827C153.368 221.212 152.187 220.804 151.184 220.599C147.769 219.897 144.094 220.811 140.586 222.288C138.552 223.144 135.803 224.304 133.327 225.76C130.824 227.232 128.74 228.927 127.885 230.79C127.75 231.083 127.432 231.246 127.114 231.186C126.797 231.125 126.562 230.856 126.545 230.532Z" fill="black"/>
</svg>
