<svg width="25" height="25" viewBox="0 0 25 25" fill="none" xmlns="http://www.w3.org/2000/svg">
<g clip-path="url(#clip0_3653_5838)">
<path fill-rule="evenodd" clip-rule="evenodd" d="M9.05327 5.33093C9.11754 6.14919 9.74245 6.82236 10.5606 6.88766C11.8771 6.99274 13.1229 6.99274 14.4394 6.88766C15.2576 6.82236 15.8825 6.14919 15.9467 5.33093C16.028 4.29586 16.1351 3.0576 16.2388 1.93555C16.5762 1.9567 16.9154 1.98068 17.2569 2.0075C18.8997 2.1365 20.1715 3.47667 20.3128 5.11853C20.5082 7.38905 20.7096 9.74228 20.7096 12.1538C20.7096 14.5654 20.5082 16.9186 20.3128 19.1891C20.1715 20.831 18.8997 22.1712 17.2569 22.3001C14.0183 22.5545 10.9817 22.5545 7.74308 22.3001C6.10023 22.1712 4.82841 20.831 4.68716 19.1891C4.49185 16.9186 4.29028 14.5654 4.29028 12.1538C4.29028 9.74228 4.49183 7.38905 4.68716 5.11853C4.82841 3.47667 6.10023 2.1365 7.74308 2.0075C8.08369 1.98075 8.42207 1.95682 8.75869 1.9357C8.86449 3.07724 8.9702 4.27286 9.05327 5.33093Z" fill="#5DBFEC"/>
<path d="M4.68716 19.189C4.82841 20.8309 6.10023 22.171 7.74308 22.3001C10.9817 22.5543 14.0183 22.5543 17.2569 22.3001C18.8997 22.1711 20.1715 20.8309 20.3128 19.189C20.5082 16.9185 20.7096 14.5653 20.7096 12.1537C20.7096 9.74218 20.5082 7.38893 20.3128 5.1184C20.1715 3.47656 18.8997 2.13637 17.2569 2.00737C14.0183 1.75308 10.9817 1.75308 7.74308 2.00737C6.10023 2.13637 4.82841 3.47656 4.68716 5.1184C4.49183 7.38893 4.29028 9.74218 4.29028 12.1537C4.29028 14.5653 4.49185 16.9185 4.68716 19.189Z" stroke="white" stroke-width="1.71429"/>
<path d="M10.5607 6.88754C9.74255 6.82224 9.11764 6.14908 9.05339 5.33081C8.9703 4.27274 8.86459 3.07713 8.75879 1.93557C11.2862 1.77701 13.714 1.77701 16.2414 1.93558C16.1356 3.07714 16.0299 4.27274 15.9468 5.33081C15.8826 6.14908 15.2577 6.82224 14.4395 6.88754C13.123 6.99262 11.8772 6.99262 10.5607 6.88754Z" fill="white"/>
<path d="M10.5607 6.88755C9.74255 6.82223 9.11764 6.14906 9.05339 5.3308C8.9703 4.27273 8.86459 3.07712 8.75879 1.93557C11.2862 1.777 13.714 1.77701 16.2414 1.93559C16.1356 3.07713 16.0299 4.27274 15.9468 5.3308C15.8826 6.14906 15.2577 6.82223 14.4395 6.88755C13.123 6.99261 11.8772 6.99261 10.5607 6.88755Z" stroke="white" stroke-width="1.71429"/>
</g>
<defs>
<clipPath id="clip0_3653_5838">
<rect width="24" height="24" fill="white" transform="translate(0.5 0.153809)"/>
</clipPath>
</defs>
</svg>
