<svg width="24" height="24" viewBox="0 0 24 24" fill="none" xmlns="http://www.w3.org/2000/svg">
<path d="M9.46912 3.91078C9.46912 5.5565 10.3948 6.48221 12.0405 6.48221C13.6863 6.48221 14.612 5.5565 14.612 3.91078C14.612 2.26507 13.6863 1.33936 12.0405 1.33936C10.3948 1.33936 9.46912 2.26507 9.46912 3.91078Z" fill="#007BB5"/>
<path d="M9.46912 12.0001C9.46912 13.6459 10.3948 14.5716 12.0405 14.5716C13.6863 14.5716 14.612 13.6459 14.612 12.0001C14.612 10.3544 13.6863 9.42871 12.0405 9.42871C10.3948 9.42871 9.46912 10.3544 9.46912 12.0001Z" fill="#007BB5"/>
<path d="M9.46912 20.089C9.46912 21.7347 10.3948 22.6604 12.0405 22.6604C13.6863 22.6604 14.612 21.7349 14.612 20.0892C14.612 18.4433 13.6863 17.5176 12.0405 17.5176C10.3948 17.5176 9.46912 18.4433 9.46912 20.089Z" fill="#007BB5"/>
<path d="M12.0405 4.98221C11.4938 4.98221 11.2784 4.83308 11.1983 4.75298C11.1182 4.67288 10.9691 4.45754 10.9691 3.91078C10.9691 3.36403 11.1182 3.14869 11.1983 3.06859C11.2784 2.98849 11.4938 2.83936 12.0405 2.83936C12.5873 2.83936 12.8026 2.98849 12.8827 3.06859C12.9628 3.14869 13.112 3.36403 13.112 3.91078C13.112 4.45754 12.9628 4.67288 12.8827 4.75298C12.8026 4.83308 12.5873 4.98221 12.0405 4.98221Z" stroke="white" stroke-width="3" stroke-linecap="round" stroke-linejoin="round"/>
<path d="M12.0405 13.0716C11.4938 13.0716 11.2784 12.9224 11.1983 12.8423C11.1182 12.7622 10.9691 12.5469 10.9691 12.0001C10.9691 11.4534 11.1182 11.238 11.1983 11.1579C11.2784 11.0778 11.4938 10.9287 12.0405 10.9287C12.5873 10.9287 12.8026 11.0778 12.8827 11.1579C12.9628 11.238 13.112 11.4534 13.112 12.0001C13.112 12.5469 12.9628 12.7622 12.8827 12.8423C12.8026 12.9224 12.5873 13.0716 12.0405 13.0716Z" stroke="white" stroke-width="3" stroke-linecap="round" stroke-linejoin="round"/>
<path d="M12.0405 21.1604C11.4938 21.1604 11.2784 21.0113 11.1983 20.9312C11.1182 20.8511 10.9691 20.6358 10.9691 20.089C10.9691 19.5423 11.1182 19.3269 11.1983 19.2468C11.2784 19.1667 11.4938 19.0176 12.0405 19.0176C12.5873 19.0176 12.8026 19.1667 12.8827 19.2468C12.9628 19.3269 13.112 19.5423 13.112 20.0892C13.112 20.6359 12.9628 20.8512 12.8828 20.9312C12.8027 21.0113 12.5874 21.1604 12.0405 21.1604Z" stroke="white" stroke-width="3" stroke-linecap="round" stroke-linejoin="round"/>
</svg>
