<?xml version="1.0" encoding="utf-8"?>
<!-- Generator: Adobe Illustrator 24.2.3, SVG Export Plug-In . SVG Version: 6.00 Build 0)  -->
<svg version="1.1" id="Layer_1" xmlns="http://www.w3.org/2000/svg" xmlns:xlink="http://www.w3.org/1999/xlink" x="0px" y="0px"
	 viewBox="0 0 65 70" style="enable-background:new 0 0 65 70;" xml:space="preserve">
<style type="text/css">
	.st0{fill:none;stroke:#5DBFEC;stroke-width:2;}
	.st1{fill:#FFFFFF;fill-opacity:5.000000e-02;}
	.st2{fill:none;stroke:#5DBFEC;stroke-width:2;stroke-linecap:round;stroke-linejoin:round;}
	.st3{display:none;fill:none;stroke:#5DBFEC;stroke-width:2;}
	.st4{fill:#D6F2FF;}
	.st5{display:none;fill:none;stroke:#007BB5;stroke-width:2;stroke-linecap:round;stroke-linejoin:round;}
	.st6{fill:none;stroke:#5DBFEC;stroke-width:2;stroke-linecap:round;}
</style>
<circle class="st0" cx="32.5" cy="35" r="31"/>
<path class="st1" d="M32.5,20.7c3.5,0,6.7,2.1,6.8,5.1c0.1,5.1,1.3,13.2-6.7,13.2c-8,0-6.9-8.1-6.8-13.2
	C25.8,22.8,28.9,20.7,32.5,20.7z"/>
<path class="st2" d="M32.4,45v4.3"/>
<path class="st2" d="M19.7,35.1c0.4,5.5,5,9.9,12.7,9.9c7.2,0,12-4.4,12.8-9.9"/>
<path class="st3" d="M32.5,20.7c3.5,0,6.7,2.1,6.8,5.1c0.1,5.1,1.3,13.2-6.7,13.2c-8,0-6.9-8.1-6.8-13.2
	C25.8,22.8,28.9,20.7,32.5,20.7z"/>
<g>
	<path class="st4" d="M32.4,20.8c-3.5,0-6.6,2.1-6.7,5.1c0,0.8-0.1,1.7-0.1,2.6c-0.1,2.4,0,5,0.8,7c0.7,1.6,1.8,2.8,3.7,3.3
		c0.7,0.2,1.4,0.3,2.3,0.3c1.3,0,2.4-0.2,3.2-0.6c4.2-2,3.5-8.3,3.5-12.6C38.9,22.9,35.8,20.8,32.4,20.8z"/>
	<path class="st5" d="M32.5,45v4.3"/>
	<path class="st5" d="M19.7,35.2c0.9,5.4,5.5,9.8,12.6,9.8c1,0,1.9-0.1,2.8-0.2"/>
	<path class="st5" d="M44.9,35.2c-0.2,3.1-1.8,5.8-4.4,7.6"/>
	<path class="st6" d="M26.4,35.5c0.7,1.6,1.8,2.8,3.7,3.3"/>
	<path class="st6" d="M35.6,38.4c4.2-2,3.5-8.3,3.5-12.6c-0.1-3-3.2-5.1-6.6-5.1s-6.6,2.1-6.7,5.1c0,0.7-0.1,1.4-0.1,2.1"/>
	<path class="st2" d="M45.8,47.1c-11.2-8.9-16.9-14.7-26-26.4"/>
</g>
</svg>
