<svg width="24" height="24" viewBox="0 0 24 24" fill="none" xmlns="http://www.w3.org/2000/svg">
<path d="M11.9685 1.31152C14.61 1.31152 17.0012 2.88523 17.058 5.14387C17.1544 8.97691 18.052 15.0548 12.0313 15.0548C6.01051 15.0548 6.8454 8.97691 6.94173 5.14387C6.99849 2.88523 9.32693 1.31152 11.9685 1.31152Z" fill="#D6F2FF"/>
<path d="M11.894 19.4893V22.7154" stroke="#007BB5" stroke-width="2" stroke-linecap="round" stroke-linejoin="round"/>
<path d="M2.43311 12.1021C2.74742 16.2309 6.18319 19.49 11.9371 19.49C17.3361 19.49 20.9158 16.2218 21.5671 12.1021" stroke="#007BB5" stroke-width="2" stroke-linecap="round" stroke-linejoin="round"/>
<path d="M11.9685 1.31152C14.61 1.31152 17.0012 2.88523 17.058 5.14387C17.1544 8.97691 18.052 15.0548 12.0313 15.0548C6.01051 15.0548 6.8454 8.97691 6.94173 5.14387C6.99849 2.88523 9.32693 1.31152 11.9685 1.31152Z" stroke="#007BB5" stroke-width="2"/>
</svg>
