<svg width="25" height="24" viewBox="0 0 25 24" fill="none" xmlns="http://www.w3.org/2000/svg">
<g clip-path="url(#clip0_9287_7833)">
<path d="M10.25 10.498C10.25 10.9905 10.347 11.4781 10.5355 11.9331C10.7239 12.3881 11.0001 12.8015 11.3483 13.1497C11.6966 13.4979 12.11 13.7741 12.5649 13.9626C13.0199 14.1511 13.5075 14.248 14 14.248C14.4925 14.248 14.9801 14.1511 15.4351 13.9626C15.89 13.7741 16.3034 13.4979 16.6517 13.1497C16.9999 12.8015 17.2761 12.3881 17.4645 11.9331C17.653 11.4781 17.75 10.9905 17.75 10.498C17.75 10.0056 17.653 9.51795 17.4645 9.06298C17.2761 8.60801 16.9999 8.19462 16.6517 7.8464C16.3034 7.49818 15.89 7.22195 15.4351 7.0335C14.9801 6.84504 14.4925 6.74805 14 6.74805C13.5075 6.74805 13.0199 6.84504 12.5649 7.0335C12.11 7.22195 11.6966 7.49818 11.3483 7.8464C11.0001 8.19462 10.7239 8.60801 10.5355 9.06298C10.347 9.51795 10.25 10.0056 10.25 10.498Z" stroke="#616161" stroke-width="1.5" stroke-linecap="round" stroke-linejoin="round"/>
<path d="M19.25 2.99805C19.25 3.59478 19.4871 4.16708 19.909 4.58904C20.331 5.01099 20.9033 5.24805 21.5 5.24805C22.0967 5.24805 22.669 5.01099 23.091 4.58904C23.5129 4.16708 23.75 3.59478 23.75 2.99805C23.75 2.40131 23.5129 1.82901 23.091 1.40706C22.669 0.9851 22.0967 0.748047 21.5 0.748047C20.9033 0.748047 20.331 0.9851 19.909 1.40706C19.4871 1.82901 19.25 2.40131 19.25 2.99805Z" stroke="#616161" stroke-width="1.5" stroke-linecap="round" stroke-linejoin="round"/>
<path d="M19.25 15.748C19.25 16.3448 19.4871 16.9171 19.909 17.339C20.331 17.761 20.9033 17.998 21.5 17.998C22.0967 17.998 22.669 17.761 23.091 17.339C23.5129 16.9171 23.75 16.3448 23.75 15.748C23.75 15.1513 23.5129 14.579 23.091 14.1571C22.669 13.7351 22.0967 13.498 21.5 13.498C20.9033 13.498 20.331 13.7351 19.909 14.1571C19.4871 14.579 19.25 15.1513 19.25 15.748Z" stroke="#616161" stroke-width="1.5" stroke-linecap="round" stroke-linejoin="round"/>
<path d="M11.75 20.998C11.75 21.5948 11.9871 22.1671 12.409 22.589C12.831 23.011 13.4033 23.248 14 23.248C14.5967 23.248 15.169 23.011 15.591 22.589C16.0129 22.1671 16.25 21.5948 16.25 20.998C16.25 20.4013 16.0129 19.829 15.591 19.4071C15.169 18.9851 14.5967 18.748 14 18.748C13.4033 18.748 12.831 18.9851 12.409 19.4071C11.9871 19.829 11.75 20.4013 11.75 20.998Z" stroke="#616161" stroke-width="1.5" stroke-linecap="round" stroke-linejoin="round"/>
<path d="M1.25 20.998C1.25 21.2935 1.3082 21.5861 1.42127 21.8591C1.53434 22.1321 1.70008 22.3801 1.90901 22.589C2.11794 22.798 2.36598 22.9637 2.63896 23.0768C2.91194 23.1898 3.20453 23.248 3.5 23.248C3.79547 23.248 4.08806 23.1898 4.36104 23.0768C4.63402 22.9637 4.88206 22.798 5.09099 22.589C5.29992 22.3801 5.46566 22.1321 5.57873 21.8591C5.6918 21.5861 5.75 21.2935 5.75 20.998C5.75 20.7026 5.6918 20.41 5.57873 20.137C5.46566 19.864 5.29992 19.616 5.09099 19.4071C4.88206 19.1981 4.63402 19.0324 4.36104 18.9193C4.08806 18.8062 3.79547 18.748 3.5 18.748C3.20453 18.748 2.91194 18.8062 2.63896 18.9193C2.36598 19.0324 2.11794 19.1981 1.90901 19.4071C1.70008 19.616 1.53434 19.864 1.42127 20.137C1.3082 20.41 1.25 20.7026 1.25 20.998Z" stroke="#616161" stroke-width="1.5" stroke-linecap="round" stroke-linejoin="round"/>
<path d="M2 5.24805C2 5.84478 2.23705 6.41708 2.65901 6.83904C3.08097 7.26099 3.65326 7.49805 4.25 7.49805C4.84674 7.49805 5.41903 7.26099 5.84099 6.83904C6.26295 6.41708 6.5 5.84478 6.5 5.24805C6.5 4.65131 6.26295 4.07901 5.84099 3.65706C5.41903 3.2351 4.84674 2.99805 4.25 2.99805C3.65326 2.99805 3.08097 3.2351 2.65901 3.65706C2.23705 4.07901 2 4.65131 2 5.24805Z" stroke="#616161" stroke-width="1.5" stroke-linecap="round" stroke-linejoin="round"/>
<path d="M16.651 7.84801L19.911 4.58801" stroke="#616161" stroke-width="1.5" stroke-linecap="round" stroke-linejoin="round"/>
<path d="M17.294 12.292L19.579 14.577" stroke="#616161" stroke-width="1.5" stroke-linecap="round" stroke-linejoin="round"/>
<path d="M14 14.248V18.748" stroke="#616161" stroke-width="1.5" stroke-linecap="round" stroke-linejoin="round"/>
<path d="M11.351 13.147L5.09 19.408" stroke="#616161" stroke-width="1.5" stroke-linecap="round" stroke-linejoin="round"/>
<path d="M10.501 9.14904L6.11 6.51404" stroke="#616161" stroke-width="1.5" stroke-linecap="round" stroke-linejoin="round"/>
</g>
<defs>
<clipPath id="clip0_9287_7833">
<rect width="24" height="24" fill="white" transform="translate(0.5)"/>
</clipPath>
</defs>
</svg>
