<svg width="25" height="24" viewBox="0 0 25 24" fill="none" xmlns="http://www.w3.org/2000/svg">
<path d="M22 5.00025C22.5364 5.00666 23.0609 4.84245 23.4978 4.53131C23.9347 4.22018 24.2615 3.77824 24.4308 3.26929C24.6002 2.76035 24.6034 2.21074 24.44 1.69984C24.2767 1.18894 23.9552 0.743188 23.5219 0.426941C23.0887 0.110694 22.5661 -0.0596772 22.0297 -0.0595703C21.4934 -0.0594633 20.9709 0.111116 20.5378 0.427535C20.1047 0.743955 19.7833 1.18984 19.6202 1.70081C19.457 2.21177 19.4604 2.76137 19.63 3.27025C19.6425 3.31355 19.6436 3.35936 19.6331 3.40318C19.6226 3.44701 19.6008 3.48735 19.57 3.52025L16.9 6.19025C16.8552 6.22353 16.8008 6.2415 16.745 6.2415C16.6892 6.2415 16.6348 6.22353 16.59 6.19025C15.8056 5.72882 14.91 5.49025 14 5.50025C13.2238 5.50025 12.4582 5.68097 11.7639 6.02811C11.0697 6.37525 10.4657 6.87927 10 7.50025C9.96526 7.54408 9.9173 7.57553 9.86326 7.58995C9.80921 7.60436 9.75196 7.60096 9.70001 7.58025L5.57001 5.61025C5.54898 5.60061 5.53118 5.5851 5.51876 5.56559C5.50634 5.54607 5.49983 5.52338 5.50001 5.50025C5.50339 4.92904 5.31337 4.3735 4.96088 3.92402C4.60838 3.47454 4.11416 3.15757 3.55861 3.02468C3.00307 2.8918 2.4189 2.95082 1.90117 3.19215C1.38344 3.43348 0.962605 3.84291 0.70715 4.35382C0.451694 4.86473 0.37665 5.44705 0.494227 6.00604C0.611804 6.56502 0.915083 7.06777 1.35472 7.43247C1.79435 7.79718 2.34446 8.00238 2.91555 8.01468C3.48663 8.02699 4.04507 7.84568 4.50001 7.50025C4.53918 7.4764 4.58415 7.46379 4.63001 7.46379C4.67586 7.46379 4.72084 7.4764 4.76001 7.50025L8.93001 9.38025C8.98094 9.40216 9.02271 9.44102 9.04823 9.49024C9.07375 9.53946 9.08145 9.596 9.07001 9.65025C9.02654 9.93156 9.00315 10.2156 9.00001 10.5002C9.00026 11.4175 9.2528 12.3169 9.73001 13.1002C9.76329 13.1451 9.78126 13.1994 9.78126 13.2552C9.78126 13.3111 9.76329 13.3654 9.73001 13.4102L4.02001 19.0602C3.98905 19.094 3.94871 19.1178 3.90417 19.1284C3.85963 19.1391 3.81291 19.1363 3.77001 19.1202C3.52147 19.0391 3.26146 18.9986 3.00001 19.0002C2.46366 18.9938 1.93915 19.1581 1.50222 19.4692C1.0653 19.7803 0.738559 20.2223 0.569192 20.7312C0.399825 21.2401 0.396594 21.7898 0.559966 22.3007C0.723338 22.8116 1.04486 23.2573 1.4781 23.5736C1.91134 23.8898 2.43388 24.0602 2.97026 24.0601C3.50665 24.06 4.02912 23.8894 4.46223 23.573C4.89535 23.2565 5.21669 22.8107 5.37986 22.2997C5.54303 21.7887 5.53958 21.2391 5.37001 20.7302C5.35875 20.6861 5.35928 20.6398 5.37157 20.5959C5.38385 20.552 5.40746 20.5121 5.44001 20.4802L11.12 14.8102C11.1626 14.7762 11.2155 14.7576 11.27 14.7576C11.3245 14.7576 11.3774 14.7762 11.42 14.8102C11.8547 15.0662 12.3223 15.2613 12.81 15.3902C12.8647 15.4019 12.9135 15.4322 12.9482 15.476C12.9829 15.5198 13.0012 15.5744 13 15.6302V19.1002C12.9987 19.141 12.9869 19.1808 12.9659 19.2158C12.9449 19.2508 12.9154 19.2799 12.88 19.3002C12.3787 19.5543 11.9776 19.9698 11.7414 20.4798C11.5053 20.9898 11.4478 21.5646 11.5784 22.1112C11.709 22.6578 12.02 23.1445 12.4612 23.4927C12.9023 23.8409 13.448 24.0303 14.01 24.0303C14.572 24.0303 15.1177 23.8409 15.5588 23.4927C16 23.1445 16.311 22.6578 16.4416 22.1112C16.5722 21.5646 16.5148 20.9898 16.2786 20.4798C16.0425 19.9698 15.6413 19.5543 15.14 19.3002C15.0972 19.2793 15.0612 19.2465 15.0364 19.2057C15.0116 19.165 14.999 19.1179 15 19.0702V15.6002C14.9988 15.5444 15.0171 15.4898 15.0518 15.446C15.0865 15.4022 15.1353 15.3719 15.19 15.3602C16.1216 15.1238 16.9652 14.6238 17.62 13.9202C17.6565 13.8819 17.7038 13.8556 17.7556 13.8449C17.8074 13.8342 17.8613 13.8396 17.91 13.8602L19.38 14.5702C19.4198 14.5871 19.454 14.6148 19.4787 14.6501C19.5035 14.6855 19.5178 14.7271 19.52 14.7702C19.5824 15.3252 19.8295 15.8431 20.2216 16.2407C20.6137 16.6383 21.1281 16.8925 21.6821 16.9626C22.2362 17.0326 22.7977 16.9144 23.2764 16.6269C23.7551 16.3393 24.1233 15.8992 24.3218 15.3773C24.5203 14.8553 24.5376 14.2818 24.3709 13.7488C24.2041 13.2158 23.8631 12.7544 23.4025 12.4386C22.942 12.1228 22.3886 11.971 21.8314 12.0076C21.2741 12.0441 20.7453 12.267 20.33 12.6402C20.2902 12.6673 20.2432 12.6818 20.195 12.6818C20.1469 12.6818 20.0998 12.6673 20.06 12.6402L18.93 12.0902C18.8749 12.0679 18.83 12.0258 18.8041 11.9722C18.7783 11.9186 18.7732 11.8573 18.79 11.8002C18.9261 11.3665 18.9969 10.9149 19 10.4602C19.0007 9.54918 18.748 8.65587 18.27 7.88025C18.2367 7.83543 18.2188 7.78108 18.2188 7.72525C18.2188 7.66942 18.2367 7.61507 18.27 7.57025L20.94 4.89025C20.9729 4.85944 21.0132 4.8377 21.0571 4.82719C21.1009 4.81667 21.1467 4.81772 21.19 4.83025C21.4486 4.93171 21.7224 4.98917 22 5.00025Z" fill="#0D4C74"/>
</svg>
