<?xml version="1.0" encoding="utf-8"?>
<!-- Generator: Adobe Illustrator 24.2.3, SVG Export Plug-In . SVG Version: 6.00 Build 0)  -->
<svg version="1.1" id="Layer_1" xmlns="http://www.w3.org/2000/svg" xmlns:xlink="http://www.w3.org/1999/xlink" x="0px" y="0px"
	 viewBox="0 0 24 24" style="enable-background:new 0 0 24 24;" xml:space="preserve">
<style type="text/css">
	.st0{clip-path:url(#SVGID_2_);}
	.st1{fill:none;stroke:#FFFFFF;stroke-width:1.5;stroke-linecap:round;stroke-linejoin:round;}
</style>
<g>
	<defs>
		<rect id="SVGID_1_" width="24" height="24"/>
	</defs>
	<clipPath id="SVGID_2_">
		<use xlink:href="#SVGID_1_"  style="overflow:visible;"/>
	</clipPath>
	<g class="st0">
		<path class="st1" d="M20.3,8.3h-4.5V3.8c0-0.8-0.3-1.6-0.9-2.1s-1.3-0.9-2.1-0.9h-1.5c-0.8,0-1.6,0.3-2.1,0.9
			C8.6,2.2,8.3,3,8.3,3.8v4.5H3.8C3,8.3,2.2,8.6,1.6,9.1c-0.6,0.6-0.9,1.3-0.9,2.1v1.5c0,0.8,0.3,1.6,0.9,2.1s1.3,0.9,2.1,0.9h4.5
			v4.5c0,0.8,0.3,1.6,0.9,2.1c0.6,0.6,1.3,0.9,2.1,0.9h1.5c0.8,0,1.6-0.3,2.1-0.9c0.6-0.6,0.9-1.3,0.9-2.1v-4.5h4.5
			c0.8,0,1.6-0.3,2.1-0.9c0.6-0.6,0.9-1.3,0.9-2.1v-1.5c0-0.8-0.3-1.6-0.9-2.1C21.8,8.6,21,8.3,20.3,8.3z"/>
	</g>
</g>
</svg>
