<?xml version="1.0" encoding="utf-8"?>
<!-- Generator: Adobe Illustrator 24.2.3, SVG Export Plug-In . SVG Version: 6.00 Build 0)  -->
<svg version="1.1" id="Layer_1" xmlns="http://www.w3.org/2000/svg" xmlns:xlink="http://www.w3.org/1999/xlink" x="0px" y="0px"
	 viewBox="0 0 64 70" style="enable-background:new 0 0 64 70;" xml:space="preserve">
<style type="text/css">
	.st0{fill:none;stroke:#00A9E0;stroke-width:2;}
	.st1{fill:none;stroke:#00A9E0;stroke-width:2;stroke-linecap:round;stroke-linejoin:round;}
</style>
<circle class="st0" cx="32" cy="35" r="31"/>
<path class="st1" d="M35,43c3.9,0,7-3.1,7-7s-3.1-7-7-7s-7,3.1-7,7S31.1,43,35,43z"/>
<path class="st1" d="M42,27l-1.4-2.9c-0.2-0.3-0.4-0.6-0.7-0.8c-0.3-0.2-0.7-0.3-1.1-0.3h-7.5c-0.4,0-0.7,0.1-1.1,0.3
	c-0.3,0.2-0.6,0.5-0.7,0.8L28,27h-9c-0.5,0-1,0.2-1.4,0.6C17.2,28,17,28.5,17,29v16c0,0.5,0.2,1,0.6,1.4C18,46.8,18.5,47,19,47h26
	c0.5,0,1-0.2,1.4-0.6C46.8,46,47,45.5,47,45V29c0-0.5-0.2-1-0.6-1.4C46,27.2,45.5,27,45,27H42z"/>
<path class="st0" d="M21.5,32c-0.3,0-0.5-0.2-0.5-0.5s0.2-0.5,0.5-0.5"/>
<path class="st0" d="M21.5,32c0.3,0,0.5-0.2,0.5-0.5S21.8,31,21.5,31"/>
<path class="st1" d="M23,27v-2"/>
</svg>
