<svg width="25" height="24" viewBox="0 0 25 24" fill="none" xmlns="http://www.w3.org/2000/svg">
<g clip-path="url(#clip0_9287_8818)">
<path d="M10.25 5.25H2.75C2.35218 5.25 1.97064 5.40804 1.68934 5.68934C1.40804 5.97064 1.25 6.35218 1.25 6.75V20.25C1.25 20.6478 1.40804 21.0294 1.68934 21.3107C1.97064 21.592 2.35218 21.75 2.75 21.75H22.25C22.6478 21.75 23.0294 21.592 23.3107 21.3107C23.592 21.0294 23.75 20.6478 23.75 20.25V6.75C23.75 6.35218 23.592 5.97064 23.3107 5.68934C23.0294 5.40804 22.6478 5.25 22.25 5.25H14.75" stroke="#616161" stroke-width="1.5" stroke-linecap="round" stroke-linejoin="round"/>
<path d="M14.75 4.5C14.75 3.90326 14.5129 3.33097 14.091 2.90901C13.669 2.48705 13.0967 2.25 12.5 2.25C11.9033 2.25 11.331 2.48705 10.909 2.90901C10.4871 3.33097 10.25 3.90326 10.25 4.5V7.5C10.25 7.69891 10.329 7.88968 10.4697 8.03033C10.6103 8.17098 10.8011 8.25 11 8.25H14C14.1989 8.25 14.3897 8.17098 14.5303 8.03033C14.671 7.88968 14.75 7.69891 14.75 7.5V4.5Z" stroke="#616161" stroke-width="1.5" stroke-linecap="round" stroke-linejoin="round"/>
<path d="M6.125 13.875C6.125 14.2197 6.1929 14.5611 6.32482 14.8795C6.45673 15.198 6.65009 15.4874 6.89384 15.7312C7.1376 15.9749 7.42698 16.1683 7.74546 16.3002C8.06394 16.4321 8.40528 16.5 8.75 16.5C9.09472 16.5 9.43606 16.4321 9.75454 16.3002C10.073 16.1683 10.3624 15.9749 10.6062 15.7312C10.8499 15.4874 11.0433 15.198 11.1752 14.8795C11.3071 14.5611 11.375 14.2197 11.375 13.875C11.375 13.5303 11.3071 13.1889 11.1752 12.8705C11.0433 12.552 10.8499 12.2626 10.6062 12.0188C10.3624 11.7751 10.073 11.5817 9.75454 11.4498C9.43606 11.3179 9.09472 11.25 8.75 11.25C8.40528 11.25 8.06394 11.3179 7.74546 11.4498C7.42698 11.5817 7.1376 11.7751 6.89384 12.0188C6.65009 12.2626 6.45673 12.552 6.32482 12.8705C6.1929 13.1889 6.125 13.5303 6.125 13.875Z" stroke="#616161" stroke-width="1.5" stroke-linecap="round" stroke-linejoin="round"/>
<path d="M4.25 21.75C4.25 20.5565 4.72411 19.4119 5.56802 18.568C6.41193 17.7241 7.55653 17.25 8.75 17.25C9.94347 17.25 11.0881 17.7241 11.932 18.568C12.7759 19.4119 13.25 20.5565 13.25 21.75H4.25Z" stroke="#616161" stroke-width="1.5" stroke-linecap="round" stroke-linejoin="round"/>
<path d="M14.75 12.75H19.25" stroke="#616161" stroke-width="1.5" stroke-linecap="round" stroke-linejoin="round"/>
<path d="M14.75 15.75H20.75" stroke="#616161" stroke-width="1.5" stroke-linecap="round" stroke-linejoin="round"/>
</g>
<defs>
<clipPath id="clip0_9287_8818">
<rect width="24" height="24" fill="white" transform="translate(0.5)"/>
</clipPath>
</defs>
</svg>
