<svg width="24" height="24" viewBox="0 0 24 24" fill="none" xmlns="http://www.w3.org/2000/svg">
<g clip-path="url(#clip0_9159_22744)">
<path d="M12.75 0.750004C10.883 0.751137 9.0501 1.25053 7.44056 2.19664C5.83102 3.14275 4.50315 4.50128 3.59403 6.132C2.6849 7.76272 2.22747 9.60652 2.26895 11.4731C2.31044 13.3396 2.84933 15.1613 3.83 16.75L0.75 23.25L7.22 20.17C8.60065 21.0274 10.1615 21.5526 11.7796 21.7042C13.3977 21.8558 15.0289 21.6298 16.5448 21.0439C18.0607 20.4579 19.4199 19.5281 20.5154 18.3276C21.6109 17.1271 22.4127 15.6887 22.8578 14.1256C23.3029 12.5626 23.3791 10.9175 23.0804 9.32002C22.7817 7.72251 22.1162 6.21615 21.1363 4.91954C20.1565 3.62293 18.8891 2.57147 17.4338 1.84794C15.9785 1.12441 14.3752 0.748569 12.75 0.750004Z" stroke="#5B9C11" stroke-width="1.5" stroke-linecap="round" stroke-linejoin="round"/>
<path d="M15 10.5C15.1989 10.5 15.3897 10.421 15.5303 10.2803C15.671 10.1397 15.75 9.94891 15.75 9.75C15.75 9.55109 15.671 9.36032 15.5303 9.21967C15.3897 9.07902 15.1989 9 15 9C14.8011 9 14.6103 9.07902 14.4697 9.21967C14.329 9.36032 14.25 9.55109 14.25 9.75C14.25 9.94891 14.329 10.1397 14.4697 10.2803C14.6103 10.421 14.8011 10.5 15 10.5Z" stroke="#5B9C11" stroke-width="1.5" stroke-linecap="round" stroke-linejoin="round"/>
<path d="M15.17 13.7598C15.6309 13.5478 16.0253 13.2142 16.3107 12.7949C16.5961 12.3755 16.7618 11.8863 16.79 11.3798C16.79 10.3798 16.28 9.11977 15.12 9.00977" stroke="#5B9C11" stroke-width="1.5" stroke-linecap="round" stroke-linejoin="round"/>
<path d="M9.75999 10.5C9.95891 10.5 10.1497 10.421 10.2903 10.2803C10.431 10.1397 10.51 9.94891 10.51 9.75C10.51 9.55109 10.431 9.36032 10.2903 9.21967C10.1497 9.07902 9.95891 9 9.75999 9C9.56108 9 9.37032 9.07902 9.22966 9.21967C9.08901 9.36032 9.00999 9.55109 9.00999 9.75C9.00999 9.94891 9.08901 10.1397 9.22966 10.2803C9.37032 10.421 9.56108 10.5 9.75999 10.5Z" stroke="#5B9C11" stroke-width="1.5" stroke-linecap="round" stroke-linejoin="round"/>
<path d="M9.92 13.7598C10.3809 13.5478 10.7753 13.2142 11.0607 12.7949C11.3461 12.3755 11.5118 11.8863 11.54 11.3798C11.54 10.3798 11.03 9.11977 9.87 9.00977" stroke="#5B9C11" stroke-width="1.5" stroke-linecap="round" stroke-linejoin="round"/>
</g>
<defs>
<clipPath id="clip0_9159_22744">
<rect width="24" height="24" fill="white"/>
</clipPath>
</defs>
</svg>
