<?xml version="1.0" encoding="utf-8"?>
<!-- Generator: Adobe Illustrator 24.2.3, SVG Export Plug-In . SVG Version: 6.00 Build 0)  -->
<svg version="1.1" id="Layer_1" xmlns="http://www.w3.org/2000/svg" xmlns:xlink="http://www.w3.org/1999/xlink" x="0px" y="0px"
	 viewBox="0 0 24 24" style="enable-background:new 0 0 24 24;" xml:space="preserve">
<style type="text/css">
	.st0{clip-path:url(#SVGID_2_);}
	.st1{fill:none;stroke:#00A9E0;stroke-width:1.5;stroke-linecap:round;stroke-linejoin:round;}
</style>
<g>
	<g>
		<defs>
			<rect id="SVGID_1_" width="24" height="24"/>
		</defs>
		<clipPath id="SVGID_2_">
			<use xlink:href="#SVGID_1_"  style="overflow:visible;"/>
		</clipPath>
		<g class="st0">
			<path class="st1" d="M12.8,0.8c-1.9,0-3.7,0.5-5.3,1.4s-3,2.3-3.9,3.9s-1.4,3.5-1.3,5.3c0,1.9,0.6,3.7,1.6,5.3l-3.1,6.5l6.5-3.1
				c1.4,0.9,2.9,1.4,4.6,1.5s3.2-0.1,4.8-0.7c1.5-0.6,2.9-1.5,4-2.7s1.9-2.6,2.3-4.2s0.5-3.2,0.2-4.8s-1-3.1-1.9-4.4
				c-1-1.3-2.2-2.3-3.7-3.1S14.4,0.7,12.8,0.8z"/>
			<path class="st1" d="M15,10.5c0.2,0,0.4-0.1,0.5-0.2c0.1-0.1,0.2-0.3,0.2-0.5s-0.1-0.4-0.2-0.5C15.4,9.1,15.2,9,15,9
				s-0.4,0.1-0.5,0.2c-0.1,0.1-0.2,0.3-0.2,0.5s0.1,0.4,0.2,0.5C14.6,10.4,14.8,10.5,15,10.5z"/>
			<path class="st1" d="M15.2,13.8c0.5-0.2,0.9-0.5,1.1-1c0.3-0.4,0.5-0.9,0.5-1.4c0-1-0.5-2.3-1.7-2.4"/>
			<path class="st1" d="M9.8,10.5c0.2,0,0.4-0.1,0.5-0.2c0.1-0.1,0.2-0.3,0.2-0.5s-0.1-0.4-0.2-0.5C10.1,9.1,10,9,9.8,9
				S9.4,9.1,9.2,9.2C9.1,9.4,9,9.6,9,9.8s0.1,0.4,0.2,0.5C9.4,10.4,9.6,10.5,9.8,10.5z"/>
			<path class="st1" d="M9.9,13.8c0.5-0.2,0.9-0.5,1.1-1c0.3-0.4,0.5-0.9,0.5-1.4c0-1-0.5-2.3-1.7-2.4"/>
		</g>
	</g>
</g>
</svg>
