<svg width="24" height="24" viewBox="0 0 24 24" fill="none" xmlns="http://www.w3.org/2000/svg">
<g clip-path="url(#clip0_3512_3657)">
<path d="M6.90412 2.82253C8.52443 1.85197 10.3777 1.33909 12.2664 1.3385C13.8379 1.33758 15.3893 1.69136 16.8049 2.37347C18.2206 3.05559 19.4641 4.04843 20.4427 5.27802C21.4212 6.50759 22.1096 7.94219 22.4566 9.47487C22.8036 11.0075 22.8001 12.5988 22.4465 14.1299C22.0928 15.661 21.3982 17.0926 20.4142 18.318C19.4304 19.5432 18.1825 20.5306 16.7639 21.2065C15.3452 21.8825 13.7923 22.2295 12.2209 22.2217C10.9093 22.2152 9.61309 21.9617 8.39936 21.4769L2.69219 22.4273C2.05453 22.5334 1.5333 21.9224 1.73867 21.3094L3.19866 16.9518C2.3854 15.5254 1.91829 13.924 1.83981 12.2771C1.74993 10.3905 2.17345 8.51485 3.06527 6.8499C3.95708 5.18495 5.2838 3.79309 6.90412 2.82253Z" fill="#D6F2FF"/>
<path d="M6.90412 2.82253C8.52443 1.85197 10.3777 1.33909 12.2664 1.3385C13.8379 1.33758 15.3893 1.69136 16.8049 2.37347C18.2206 3.05559 19.4641 4.04843 20.4427 5.27802C21.4212 6.50759 22.1096 7.94219 22.4566 9.47487C22.8036 11.0075 22.8001 12.5988 22.4465 14.1299C22.0928 15.661 21.3982 17.0926 20.4142 18.318C19.4304 19.5432 18.1825 20.5306 16.7639 21.2065C15.3452 21.8825 13.7923 22.2295 12.2209 22.2217C10.9093 22.2152 9.61309 21.9617 8.39936 21.4769L2.69219 22.4273C2.05453 22.5334 1.5333 21.9224 1.73867 21.3094L3.19866 16.9518C2.3854 15.5254 1.91829 13.924 1.83981 12.2771C1.74993 10.3905 2.17345 8.51485 3.06527 6.8499C3.95708 5.18495 5.2838 3.79309 6.90412 2.82253Z" stroke="#007BB5" stroke-width="1.71429" stroke-linecap="round" stroke-linejoin="round"/>
</g>
<defs>
<clipPath id="clip0_3512_3657">
<rect width="24" height="24" fill="white"/>
</clipPath>
</defs>
</svg>
