<svg width="16" height="16" viewBox="0 0 16 16" fill="none" xmlns="http://www.w3.org/2000/svg">
<path d="M15.5013 8.00014C15.5013 7.79171 15.4846 7.60751 15.4579 7.44638C15.3479 6.78258 14.7105 6.49398 14.1207 6.48274C13.4272 6.46954 12.3034 6.45304 10.6948 6.44368C11.491 5.04594 12.0386 4.06451 12.3739 3.45728C12.6591 2.94094 12.7278 2.24464 12.2079 1.81749C12.0817 1.7138 11.9306 1.60721 11.7501 1.50298C11.5696 1.39876 11.4017 1.32116 11.2488 1.26372C10.6189 1.02706 10.0503 1.43476 9.74567 1.93988C9.38747 2.53392 8.81134 3.49881 7.99894 4.88718C7.18654 3.49881 6.61041 2.53392 6.25221 1.93988C5.94761 1.43476 5.37897 1.02707 4.74911 1.26373C4.59621 1.32117 4.42834 1.39877 4.24781 1.50299C4.06727 1.60721 3.91614 1.71381 3.78994 1.81749C3.27006 2.24464 3.33881 2.94095 3.62397 3.45728C3.95931 4.06454 4.50687 5.04594 5.30304 6.44368C3.69454 6.45304 2.57085 6.46954 1.87731 6.48274C1.28757 6.49398 0.650173 6.78258 0.540193 7.44638C0.513497 7.60751 0.49675 7.79171 0.49675 8.00014C0.49675 8.20861 0.513497 8.39278 0.54019 8.55391C0.650173 9.21771 1.28757 9.50634 1.87731 9.51754C2.57085 9.53074 3.69454 9.54724 5.30304 9.55664C4.50687 10.9544 3.95931 11.9358 3.62397 12.543C3.33881 13.0593 3.27006 13.7556 3.78994 14.1828C3.91614 14.2865 4.06727 14.3931 4.24781 14.4973C4.42834 14.6015 4.59621 14.6791 4.74911 14.7366C5.37897 14.9732 5.94761 14.5655 6.25221 14.0604C6.61041 13.4664 7.18654 12.5015 7.99894 11.1131C8.81134 12.5015 9.38747 13.4664 9.74567 14.0604C10.0503 14.5655 10.6189 14.9732 11.2488 14.7366C11.4017 14.6791 11.5696 14.6015 11.7501 14.4973C11.9306 14.3931 12.0817 14.2865 12.2079 14.1828C12.7278 13.7557 12.6591 13.0593 12.3739 12.543C12.0386 11.9358 11.491 10.9544 10.6948 9.55664C12.3034 9.54724 13.4272 9.53074 14.1207 9.51754C14.7105 9.50634 15.3479 9.21771 15.4579 8.55391C15.4846 8.39278 15.5013 8.20861 15.5013 8.00014Z" fill="#FF8038"/>
</svg>
