<?xml version="1.0" encoding="utf-8"?>
<!-- Generator: Adobe Illustrator 24.2.3, SVG Export Plug-In . SVG Version: 6.00 Build 0)  -->
<svg version="1.1" id="Layer_1" xmlns="http://www.w3.org/2000/svg" xmlns:xlink="http://www.w3.org/1999/xlink" x="0px" y="0px"
	 viewBox="0 0 24 24" style="enable-background:new 0 0 24 24;" xml:space="preserve">
<style type="text/css">
	.st0{fill-rule:evenodd;clip-rule:evenodd;fill:#D6F2FF;}
	.st1{fill:none;stroke:#007BB5;stroke-width:2;stroke-linecap:round;stroke-linejoin:round;}
</style>
<path class="st0" d="M21.6,3.2c1.1,1.2,1.1,3.1-0.1,4.2c-1.1,1.1-2.5,2.7-4.7,5.5c-2.3,2.8-4.3,5.6-5.2,7.2
	c-0.5,0.9-1.4,1.5-2.4,1.5c-1,0.1-2-0.4-2.6-1.2c-0.3-0.4-1-1.2-1.8-2c-0.8-0.8-1.6-1.6-2-1.9c-1.3-1-1.5-2.9-0.4-4.2
	c1-1.3,2.9-1.5,4.2-0.4c0.6,0.5,1.3,1.2,2.1,1.9c1.1-1.5,2.3-3.1,3.5-4.6c2.3-2.8,3.8-4.7,5.2-6.1C18.5,2,20.4,2,21.6,3.2z"/>
<path class="st1" d="M21.6,3.2c1.1,1.2,1.1,3.1-0.1,4.2c-1.1,1.1-2.5,2.7-4.7,5.5c-2.3,2.8-4.3,5.6-5.2,7.2
	c-0.5,0.9-1.4,1.5-2.4,1.5c-1,0.1-2-0.4-2.6-1.2c-0.3-0.4-1-1.2-1.8-2c-0.8-0.8-1.6-1.6-2-1.9c-1.3-1-1.5-2.9-0.4-4.2
	c1-1.3,2.9-1.5,4.2-0.4c0.6,0.5,1.3,1.2,2.1,1.9c1.1-1.5,2.3-3.1,3.5-4.6c2.3-2.8,3.8-4.7,5.2-6.1C18.5,2,20.4,2,21.6,3.2z"/>
</svg>
