<?xml version="1.0" encoding="utf-8"?>
<!-- Generator: Adobe Illustrator 24.2.3, SVG Export Plug-In . SVG Version: 6.00 Build 0)  -->
<svg version="1.1" id="Layer_1" xmlns="http://www.w3.org/2000/svg" xmlns:xlink="http://www.w3.org/1999/xlink" x="0px" y="0px"
	 viewBox="0 0 24 24" style="enable-background:new 0 0 24 24;" xml:space="preserve">
<style type="text/css">
	.st0{clip-path:url(#SVGID_2_);}
	.st1{fill:#E8F6EE;}
	.st2{fill:none;stroke:#18A957;stroke-width:1.7143;}
	.st3{fill:none;stroke:#18A957;stroke-width:2;stroke-linecap:round;stroke-linejoin:round;}
</style>
<g>
	<defs>
		<rect id="SVGID_1_" y="0" width="24" height="24"/>
	</defs>
	<clipPath id="SVGID_2_">
		<use xlink:href="#SVGID_1_"  style="overflow:visible;"/>
	</clipPath>
	<g class="st0">
		<path class="st1" d="M1.6,17.6c0.3,2.5,2.3,4.5,4.7,4.7c1.8,0.2,3.7,0.4,5.6,0.4c1.9,0,3.8-0.2,5.6-0.4c2.5-0.3,4.5-2.3,4.7-4.7
			c0.2-1.8,0.4-3.7,0.4-5.6s-0.2-3.8-0.4-5.6c-0.3-2.5-2.3-4.5-4.7-4.7c-1.8-0.2-3.7-0.4-5.6-0.4c-1.9,0-3.8,0.2-5.6,0.4
			C3.9,1.9,1.9,3.9,1.6,6.4C1.5,8.2,1.3,10.1,1.3,12S1.5,15.8,1.6,17.6z"/>
		<path class="st2" d="M1.6,17.6c0.3,2.5,2.3,4.5,4.7,4.7c1.8,0.2,3.7,0.4,5.6,0.4c1.9,0,3.8-0.2,5.6-0.4c2.5-0.3,4.5-2.3,4.7-4.7
			c0.2-1.8,0.4-3.7,0.4-5.6s-0.2-3.8-0.4-5.6c-0.3-2.5-2.3-4.5-4.7-4.7c-1.8-0.2-3.7-0.4-5.6-0.4c-1.9,0-3.8,0.2-5.6,0.4
			C3.9,1.9,1.9,3.9,1.6,6.4C1.5,8.2,1.3,10.1,1.3,12S1.5,15.8,1.6,17.6z"/>
		<path class="st3" d="M7.7,13.1l3.1,3.2c1.5-4.2,2.7-6.1,5.5-8.6"/>
	</g>
</g>
</svg>
