<svg width="24" height="24" viewBox="0 0 24 24" fill="none" xmlns="http://www.w3.org/2000/svg">
<g clip-path="url(#clip0_6161_12922)">
<path d="M21.7505 2.65773L4.94712 17.2448C3.20985 15.3436 1.6986 13.0472 1.45372 11.5324C0.875214 7.95398 4.17797 6.56373 9.89573 4.21602C18.0997 0.847456 20.2675 1.08055 21.3931 2.20614C21.5263 2.33934 21.6469 2.48711 21.7505 2.65773Z" fill="#5DBFEC"/>
<path d="M21.7505 2.65773L4.94712 17.2448C3.20985 15.3436 1.6986 13.0472 1.45372 11.5324C0.875214 7.95398 4.17797 6.56373 9.89573 4.21602C18.0997 0.847456 20.2675 1.08055 21.3931 2.20614C21.5263 2.33934 21.6469 2.48711 21.7505 2.65773Z" stroke="white" stroke-width="2" stroke-linejoin="round"/>
<path d="M4.94702 17.2443L21.7506 2.65723C22.5232 3.92871 22.353 6.46959 19.383 13.7029C17.0353 19.4206 15.6451 22.7234 12.0666 22.145C11.3206 22.0243 10.3851 21.5966 9.40056 20.9861L8.01016 22.25C6.90895 23.2512 5.14272 22.4698 5.14272 20.9815V17.4559C5.0772 17.3859 5.01196 17.3155 4.94702 17.2443Z" stroke="white" stroke-width="2" stroke-linejoin="round"/>
</g>
<defs>
<clipPath id="clip0_6161_12922">
<rect width="24" height="24" fill="white"/>
</clipPath>
</defs>
</svg>
