<svg width="25" height="25" viewBox="0 0 25 25" fill="none" xmlns="http://www.w3.org/2000/svg">
<g clip-path="url(#clip0_9107_14732)">
<path d="M3.25894 15.7827C2.89764 15.7827 2.54615 15.6651 2.25759 15.4476C1.96903 15.2302 1.75908 14.9248 1.65947 14.5775C1.55985 14.2302 1.57598 13.8599 1.70542 13.5225C1.83486 13.1852 2.07057 12.8992 2.37694 12.7077L20.8599 1.15368C21.1341 0.982091 21.4524 0.894186 21.7758 0.900731C22.0992 0.907276 22.4136 1.00799 22.6807 1.19053C22.9477 1.37307 23.1557 1.62952 23.2792 1.92848C23.4027 2.22743 23.4363 2.55591 23.3759 2.87368L19.7759 22.0467C19.7162 22.3639 19.5655 22.6568 19.3422 22.8899C19.1189 23.123 18.8326 23.286 18.5183 23.3593C18.2039 23.4325 17.875 23.4127 17.5717 23.3024C17.2684 23.192 17.0037 22.9958 16.8099 22.7377L11.5999 15.7827H3.25894Z" stroke="white" stroke-width="1.5" stroke-linecap="round" stroke-linejoin="round"/>
<path d="M11.6 15.7827H9.09998V20.9537C9.09996 21.2562 9.18245 21.553 9.33857 21.8121C9.49469 22.0712 9.71852 22.2828 9.98597 22.4241C10.2534 22.5655 10.5544 22.6312 10.8564 22.6142C11.1584 22.5972 11.4501 22.4982 11.7 22.3277L14.878 20.1617L11.6 15.7827Z" stroke="white" stroke-width="1.5" stroke-linecap="round" stroke-linejoin="round"/>
<path d="M11.599 15.7829L22.679 1.19287" stroke="white" stroke-width="1.5" stroke-linecap="round" stroke-linejoin="round"/>
</g>
<defs>
<clipPath id="clip0_9107_14732">
<rect width="24" height="24" fill="white" transform="translate(0.5 0.153809)"/>
</clipPath>
</defs>
</svg>
