<svg width="24" height="24" viewBox="0 0 24 24" fill="none" xmlns="http://www.w3.org/2000/svg">
<g clip-path="url(#clip0_9287_5635)">
<path d="M10.546 2.43797C10.7295 2.64167 10.9538 2.80454 11.2042 2.91602C11.4547 3.02751 11.7258 3.08511 12 3.08511C12.2742 3.08511 12.5453 3.02751 12.7958 2.91602C13.0462 2.80454 13.2705 2.64167 13.454 2.43797L14.4 1.39997C14.6711 1.09991 15.0285 0.891116 15.423 0.802234C15.8175 0.713353 16.2298 0.748745 16.6034 0.903554C16.977 1.05836 17.2936 1.325 17.5096 1.66687C17.7256 2.00874 17.8306 2.40909 17.81 2.81297L17.739 4.21297C17.7253 4.48608 17.7689 4.75904 17.8671 5.01426C17.9652 5.26948 18.1158 5.50131 18.309 5.69481C18.5022 5.88831 18.7338 6.03919 18.9889 6.13774C19.244 6.23628 19.5169 6.28031 19.79 6.26697L21.19 6.19597C21.5936 6.17608 21.9935 6.28149 22.3349 6.49776C22.6763 6.71404 22.9424 7.03059 23.0968 7.40404C23.2512 7.77749 23.2864 8.18955 23.1974 8.58375C23.1085 8.97796 22.8998 9.33501 22.6 9.60597L21.558 10.546C21.3545 10.7297 21.1919 10.9541 21.0806 11.2047C20.9693 11.4552 20.9118 11.7263 20.9118 12.0005C20.9118 12.2746 20.9693 12.5457 21.0806 12.7963C21.1919 13.0468 21.3545 13.2712 21.558 13.455L22.6 14.395C22.9001 14.6661 23.1089 15.0234 23.1977 15.418C23.2866 15.8125 23.2512 16.2248 23.0964 16.5984C22.9416 16.972 22.675 17.2886 22.3331 17.5046C21.9912 17.7206 21.5909 17.8255 21.187 17.805L19.787 17.734C19.5133 17.7199 19.2397 17.7634 18.9838 17.8618C18.728 17.9601 18.4957 18.1111 18.3019 18.3049C18.1081 18.4987 17.9571 18.731 17.8588 18.9868C17.7605 19.2426 17.7169 19.5163 17.731 19.79L17.802 21.19C17.8199 21.5918 17.7137 21.9894 17.4977 22.3288C17.2818 22.6682 16.9666 22.9329 16.595 23.0869C16.2234 23.2409 15.8134 23.2768 15.4207 23.1897C15.028 23.1026 14.6716 22.8967 14.4 22.6L13.459 21.559C13.2753 21.3556 13.051 21.1929 12.8006 21.0816C12.5501 20.9703 12.2791 20.9128 12.005 20.9128C11.7309 20.9128 11.4599 20.9703 11.2094 21.0816C10.959 21.1929 10.7347 21.3556 10.551 21.559L9.606 22.6C9.33481 22.8981 8.97829 23.1053 8.58504 23.1933C8.1918 23.2814 7.78096 23.246 7.40854 23.0921C7.03612 22.9381 6.72024 22.6731 6.50397 22.333C6.28769 21.993 6.18154 21.5945 6.19999 21.192L6.27199 19.792C6.28607 19.5183 6.24253 19.2446 6.14419 18.9888C6.04585 18.733 5.89489 18.5007 5.7011 18.3069C5.5073 18.1131 5.27497 17.9621 5.01915 17.8638C4.76332 17.7654 4.48971 17.7219 4.216 17.736L2.81599 17.807C2.41228 17.828 2.01194 17.7236 1.66993 17.5081C1.32793 17.2925 1.06103 16.9764 0.905878 16.6031C0.750725 16.2298 0.714928 15.8176 0.803399 15.4231C0.89187 15.0287 1.10027 14.6713 1.39999 14.4L2.44099 13.46C2.64444 13.2762 2.80707 13.0518 2.91839 12.8013C3.0297 12.5507 3.08721 12.2796 3.08721 12.0055C3.08721 11.7313 3.0297 11.4602 2.91839 11.2097C2.80707 10.9591 2.64444 10.7347 2.44099 10.551L1.39999 9.60597C1.10124 9.33498 0.893478 8.97832 0.805096 8.58478C0.716715 8.19123 0.752031 7.77999 0.906217 7.40727C1.0604 7.03455 1.32594 6.71855 1.66652 6.50245C2.0071 6.28636 2.4061 6.18072 2.809 6.19997L4.209 6.27097C4.48322 6.28539 4.75742 6.24197 5.01377 6.14351C5.27012 6.04506 5.5029 5.89379 5.69698 5.69952C5.89107 5.50525 6.04211 5.27232 6.14032 5.01587C6.23852 4.75943 6.28168 4.48519 6.26699 4.21097L6.19999 2.80997C6.1811 2.40724 6.28693 2.00848 6.50304 1.66811C6.71915 1.32775 7.03501 1.06235 7.40753 0.908137C7.78005 0.753923 8.19108 0.718404 8.58454 0.806427C8.97799 0.894449 9.3347 1.10173 9.606 1.39997L10.546 2.43797Z" stroke="#001B32" stroke-width="1.5" stroke-linecap="round" stroke-linejoin="round"/>
<path d="M7.5 12.001C7.5 13.1945 7.97411 14.339 8.81802 15.183C9.66193 16.0269 10.8065 16.501 12 16.501C13.1935 16.501 14.3381 16.0269 15.182 15.183C16.0259 14.339 16.5 13.1945 16.5 12.001C16.5 10.8075 16.0259 9.66291 15.182 8.819C14.3381 7.97508 13.1935 7.50098 12 7.50098C10.8065 7.50098 9.66193 7.97508 8.81802 8.819C7.97411 9.66291 7.5 10.8075 7.5 12.001Z" stroke="#001B32" stroke-width="1.5" stroke-linecap="round" stroke-linejoin="round"/>
</g>
<defs>
<clipPath id="clip0_9287_5635">
<rect width="24" height="24" fill="white"/>
</clipPath>
</defs>
</svg>
