<svg width="281" height="281" viewBox="0 0 281 281" fill="none" xmlns="http://www.w3.org/2000/svg">
<path d="M263.297 169.444C255.998 143.42 254.565 128.898 248.747 107.185C247.381 102.092 243.562 100.309 239.02 98.3058C222.654 91.0911 216.435 91.4325 207.795 88.2488C207.348 89.4203 206.663 90.4858 205.782 91.3777C192.774 107.572 170.492 114.789 161.274 103.427C161.134 103.133 161.748 103.344 155.264 106.318C148.085 109.612 140.594 112.238 133.658 115.965L133.568 115.936C133.184 117.209 132.444 119.181 131.275 119.185C129.428 119.185 128.553 116.339 128.236 114.531C128.195 114.302 128.185 113.634 128.126 113.854C127.861 117.473 130.124 122.143 129.322 126.439C128.05 133.258 122.953 139.017 120.481 145.426L120.512 146.193C120.262 149.801 122.069 154.445 122.734 157.943C124.105 165.148 125.317 172.374 126.68 179.58C128.198 187.589 129.721 195.277 127.537 202.881C129.154 203.898 130.64 205.11 131.963 206.489C131.863 207.256 131.456 210.001 131.355 210.615C130.072 218.483 124.285 223.79 128.834 234.174L128.694 234.235C128.327 246.209 121.646 250.691 125.462 256.099C127.59 259.022 130.341 261.435 133.516 263.166C136.021 264.583 138.618 265.832 141.289 266.904C166.86 277.09 175.48 273.715 189.814 272.136C197.926 271.241 205.907 270.59 213.418 267.182C219.135 264.563 224.683 261.591 230.031 258.283C231.564 257.343 234.818 256.042 235.752 254.349C236.371 253.225 236.141 251.429 236.251 250.003L236.04 249.056C230.56 250.273 224.991 247.699 221.006 243.166C211.334 232.15 203.303 219.478 194.108 208.016C192.329 206.316 189.964 205.366 187.504 205.365L187.475 205.684C187.594 208.863 180.918 208.044 179.073 208.072C155.348 208.353 161.078 206.903 156.733 191.129C156.493 190.602 156.309 190.05 156.185 189.485C154.697 188.056 153.312 186.524 152.039 184.901C151.559 184.312 151.244 183.607 151.127 182.858C151.009 182.108 151.095 181.341 151.372 180.635C151.391 180.595 151.611 180.197 151.653 180.197L151.934 179.718C150.917 178.741 150.248 177.61 150.917 176.329C151.089 175.858 151.372 175.437 151.738 175.098C152.107 174.76 152.549 174.512 153.031 174.377C153.513 174.243 154.019 174.223 154.509 174.323C154.999 174.422 155.459 174.636 155.851 174.948C155.791 174.688 155.583 173.867 155.57 173.768C154.925 168.403 154.557 163.011 154.464 157.61C154.488 155.697 154.502 153.443 155.81 151.9C158.886 148.268 166.095 149.078 170.31 149.069C174.469 149.026 178.626 149.239 182.758 149.707C184.534 149.923 186.866 150.244 188.061 151.75C190.047 154.259 189.525 158.367 189.176 161.347L189.425 161.418C189.794 160.153 190.511 159.085 191.813 159.633C193.856 160.49 194.924 164.476 195.77 166.261C198.224 171.433 202.167 175.625 204.59 180.801C205.661 183.088 207.962 189.204 208.586 190.496C208.266 190.496 208.401 190.47 207.979 190.615C212.446 204.761 217.093 205.165 227.453 212.072C227.413 201.174 229.021 196.46 228.54 194.482C236.408 190.087 244.259 186.664 252.218 181.915C253.904 180.909 256.613 179.761 259.075 178.403C259.085 178.342 259.116 178.323 259.145 178.352C261.07 177.449 262.75 176.1 264.049 174.418C264.872 173.114 263.658 170.709 263.297 169.444Z" fill="#5DBFEC"/>
<path d="M137.817 23.752L137.876 23.6115C138.654 20.6905 142.105 17.2455 143.796 15.603C151.997 7.61559 167.038 5.73851 174.81 7.85865C177.081 8.40493 179.164 9.54325 180.852 11.1576C181.591 11.9177 182.883 11.277 183.024 11.2475C184.641 10.9746 186.288 10.9311 187.918 11.1183C189.696 11.3958 191.396 12.0463 192.905 13.0269C194.416 14.0076 195.701 15.2962 196.678 16.8085C201.174 23.5525 201.616 32.5993 200.612 40.4125C200.272 43.3417 199.496 46.2035 198.309 48.9029L197.941 49.0013C196.182 42.5776 191.056 44.0079 189.459 49.7488C189.258 49.6265 187.277 49.7712 184.876 45.9229C179.211 36.8452 180.203 26.6365 179.396 25.9804C178.635 25.3622 176.465 30.7208 171.015 33.8132C168.558 35.0131 166.907 34.4919 167.069 31.651C167.368 29.4015 168.006 27.2104 168.963 25.1528C169.103 24.8479 170.326 22.6028 170.059 22.3119C169.497 21.7007 159.662 37.5168 154.591 38.9162C153.037 39.3461 152.249 38.1589 152.062 36.7736C151.375 31.731 155.257 24.5051 154.543 24.4096C153.745 24.3084 150.626 28.7651 135.339 42.0901C133.967 43.2858 131.802 45.389 130.097 44.931C128.271 44.4421 127.476 40.8565 127.785 39.7395C128.992 35.3742 130.387 29.979 132.747 26.1349C133.214 25.3678 135.654 22.7615 137.817 23.752Z" fill="#007BB5"/>
<path d="M252.247 181.884C244.287 186.633 236.44 190.056 228.568 194.45C229.042 196.401 227.444 201.141 227.481 212.041C217.162 205.157 212.51 204.84 208.007 190.584C208.196 190.493 208.405 190.452 208.614 190.465C207.79 188.75 206.167 184.084 204.619 180.77C202.195 175.594 198.253 171.401 195.798 166.23C194.955 164.445 193.884 160.459 191.841 159.602C188.541 158.217 187.282 167.09 193.567 177.727L193.407 178.594C189.536 177.773 185.752 176.589 182.105 175.056C176.164 172.576 168.805 164.272 165.213 166.754C164.842 167.002 164.535 167.337 164.319 167.729C164.103 168.119 163.982 168.556 163.968 169.003C163.952 169.45 164.045 169.894 164.235 170.297C164.426 170.702 164.71 171.056 165.064 171.328C166.847 173.072 169.155 174.391 171.092 175.952C172.902 177.411 174.501 179.081 176.205 180.656L175.857 181.036C173.515 180.885 171.181 180.459 168.86 180.148C166.272 179.865 163.744 179.184 161.366 178.126C159.834 177.399 156.42 175.076 155.875 174.92C154.997 174.367 153.939 174.178 152.924 174.388C152.414 174.589 151.962 174.914 151.609 175.334C150.364 176.783 150.251 178.05 151.958 179.69L151.677 180.169C151.219 180.887 151.009 181.735 151.078 182.584C151.146 183.432 151.49 184.236 152.056 184.873C153.332 186.493 154.717 188.025 156.202 189.457C159.764 193.034 159.855 192.372 159.715 192.756C160.044 192.905 160.531 193.026 160.731 193.104C161.715 193.487 162.724 193.806 163.75 194.061L163.671 194.37C163.671 194.449 165.006 195.466 165.086 195.537C170.987 200.672 173.34 204.627 178.153 205.242C183.784 205.964 189.599 203.669 194.118 208.003C203.316 219.465 211.356 232.127 221.028 243.144C226.482 249.358 234.525 251.583 241.268 246.622C247.238 242.229 247.225 235.002 248.314 228.325C250.256 216.411 252.589 209.498 258.711 180.696C258.833 180.118 258.961 178.682 259.11 178.363C256.643 179.73 253.933 180.878 252.247 181.884Z" fill="white"/>
<path fill-rule="evenodd" clip-rule="evenodd" d="M259.557 179.816C259.506 180.191 259.452 180.587 259.398 180.84V180.842C256.573 194.134 254.558 202.754 253.015 209.348C251.21 217.074 250.054 222.018 249.007 228.438C248.844 229.438 248.705 230.469 248.563 231.513C248.244 233.864 247.917 236.275 247.298 238.517C246.394 241.803 244.837 244.869 241.684 247.189C238.152 249.786 234.253 250.514 230.526 249.763C226.812 249.014 223.309 246.808 220.499 243.607C215.641 238.073 211.198 232.131 206.827 226.154C206.109 225.172 205.394 224.189 204.678 223.207C201.035 218.205 197.403 213.22 193.57 208.443L194.666 207.563C198.521 212.368 202.175 217.384 205.819 222.386C206.534 223.367 207.248 224.348 207.963 225.325C212.329 231.299 216.742 237.198 221.556 242.68C224.2 245.694 227.446 247.707 230.804 248.384C234.146 249.059 237.642 248.418 240.852 246.056C243.669 243.982 245.091 241.237 245.944 238.143C246.537 235.994 246.842 233.741 247.154 231.439C247.298 230.372 247.445 229.295 247.62 228.211C248.673 221.761 249.843 216.752 251.662 208.966C253.206 202.356 255.22 193.745 258.024 180.549C258.066 180.351 258.11 180.032 258.159 179.669C258.173 179.56 258.189 179.449 258.205 179.336C258.238 179.098 258.273 178.858 258.311 178.653C258.345 178.477 258.392 178.24 258.474 178.065L259.747 178.66C259.748 178.656 259.748 178.658 259.745 178.67C259.738 178.695 259.719 178.767 259.693 178.908C259.661 179.081 259.629 179.295 259.596 179.529C259.584 179.622 259.57 179.719 259.557 179.816Z" fill="#007BB5"/>
<path d="M170.515 90.1731C170.762 91.3912 170.965 91.4052 171.639 95.0259C171.639 95.0259 170.779 96.0291 170.542 96.2722C167.773 99.0354 164.637 101.407 161.224 103.32L161.274 103.419C167.923 111.616 180.493 109.506 189.796 104.656C195.986 101.381 201.429 96.8566 205.781 91.3701C206.662 90.4782 207.347 89.4127 207.794 88.2412C204.765 87.0476 201.963 85.3414 199.513 83.1972C198.108 78.5186 195.222 67.1142 195.107 62.2374C195.062 60.3042 196.783 58.7938 197.495 57.0755C198.546 54.5077 198.701 51.6603 197.934 48.9939C196.154 42.6517 191.074 43.9078 189.452 49.7414C189.251 49.6191 187.27 49.7639 184.869 45.9156C179.055 36.599 180.307 26.7204 179.389 25.973C178.968 25.6358 177.984 27.2291 176.708 28.7633C175.18 30.8225 173.238 32.54 171.008 33.8059C170.559 34.0935 170.051 34.2768 169.522 34.3424C168.992 34.4082 168.454 34.3544 167.948 34.1852C165.841 33.0092 167.968 27.3429 168.956 25.1454C169.096 24.8406 170.318 22.5954 170.051 22.3045C169.52 21.7313 159.593 37.5249 154.584 38.9088C153.03 39.3388 152.242 38.1515 152.055 36.7662C151.371 31.7433 155.253 24.4991 154.536 24.4022C154.088 24.346 153.34 25.2986 153.072 25.5585C149.166 29.3436 141.565 36.887 135.333 42.0827L135.771 42.2302C135.93 43.121 135.904 43.7589 136.159 45.6191C137.641 56.4376 140.153 56.8998 142.762 62.8402C145.203 68.4054 143.543 71.0356 146.988 76.8424C148.805 79.1483 151.035 81.0952 153.565 82.5832C158.257 85.4242 164.465 89.7473 170.515 90.1731Z" fill="white"/>
<path d="M130.281 107.526L132.529 107.297C132.508 106.001 132.559 103.25 131.483 102.344C130.749 101.825 129.84 101.617 128.954 101.765L128.924 101.088C128.128 96.0554 125.271 95.707 122.377 96.6638L122.087 95.8362C122.287 93.2356 118.419 90.8794 116.108 91.3711C112.34 92.1734 108.354 96.1144 106.092 99.0354C100.49 106.27 105.757 114.372 107.606 121.848C109.064 127.741 106.809 132.386 106.989 140.704H107.068C106.319 162.641 96.5474 192.97 105.395 211.797C107.747 216.798 112.154 226.931 119.247 223.676C121.242 222.761 122.47 220.609 123.702 218.882C125.222 216.751 129.523 211.365 131.644 208.766C131.754 208.009 131.865 207.251 131.965 206.484C130.571 205.185 129.092 203.979 127.539 202.876C129.722 195.272 128.199 187.588 126.682 179.576C125.319 172.37 124.106 165.144 122.735 157.939C122.071 154.44 120.264 149.79 120.514 146.189L120.483 145.422C122.954 139.013 128.052 133.254 129.323 126.436C130.12 122.166 127.869 117.361 128.128 113.85C128.187 113.631 128.196 114.298 128.237 114.527C128.555 116.335 129.43 119.187 131.276 119.182C133.166 119.182 134.118 113.983 134.405 112.124C134.935 108.706 133.053 107.526 130.281 107.526Z" fill="white"/>
<path d="M174.96 71.2339C173.708 71.3185 172.496 71.7009 171.423 72.3495C168.454 73.7006 165.567 75.2214 162.772 76.9045C163.989 77.7931 165.399 78.3806 166.887 78.6186C169.121 78.8857 171.376 78.3443 173.246 77.0927C174.428 75.9548 175.326 74.5553 175.867 73.007C176.076 72.2174 175.926 71.2999 174.96 71.2339Z" fill="white"/>
<path d="M108.765 68.2714C114.226 55.6981 117.235 39.6403 104.071 29.5061C91.443 19.7778 74.8865 19.3226 57.5488 23.0852C36.8953 27.5657 22.7722 38.81 18.3127 56.8403C13.0945 77.9364 29.9265 95.8473 46.4366 98.4691C57.495 99.8271 68.7177 98.576 79.2054 94.8161C83.8686 92.9418 88.2382 88.7591 93.0587 87.541C95.7915 86.8511 99.0679 88.2027 101.77 88.665C102.527 88.7956 111.678 89.619 110.819 88.9938C108.241 87.1111 100.248 84.2758 100.036 82.6151C99.8407 81.0794 101.862 79.3231 102.697 78.2694C105.152 75.219 107.192 71.8573 108.765 68.2714Z" fill="white"/>
<path d="M99.6567 53.8597C99.3336 52.3535 97.3581 50.4638 96.0978 49.5646C93.7632 47.6198 91.2409 45.9119 88.5684 44.4658C82.8951 41.3945 78.1476 39.8757 77.2329 45.0601C75.8434 50.9808 74.9849 60.1428 74.0337 65.9483C73.7308 67.6214 73.5212 69.31 73.4057 71.0063C73.386 71.3835 73.4336 71.7613 73.5462 72.1218C73.8553 73.1053 76.1679 74.0593 77.2132 73.8655C78.8501 73.5634 80.3042 71.9139 81.6193 70.9065C86.551 67.163 91.2909 63.1734 95.8211 58.9528C97.0701 57.7726 100.127 56.0599 99.6567 53.8597Z" fill="#D6F2FF"/>
<path d="M95.5989 176.961C94.9315 178.515 92.668 181.585 92.7186 183.319C92.7383 183.976 94.9202 185.286 95.3502 185.651C97.3663 187.372 98.9076 188.641 101.539 190.864H101.722C101.722 178.605 104.324 166.188 105.907 153.899C105.3 155.713 103.766 158.165 103.326 159.21C100.82 165.163 98.1433 171.032 95.5989 176.961Z" fill="#5DBFEC"/>
<path d="M85.594 41.1526C84.1441 38.3918 81.3467 35.3022 83.2814 32.5512C84.1736 31.5677 85.8975 32.2871 84.7974 30.0798C84.3478 29.1792 83.4598 29.5178 82.6899 29.841C81.9774 30.1321 81.3455 30.5905 80.8477 31.1775C80.3497 31.7644 80.0005 32.4626 79.8293 33.213C79.0987 36.6847 82.4525 39.2348 83.9347 42.1221C85.0509 44.4584 85.4466 47.0741 85.0714 49.636L84.7033 50.1545C85.3411 50.5928 85.9987 51.0326 86.6703 51.4302L86.9302 50.982C87.7941 47.6574 87.3142 44.1262 85.594 41.1526Z" fill="#5DBFEC"/>
<path d="M189.45 161.394L189.201 161.323C189.55 158.343 190.073 154.235 188.086 151.726C186.892 150.22 184.559 149.899 182.783 149.683C178.651 149.215 174.494 149.003 170.335 149.045C166.12 149.054 158.911 148.244 155.835 151.876C154.527 153.422 154.513 155.67 154.489 157.586C154.438 161.613 154.834 165.62 155.177 169.626C155.206 171.416 155.441 173.196 155.879 174.931C156.5 175.108 159.661 177.319 161.37 178.137C163.748 179.195 166.276 179.876 168.864 180.159C171.185 180.471 173.519 180.896 175.861 181.047L176.209 180.667C174.505 179.092 172.906 177.422 171.097 175.964C169.159 174.403 166.851 173.083 165.068 171.34C164.714 171.067 164.43 170.713 164.239 170.308C164.049 169.905 163.956 169.461 163.972 169.014C163.986 168.568 164.107 168.131 164.323 167.74C164.539 167.348 164.846 167.015 165.217 166.765C168.82 164.275 176.149 172.579 182.109 175.067C185.756 176.6 189.54 177.784 193.411 178.605L193.571 177.738C191.01 173.408 188.086 166.223 189.45 161.394ZM179.205 162.001C178.091 160.913 179.136 159.49 180.302 158.971L182.216 159.011C185.345 160.756 181.192 163.941 179.205 161.996V162.001Z" fill="#D6F2FF"/>
<path d="M178.154 205.255C173.343 204.64 170.989 200.686 165.088 195.549C165.008 195.479 163.673 194.462 163.673 194.383L163.751 194.074C162.726 193.818 161.717 193.498 160.732 193.117C160.533 193.039 160.045 192.918 159.716 192.769L159.765 192.638C158.502 191.672 157.312 190.614 156.208 189.47C156.913 191.59 157.484 193.752 157.912 195.947C158.57 198.927 158.678 203.016 160.603 205.525C161.867 206.827 163.591 207.583 165.407 207.632C169.95 208.127 174.525 208.269 179.09 208.054C180.935 208.031 187.611 208.851 187.492 205.665L187.521 205.346C184.388 205.132 180.999 205.622 178.154 205.255Z" fill="#D6F2FF"/>
<path d="M107.748 46.5942C107.738 46.6041 107.699 46.6336 107.57 46.6139C106.451 46.9115 105.365 47.3224 104.33 47.8405C104.061 47.7997 104.348 48.3083 104.41 48.4671C104.748 49.323 105.162 50.1473 105.646 50.9301C106.745 50.6506 107.793 50.2033 108.755 49.6037C108.529 48.5673 108.191 47.5583 107.748 46.5942Z" fill="#5DBFEC"/>
<path d="M98.7389 64.0957C98.6686 63.8259 97.414 64.2362 97.2833 64.2741C96.8528 64.3881 96.4494 64.587 96.0969 64.8592C95.7444 65.1313 95.4498 65.4713 95.2306 65.859C94.4593 67.2963 95.3823 69.8084 93.9858 70.8523C92.3532 72.0719 89.4139 71.5295 87.4975 72.1379C87.0198 72.2896 85.4715 72.9809 86.0826 73.7326C86.7275 74.532 88.1747 74.2131 89.0219 74.1218C91.4343 73.859 94.7487 73.571 96.2577 71.3609C97.1217 70.0964 96.5724 68.5425 97.2145 67.2541C97.9282 65.8224 100.565 67.4031 99.8559 65.1017C99.7659 64.8122 99.676 63.9861 98.7389 64.0957Z" fill="#5DBFEC"/>
<path d="M72.8377 38.0508C72.7941 38.1309 72.6115 38.5721 72.5075 38.7786C72.2098 39.2799 72.0452 39.8492 72.0298 40.4323C72.1099 41.2753 73.3589 41.5563 73.9968 41.8275C74.2146 41.9216 74.5756 42.1659 74.8243 42.0774C75.1672 41.9538 75.1756 41.7291 76.5286 38.8461C76.5722 38.7618 73.6217 36.1007 72.8377 38.0508Z" fill="#5DBFEC"/>
<path d="M225.348 174.082L231.797 169.324H223.864L221.462 161.644L218.961 169.373H211.037L217.425 174.122L214.934 181.825L221.372 177.041L227.76 181.776L225.348 174.082Z" fill="#D6F2FF"/>
<path d="M213.981 116.925L214.171 122.926L217.47 117.972L223.111 119.676L219.503 114.913L222.612 110.258L222.383 110.118L217.28 111.971L213.672 107.218L213.862 113.207L208.34 115.219L213.981 116.925Z" fill="#D6F2FF"/>
<path d="M215.392 249.972L211.984 244.7L211.715 251.009L205.775 252.684L211.555 254.905L211.297 261.204L215.134 256.271L220.914 258.493L217.495 253.222L221.332 248.287L215.392 249.972Z" fill="#D6F2FF"/>
<path d="M184.866 231.385L183.241 222.167L179.226 230.667L170.086 229.522L176.733 235.93L172.708 244.431L180.84 239.887L187.487 246.295L185.873 237.075L194.005 232.532L184.866 231.385Z" fill="#D6F2FF"/>
<path d="M159.354 124.749L154.899 130.269L148.41 127.807L152.148 133.678L147.683 139.189L154.451 137.305L158.188 143.185L158.636 136.139L165.402 134.256L158.914 131.795L159.354 124.749Z" fill="#D6F2FF"/>
<path d="M152.875 197.83L145.8 200.401L141.184 194.302L141.434 201.986L134.369 204.557L141.583 206.729L141.833 214.413L146.048 208.075L153.274 210.257L148.659 204.168L152.875 197.83Z" fill="#D6F2FF"/>
<path d="M145.101 249.993L140.448 254.259L135.065 251.23L137.578 256.89L132.933 261.156L139.131 260.389L141.634 266.049L142.959 259.919L149.158 259.152L143.776 256.123L145.101 249.993Z" fill="#D6F2FF"/>
<path d="M104.29 56.3606C104.162 56.7422 104.059 57.1317 103.981 57.5267C103.812 58.2728 103.315 59.8028 104.402 60.0291C104.911 60.1344 105.459 60.1583 105.977 60.2173C106.146 60.2384 106.445 60.3283 106.605 60.2075C106.754 60.1077 106.767 59.8197 106.794 59.6455C106.884 59.0835 107.075 57.5029 107.144 56.9254C107.179 56.5868 104.838 56.4505 104.29 56.3606Z" fill="#D6F2FF"/>
<path d="M104.768 35.3229C104.338 34.582 103.767 33.933 103.086 33.4133C102.406 32.8935 101.629 32.513 100.802 32.2937C100.505 32.1938 100.188 32.1719 99.88 32.23C99.5725 32.2881 99.285 32.4242 99.0453 32.6254C98.8055 32.8266 98.6214 33.086 98.5107 33.3786C98.4 33.6714 98.3663 33.9877 98.413 34.2972C98.6065 35.7833 98.9506 37.2459 99.4401 38.6625C99.5805 39.0368 99.6423 39.4361 99.6218 39.8354C99.6013 40.2347 99.4987 40.6256 99.3207 40.9836C97.7302 42.4251 95.3867 41.0595 93.5602 41.9404C92.7172 42.3465 92.9813 43.8343 93.5602 44.801C93.7091 45.0511 94.6462 46.3254 94.8162 46.5558C94.9863 46.7863 95.9402 47.552 96.092 46.7848C96.2437 46.0177 94.746 44.69 96.151 44.2558C97.7948 43.7458 100.706 45.592 101.822 43.5084C103.107 41.1086 99.8026 37.7563 100.775 35.1163C101.064 34.5993 101.512 34.8353 101.831 35.1866C102.2 35.587 102.815 37.3095 103.416 37.2589C103.81 37.1096 104.15 36.845 104.391 36.4995C104.632 36.1542 104.764 35.7441 104.768 35.3229Z" fill="#D6F2FF"/>
<path d="M67.4848 65.2708C61.7763 66.2782 41.0202 77.8764 37.4473 80.2692C37.3217 80.5097 37.2524 80.7757 37.2444 81.047C37.2365 81.3183 37.2902 81.5877 37.4015 81.8353C37.5128 82.0829 37.6788 82.3019 37.8871 82.476C38.0953 82.6501 38.3403 82.7746 38.6036 82.8403C40.0061 82.6453 41.3273 82.0662 42.421 81.167C48.6297 77.2554 54.6347 73.0643 61.0274 69.4464C65.9547 66.6575 66.476 66.4692 67.5649 65.6698C67.6337 65.6178 67.9063 65.4492 67.874 65.32C67.8416 65.1907 67.555 65.2581 67.4848 65.2708Z" fill="#007BB5"/>
<path d="M43.0981 66.6534C46.8987 68.9085 51.6518 62.9063 50.1442 55.4907C49.4417 52.0316 48.5861 51.7295 48.9584 50.1882C49.3536 49.5529 49.9294 49.0501 50.6121 48.7439C50.9983 48.4746 51.4251 48.2692 51.8766 48.1355C52.9626 47.8967 52.558 50.0196 52.5454 50.5676C52.284 61.5182 58.001 64.5389 61.5247 61.5603C67.3147 56.6653 64.2223 44.6525 59.1362 43.3628C55.8064 42.5198 51.9918 44.8844 49.2 46.4116C48.0072 47.0649 45.6384 48.5739 45.0946 49.8201C44.6731 51.0242 46.4322 50.6477 46.938 52.4615C47.545 54.6393 48.6001 57.2638 48.2137 59.4374C47.6728 62.4764 46.7596 63.0482 46.0908 63.4037C45.1466 63.9067 43.5801 62.9161 42.9815 62.0282C42.449 61.1154 42.1512 60.0846 42.1146 59.0285C42.0198 55.7525 42.5506 52.4884 43.6784 49.4113C44.2404 47.8517 44.4708 47.7618 44.194 47.544C44.1401 47.5013 44.0732 47.4781 44.0044 47.4781C43.9355 47.4781 43.8688 47.5013 43.8147 47.544C39.3805 51.0565 38.4462 57.365 40.2699 62.645C40.7057 64.2751 41.7086 65.6964 43.0981 66.6534ZM56.4133 49.1556C56.6817 48.3519 57.3097 46.4116 58.9142 46.5015C59.8317 46.7109 60.2251 48.0653 60.4386 48.8338C61.1638 51.4189 61.1846 54.1509 60.4991 56.7468C59.5605 60.286 57.3167 59.9713 56.3136 57.0151C55.487 54.4548 55.522 51.6941 56.4133 49.1556Z" fill="#007BB5"/>
<path d="M59.5722 64.3835C54.789 65.5395 50.2022 67.3934 45.9591 69.8854C44.4572 70.7593 41.2931 72.4453 41.2046 72.5367C40.5471 73.2139 41.3072 74.2227 41.584 74.5037C43.0367 75.9297 47.8854 70.5078 60.4391 64.767C60.7973 64.604 61.6811 64.3455 61.8947 63.9802C62.0267 63.7484 59.8335 64.3146 59.5722 64.3835Z" fill="#007BB5"/>
<path d="M37.6762 73.1843C37.8367 71.6905 37.8503 70.1846 37.717 68.6883C37.4263 63.4694 37.6144 58.2351 38.279 53.0506C38.7005 49.569 39.2119 47.9631 38.6274 47.5107C38.0036 47.026 36.6773 48.4408 36.2951 48.7963C34.0155 50.6207 31.9197 52.6634 30.0372 54.8954C30.0569 54.8448 28.9807 57.645 30.6554 57.3668C31.9199 57.156 33.0735 55.4504 33.9937 54.6664C34.6386 54.1156 35.3594 53.7391 35.4788 54.8743C35.639 60.4718 34.4672 61.0633 35.3594 70.1635C35.4575 71.3995 35.757 72.611 36.2459 73.7505C36.7517 74.8871 37.4669 74.7818 37.6762 73.1843Z" fill="#007BB5"/>
<path d="M182.953 154.801C177.525 153.877 172.021 153.469 166.515 153.585C163.864 153.592 161.218 153.846 158.615 154.345C158.506 154.388 158.391 154.405 158.276 154.395C158.161 154.384 158.048 154.346 157.951 154.284C157.853 154.223 157.772 154.138 157.714 154.038C157.655 153.939 157.621 153.826 157.614 153.71C157.614 153.028 157.795 153.007 160.822 152.537C168.244 151.841 175.726 152.133 183.071 153.406C183.246 153.436 183.402 153.53 183.51 153.669C183.618 153.808 183.669 153.984 183.655 154.159C183.639 154.335 183.559 154.498 183.43 154.617C183.299 154.737 183.129 154.803 182.953 154.801Z" fill="#007BB5"/>
<path d="M180.229 158.238C179.704 158.425 179.232 158.737 178.854 159.146C178.476 159.556 178.205 160.052 178.061 160.59C178.03 160.951 178.078 161.315 178.2 161.655C178.323 161.996 178.518 162.307 178.771 162.566C179.025 162.824 179.331 163.025 179.669 163.154C180.007 163.283 180.37 163.338 180.731 163.314C181.504 163.334 182.258 163.083 182.862 162.602C183.468 162.122 183.885 161.444 184.041 160.687C184.027 160.242 183.905 159.807 183.684 159.42C183.465 159.032 183.153 158.703 182.778 158.461C182.403 158.221 181.976 158.075 181.532 158.036C181.088 157.996 180.641 158.067 180.229 158.238ZM182.64 160.583C182.543 160.868 182.38 161.127 182.164 161.338C181.948 161.547 181.686 161.703 181.398 161.793C181.11 161.881 180.805 161.901 180.509 161.85C180.211 161.8 179.931 161.679 179.69 161.498C179.593 161.42 179.52 161.318 179.475 161.203C179.431 161.086 179.419 160.961 179.438 160.837C179.528 160.563 179.677 160.312 179.875 160.1C180.073 159.889 180.314 159.723 180.582 159.614C180.777 159.515 180.994 159.463 181.213 159.46C181.432 159.458 181.648 159.504 181.848 159.597C182.046 159.691 182.22 159.829 182.358 159.999C182.496 160.17 182.591 160.369 182.64 160.583Z" fill="#007BB5"/>
<path d="M244.972 109.682C244.929 109.6 244.872 109.526 244.803 109.466C244.733 109.406 244.651 109.36 244.564 109.331C244.476 109.302 244.383 109.291 244.292 109.298C244.199 109.305 244.11 109.33 244.027 109.372C240.498 111.244 237.32 113.716 234.638 116.678C233.452 116.037 232.3 115.338 231.184 114.583C213.83 104.397 215.205 104.88 214.676 105.071C214.532 105.121 214.409 105.215 214.321 105.339C214.234 105.464 214.189 105.612 214.194 105.764C214.196 105.916 214.247 106.062 214.338 106.183C214.431 106.304 214.559 106.393 214.704 106.437C214.844 106.548 233.531 117.67 233.671 117.747C227.635 124.963 222.957 133.214 219.866 142.1C219.613 143.21 219.288 144.303 218.895 145.372C218.834 145.545 218.846 145.736 218.924 145.902C219.003 146.068 219.143 146.197 219.315 146.26C219.488 146.324 219.679 146.318 219.846 146.242C220.013 146.168 220.145 146.029 220.213 145.859C220.617 144.761 220.952 143.64 221.21 142.501C225.532 130.771 233.562 116.234 244.667 110.624C244.831 110.539 244.956 110.392 245.012 110.216C245.07 110.039 245.054 109.848 244.972 109.682Z" fill="#007BB5"/>
<path d="M194.632 53.5498C194.336 53.3018 194.017 53.0816 193.681 52.8922C193.962 52.2178 194.278 51.5519 194.611 50.9013C194.653 50.8191 194.678 50.7295 194.685 50.6375C194.692 50.5455 194.683 50.4529 194.653 50.3652C194.625 50.2774 194.58 50.196 194.52 50.1258C194.459 50.0555 194.386 49.9978 194.305 49.9558C194.222 49.9138 194.133 49.8885 194.04 49.8812C193.949 49.8737 193.856 49.8847 193.768 49.9131C193.681 49.9416 193.599 49.987 193.529 50.0468C193.459 50.1068 193.401 50.1799 193.359 50.2621C192.797 51.3608 190.532 56.1406 191.252 57.1353C191.346 57.2895 191.495 57.4023 191.669 57.4509C191.843 57.4994 192.029 57.4803 192.189 57.3972C192.349 57.3142 192.472 57.1734 192.533 57.0033C192.593 56.8333 192.588 56.6464 192.516 56.4806C192.648 55.7053 192.866 54.9468 193.164 54.2185C193.764 54.5979 193.842 54.8016 194.206 54.8016C194.351 54.7991 194.491 54.752 194.608 54.6669C194.725 54.5816 194.813 54.4623 194.86 54.3255C194.906 54.1885 194.909 54.0404 194.868 53.9016C194.827 53.7628 194.744 53.64 194.632 53.5498Z" fill="#007BB5"/>
<path d="M202.499 89.9835C200.081 83.4137 195.981 68.5797 195.814 62.2263C195.78 60.5951 197.411 59.0903 198.153 57.3439C199.26 54.6317 199.424 51.6265 198.619 48.8099C196.777 42.0842 191.072 42.8738 188.989 48.8971C187.485 48.196 186.251 47.0221 185.477 45.5546C183.053 41.5284 181.515 37.0325 180.964 32.3658C180.148 26.4128 180.595 26.0602 179.829 25.4237C178.019 23.9906 176.663 29.7905 170.703 33.1765C169.324 33.8509 168.635 33.7652 168.291 33.5713C166.774 32.7353 168.861 27.0535 169.607 25.4223C170.238 24.0384 171.234 22.5449 170.573 21.8339C170.5 21.7595 170.411 21.7003 170.316 21.6597C170.219 21.6193 170.115 21.5982 170.011 21.5979C169.647 21.5979 169.378 21.796 168.485 22.906C164.66 27.6633 153.668 43.3712 152.749 36.675C152.353 33.768 153.554 30.1529 154.509 27.3753C155.184 25.4209 155.528 24.6158 155.192 24.0805C155.06 23.8902 154.858 23.7595 154.63 23.7166C153.203 23.5284 153.902 24.481 134.719 41.7006C133.524 42.7741 131.55 44.5949 130.272 44.2535C129.056 43.9276 128.171 40.9574 128.455 39.9275C129.648 35.6043 131.019 30.2569 133.34 26.5028C133.694 25.9225 135.47 24.03 137.103 24.2815C137.852 24.3967 138.586 23.1575 137.513 22.913C135.125 22.351 132.747 24.776 132.143 25.7679C129.725 29.6795 128.35 35.0409 127.101 39.5524C126.903 41.0678 127.212 42.6062 127.98 43.9276C129.771 47.0635 132.542 45.5447 135.189 43.1703C136.115 52.1131 137.297 54.5943 140.059 59.3474C142.086 62.3113 143.34 65.7361 143.703 69.3089C144.036 72.1276 144.965 74.8432 146.428 77.2752C148.292 79.6467 150.585 81.6483 153.186 83.1762C158.207 86.2124 164.044 90.2012 169.928 90.8222C171.277 95.5512 171.891 100.46 171.746 105.375C171.744 105.467 171.76 105.559 171.794 105.645C171.827 105.731 171.878 105.81 171.941 105.876C172.006 105.943 172.082 105.996 172.166 106.033C172.252 106.07 172.342 106.09 172.434 106.092C172.527 106.094 172.618 106.077 172.704 106.044C172.79 106.01 172.868 105.96 172.935 105.896C173.002 105.832 173.055 105.756 173.092 105.671C173.128 105.587 173.149 105.496 173.151 105.403C173.28 100.518 172.698 95.6394 171.421 90.922C173.117 90.9414 174.798 90.6133 176.361 89.9582C184.076 86.6733 190.012 78.9303 194.004 66.9401C194.06 66.764 194.045 66.5729 193.96 66.4084C193.876 66.2439 193.731 66.119 193.556 66.0608C193.38 66.0026 193.189 66.0159 193.023 66.0975C192.857 66.1792 192.731 66.323 192.671 66.4975C188.812 78.0873 183.139 85.5465 175.811 88.6628C169.008 91.5585 160.833 86.4148 154.655 82.4639C151.919 80.9731 149.513 78.9426 147.583 76.4955C144.188 70.7785 145.884 68.2411 143.389 62.5536C142.005 59.398 139.335 56.144 138.207 52.1988C137.345 48.8726 136.753 45.4819 136.438 42.0603C142.73 36.6651 148.079 31.4273 153.426 26.2035C152.302 29.5137 150.886 33.4196 151.355 36.8688C151.621 38.8077 152.875 40.1116 154.769 39.5931C156.641 38.8659 158.293 37.6694 159.569 36.1186C161.942 33.5705 164.172 30.8937 166.25 28.1002C169.182 24.1859 167.001 26.2737 166.366 31.6127C166.172 35.0044 168.346 35.9036 171.36 34.4227C175.681 31.9724 177.286 28.9952 178.996 27.0423C179.072 28.6117 179.378 31.2854 179.575 32.5597C180.111 37.4327 181.72 42.1264 184.287 46.3034C185.228 48.0741 186.75 49.4678 188.596 50.2515C188.34 51.3137 187.946 53.2259 189.018 53.3495C189.417 53.393 189.986 53.1261 189.72 52.1496C189.869 49.5588 191.492 45.5335 194.129 45.4759C195.791 45.4393 196.832 47.5834 197.275 49.1949C197.994 51.7073 197.849 54.3884 196.863 56.8086C196.161 58.4707 194.371 60.0401 194.416 62.2628C194.616 65.5189 195.129 68.7483 195.946 71.9067C197.256 78.2103 199.007 84.414 201.186 90.4724C201.219 90.5589 201.266 90.6385 201.33 90.7063C201.391 90.7742 201.467 90.8291 201.55 90.8678C201.634 90.9065 201.726 90.9285 201.817 90.9321C201.91 90.9359 202.001 90.9214 202.088 90.8897C202.175 90.8578 202.254 90.8092 202.323 90.7467C202.39 90.6841 202.445 90.6088 202.483 90.5251C202.522 90.4414 202.545 90.3507 202.548 90.2586C202.552 90.1663 202.538 90.0742 202.506 89.9877L202.499 89.9835Z" fill="#007BB5"/>
<path d="M185.807 107.576C185.916 107.461 185.984 107.312 185.999 107.154C193.966 103.892 200.954 98.6247 206.285 91.8638C207.128 91.0076 207.808 90.0043 208.291 88.9035C208.354 88.735 208.35 88.5487 208.28 88.3831C208.211 88.2173 208.079 88.0847 207.914 88.0127C207.75 87.9407 207.563 87.9345 207.395 87.9957C207.225 88.0569 207.086 88.1806 207.005 88.3415C206.578 89.3063 205.978 90.1853 205.237 90.9351C192.318 107.015 170.617 113.823 161.822 102.982C161.703 102.843 161.534 102.757 161.353 102.741C161.17 102.725 160.989 102.78 160.847 102.895C160.705 103.01 160.614 103.176 160.593 103.358C160.572 103.539 160.621 103.721 160.732 103.867C164.14 108.069 169.097 109.742 174.509 109.627C174.492 110.822 174.658 112.012 175.001 113.157C171.768 113.241 168.553 112.648 165.564 111.416C162.574 110.184 159.875 108.341 157.641 106.004C157.578 105.936 157.503 105.881 157.419 105.842C157.334 105.804 157.245 105.782 157.152 105.778C157.061 105.775 156.968 105.789 156.881 105.821C156.795 105.853 156.715 105.902 156.647 105.964C156.58 106.027 156.525 106.102 156.486 106.186C156.448 106.27 156.425 106.361 156.421 106.453C156.418 106.545 156.432 106.637 156.465 106.724C156.497 106.81 156.545 106.89 156.608 106.958C159.001 109.464 161.895 111.436 165.104 112.746C168.312 114.056 171.76 114.674 175.223 114.559C175.448 115.964 175.962 118.928 175.977 119.007C175.328 119.833 174.667 120.654 173.999 121.459C173.88 121.602 173.822 121.787 173.84 121.973C173.857 122.158 173.947 122.329 174.091 122.448C174.234 122.568 174.419 122.625 174.605 122.607C174.79 122.59 174.962 122.5 175.081 122.357C175.496 121.855 175.909 121.35 176.317 120.839L176.583 122.244C176.597 122.338 176.629 122.427 176.679 122.508C176.728 122.588 176.794 122.658 176.871 122.713C176.947 122.768 177.035 122.806 177.127 122.827C177.219 122.847 177.315 122.848 177.408 122.831C177.5 122.813 177.589 122.777 177.668 122.725C177.746 122.672 177.814 122.605 177.866 122.525C177.916 122.446 177.953 122.358 177.968 122.265C177.985 122.172 177.984 122.076 177.963 121.984C177.963 121.984 177.62 120.172 177.472 119.375C179.373 116.932 180.627 115.226 181.767 113.602C191.531 110.943 200.245 105.357 206.736 97.5948C206.796 97.5243 206.841 97.4427 206.869 97.3544C206.897 97.2663 206.909 97.1733 206.901 97.081C206.893 96.9887 206.868 96.8989 206.826 96.8166C206.782 96.7343 206.724 96.6612 206.653 96.6016C206.583 96.5419 206.501 96.4968 206.413 96.469C206.324 96.4412 206.231 96.4311 206.139 96.4392C206.046 96.4475 205.957 96.4738 205.874 96.5169C205.793 96.5599 205.72 96.6188 205.661 96.69C199.722 103.779 191.874 109.015 183.047 111.777C183.845 110.3 184.769 108.895 185.807 107.576ZM177.146 117.502C176.972 116.491 176.799 115.476 176.636 114.463C177.559 114.373 178.387 114.296 179.727 114.053C178.358 115.95 177.396 117.178 177.146 117.502ZM176.409 113.072C176.358 112.707 176.285 112.345 176.19 111.989C175.616 109.626 175.969 110.022 175.961 109.557C178.598 109.332 181.201 108.802 183.716 107.976C182.393 109.953 182.664 109.994 180.927 112.368C179.441 112.716 177.93 112.951 176.409 113.072Z" fill="#007BB5"/>
<path d="M243.05 228.093C240.41 222.333 235.463 216.843 228.332 211.781C228.332 211.69 228.175 209.463 228.192 208.728C228.332 202.177 229.48 195.915 229.443 195.177C229.512 195.065 229.549 194.935 229.549 194.803C229.547 194.671 229.51 194.542 229.439 194.431C229.369 194.318 229.268 194.23 229.148 194.172C229.029 194.116 228.896 194.094 228.765 194.109C228.565 194.119 228.377 194.205 228.237 194.347C228.145 194.473 228.081 194.616 228.047 194.768C228.013 194.92 228.01 195.077 228.04 195.23C228.061 195.611 226.923 202.628 226.787 208.694C226.774 209.203 226.684 209.929 226.705 210.661C219.649 205.953 213.941 204.329 210.331 194.954C209.258 192.167 208.345 187.114 205.254 180.482C202.774 175.211 198.865 171.069 196.432 165.94C195.539 164.06 194.491 159.963 192.113 158.966C188.038 157.25 186.182 166.296 192.77 177.773C189.217 176.948 185.74 175.829 182.373 174.424C176.402 171.903 168.96 163.324 164.811 166.192C164.354 166.5 163.975 166.91 163.705 167.39C163.437 167.871 163.283 168.407 163.26 168.958C163.237 169.508 163.342 170.057 163.57 170.559C163.798 171.06 164.139 171.501 164.569 171.846C165.752 172.94 167.021 173.939 168.363 174.831C170.667 176.42 172.804 178.238 174.741 180.257C172.752 180.073 170.765 179.709 168.937 179.465C161.325 178.448 159.82 176.08 156.264 174.346C155.736 174.015 155.146 173.79 154.53 173.687C153.913 173.585 153.284 173.606 152.676 173.748C151.646 174.19 150.81 174.989 150.321 175.996C150.009 176.625 149.913 177.34 150.05 178.029C150.187 178.719 150.549 179.343 151.078 179.803C150.561 180.651 150.322 181.638 150.398 182.627C150.474 183.617 150.859 184.557 151.5 185.314C152.75 186.914 154.112 188.425 155.574 189.834C156.285 191.879 156.839 193.976 157.231 196.106C157.881 199.056 158.002 203.284 160.051 205.96C161.433 207.412 163.326 208.266 165.328 208.342C169.9 208.831 174.502 208.971 179.097 208.763C181.394 208.744 185.7 209.283 187.478 207.516C187.868 207.135 188.115 206.631 188.18 206.088C190.229 206.24 192.158 207.103 193.637 208.527C193.772 208.657 193.952 208.727 194.139 208.724C194.324 208.72 194.503 208.642 194.63 208.508C194.76 208.373 194.83 208.193 194.827 208.006C194.823 207.819 194.746 207.642 194.611 207.513C189.834 202.927 183.872 205.293 178.247 204.562C173.779 204 171.386 200.151 165.87 195.299C168.36 195.953 170.755 196.916 173.003 198.17C173.083 198.217 173.173 198.25 173.266 198.262C173.359 198.275 173.454 198.268 173.544 198.244C173.635 198.22 173.72 198.178 173.794 198.119C173.867 198.061 173.929 197.99 173.975 197.908C174.02 197.827 174.05 197.735 174.06 197.643C174.07 197.55 174.061 197.454 174.034 197.365C174.008 197.275 173.963 197.192 173.904 197.119C173.843 197.047 173.77 196.987 173.687 196.943C167.705 193.605 165.339 194.133 160.999 192.468C158.966 191.649 154.058 186.375 152.618 184.46C152.191 183.955 151.918 183.338 151.831 182.684C151.746 182.029 151.85 181.363 152.131 180.764C152.908 181.397 153.71 181.987 154.492 182.507C156.749 184.361 159.213 185.946 161.836 187.23C165.887 189.05 167.68 188.028 175.626 194.396C175.698 194.453 175.781 194.497 175.869 194.522C175.958 194.549 176.051 194.557 176.142 194.546C176.235 194.536 176.323 194.508 176.405 194.465C176.485 194.42 176.556 194.361 176.614 194.288C176.672 194.216 176.715 194.133 176.741 194.045C176.766 193.956 176.774 193.863 176.764 193.772C176.755 193.681 176.726 193.591 176.682 193.511C176.638 193.429 176.578 193.357 176.506 193.3C165.288 184.308 165.218 189.478 155.328 181.374C154.329 180.705 153.37 179.979 152.455 179.199C151.147 177.942 151.296 177.173 151.576 176.639C151.903 175.98 152.428 175.44 153.079 175.094C153.974 174.922 154.901 175.108 155.66 175.612C159.371 177.468 160.773 179.792 168.76 180.86C170.938 181.151 173.397 181.599 175.823 181.755C175.972 181.763 176.12 181.725 176.245 181.644L176.429 181.808C176.583 182.129 176.797 182.116 176.999 182.262C182.911 185.644 182.619 186.979 183.497 186.979C183.635 186.979 183.768 186.939 183.884 186.864C183.997 186.789 184.087 186.682 184.142 186.556C184.197 186.431 184.214 186.292 184.19 186.157C184.166 186.022 184.104 185.896 184.01 185.796C182.255 183.962 180.225 182.415 177.992 181.21C176.835 180.533 174.162 177.557 171.539 175.421C169.603 173.876 167.272 172.517 165.562 170.845C165.283 170.646 165.057 170.38 164.902 170.072C164.747 169.766 164.67 169.426 164.676 169.083C164.681 168.739 164.77 168.402 164.934 168.1C165.099 167.799 165.335 167.541 165.62 167.35C166.938 166.435 168.909 167.543 170.441 168.403C174.375 170.587 177.557 173.914 181.845 175.723C185.654 177.357 189.624 178.581 193.692 179.376C194.095 179.486 194.512 179.528 194.93 179.503C195.076 179.567 195.239 179.583 195.393 179.546C195.549 179.51 195.687 179.423 195.788 179.299C195.889 179.175 195.947 179.022 195.953 178.864C195.958 178.703 195.912 178.547 195.819 178.417C195.697 178.272 195.534 178.165 195.351 178.112C195.17 178.057 194.975 178.058 194.793 178.113L194.48 178.072C192.07 173.985 188.794 166.189 190.133 161.597C190.226 161.052 190.519 160.562 190.955 160.222C191.055 160.183 191.163 160.164 191.271 160.173C191.379 160.18 191.483 160.211 191.577 160.264C193.284 160.981 194.372 164.863 195.171 166.546C197.633 171.744 201.61 176.02 203.989 181.082C207.361 188.33 207.207 190.733 209.029 195.465C212.886 205.48 219.267 207.267 226.3 212.083C232.549 216.362 238.615 221.778 241.779 228.685C241.816 228.772 241.869 228.849 241.937 228.915C242.004 228.98 242.084 229.03 242.171 229.064C242.26 229.098 242.353 229.115 242.447 229.112C242.541 229.109 242.632 229.087 242.718 229.049C242.804 229.009 242.879 228.953 242.943 228.884C243.006 228.815 243.055 228.734 243.087 228.645C243.118 228.557 243.132 228.464 243.127 228.37C243.121 228.276 243.097 228.185 243.057 228.1L243.05 228.093ZM162.991 194.602C163.09 194.932 163.694 195.319 164.622 196.078C166.308 197.473 167.793 198.99 169.301 200.485C174.879 206.015 176.618 206.254 183.15 206.046C184.335 206.008 185.556 205.969 186.76 206.015C186.338 207.927 180.509 207.332 179.077 207.353C174.55 207.572 170.013 207.434 165.508 206.941C163.875 206.9 162.318 206.241 161.152 205.096C159.172 202.511 159.594 199.358 157.706 192.013C159.188 193.357 161.02 194.255 162.991 194.602Z" fill="#007BB5"/>
<path d="M135.793 150.064C135.127 150.505 134.902 151.872 134.828 155.914C134.784 158.328 134.321 160.663 133.398 175.243C132.792 185.047 132.605 195.145 131.443 204.977C130.881 204.453 128.505 202.618 128.365 202.517C130.332 195.081 128.906 187.704 127.459 179.896C122.842 154.973 123.404 157.399 122.541 154.137C120.644 147.029 120.855 145.961 122.373 142.917C125.021 137.592 128.912 132.496 130.021 126.564C130.323 124.079 130.147 121.56 129.503 119.141C129.734 119.379 130.011 119.568 130.317 119.695C130.624 119.823 130.953 119.886 131.285 119.882C132.574 119.882 133.229 118.598 133.481 118.102C134.298 116.233 134.845 114.258 135.106 112.236C135.428 110.244 135.036 108.382 133.235 107.436C133.194 104.012 133.065 101.114 129.631 101.021C128.987 96.8876 126.798 94.7618 122.801 95.8128C122.961 92.7218 118.659 90.1127 115.969 90.6873C112.175 91.4994 108.101 95.3112 105.544 98.6087C99.6679 106.196 105.066 114.499 106.933 122.019C108.306 127.584 106.114 132.362 106.294 140.722C106.298 140.909 106.376 141.086 106.51 141.214C106.645 141.343 106.825 141.413 107.012 141.409C107.198 141.405 107.375 141.328 107.504 141.193C107.633 141.058 107.703 140.878 107.699 140.691C107.636 137.694 107.845 134.697 108.321 131.737C109.271 124.337 108.821 122.69 106.616 116.336C104.545 110.364 102.586 104.725 106.655 99.4756C109.057 96.3748 112.837 92.8018 116.261 92.0684C118.368 91.6188 122.162 94.1268 121.257 96.372C118.572 97.5297 116.063 99.0603 113.805 100.919C112.845 101.733 112.599 102.1 112.708 102.555C112.743 102.718 112.834 102.863 112.964 102.967C113.094 103.07 113.256 103.126 113.423 103.123C113.589 103.121 113.749 103.062 113.877 102.955C114.004 102.848 114.091 102.7 114.122 102.537C116.618 100.306 119.497 98.5445 122.62 97.3386C126.002 96.1317 127.661 97.666 128.227 101.169C126.531 101.45 120.023 103.168 118.847 104.24C117.672 104.484 118.509 106.637 119.879 105.194C122.819 103.908 125.907 102.991 129.072 102.463C129.753 102.345 130.453 102.496 131.025 102.884C131.768 103.509 131.806 105.885 131.818 106.959C129.361 106.681 126.873 107.033 124.588 107.98C124.14 108.177 123.582 108.421 123.691 109.021C123.719 109.156 123.784 109.281 123.88 109.381C123.975 109.481 124.097 109.552 124.231 109.585C124.365 109.619 124.506 109.615 124.637 109.572C124.769 109.53 124.886 109.452 124.975 109.346C126.942 108.427 131.752 107.45 133.242 109.205C133.519 109.613 133.704 110.076 133.786 110.563C133.867 111.049 133.842 111.548 133.712 112.024C133.526 113.277 133.254 114.516 132.897 115.731C132.705 116.375 131.944 118.584 131.268 118.48C129.888 118.48 129 115.352 128.904 114.124C128.876 113.742 128.833 113.141 128.22 113.101C128.025 113.093 127.833 113.16 127.686 113.289C127.539 113.418 127.447 113.599 127.429 113.794C127.159 117.472 129.396 122.206 128.635 126.298C127.581 131.93 123.768 136.948 121.128 142.248C119.723 145.078 118.784 145.516 121.177 154.491C122.045 157.745 121.492 155.392 126.079 180.152C127.831 189.612 129.52 198.417 125.129 207.096C125.052 207.261 125.042 207.45 125.102 207.623C125.161 207.795 125.286 207.939 125.449 208.02C125.612 208.103 125.8 208.118 125.974 208.064C126.149 208.01 126.295 207.889 126.383 207.729C126.998 206.514 127.519 205.252 127.941 203.957C129.123 204.779 130.222 205.716 131.22 206.754C131.134 207.394 130.665 210.49 130.665 210.49C129.769 215.925 126.183 221.386 126.412 227.218C126.85 233.455 129.984 237.574 131.633 242.941C131.688 243.12 131.811 243.269 131.976 243.356C132.14 243.443 132.333 243.461 132.511 243.406C132.689 243.352 132.838 243.228 132.925 243.064C133.013 242.899 133.031 242.707 132.976 242.528C132.24 240.133 131.418 238.533 129.481 233.883C126.767 227.373 127.654 224.068 130.007 217.601C131.44 214.077 132.335 210.358 132.663 206.569C133.989 196.246 134.163 185.648 134.8 175.329C135.188 169.197 136.225 156.396 136.233 155.94C136.155 154.341 136.293 152.74 136.643 151.178C136.776 151.06 136.86 150.897 136.877 150.72C136.895 150.543 136.844 150.367 136.737 150.225C136.629 150.085 136.472 149.989 136.297 149.96C136.122 149.929 135.942 149.967 135.793 150.064Z" fill="#007BB5"/>
<path d="M101.539 191.566C101.198 191.566 101.608 191.872 94.8965 186.186C94.2924 185.669 92.0514 184.468 92.0177 183.34C91.96 181.345 94.2867 178.238 94.9541 176.683C96.0851 174.044 101.277 162.238 102.682 158.938C103.291 157.486 105.572 154.039 105.44 152.483C105.432 152.39 105.442 152.298 105.471 152.211C105.499 152.122 105.544 152.041 105.604 151.969C105.663 151.899 105.737 151.84 105.819 151.798C105.901 151.755 105.991 151.73 106.083 151.722C106.175 151.715 106.268 151.724 106.357 151.753C106.445 151.781 106.527 151.826 106.597 151.886C106.668 151.945 106.726 152.018 106.769 152.101C106.811 152.184 106.837 152.272 106.845 152.365C107.026 154.495 104.705 157.766 103.983 159.483C102.586 162.79 97.3791 174.602 96.2551 177.236C95.6355 178.682 93.3903 181.855 93.4325 183.298C94.1927 183.952 94.9904 184.562 95.821 185.124C96.8705 186.013 102.003 190.332 102.003 190.332C102.112 190.427 102.189 190.552 102.224 190.691C102.259 190.83 102.251 190.976 102.201 191.111C102.15 191.246 102.06 191.361 101.942 191.442C101.823 191.524 101.683 191.567 101.539 191.566Z" fill="#007BB5"/>
<path d="M156.439 71.586C154.814 71.586 153.683 70.5857 153.697 68.474C153.728 64.332 156.95 61.2523 155.945 57.3225C155.923 57.2331 155.917 57.1401 155.93 57.0488C155.944 56.9575 155.975 56.8695 156.021 56.7901C156.069 56.7107 156.131 56.6413 156.204 56.5861C156.278 56.5308 156.363 56.4904 156.451 56.4675C156.541 56.4446 156.634 56.4396 156.725 56.4526C156.816 56.4658 156.905 56.4968 156.984 56.5437C157.064 56.5907 157.133 56.653 157.189 56.7269C157.244 56.8007 157.284 56.8847 157.307 56.974C158.465 61.4827 155.135 64.6678 155.107 68.4852C155.098 69.7722 155.615 69.9942 155.785 70.0658C157.103 70.6363 160.079 69.0458 161.193 67.9738C161.329 67.856 161.505 67.7948 161.685 67.8029C161.865 67.8109 162.035 67.8877 162.158 68.0172C162.283 68.1467 162.354 68.3191 162.355 68.499C162.356 68.679 162.289 68.8525 162.167 68.984C160.58 70.4351 158.576 71.3461 156.439 71.586Z" fill="#007BB5"/>
<path d="M164.635 66.0132C164.451 66.0133 164.276 65.9415 164.145 65.8134C164.013 65.6854 163.937 65.5109 163.933 65.3275C163.92 64.7827 163.839 64.2418 163.69 63.7174C163.67 63.7006 163.416 63.272 163.343 63.1554C162.758 62.3616 164.173 61.0367 165.029 63.2762C165.221 63.9324 165.326 64.6106 165.343 65.2938C165.346 65.388 165.329 65.4817 165.294 65.5692C165.259 65.6567 165.208 65.7364 165.142 65.8036C165.075 65.8707 164.996 65.9238 164.909 65.9598C164.823 65.9959 164.729 66.014 164.635 66.0132Z" fill="#007BB5"/>
<path d="M174.911 70.5381C173.571 70.6273 172.271 71.0328 171.118 71.7211C168.128 73.0817 165.22 74.6134 162.407 76.3084C162.279 76.3972 162.179 76.5202 162.119 76.663C162.057 76.8059 162.037 76.9632 162.061 77.1166C162.086 77.2701 162.152 77.4139 162.254 77.5312C162.356 77.6487 162.488 77.7352 162.637 77.7809C163.91 78.5193 165.3 79.0375 166.745 79.3137C169.147 79.6246 171.58 79.0546 173.593 77.7092C174.939 76.4737 175.954 74.9207 176.544 73.1921C176.902 71.8321 176.378 70.6196 174.911 70.5381ZM175.202 72.7861C175.161 72.9041 175.118 73.0207 175.071 73.1373C174.546 73.3621 170.997 74.8233 170.502 74.9371C169.187 75.2308 169.707 76.4082 170.448 76.4082C171.671 76.0447 172.87 75.6031 174.037 75.0861C173.678 75.6066 173.267 76.0912 172.815 76.5332C171.118 77.6888 169.058 78.1882 167.021 77.9382C165.994 77.7675 165.002 77.4357 164.079 76.9547C166.702 75.4162 168.96 74.2937 171.778 72.9673C172.732 72.3851 173.808 72.0322 174.922 71.9361C175.109 71.9487 175.153 72.0105 175.17 72.033C175.275 72.2685 175.286 72.535 175.203 72.7791L175.202 72.7861Z" fill="#007BB5"/>
<path d="M171.094 81.32C170.137 81.32 170.053 79.6817 171.418 79.877C172.819 79.6697 174.133 79.0662 175.203 78.1376C175.343 78.0144 175.527 77.9519 175.712 77.9638C175.899 77.9756 176.072 78.0609 176.195 78.2009C176.318 78.3408 176.381 78.5239 176.37 78.7099C176.357 78.8959 176.271 79.0696 176.132 79.1928C174.719 80.4159 172.955 81.1605 171.094 81.32Z" fill="#007BB5"/>
<path d="M166.29 51.4232C166.137 51.4228 165.99 51.3728 165.867 51.2806C165.747 51.1883 165.658 51.0591 165.616 50.9122C165.575 50.7654 165.582 50.609 165.637 50.4667C165.693 50.3245 165.793 50.2041 165.922 50.1236C166.491 49.7724 167.327 48.8099 168.09 48.2971C170.557 46.5225 173.622 45.7815 176.627 46.2318C176.72 46.2427 176.811 46.2722 176.892 46.3187C176.974 46.3651 177.046 46.4273 177.103 46.502C177.159 46.5766 177.202 46.6618 177.225 46.7527C177.249 46.8438 177.254 46.9385 177.241 47.0315C177.227 47.1245 177.195 47.2137 177.145 47.2941C177.098 47.3745 177.033 47.4441 176.957 47.4992C176.88 47.5542 176.794 47.5934 176.703 47.6143C176.61 47.6354 176.516 47.6378 176.423 47.6213C173.771 47.2231 171.067 47.8787 168.892 49.4478C167.982 50.059 166.946 51.4232 166.29 51.4232Z" fill="#007BB5"/>
<path d="M144.012 60.7865C142.443 59.8283 147.061 55.1567 153.417 56.4914C153.512 56.505 153.603 56.5378 153.684 56.5878C153.766 56.638 153.838 56.7041 153.892 56.7824C153.947 56.8608 153.986 56.9494 154.005 57.0432C154.024 57.137 154.026 57.2337 154.006 57.3275C153.986 57.4214 153.949 57.5103 153.894 57.5887C153.839 57.6673 153.769 57.7339 153.687 57.7842C153.606 57.8346 153.514 57.8678 153.42 57.8818C153.326 57.8957 153.229 57.8902 153.136 57.8655C149.502 57.1068 146.147 58.6439 145.101 60.2681C145.086 60.3732 145.045 60.4732 144.985 60.5603C144.882 60.7146 144.723 60.8237 144.543 60.8659C144.362 60.9079 144.173 60.8795 144.012 60.7865Z" fill="#007BB5"/>
<path d="M162.015 45.7939C161.876 45.7768 161.745 45.7197 161.638 45.6294C161.53 45.5392 161.453 45.4196 161.412 45.2856C161.371 45.1514 161.371 45.0085 161.411 44.8742C161.451 44.7399 161.529 44.62 161.635 44.5294C161.804 44.3791 161.558 44.653 163.486 43.2059C167.636 40.0524 171.576 36.6294 175.278 32.9592C175.414 32.8321 175.596 32.7643 175.782 32.7709C175.968 32.7776 176.145 32.8579 176.271 32.9943C176.398 33.1306 176.467 33.3119 176.46 33.4982C176.453 33.6845 176.373 33.8605 176.236 33.9877C172.091 38.1334 167.625 41.9439 162.879 45.3836C162.636 45.6008 162.337 45.7433 162.015 45.7939Z" fill="#007BB5"/>
<path d="M151.849 48.7547C148.522 49.0902 145.163 48.88 141.905 48.1322C141.18 48.0758 140.465 47.9343 139.773 47.7107C139.672 47.5683 139.521 47.4688 139.35 47.4319C139.179 47.3949 139 47.4231 138.849 47.5111C138.697 47.5989 138.584 47.7401 138.532 47.907C138.479 48.0738 138.49 48.2543 138.564 48.4132C138.88 49.0708 139.84 49.297 141.735 49.526C145.104 50.2903 148.576 50.4987 152.012 50.1428C152.182 50.105 152.331 50.0055 152.433 49.8638C152.534 49.722 152.577 49.5478 152.558 49.3751C152.538 49.2024 152.454 49.0434 152.323 48.9287C152.192 48.8141 152.024 48.752 151.849 48.7547Z" fill="#007BB5"/>
<path d="M226.226 178.189C226.118 178.19 226.011 178.165 225.914 178.117C225.817 178.07 225.733 177.999 225.667 177.914C225.602 177.828 225.557 177.728 225.536 177.623C225.515 177.516 225.519 177.408 225.547 177.302C228.675 165.999 232.457 154.886 236.877 144.021C237.511 142.509 237.677 142.272 238.018 142.14C238.178 142.059 238.362 142.044 238.534 142.095C238.707 142.147 238.851 142.26 238.941 142.416C239.031 142.571 239.058 142.755 239.017 142.929C238.976 143.103 238.87 143.255 238.721 143.353C234.024 154.518 230.076 165.981 226.905 177.669C226.864 177.82 226.775 177.95 226.653 178.044C226.531 178.138 226.381 178.189 226.226 178.189Z" fill="#007BB5"/>
<path d="M224.113 170.005C224.016 170.005 223.919 169.985 223.83 169.947C223.74 169.908 223.66 169.85 223.594 169.78C223.528 169.708 223.478 169.624 223.447 169.531C223.414 169.44 223.402 169.342 223.41 169.245C224.078 161.197 224.201 152.17 226.569 144.352C226.595 144.264 226.639 144.181 226.697 144.109C226.756 144.038 226.827 143.977 226.909 143.934C226.99 143.889 227.08 143.862 227.171 143.852C227.264 143.844 227.357 143.852 227.447 143.879C227.535 143.906 227.617 143.951 227.688 144.01C227.76 144.069 227.819 144.14 227.863 144.223C227.906 144.305 227.933 144.395 227.941 144.486C227.95 144.579 227.941 144.671 227.913 144.76C225.609 152.372 225.473 161.308 224.812 169.36C224.798 169.536 224.718 169.7 224.589 169.819C224.458 169.939 224.288 170.005 224.113 170.005Z" fill="#007BB5"/>
<path d="M130.509 177.553C130.341 177.553 130.178 177.492 130.051 177.383C129.923 177.273 129.84 177.121 129.815 176.954C128.511 168.055 127.374 159.059 124.924 150.934C124.875 150.758 124.898 150.568 124.986 150.408C125.075 150.248 125.223 150.129 125.398 150.075C125.574 150.023 125.763 150.04 125.926 150.124C126.088 150.21 126.211 150.355 126.269 150.528C128.751 158.751 129.878 167.711 131.206 176.748C131.221 176.849 131.214 176.95 131.185 177.047C131.157 177.144 131.108 177.234 131.042 177.311C130.976 177.387 130.894 177.449 130.802 177.49C130.71 177.532 130.61 177.554 130.509 177.553Z" fill="#007BB5"/>
<path d="M46.3257 99.1623C37.1258 97.7068 27.9455 91.5753 22.369 83.1777C19.7661 79.3379 17.9992 74.9942 17.1828 70.4278C16.3663 65.8615 16.5188 61.1745 17.63 56.6708C22.0234 38.9327 35.7756 27.0816 57.3999 22.3974C77.6572 17.9941 93.0644 20.1366 104.498 28.9459C115.421 37.3536 117.073 50.6786 109.416 68.5474C107.684 72.5206 105.37 76.2141 102.551 79.5064C101.736 80.4056 100.622 81.6378 100.736 82.5215C101.093 83.6736 108.993 86.7941 111.235 88.4225C111.371 88.5314 111.471 88.6791 111.521 88.8459C111.571 89.0128 111.57 89.1909 111.516 89.3569C110.971 90.6396 101.74 89.3709 101.648 89.3569C94.9303 88.1921 94.9865 86.0944 85.5407 92.091C83.6211 93.3952 81.5878 94.5239 79.4654 95.463C68.866 99.2954 57.5095 100.563 46.3257 99.1623ZM57.6978 23.7715C36.6312 28.3335 23.2486 39.8264 18.9942 57.0081C14.0501 77.028 29.6849 95.1074 46.5463 97.7741C57.4794 99.1024 68.5716 97.8641 78.9428 94.1577C80.9841 93.2484 82.9406 92.1596 84.789 90.9036C92.7202 85.8667 94.3107 86.1268 99.5654 87.4446C100.368 87.6456 101.15 87.8423 101.888 87.9701C102.465 88.0699 106.208 88.4029 108.609 88.5012C104.553 86.3768 99.5696 84.5532 99.3363 82.7014C99.0891 80.7948 101.209 79.0104 102.146 77.8316C104.563 74.8283 106.572 71.519 108.122 67.9896C115.498 50.791 113.991 38.0294 103.643 30.0546C90.6085 20.0229 73.7077 20.2927 57.6978 23.7715Z" fill="#007BB5"/>
<path d="M90.0784 53.892C85.8501 52.1446 82.0716 49.464 79.0253 46.0507C78.9066 45.912 78.8464 45.7324 78.8578 45.5502C78.8692 45.368 78.951 45.1974 79.086 45.0745C79.2209 44.9515 79.3985 44.8861 79.581 44.8917C79.7635 44.8975 79.9364 44.9739 80.0636 45.1051C82.9722 48.3681 86.5821 50.9302 90.6222 52.5994C92.6378 53.5209 94.8908 53.79 97.0669 53.3693C97.2483 53.338 97.4347 53.3792 97.586 53.4838C97.7375 53.5886 97.8416 53.7487 97.8763 53.9295C97.9109 54.1103 97.8732 54.2975 97.7712 54.4508C97.6692 54.604 97.5111 54.7111 97.331 54.749C94.8831 55.2234 92.3482 54.9238 90.0784 53.892Z" fill="#007BB5"/>
<path fill-rule="evenodd" clip-rule="evenodd" d="M106.286 140.704C106.286 140.315 106.601 140 106.989 140H107.794L107.77 140.728C107.581 146.252 106.825 152.294 105.942 158.518C105.71 160.147 105.47 161.789 105.229 163.437C104.548 168.1 103.858 172.822 103.33 177.495C101.9 190.17 101.698 202.279 106.03 211.497C106.116 211.68 106.205 211.87 106.295 212.064C107.462 214.556 109.031 217.91 111.083 220.384C112.185 221.712 113.384 222.732 114.678 223.242C115.944 223.742 117.351 223.773 118.953 223.037C120.337 222.403 121.339 221.063 122.357 219.587C124.859 215.958 127.66 212.53 130.427 209.144C130.652 208.87 130.876 208.596 131.1 208.321C131.345 208.02 131.788 207.976 132.088 208.221C132.389 208.467 132.433 208.909 132.188 209.21C131.966 209.481 131.744 209.754 131.522 210.025C128.748 213.421 125.982 216.805 123.514 220.384C122.525 221.819 121.325 223.495 119.539 224.314C117.595 225.206 115.791 225.191 114.163 224.55C112.562 223.919 111.182 222.704 110.002 221.28C107.828 218.66 106.185 215.146 105.032 212.679C104.938 212.477 104.847 212.281 104.759 212.095C100.243 202.486 100.503 190.018 101.934 177.338C102.464 172.639 103.16 167.883 103.842 163.215C104.082 161.571 104.321 159.937 104.55 158.32C105.416 152.223 106.15 146.36 106.354 141.003C106.311 140.913 106.286 140.81 106.286 140.704Z" fill="#007BB5"/>
</svg>
