<svg width="25" height="24" viewBox="0 0 25 24" fill="none" xmlns="http://www.w3.org/2000/svg">
<path d="M2.25 11.25C2.25 12.2446 2.64509 13.1984 3.34835 13.9017C4.05161 14.6049 5.00544 15 6 15C6.99456 15 7.94839 14.6049 8.65165 13.9017C9.35491 13.1984 9.75 12.2446 9.75 11.25C9.75 10.2554 9.35491 9.30161 8.65165 8.59835C7.94839 7.89509 6.99456 7.5 6 7.5C5.00544 7.5 4.05161 7.89509 3.34835 8.59835C2.64509 9.30161 2.25 10.2554 2.25 11.25Z" stroke="white" stroke-width="1.5" stroke-linecap="round" stroke-linejoin="round"/>
<path d="M15.75 6C15.75 6.99456 16.1451 7.94839 16.8483 8.65165C17.5516 9.35491 18.5054 9.75 19.5 9.75C20.4946 9.75 21.4484 9.35491 22.1517 8.65165C22.8549 7.94839 23.25 6.99456 23.25 6C23.25 5.00544 22.8549 4.05161 22.1517 3.34835C21.4484 2.64509 20.4946 2.25 19.5 2.25C18.5054 2.25 17.5516 2.64509 16.8483 3.34835C16.1451 4.05161 15.75 5.00544 15.75 6Z" stroke="white" stroke-width="1.5" stroke-linecap="round" stroke-linejoin="round"/>
<path d="M15.75 18C15.75 18.9946 16.1451 19.9484 16.8483 20.6517C17.5516 21.3549 18.5054 21.75 19.5 21.75C20.4946 21.75 21.4484 21.3549 22.1517 20.6517C22.8549 19.9484 23.25 18.9946 23.25 18C23.25 17.0054 22.8549 16.0516 22.1517 15.3483C21.4484 14.6451 20.4946 14.25 19.5 14.25C18.5054 14.25 17.5516 14.6451 16.8483 15.3483C16.1451 16.0516 15.75 17.0054 15.75 18Z" stroke="white" stroke-width="1.5" stroke-linecap="round" stroke-linejoin="round"/>
<path d="M9.49597 9.89135L16.004 7.36035" stroke="white" stroke-width="1.5" stroke-linecap="round" stroke-linejoin="round"/>
<path d="M9.35498 12.9277L16.145 16.3227" stroke="white" stroke-width="1.5" stroke-linecap="round" stroke-linejoin="round"/>
</svg>
