<?xml version="1.0" encoding="utf-8"?>
<!-- Generator: Adobe Illustrator 24.2.3, SVG Export Plug-In . SVG Version: 6.00 Build 0)  -->
<svg version="1.1" id="Layer_1" xmlns="http://www.w3.org/2000/svg" xmlns:xlink="http://www.w3.org/1999/xlink" x="0px" y="0px"
	 viewBox="0 0 24 24" style="enable-background:new 0 0 24 24;" xml:space="preserve">
<style type="text/css">
	.st0{fill:none;stroke:#00A9E0;stroke-width:1.5;stroke-linecap:round;stroke-linejoin:round;}
</style>
<path class="st0" d="M1.5,11.3c0,1,0.4,1.9,1.1,2.7C3.3,14.6,4.3,15,5.3,15s1.9-0.4,2.7-1.1C8.6,13.2,9,12.2,9,11.3S8.6,9.3,7.9,8.6
	C7.2,7.9,6.2,7.5,5.3,7.5S3.3,7.9,2.6,8.6C1.9,9.3,1.5,10.3,1.5,11.3z"/>
<path class="st0" d="M15,6c0,1,0.4,1.9,1.1,2.7c0.7,0.7,1.7,1.1,2.7,1.1s1.9-0.4,2.7-1.1C22.1,7.9,22.5,7,22.5,6s-0.4-1.9-1.1-2.7
	c-0.7-0.7-1.7-1.1-2.7-1.1s-1.9,0.4-2.7,1.1C15.4,4.1,15,5,15,6z"/>
<path class="st0" d="M15,18c0,1,0.4,1.9,1.1,2.7c0.7,0.7,1.7,1.1,2.7,1.1s1.9-0.4,2.7-1.1c0.7-0.7,1.1-1.7,1.1-2.7s-0.4-1.9-1.1-2.7
	c-0.7-0.7-1.7-1.1-2.7-1.1s-1.9,0.4-2.7,1.1C15.4,16.1,15,17,15,18z"/>
<path class="st0" d="M8.7,9.9l6.5-2.5"/>
<path class="st0" d="M8.6,12.9l6.8,3.4"/>
</svg>
