<svg width="24" height="24" viewBox="0 0 24 24" fill="none" xmlns="http://www.w3.org/2000/svg">
<path fill-rule="evenodd" clip-rule="evenodd" d="M12.0001 20.1428C17.9174 20.1428 22.7143 13.8001 22.7143 12C22.7143 10.1998 17.9174 3.85712 12.0001 3.85712C6.08272 3.85712 1.28577 10.1998 1.28577 12C1.28577 13.8001 6.08272 20.1428 12.0001 20.1428ZM15.4286 12C15.4286 13.8935 13.8936 15.4285 12.0001 15.4285C10.1065 15.4285 8.57148 13.8935 8.57148 12C8.57148 10.1064 10.1065 8.5714 12.0001 8.5714C13.8936 8.5714 15.4286 10.1064 15.4286 12Z" fill="#D6F2FF"/>
<path d="M22.7143 12C22.7143 13.8001 17.9174 20.1428 12.0001 20.1428C6.08272 20.1428 1.28577 13.8001 1.28577 12C1.28577 10.1998 6.08272 3.85712 12.0001 3.85712C17.9174 3.85712 22.7143 10.1998 22.7143 12Z" stroke="#007BB5" stroke-width="1.71429" stroke-linejoin="round"/>
<path d="M12 15.4286C13.8935 15.4286 15.4286 13.8935 15.4286 12C15.4286 10.1064 13.8935 8.57141 12 8.57141C10.1064 8.57141 8.57141 10.1064 8.57141 12C8.57141 13.8935 10.1064 15.4286 12 15.4286Z" stroke="#007BB5" stroke-width="1.71429" stroke-linecap="round" stroke-linejoin="round"/>
</svg>
