<svg width="73" height="72" viewBox="0 0 73 72" fill="none" xmlns="http://www.w3.org/2000/svg">
<circle cx="64" cy="57.5" r="1.5" fill="#DF1642"/>
<path d="M61.2454 60.7454C61.6378 61.1378 61.6386 61.7751 61.2355 62.1564C54.9705 68.0813 46.7762 71.5688 38.14 71.9626C29.1688 72.3717 20.3686 69.413 13.4667 63.6671C6.56489 57.9212 2.05986 49.8032 0.83591 40.9064C-0.388039 32.0096 1.75748 22.9766 6.85133 15.5805C11.9452 8.18433 19.6195 2.95912 28.3679 0.930502C37.1164 -1.09812 46.3072 0.216342 54.1362 4.61588C61.9653 9.01541 67.8673 16.1823 70.6838 24.7098C73.3951 32.9188 73.0585 41.818 69.7567 49.7838C69.5442 50.2964 68.9485 50.5228 68.442 50.2961C67.9355 50.0694 67.7102 49.4755 67.9219 48.9625C71.0193 41.4547 71.3298 33.073 68.7757 25.34C66.1165 17.2885 60.5439 10.5216 53.1518 6.36765C45.7597 2.21368 37.082 0.972592 28.8219 2.88798C20.5617 4.80337 13.3158 9.73692 8.50624 16.7202C3.69671 23.7036 1.67095 32.2324 2.82658 40.6325C3.98221 49.0327 8.23578 56.6976 14.7524 62.1228C21.269 67.548 29.578 70.3416 38.0485 69.9553C46.1839 69.5843 53.904 66.3057 59.814 60.7349C60.2178 60.3543 60.853 60.353 61.2454 60.7454Z" fill="#DF1642"/>
<path d="M57 18H16C14.8954 18 14 18.8954 14 20V52C14 53.1046 14.8954 54 16 54H57C58.1046 54 59 53.1046 59 52V20C59 18.8954 58.1046 18 57 18Z" stroke="#DF1642" stroke-width="2" stroke-linecap="round" stroke-linejoin="round"/>
<path d="M29 28.3662V32.5002" stroke="#DF1642" stroke-width="2" stroke-linecap="round" stroke-linejoin="round"/>
<path d="M44 28.3662V32.5002" stroke="#DF1642" stroke-width="2" stroke-linecap="round" stroke-linejoin="round"/>
<path d="M24.5 44.3659C25.711 42.4165 27.4281 40.8321 29.4684 39.7815C31.5087 38.7309 33.7958 38.2534 36.086 38.3999C38.477 38.3579 40.8448 38.8755 43.0002 39.9113C45.1556 40.9472 47.039 42.4727 48.5 44.3659" stroke="#DF1642" stroke-width="2" stroke-linecap="round" stroke-linejoin="round"/>
</svg>
