<svg width="24" height="24" viewBox="0 0 24 24" fill="none" xmlns="http://www.w3.org/2000/svg">
<path d="M14.171 4.65778C13.9218 4.53322 13.6428 4.48052 13.3653 4.5056C13.0878 4.53068 12.8228 4.63255 12.6 4.79978L6 8.99978H3C2.60218 8.99978 2.22064 9.15782 1.93934 9.43912C1.65804 9.72043 1.5 10.102 1.5 10.4998V13.4998C1.5 13.8976 1.65804 14.2791 1.93934 14.5604C2.22064 14.8417 2.60218 14.9998 3 14.9998H6L12.6 19.1998C12.8229 19.3669 13.0878 19.4687 13.3653 19.4937C13.6427 19.5187 13.9217 19.466 14.1708 19.3414C14.42 19.2168 14.6295 19.0253 14.776 18.7884C14.9224 18.5514 15 18.2783 15 17.9998V5.99978C15.0001 5.72117 14.9226 5.44804 14.7761 5.21101C14.6297 4.97398 14.4202 4.78241 14.171 4.65778Z" stroke="#BDE7F6" stroke-width="1.5" stroke-linecap="round" stroke-linejoin="round"/>
<path d="M21.463 15.7499C22.1396 14.6895 22.4991 13.4578 22.4991 12.1999C22.4991 10.942 22.1396 9.71033 21.463 8.6499" stroke="#BDE7F6" stroke-width="1.5" stroke-linecap="round" stroke-linejoin="round"/>
<path d="M18.562 14.4411C19.0678 13.8185 19.3439 13.0408 19.3439 12.2386C19.3439 11.4365 19.0678 10.6587 18.562 10.0361" stroke="#BDE7F6" stroke-width="1.5" stroke-linecap="round" stroke-linejoin="round"/>
<path d="M6 9V15" stroke="#BDE7F6" stroke-width="1.5" stroke-linecap="round" stroke-linejoin="round"/>
</svg>
