<svg width="25" height="24" viewBox="0 0 25 24" fill="none" xmlns="http://www.w3.org/2000/svg">
<g clip-path="url(#clip0_9287_8320)">
<path d="M23.75 6V20.25C23.75 20.8467 23.5129 21.419 23.091 21.841C22.669 22.2629 22.0967 22.5 21.5 22.5M21.5 22.5C20.9033 22.5 20.331 22.2629 19.909 21.841C19.4871 21.419 19.25 20.8467 19.25 20.25V3C19.25 2.60218 19.092 2.22064 18.8107 1.93934C18.5294 1.65804 18.1478 1.5 17.75 1.5H2.75C2.35218 1.5 1.97064 1.65804 1.68934 1.93934C1.40804 2.22064 1.25 2.60218 1.25 3V20.25C1.25 20.8467 1.48705 21.419 1.90901 21.841C2.33097 22.2629 2.90326 22.5 3.5 22.5H21.5Z" stroke="#616161" stroke-width="1.5" stroke-linecap="round" stroke-linejoin="round"/>
<path d="M5 15H15.5" stroke="#616161" stroke-width="1.5" stroke-linecap="round" stroke-linejoin="round"/>
<path d="M5 18H11" stroke="#616161" stroke-width="1.5" stroke-linecap="round" stroke-linejoin="round"/>
<path d="M5 5.25H15.5V11.25H5V5.25Z" stroke="#616161" stroke-width="1.5" stroke-linecap="round" stroke-linejoin="round"/>
</g>
<defs>
<clipPath id="clip0_9287_8320">
<rect width="24" height="24" fill="white" transform="translate(0.5)"/>
</clipPath>
</defs>
</svg>
