<svg width="25" height="24" viewBox="0 0 25 24" fill="none" xmlns="http://www.w3.org/2000/svg">
<g clip-path="url(#clip0_9287_8542)">
<path d="M5.75 10.5V6H14.75V10.5H5.75Z" fill="#0D4C74"/>
<path fill-rule="evenodd" clip-rule="evenodd" d="M2.75 0.75C2.15326 0.75 1.58097 0.987053 1.15901 1.40901C0.737053 1.83097 0.5 2.40326 0.5 3V20.25C0.5 21.0456 0.816071 21.8087 1.37868 22.3713C1.94129 22.9339 2.70435 23.25 3.5 23.25H21.5C22.2957 23.25 23.0587 22.9339 23.6213 22.3713C24.1839 21.8087 24.5 21.0457 24.5 20.25V6C24.5 5.58579 24.1642 5.25 23.75 5.25C23.3358 5.25 23 5.58579 23 6V20.25C23 20.6478 22.842 21.0294 22.5607 21.3107C22.2794 21.592 21.8978 21.75 21.5 21.75C21.1022 21.75 20.7206 21.592 20.4393 21.3107C20.158 21.0294 20 20.6478 20 20.25V3C20 2.40326 19.7629 1.83097 19.341 1.40901C18.919 0.987053 18.3467 0.75 17.75 0.75H2.75ZM5 14.25C4.58579 14.25 4.25 14.5858 4.25 15C4.25 15.4142 4.58579 15.75 5 15.75H15.5C15.9142 15.75 16.25 15.4142 16.25 15C16.25 14.5858 15.9142 14.25 15.5 14.25H5ZM4.25 18C4.25 17.5858 4.58579 17.25 5 17.25H11C11.4142 17.25 11.75 17.5858 11.75 18C11.75 18.4142 11.4142 18.75 11 18.75H5C4.58579 18.75 4.25 18.4142 4.25 18ZM5 4.5C4.58579 4.5 4.25 4.83579 4.25 5.25V11.25C4.25 11.6642 4.58579 12 5 12H15.5C15.9142 12 16.25 11.6642 16.25 11.25V5.25C16.25 4.83579 15.9142 4.5 15.5 4.5H5Z" fill="#0D4C74"/>
</g>
<defs>
<clipPath id="clip0_9287_8542">
<rect width="24" height="24" fill="white" transform="translate(0.5)"/>
</clipPath>
</defs>
</svg>
