<svg width="16" height="16" viewBox="0 0 16 16" fill="none" xmlns="http://www.w3.org/2000/svg">
<g clip-path="url(#clip0_9159_24571)">
<path d="M7.74665 12.5533C7.77854 12.589 7.81758 12.6175 7.86124 12.637C7.90489 12.6565 7.95217 12.6666 7.99998 12.6666C8.04779 12.6666 8.09507 12.6565 8.13872 12.637C8.18238 12.6175 8.22142 12.589 8.25331 12.5533C8.43331 12.3467 12.6666 7.42667 12.6666 4.66667C12.6666 3.42899 12.175 2.242 11.2998 1.36684C10.4246 0.491665 9.23766 0 7.99998 0C6.7623 0 5.57532 0.491665 4.70015 1.36684C3.82498 2.242 3.33331 3.42899 3.33331 4.66667C3.33331 7.42667 7.56665 12.3467 7.74665 12.5533ZM6.33331 4.66667C6.33331 4.33703 6.43106 4.0148 6.6142 3.74072C6.79733 3.46663 7.05763 3.25301 7.36217 3.12687C7.66672 3.00072 8.00183 2.96772 8.32513 3.03202C8.64843 3.09633 8.9454 3.25507 9.17849 3.48816C9.41158 3.72124 9.57031 4.01821 9.63462 4.34152C9.69893 4.66482 9.66593 4.99993 9.53978 5.30447C9.41363 5.60902 9.20001 5.86931 8.92593 6.05245C8.65185 6.23559 8.32962 6.33333 7.99998 6.33333C7.55795 6.33333 7.13403 6.15774 6.82147 5.84518C6.50891 5.53262 6.33331 5.10869 6.33331 4.66667Z" fill="#616161"/>
<path d="M12.5267 14.6669L10.7867 14.1336C10.7521 14.1235 10.7216 14.1024 10.7 14.0736C10.6784 14.0447 10.6667 14.0096 10.6667 13.9736C10.6667 13.9375 10.6784 13.9024 10.7 13.8736C10.7216 13.8447 10.7521 13.8237 10.7867 13.8136L12.5267 13.2802C12.6107 13.2549 12.6889 13.2132 12.7569 13.1575C12.8248 13.1019 12.8811 13.0335 12.9226 12.9561C12.9641 12.8787 12.9899 12.7939 12.9986 12.7065C13.0073 12.6192 12.9987 12.531 12.9733 12.4469C12.9479 12.3629 12.9063 12.2846 12.8506 12.2167C12.795 12.1488 12.7266 12.0925 12.6492 12.051C12.5718 12.0095 12.487 11.9837 12.3996 11.975C12.3123 11.9663 12.224 11.9749 12.14 12.0002L8.04667 13.2602C8.032 13.2669 8.0161 13.2703 8 13.2703C7.98391 13.2703 7.968 13.2669 7.95334 13.2602L3.86 12.0002C3.68319 11.949 3.49325 11.97 3.33197 12.0588C3.17069 12.1476 3.05128 12.2968 3 12.4736C2.94873 12.6504 2.96979 12.8403 3.05856 13.0016C3.14733 13.1629 3.29653 13.2823 3.47334 13.3336L5.21334 13.8669C5.24796 13.877 5.27837 13.8981 5.3 13.9269C5.32164 13.9558 5.33334 13.9908 5.33334 14.0269C5.33334 14.063 5.32164 14.0981 5.3 14.1269C5.27837 14.1558 5.24796 14.1768 5.21334 14.1869L3.47334 14.6669C3.29653 14.6925 3.13714 14.7874 3.03025 14.9305C2.92335 15.0737 2.8777 15.2534 2.90334 15.4302C2.92897 15.6071 3.0238 15.7664 3.16695 15.8733C3.31011 15.9802 3.48986 16.0259 3.66667 16.0002C3.73071 16.0105 3.79596 16.0105 3.86 16.0002L7.95334 14.7402C7.968 14.7336 7.98391 14.7302 8 14.7302C8.0161 14.7302 8.032 14.7336 8.04667 14.7402L12.14 16.0002C12.204 16.0105 12.2693 16.0105 12.3333 16.0002C12.5101 16.0259 12.6899 15.9802 12.8331 15.8733C12.9762 15.7664 13.071 15.6071 13.0967 15.4302C13.1223 15.2534 13.0767 15.0737 12.9698 14.9305C12.8629 14.7874 12.7035 14.6925 12.5267 14.6669Z" fill="#616161"/>
</g>
<defs>
<clipPath id="clip0_9159_24571">
<rect width="16" height="16" fill="white"/>
</clipPath>
</defs>
</svg>
