<svg width="73" height="72" viewBox="0 0 73 72" fill="none" xmlns="http://www.w3.org/2000/svg">
<circle cx="64" cy="57.5" r="1.5" fill="#5B9C11"/>
<path d="M61.2454 60.7454C61.6378 61.1378 61.6386 61.7751 61.2355 62.1564C54.9705 68.0813 46.7762 71.5688 38.14 71.9626C29.1688 72.3717 20.3686 69.413 13.4667 63.6671C6.56489 57.9212 2.05986 49.8032 0.83591 40.9064C-0.388039 32.0096 1.75748 22.9766 6.85133 15.5805C11.9452 8.18433 19.6195 2.95912 28.3679 0.930502C37.1164 -1.09812 46.3072 0.216342 54.1362 4.61588C61.9653 9.01541 67.8673 16.1823 70.6838 24.7098C73.3951 32.9188 73.0585 41.818 69.7567 49.7838C69.5442 50.2964 68.9485 50.5228 68.442 50.2961C67.9355 50.0694 67.7102 49.4755 67.9219 48.9625C71.0193 41.4547 71.3298 33.073 68.7757 25.34C66.1165 17.2885 60.5439 10.5216 53.1518 6.36765C45.7597 2.21368 37.082 0.972592 28.8219 2.88798C20.5617 4.80337 13.3158 9.73692 8.50624 16.7202C3.69671 23.7036 1.67095 32.2324 2.82658 40.6325C3.98221 49.0327 8.23578 56.6976 14.7524 62.1228C21.269 67.548 29.578 70.3416 38.0485 69.9553C46.1839 69.5843 53.904 66.3057 59.814 60.7349C60.2178 60.3543 60.853 60.353 61.2454 60.7454Z" fill="#5B9C11"/>
<path d="M45.126 34.52L33.942 45.704C33.79 45.8562 33.6096 45.977 33.4108 46.0596C33.2122 46.142 32.999 46.1844 32.784 46.1844C32.5688 46.1844 32.3558 46.142 32.1571 46.0596C31.9584 45.977 31.7779 45.8562 31.626 45.704L27.876 41.952" stroke="#5B9C11" stroke-width="2" stroke-linecap="round" stroke-linejoin="round"/>
<path d="M44 21H51.5C52.2956 21 53.0588 21.3161 53.6214 21.8787C54.184 22.4413 54.5 23.2044 54.5 24V55.5C54.5 56.2956 54.184 57.0588 53.6214 57.6214C53.0588 58.184 52.2956 58.5 51.5 58.5H21.5C20.7044 58.5 19.9413 58.184 19.3787 57.6214C18.8161 57.0588 18.5 56.2956 18.5 55.5V24C18.5 23.2044 18.8161 22.4413 19.3787 21.8787C19.9413 21.3161 20.7044 21 21.5 21H29C29 19.0109 29.7902 17.1032 31.1967 15.6967C32.6032 14.2902 34.5108 13.5 36.5 13.5C38.4892 13.5 40.3968 14.2902 41.8034 15.6967C43.2098 17.1032 44 19.0109 44 21Z" stroke="#5B9C11" stroke-width="2" stroke-linecap="round" stroke-linejoin="round"/>
<path d="M36.499 21.021C36.0848 21.021 35.749 20.6852 35.749 20.271C35.749 19.8568 36.0848 19.521 36.499 19.521" stroke="#5B9C11" stroke-width="2"/>
<path d="M36.499 21.021C36.9132 21.021 37.249 20.6852 37.249 20.271C37.249 19.8568 36.9132 19.521 36.499 19.521" stroke="#5B9C11" stroke-width="2"/>
</svg>
