<?xml version="1.0" encoding="utf-8"?>
<!-- Generator: Adobe Illustrator 24.2.3, SVG Export Plug-In . SVG Version: 6.00 Build 0)  -->
<svg version="1.1" id="Layer_1" xmlns="http://www.w3.org/2000/svg" xmlns:xlink="http://www.w3.org/1999/xlink" x="0px" y="0px"
	 viewBox="0 0 24 24" style="enable-background:new 0 0 24 24;" xml:space="preserve">
<style type="text/css">
	.st0{fill:none;stroke:#00A9E0;stroke-width:1.5;stroke-linecap:round;stroke-linejoin:round;}
</style>
<path class="st0" d="M23.2,6.7l-2.1-0.9l1.1-2.4l-2.6,0.9c-0.8-0.8-1.9-1.2-3-1.2c-1.2,0-2.3,0.5-3.2,1.3c-0.8,0.8-1.3,2-1.3,3.2v1
	C8.6,9.3,5.5,7.4,2.6,4.1c-0.5,2.7,0,4.7,1.5,6L0.8,9.6c0.1,1.1,0.6,2,1.4,2.8C3,13.1,4,13.5,5.1,13.6l-2.8,1c1,2,2.8,2.3,5.3,2.5
	c-2,1.4-4.3,2.1-6.8,2C13.6,24.8,21,16.4,21,9.1V8.2L23.2,6.7z"/>
</svg>
