<svg width="24" height="24" viewBox="0 0 24 24" fill="none" xmlns="http://www.w3.org/2000/svg">
<g clip-path="url(#clip0_4350_9974)">
<path d="M1.64542 17.6032C1.90964 20.0728 3.89599 22.0592 6.36449 22.3343C10.1561 22.7571 13.8437 22.7571 17.6353 22.3343C20.1039 22.0592 22.0902 20.0728 22.3544 17.6032C22.5495 15.78 22.7142 13.9083 22.7142 12C22.7142 10.0917 22.5495 8.21996 22.3544 6.3968C22.0902 3.92712 20.1039 1.94076 17.6353 1.66561C13.8437 1.24297 10.1561 1.24297 6.36449 1.66561C3.89599 1.94076 1.90964 3.92712 1.64542 6.3968C1.45036 8.21996 1.28564 10.0917 1.28564 12C1.28564 13.9083 1.45036 15.78 1.64542 17.6032Z" fill="#007BB5"/>
<path d="M1.64542 17.6031C1.90964 20.0729 3.89599 22.0592 6.36449 22.3344C10.1561 22.7569 13.8437 22.7569 17.6353 22.3344C20.1039 22.0592 22.0902 20.0729 22.3544 17.6031C22.5495 15.78 22.7142 13.9083 22.7142 12C22.7142 10.0917 22.5495 8.21997 22.3544 6.39679C22.0902 3.92712 20.1039 1.94076 17.6353 1.66561C13.8437 1.24297 10.1561 1.24297 6.36449 1.66561C3.89599 1.94076 1.90964 3.92712 1.64542 6.39679C1.45036 8.21997 1.28564 10.0917 1.28564 12C1.28564 13.9083 1.45036 15.78 1.64542 17.6031Z" stroke="#D6F2FF" stroke-width="1.71429"/>
<path d="M12.0002 12.6117C14.0069 12.6117 15.6337 10.985 15.6337 8.97822C15.6337 6.9715 14.0069 5.34473 12.0002 5.34473C9.99347 5.34473 8.3667 6.9715 8.3667 8.97822C8.3667 10.985 9.99347 12.6117 12.0002 12.6117Z" stroke="#D6F2FF" stroke-width="2" stroke-linecap="round" stroke-linejoin="round"/>
<path d="M17.9332 17.2521C17.6158 15.973 16.8927 14.8282 15.8687 13.9912C14.7769 13.0988 13.4102 12.6113 12.0001 12.6113C10.5899 12.6113 9.22317 13.0988 8.13136 13.9912C7.10736 14.8282 6.38428 15.973 6.06689 17.2521C6.37361 17.3544 6.69391 17.4257 7.02395 17.4626C8.64295 17.6431 10.3053 17.7981 12.0001 17.7981C13.6949 17.7981 15.3573 17.6431 16.9763 17.4626C17.3063 17.4257 17.6266 17.3544 17.9332 17.2521Z" stroke="#D6F2FF" stroke-width="2" stroke-linecap="round" stroke-linejoin="round"/>
</g>
<defs>
<clipPath id="clip0_4350_9974">
<rect width="24" height="24" fill="white"/>
</clipPath>
</defs>
</svg>
