<svg width="25" height="25" viewBox="0 0 25 25" fill="none" xmlns="http://www.w3.org/2000/svg">
<g clip-path="url(#clip0_9107_14798)">
<path d="M8.74803 21.0357L2.11703 14.4037C1.5868 13.844 1.29588 13.0994 1.30617 12.3285C1.31646 11.5576 1.62714 10.8211 2.17212 10.2757C2.7171 9.73036 3.45337 9.41915 4.22429 9.40831C4.99521 9.39747 5.73993 9.68785 6.30003 10.2177L10.518 14.4357L18.418 3.90269C18.6512 3.59152 18.9434 3.32932 19.2779 3.13107C19.6123 2.93282 19.9826 2.80239 20.3675 2.74723C20.7524 2.69207 21.1444 2.71326 21.5211 2.8096C21.8978 2.90593 22.2519 3.07552 22.563 3.30869C22.8742 3.54185 23.1364 3.83402 23.3347 4.16851C23.5329 4.503 23.6633 4.87327 23.7185 5.25816C23.7737 5.64306 23.7525 6.03506 23.6561 6.41177C23.5598 6.78847 23.3902 7.14252 23.157 7.45369L13.21 20.7187C12.9555 21.058 12.631 21.3386 12.2586 21.5416C11.8861 21.7446 11.4745 21.8652 11.0514 21.8953C10.6283 21.9253 10.2037 21.8641 9.80627 21.7158C9.40888 21.5675 9.048 21.3356 8.74803 21.0357Z" stroke="white" stroke-width="1.5" stroke-linejoin="round"/>
</g>
<defs>
<clipPath id="clip0_9107_14798">
<rect width="24" height="24" fill="white" transform="translate(0.5 0.153809)"/>
</clipPath>
</defs>
</svg>
