<svg width="24" height="24" viewBox="0 0 24 24" fill="none" xmlns="http://www.w3.org/2000/svg">
<path d="M12.75 5.26099H3.75C2.09315 5.26099 0.75 6.60413 0.75 8.26099V15.761C0.75 17.4178 2.09315 18.761 3.75 18.761H12.75C14.4069 18.761 15.75 17.4178 15.75 15.761V8.26099C15.75 6.60413 14.4069 5.26099 12.75 5.26099Z" stroke="#001B32" stroke-width="1.5" stroke-linecap="round" stroke-linejoin="round"/>
<path d="M18.75 15.011L22.165 16.718C22.2793 16.7751 22.4064 16.802 22.534 16.7962C22.6617 16.7904 22.7858 16.7521 22.8945 16.6849C23.0032 16.6176 23.0929 16.5238 23.1551 16.4121C23.2173 16.3005 23.25 16.1748 23.25 16.047V7.97402C23.2501 7.8462 23.2175 7.72048 23.1553 7.60883C23.093 7.49717 23.0033 7.4033 22.8945 7.33614C22.7858 7.26898 22.6616 7.23077 22.5339 7.22515C22.4062 7.21953 22.2792 7.24668 22.165 7.30402L18.75 9.01102" stroke="#001B32" stroke-width="1.5" stroke-linecap="round" stroke-linejoin="round"/>
</svg>
