<svg width="24" height="24" viewBox="0 0 24 24" fill="none" xmlns="http://www.w3.org/2000/svg">
<g clip-path="url(#clip0_3330_4323)">
<path d="M7.10195 7.1373C5.9044 6.09387 4.15063 6.28093 3.20728 7.55881C3.06604 7.75014 2.8959 7.97386 2.67544 8.24963C1.27658 9.99946 1.27658 12.5331 2.68317 14.2768C3.72153 15.5639 4.81024 16.8627 6.02728 18.0799C7.24432 19.2968 8.54313 20.3856 9.8303 21.4239C11.5739 22.8305 14.1076 22.8305 15.8574 21.4316C16.1674 21.1837 16.4108 21.0005 16.6161 20.8505C17.8546 19.9457 18.0646 18.2511 17.0616 17.0907C16.605 16.5625 16.1209 16.0503 15.6436 15.5478C14.9844 14.8537 13.8527 14.7765 13.1305 15.4048C13.0037 15.515 12.8426 15.6607 12.6197 15.8697C10.6181 14.6803 9.40504 13.4525 8.23737 11.4874C8.45011 11.2605 8.59749 11.0973 8.70875 10.9692C9.3358 10.2474 9.2591 9.11912 8.56055 8.46623C8.08257 8.01949 7.59792 7.56944 7.10195 7.1373Z" fill="#D6F2FF"/>
<path d="M7.10195 7.1373C5.9044 6.09387 4.15063 6.28093 3.20728 7.55881C3.06604 7.75014 2.8959 7.97386 2.67544 8.24963C1.27658 9.99946 1.27658 12.5331 2.68317 14.2768C3.72153 15.5639 4.81024 16.8627 6.02728 18.0799C7.24432 19.2968 8.54313 20.3856 9.8303 21.4239C11.5739 22.8305 14.1076 22.8305 15.8574 21.4316C16.1674 21.1837 16.4108 21.0005 16.6161 20.8505C17.8546 19.9457 18.0646 18.2511 17.0616 17.0907C16.605 16.5625 16.1209 16.0503 15.6436 15.5478C14.9844 14.8537 13.8527 14.7765 13.1305 15.4048C13.0037 15.515 12.8426 15.6607 12.6197 15.8697C10.6181 14.6803 9.40504 13.4525 8.23737 11.4874C8.45011 11.2605 8.59749 11.0973 8.70875 10.9692C9.3358 10.2474 9.2591 9.11912 8.56055 8.46623C8.08257 8.01949 7.59792 7.56944 7.10195 7.1373Z" stroke="#007BB5" stroke-width="2" stroke-linejoin="round"/>
<path d="M17.2987 10.6436C17.1079 9.69006 16.5994 8.7939 15.79 8.12786C14.9478 7.43492 13.9239 7.10961 12.9129 7.13301" stroke="#007BB5" stroke-width="2" stroke-linecap="round"/>
<path d="M22.589 9.76945C22.1585 7.61758 21.011 5.59513 19.1842 4.09205C17.2836 2.52821 14.9729 1.79405 12.6913 1.8469" stroke="#007BB5" stroke-width="2" stroke-linecap="round"/>
</g>
<defs>
<clipPath id="clip0_3330_4323">
<rect width="24" height="24" fill="white"/>
</clipPath>
</defs>
</svg>
