<svg width="73" height="20" viewBox="0 0 73 20" fill="none" xmlns="http://www.w3.org/2000/svg">
<path d="M54.1247 6.78549L54.1238 6.78461C53.841 6.50942 53.841 6.06337 54.1238 5.78818L56.9992 2.99081C57.2861 2.7117 57.751 2.71591 58.0326 3.00002C58.3039 3.27394 58.2996 3.71803 58.0232 3.98695L55.1466 6.78549C54.8645 7.06 54.4069 7.06 54.1247 6.78549Z" fill="white"/>
<path d="M55.6241 9.18927L55.624 9.188C55.5891 8.80034 55.8839 8.45863 56.2823 8.42473L60.3332 8.07988C60.7374 8.0455 61.0908 8.3395 61.1187 8.73323C61.1456 9.11266 60.8489 9.45016 60.4594 9.48337L56.4069 9.82831C56.0093 9.86221 55.6588 9.57605 55.6241 9.18927Z" fill="white"/>
<path d="M51.7075 5.34726L51.7088 5.34735C52.1073 5.38125 52.4585 5.0945 52.4934 4.70684L52.8478 0.765795C52.8832 0.37265 52.581 0.0287838 52.1763 0.00164673C51.7863 -0.0245107 51.4394 0.264102 51.4052 0.643041L51.0507 4.58565C51.0158 4.97243 51.31 5.31346 51.7075 5.34726Z" fill="white"/>
<path d="M20.1937 12.2661C20.1937 14.1948 18.9622 15.4907 17.1294 15.4907C15.3077 15.4907 14.0838 14.1807 14.0838 12.231C14.0838 10.3531 15.3362 9.04164 17.1294 9.04164C18.9622 9.04164 20.1937 10.3375 20.1937 12.2661ZM17.2792 7.55566C15.966 7.55566 14.8611 8.04286 14.0691 8.96757L13.8835 7.66176H12.3654V19.9594H14.1026V15.6958C14.7891 16.5243 15.9038 16.9766 17.2792 16.9766C20.04 16.9766 21.9681 15.0396 21.9681 12.2661C21.9681 9.40471 20.1276 7.55566 17.2792 7.55566Z" fill="white"/>
<path d="M31.0926 12.2661C31.0926 14.1647 29.8326 15.4907 28.0284 15.4907C26.2241 15.4907 24.964 14.1647 24.964 12.2661C24.964 10.3676 26.2241 9.04164 28.0284 9.04164C29.8326 9.04164 31.0926 10.3676 31.0926 12.2661ZM28.0284 7.55566C25.1794 7.55566 23.1896 9.49268 23.1896 12.2661C23.1896 15.0396 25.1794 16.9766 28.0284 16.9766C30.8774 16.9766 32.8671 15.0396 32.8671 12.2661C32.8671 9.49268 30.8774 7.55566 28.0284 7.55566Z" fill="white"/>
<path d="M38.6618 9.0724C39.9908 9.0724 40.9106 9.74681 41.1854 10.9227L41.2033 10.9989H43.0162L42.9931 10.8824C42.5771 8.7878 41.0052 7.58643 38.6806 7.58643C37.2923 7.58643 36.1017 8.03963 35.2376 8.89704C34.3734 9.75445 33.9166 10.9363 33.9166 12.3147C33.9166 15.1654 35.7718 17.0074 38.643 17.0074C40.9737 17.0074 42.5999 15.7885 42.9932 13.7466L43.0155 13.6305H41.1864L41.1672 13.7044C40.8705 14.8422 39.9339 15.5214 38.6618 15.5214C36.8849 15.5214 35.6911 14.2328 35.6911 12.3147C35.6911 10.3754 36.8849 9.0724 38.6618 9.0724Z" fill="white"/>
<path d="M46.1663 7.66186L46.351 8.75401C46.8895 8.17345 47.8376 7.55566 49.4331 7.55566C50.9115 7.55566 53.3919 8.10105 53.3919 11.7538V16.8707H51.6547V11.8419C51.6547 10.0332 50.7959 9.0771 49.1712 9.0771C47.4282 9.0771 46.3876 10.2693 46.3876 12.2661V16.8707H44.6506V7.66186H46.1663Z" fill="white"/>
</svg>
