<?xml version="1.0" encoding="utf-8"?>
<!-- Generator: Adobe Illustrator 24.2.3, SVG Export Plug-In . SVG Version: 6.00 Build 0)  -->
<svg version="1.1" id="Layer_1" xmlns="http://www.w3.org/2000/svg" xmlns:xlink="http://www.w3.org/1999/xlink" x="0px" y="0px"
	 viewBox="0 0 48 48" style="enable-background:new 0 0 48 48;" xml:space="preserve">
<style type="text/css">
	.st0{fill:none;stroke:#00A9E0;stroke-width:2;stroke-linecap:round;stroke-linejoin:round;stroke-miterlimit:10;}
</style>
<path class="st0" d="M17,17v1.3"/>
<path class="st0" d="M17,22.3v1.3"/>
<path class="st0" d="M17,27.7V29"/>
<path class="st0" d="M24,17v1.3"/>
<path class="st0" d="M24,22.3v1.3"/>
<path class="st0" d="M24,27.7V29"/>
<path class="st0" d="M31,17v1.3"/>
<path class="st0" d="M31,22.3v1.3"/>
<path class="st0" d="M31,27.7V29"/>
<path class="st0" d="M36,13v26H12V13"/>
<path class="st0" d="M32.7,13V9H15.3v4"/>
<path class="st0" d="M39,39H9"/>
<path class="st0" d="M37.7,13H10.3"/>
<path class="st0" d="M17,33v1.3"/>
<path class="st0" d="M31,33v1.3"/>
<path class="st0" d="M26.7,39v-3.3c0-1.5-1.2-2.7-2.7-2.7c-1.5,0-2.7,1.2-2.7,2.7V39"/>
</svg>
