<svg width="279" height="96" viewBox="0 0 279 96" fill="none" xmlns="http://www.w3.org/2000/svg">
<g clip-path="url(#clip0_8682_35851)">
<rect width="279" height="96" rx="9" fill="#001B32"/>
<g opacity="0.5">
<path d="M248.763 16.1424L248.762 16.1413C248.429 15.8111 248.429 15.2759 248.762 14.9456L252.15 11.5888C252.488 11.2538 253.035 11.2589 253.367 11.5998C253.687 11.9285 253.682 12.4614 253.356 12.7841L249.967 16.1424C249.635 16.4718 249.096 16.4718 248.763 16.1424Z" fill="white"/>
<path d="M250.53 19.0274L250.53 19.0258C250.489 18.5606 250.836 18.1506 251.305 18.1099L256.078 17.6961C256.554 17.6548 256.97 18.0076 257.003 18.4801C257.035 18.9354 256.685 19.3404 256.226 19.3803L251.452 19.7942C250.984 19.8349 250.571 19.4915 250.53 19.0274Z" fill="white"/>
<path d="M245.916 14.4167L245.917 14.4168C246.387 14.4575 246.801 14.1134 246.842 13.6482L247.259 8.91895C247.301 8.44718 246.945 8.03454 246.468 8.00198C246.009 7.97059 245.6 8.31692 245.56 8.77165L245.142 13.5028C245.101 13.9669 245.447 14.3761 245.916 14.4167Z" fill="white"/>
<path d="M208.79 22.7194C208.79 25.0338 207.339 26.5888 205.18 26.5888C203.034 26.5888 201.592 25.0169 201.592 22.6771C201.592 20.4237 203.067 18.8499 205.18 18.8499C207.339 18.8499 208.79 20.4049 208.79 22.7194ZM205.356 17.0668C203.809 17.0668 202.508 17.6514 201.575 18.7611L201.356 17.1941H199.567V31.9512H201.614V26.8349C202.423 27.8292 203.736 28.3719 205.356 28.3719C208.609 28.3719 210.88 26.0475 210.88 22.7194C210.88 19.2856 208.712 17.0668 205.356 17.0668Z" fill="white"/>
<path d="M221.63 22.7194C221.63 24.9976 220.145 26.5888 218.02 26.5888C215.894 26.5888 214.41 24.9976 214.41 22.7194C214.41 20.4411 215.894 18.8499 218.02 18.8499C220.145 18.8499 221.63 20.4411 221.63 22.7194ZM218.02 17.0668C214.663 17.0668 212.319 19.3912 212.319 22.7194C212.319 26.0475 214.663 28.3719 218.02 28.3719C221.376 28.3719 223.72 26.0475 223.72 22.7194C223.72 19.3912 221.376 17.0668 218.02 17.0668Z" fill="white"/>
<path d="M230.547 18.8866C232.112 18.8866 233.196 19.6959 233.52 21.107L233.541 21.1985H235.677L235.649 21.0586C235.159 18.5451 233.307 17.1035 230.569 17.1035C228.933 17.1035 227.531 17.6473 226.513 18.6762C225.495 19.7051 224.956 21.1233 224.956 22.7774C224.956 26.1982 227.142 28.4086 230.525 28.4086C233.27 28.4086 235.186 26.9459 235.65 24.4957L235.676 24.3564H233.521L233.498 24.445C233.149 25.8104 232.045 26.6254 230.547 26.6254C228.453 26.6254 227.047 25.079 227.047 22.7774C227.047 20.4502 228.453 18.8866 230.547 18.8866Z" fill="white"/>
<path d="M239.388 17.1942L239.605 18.5048C240.24 17.8081 241.357 17.0668 243.236 17.0668C244.978 17.0668 247.9 17.7212 247.9 22.1045V28.2448H245.853V22.2103C245.853 20.0398 244.842 18.8925 242.928 18.8925C240.874 18.8925 239.648 20.3231 239.648 22.7194V28.2448H237.602V17.1942H239.388Z" fill="white"/>
</g>
<g opacity="0.1" clip-path="url(#clip1_8682_35851)">
<path d="M71.2392 48.4458C71.3328 48.5706 71.4576 48.6642 71.6136 48.6642C73.1112 48.9138 74.0472 49.8498 74.5776 51.1602C75.0768 52.4082 74.952 53.6874 74.2656 54.9042C73.6416 55.9962 72.7056 56.6514 71.4576 56.8698C71.1768 56.9322 70.896 57.057 70.4904 57.1818C71.4264 57.7746 72.3 58.2114 72.8304 59.1474C73.3608 60.0834 73.3296 61.0818 73.5168 62.0802C73.6416 61.6434 73.8912 61.269 74.0784 60.8946C74.3592 60.3642 74.7336 59.8962 75.264 59.6154C75.7944 59.3346 76.2936 58.9914 76.9176 58.8354C78.3216 58.5546 79.4448 58.9914 80.5368 59.865C82.2216 61.1754 82.44 63.8898 81.2232 65.481C80.5992 66.3234 79.8192 67.041 78.6648 67.197C78.3216 67.2282 78.0096 67.3842 77.4792 67.509C79.9752 68.5698 80.9112 70.473 80.412 72.8754C80.1 74.4354 79.32 75.621 76.2 76.3386C77.2608 76.869 78.1032 77.5242 78.5712 78.5226C79.0704 79.5522 79.1328 80.7066 78.8832 81.7362C78.696 82.6098 78.1968 83.4834 77.3856 84.045C76.6368 84.5442 75.8256 85.0122 74.8272 84.981C75.108 85.2306 75.2952 85.5114 75.6072 85.6986C76.2624 86.1042 76.6992 86.7282 77.0424 87.4458C77.3544 88.0698 77.448 88.6938 77.4792 89.3802C77.5416 90.597 76.9488 91.5018 76.2312 92.3442C75.5136 93.1866 74.6088 93.6858 73.4544 93.717C73.3608 93.717 73.2672 93.717 73.2048 93.8418C74.9832 94.7466 76.1064 96.1194 76.2 98.2098C76.7616 97.149 77.448 96.3066 78.54 95.8386C79.6632 95.3706 80.8488 95.3394 81.9408 95.901C83.8752 96.8994 84.5616 98.6154 84.0936 100.612C83.6568 102.515 82.0656 103.795 79.6944 103.607C78.6024 103.514 77.6976 103.015 77.0112 102.203C76.3248 101.423 76.0128 100.456 76.0128 99.3642C75.576 100.175 75.108 100.893 74.3904 101.455C73.6416 102.016 72.7992 102.297 71.7696 102.515C72.924 103.139 73.7976 103.888 74.1408 105.011C74.484 106.135 74.5464 107.383 73.8912 108.412C72.7056 110.284 71.3328 111.064 68.868 110.44C66.996 109.972 65.9664 108.35 66.0288 106.322C66.0912 104.325 67.308 102.484 69.9912 102.297C69.9912 102.079 69.8976 101.923 69.7104 101.829C68.3688 101.205 67.7448 100.051 67.3704 98.709C67.3392 98.6154 67.308 98.5218 67.2456 98.3034C66.84 99.0834 66.2784 99.6138 65.6856 100.144C65.0616 100.737 64.188 100.737 63.4392 101.205C64.7184 101.954 65.4672 102.983 65.7168 104.325C65.9976 105.667 65.6856 106.883 64.8432 107.913C64.0008 109.005 62.784 109.442 61.4112 109.629C62.628 110.222 63.5016 111.095 63.8448 112.375C64.0632 113.217 64.0944 114.122 63.7512 114.964C62.8776 117.242 61.0368 117.991 58.7592 117.616C57.2304 117.367 55.8576 115.557 55.7328 113.779C55.608 111.907 56.6064 109.879 59.664 109.348C59.1336 108.724 58.3224 108.475 57.8544 107.757C57.4176 107.071 57.1368 106.322 56.9184 105.355C56.6376 106.072 56.232 106.509 55.8264 106.883C55.296 107.414 54.6408 107.788 53.892 108.007C53.5176 108.131 53.4552 108.319 53.736 108.568C54.0168 108.818 54.2976 109.067 54.516 109.348C55.3896 110.471 55.7016 111.657 55.296 113.092C54.9528 114.403 54.1416 115.276 53.0184 115.9C51.5208 116.68 50.0544 116.493 48.6504 115.619C48.1512 115.307 47.7768 114.777 47.4336 114.278C46.9656 113.623 46.8408 112.843 46.6224 111.907C45.8112 114.153 44.2512 115.089 42.0672 115.245C42.7536 115.744 43.5648 116.025 44.0328 116.711C44.5008 117.398 44.8128 118.115 44.8752 118.958C44.9376 119.831 44.7192 120.643 44.2512 121.36C43.284 122.827 41.5056 123.7 39.852 123.17C37.668 122.483 36.5448 120.83 36.7944 118.646C36.9816 117.117 37.8864 115.432 41.1624 114.995C40.1952 114.496 39.2904 114.091 38.76 113.186C38.2296 112.312 38.0112 111.345 37.9176 110.284C37.512 111.22 37.0752 112.125 36.2016 112.687C35.328 113.217 34.4232 113.591 33.3312 113.654C35.4216 114.652 36.4512 116.212 36.0768 118.521C34.9536 121.423 33.0816 121.859 31.3344 121.579C29.4936 121.298 28.2456 119.644 28.0272 118.084C27.84 116.774 28.3704 115.682 29.244 114.746C30.1488 113.779 31.3656 113.591 32.6136 113.435C31.4904 113.123 30.6168 112.499 30.024 111.595C29.4 110.69 29.244 109.598 29.3064 108.506C29.0568 108.443 29.0568 108.568 29.0568 108.662C28.8072 109.879 28.0272 110.69 27.0288 111.345C25.968 112 24.8136 112.125 23.6592 111.719C22.6296 111.345 21.756 110.721 21.2256 109.691C20.9136 109.13 20.82 108.537 20.664 107.944C20.6016 107.757 20.6328 107.539 20.4144 107.289C19.9776 108.787 18.9168 109.629 17.5752 110.035C16.7016 110.284 15.7344 110.284 14.892 109.816C12.9888 108.787 12.2088 107.476 12.5208 105.261C12.8016 103.358 14.6112 102.079 16.2648 101.985C17.6064 101.891 18.6984 102.422 19.572 103.327C20.4768 104.263 20.6328 105.511 20.664 106.79C21.3504 104.668 22.7856 103.545 24.9696 103.202C23.3784 102.422 22.38 101.267 22.068 99.5514C21.7248 99.6138 21.5688 99.8946 21.4128 100.113C20.508 101.33 18.2928 101.923 16.8888 101.517C14.7672 100.862 13.4568 98.6778 13.8312 96.6498C14.112 95.0274 15.0168 93.8106 16.6704 93.3114C16.92 93.2178 17.1696 93.0618 17.4504 93.0618C17.544 93.0618 17.6376 92.9994 17.6688 92.8746C17.6688 92.7498 17.6064 92.6874 17.4816 92.6562C16.2648 92.2506 15.6408 91.2834 15.0792 90.2226C14.9232 89.9106 15.0168 89.5362 14.8296 89.2242C14.6424 89.2554 14.4864 89.349 14.3928 89.505C13.644 90.6594 12.5208 91.1586 11.2416 91.377C10.3368 91.533 9.49441 91.1586 8.71441 90.7218C7.40401 90.0042 6.78001 88.7874 6.68641 87.3834C6.59281 86.0106 7.02961 84.7938 8.18401 83.8578C8.93281 83.2338 9.77521 82.9842 10.6488 82.797C10.8048 82.7658 10.9608 82.797 11.0856 82.5786C8.80801 81.9234 7.96561 80.2074 7.68481 77.8362C7.15441 79.1154 6.49921 80.0202 5.34481 80.5194C4.19041 80.9874 3.00481 80.9874 1.94401 80.457C0.321612 79.6146 -0.676788 77.9922 -0.271188 75.9954C0.134412 74.061 1.56961 72.9066 3.53521 72.7506C4.31521 72.6882 5.03281 72.969 5.71921 73.3122C6.49921 73.6866 6.93601 74.3106 7.31041 75.0282C7.65361 75.7146 7.74721 76.4946 7.84081 77.2746C8.27761 76.3386 8.68321 75.3714 9.61921 74.841C10.4928 74.3418 11.3976 73.8738 12.4896 73.8738C11.616 73.437 10.8048 73.0626 10.2432 72.2202C9.71281 71.4402 9.30721 70.5978 9.18241 69.6306C8.74561 70.629 8.15281 71.4402 7.15441 71.9394C6.18721 72.4386 5.18881 72.657 4.15921 72.2826C1.60081 71.3778 1.00801 69.4434 1.22641 67.7274C1.50721 65.7618 3.25441 64.545 4.75201 64.3266C6.00001 64.1394 7.06081 64.6074 7.96561 65.3562C8.90161 66.1362 9.21361 67.2594 9.40081 68.445C9.74401 67.5714 10.3056 66.8538 10.9296 66.261C11.5848 65.637 12.5208 65.5434 13.3944 65.169C11.616 63.9834 10.5552 62.517 11.0232 60.3642C11.5536 57.9618 13.5192 56.9946 15.0168 56.901C16.1712 56.8074 17.1696 57.3066 18.0432 58.0242C18.948 58.773 19.2288 59.8338 19.6032 60.8634C19.884 60.9258 19.8216 60.7074 19.9152 60.6138C20.508 59.6778 21.288 58.9602 22.2864 58.5234C22.5048 58.4298 22.7232 58.4298 22.9416 58.3986C23.1288 58.3674 23.316 58.3674 23.3472 58.149C23.4096 57.8994 23.2224 57.8682 23.0664 57.7746C22.2552 57.1818 21.6312 56.4642 21.3504 55.4346C21.0072 54.249 21.0696 53.1258 21.6 52.0338C22.0992 51.0354 22.9104 50.4426 23.9088 49.9746C24.72 49.569 25.5624 49.6626 26.3736 49.6938C26.748 49.725 27.1224 50.0058 27.4968 50.193C28.776 50.817 29.4936 51.909 29.8368 53.2506C29.868 53.3754 29.868 53.5002 29.9928 53.5938C30.4608 52.9386 31.0224 52.377 31.6152 51.8154C32.2392 51.2226 33.144 51.3162 33.7992 50.817C31.5528 49.2882 31.0848 47.4474 31.5216 45.9498C32.2392 43.3914 34.2048 42.393 36.1704 42.5802C37.9488 42.7674 39.7272 43.7346 40.2888 47.0418C41.3496 44.6706 43.1592 43.797 45.5928 44.0466C47.496 44.8578 48.9 46.1058 48.9936 48.4146C50.0232 46.5426 51.4272 45.4506 53.6112 45.6066C55.8576 45.7626 57.012 47.1354 57.6984 49.1946C58.728 47.8218 59.9136 46.8546 61.692 46.8234C61.1616 46.4802 60.7248 46.1058 60.288 45.7002C59.6328 45.1386 59.3208 44.3898 59.196 43.5786C59.1336 43.0482 59.1336 42.5178 59.196 42.0186C59.2896 41.3634 59.6016 40.7394 60.0384 40.2402C61.4736 38.5242 63.9072 38.337 65.6544 39.5226C67.1208 40.521 67.6512 42.5802 67.0896 44.2026C66.6528 45.513 65.7168 46.293 64.5 46.8234C64.2816 46.917 64.0632 46.8858 63.8448 46.917C63.6264 46.9482 63.3768 46.8546 63.1896 47.1042C64.188 47.5098 64.9056 48.1962 65.4672 49.101C66.0288 50.0058 66.1536 50.973 66.1848 52.0026C66.4344 51.6594 66.4656 51.2226 66.6216 50.8794C67.4016 49.3194 68.712 48.7266 70.3344 48.5706C70.74 48.4458 70.9896 48.477 71.2392 48.4458ZM26.0304 103.451C27.3096 103.888 28.2768 104.699 28.9008 105.885C29.2128 106.478 29.2128 107.133 29.3688 107.757C29.4 107.882 29.3688 108.069 29.6496 108.069C29.7432 107.133 30.3984 106.54 30.9912 105.916C31.6152 105.261 32.5824 105.23 33.4248 104.762C32.7384 104.481 32.3016 104.044 31.896 103.607C31.3968 103.077 30.9912 102.484 30.9288 101.735C30.8976 101.517 30.7728 101.267 30.5544 101.236C30.336 101.174 30.3048 101.455 30.2424 101.579C29.4624 102.703 28.4016 103.295 27.0288 103.358C26.6856 103.358 26.3424 103.327 26.0304 103.451ZM72.2376 69.693C72.8304 68.8506 73.4544 68.1954 74.2344 67.7898C75.0456 67.353 75.9504 67.4466 76.824 67.2906C76.3872 67.197 76.0128 67.0098 75.7008 66.7914C74.7024 66.1362 73.8912 65.3562 73.704 64.1082C73.6416 63.765 73.4232 63.453 73.236 62.9538C72.5496 64.701 71.3328 65.5746 69.7104 65.949C71.0208 66.885 71.8632 68.0082 72.2376 69.693ZM16.6704 77.9922C17.4816 76.8378 18.2616 75.8394 19.6344 75.4962C19.8216 75.465 19.9776 75.4026 20.0088 75.1842C20.04 74.997 19.8528 74.9658 19.7592 74.8722C18.948 74.217 18.3552 73.437 18.1056 72.4074C18.0432 72.1266 17.9184 71.8458 17.7936 71.5026C16.8264 73.125 15.4848 73.9674 13.644 73.9674C13.5192 73.9674 13.332 73.9674 13.332 74.2482C15.2976 74.6538 16.2336 76.1202 16.6704 77.9922ZM11.7096 82.7346C11.8968 82.8906 11.928 82.953 11.9592 82.953C13.1136 83.1714 13.956 83.8578 14.58 84.825C14.8296 85.2306 15.0168 85.6362 15.0792 86.1354C15.1416 86.4474 15.3912 86.5098 15.6096 86.2602C15.672 86.1978 15.7032 86.073 15.7656 86.0106C16.3272 85.3554 16.8576 84.7314 17.7624 84.4506C18.0744 84.357 18.4176 84.3258 18.7608 84.1386C18.1992 83.5146 17.5752 83.0154 17.076 82.4226C16.5456 81.7986 16.6392 80.925 16.14 80.2386C15.204 81.9234 13.7688 82.7034 11.7096 82.7346ZM62.784 55.6842C62.8152 55.8402 62.8776 55.8714 62.94 55.9026C63.9384 56.4642 64.656 57.2754 64.9992 58.3986C65.124 58.8042 65.3112 58.8042 65.6232 58.5234C66.5904 57.681 67.5888 56.9946 68.9616 57.057C69.1176 57.057 69.3048 57.057 69.492 56.9322C68.9616 56.8386 68.556 56.4642 68.1192 56.2458C67.6824 56.0274 67.4016 55.6842 67.152 55.2786C66.6528 54.5298 66.4344 53.7186 66.3096 52.845C66.2784 52.7202 66.2472 52.5642 66.1224 52.5642C65.9664 52.5642 65.9352 52.689 65.904 52.8138C65.5296 53.937 64.7496 54.717 63.6888 55.1538C63.3456 55.2786 63.0648 55.4658 62.784 55.6842ZM35.7024 105.261C36.5448 105.667 37.0752 106.322 37.512 107.071C37.9488 107.819 38.1048 108.631 38.3232 109.504C38.916 107.695 40.2576 106.821 41.9424 106.384C41.9112 106.291 41.9424 106.259 41.9112 106.228C40.788 105.511 39.9456 104.606 39.5712 103.327C39.54 103.171 39.4152 103.015 39.1656 103.015C38.4168 104.325 37.1376 104.855 35.7024 105.261ZM46.9656 110.846C47.5896 109.535 48.3384 108.443 49.8048 108.007C50.3976 107.819 50.4288 107.601 49.9608 107.164C49.212 106.54 48.588 105.823 48.432 104.824C48.4008 104.731 48.4008 104.606 48.276 104.606C48.12 104.575 47.9952 104.637 47.9016 104.762C47.2464 105.573 46.4976 106.228 45.4368 106.509C45.156 106.603 44.8128 106.603 44.532 106.852C45.2808 107.289 45.8424 107.819 46.2792 108.506C46.6536 109.255 46.8096 110.035 46.9656 110.846ZM18.2304 69.1626C18.4488 69.069 18.48 68.9754 18.5112 68.8818C19.0416 67.821 19.9152 67.2282 20.976 66.8226C21.132 66.7602 21.3504 66.8226 21.3816 66.573C21.3816 66.3546 21.288 66.2298 21.1008 66.105C20.6016 65.7306 20.2272 65.2314 19.9776 64.6074C19.8216 64.233 19.7592 63.8586 19.6656 63.4842C19.6344 63.297 19.5408 63.0786 19.3224 63.0786C19.104 63.0786 19.1352 63.2658 19.0728 63.3906C18.4176 64.3266 17.6688 65.0754 16.4832 65.2938C16.2336 65.3562 15.9528 65.4186 15.7968 65.6994C17.1384 66.4794 17.9184 67.665 18.2304 69.1626ZM42.1608 52.065C41.4744 51.5346 41.0376 50.973 40.6944 50.3178C40.3512 49.6626 40.3824 48.9138 40.2576 48.1026C39.7896 48.9762 39.3216 49.6314 38.7288 50.2242C38.1048 50.8482 37.2 50.9106 36.3888 51.3162C37.4808 52.1586 38.5416 52.9386 38.8848 54.4986C39.7584 53.2194 40.8192 52.5018 42.1608 52.065ZM25.8432 94.3722C24.408 93.6234 23.784 92.4066 23.3784 91.0338C22.1928 92.2818 21.6 92.781 19.8528 93.1866C20.3832 93.7794 21.132 94.029 21.6 94.6218C22.068 95.2458 22.224 96.0258 22.6296 96.7434C23.316 95.6514 24.096 95.0898 25.8432 94.3722ZM65.4984 92.4378C65.8104 92.6874 65.9976 92.9058 66.216 93.093C66.84 93.6546 67.3392 94.3098 67.464 95.2146C67.4952 95.5266 67.6512 95.8074 67.932 96.0882C68.6808 94.5594 69.9288 93.873 71.5824 93.561C70.5216 92.9994 69.6792 92.3754 69.1488 91.4394C69.024 91.221 69.0552 90.9402 68.8992 90.753C68.7432 90.5658 68.6184 90.4098 68.4 90.7218C67.6824 91.5954 66.7152 92.0946 65.4984 92.4378ZM55.3896 99.6138C55.5768 99.8322 55.6704 99.9882 55.7952 100.113C56.388 100.862 57.168 101.486 57.2304 102.515C57.2304 102.703 57.324 102.952 57.6672 103.015C58.416 101.673 59.6328 100.987 61.224 100.675C59.8512 99.8946 58.9776 98.8962 58.6032 97.461C57.9792 97.8666 57.7296 98.4906 57.2304 98.8026C56.7 99.2082 56.1384 99.4578 55.3896 99.6138ZM31.4904 59.2098C31.0848 58.7106 30.7104 58.2426 30.336 57.8058C29.9616 57.3378 30.0864 56.589 29.5872 56.121C29.1816 56.8074 28.6512 57.3066 28.0584 57.7434C27.4656 58.1802 26.7168 58.305 25.8744 58.4922C27.3096 59.1474 28.0584 60.2394 28.6512 61.7058C29.1816 60.2082 30.3672 59.7714 31.4904 59.2098ZM71.7384 72.3138C71.0208 73.437 70.272 74.2482 69.18 74.6538C68.8992 74.7474 68.9928 74.9034 69.0864 75.0594C69.1488 75.153 69.2736 75.2154 69.3672 75.309C69.96 75.8082 70.428 76.401 70.6776 77.1186C70.74 77.337 70.896 77.5242 71.052 77.7738C71.52 77.181 72.0816 76.869 72.6432 76.5258C73.2048 76.1826 73.8912 76.1514 74.5464 75.9954C73.0176 75.2466 72.1752 74.0298 71.7384 72.3138ZM57.4176 52.0026C56.6688 53.2194 55.7016 53.8434 54.4848 54.405C55.764 55.0914 56.076 56.3082 56.6688 57.4002C57.2616 56.4954 58.0104 55.8714 59.0088 55.6218C59.3208 55.5282 59.508 55.341 59.7888 55.0602C58.572 54.405 57.9168 53.3754 57.4176 52.0026ZM48.9624 49.9746C48.276 50.973 47.7456 51.8154 46.8096 52.2834C46.6224 52.377 46.3728 52.4082 46.1856 52.533C45.9984 52.6578 45.8424 52.8138 46.1232 53.0322C46.56 53.4066 46.8408 53.8746 47.2152 54.3114C47.5272 54.6858 47.5584 55.2162 48.0264 55.5906C48.276 55.029 48.7128 54.6858 49.1808 54.3738C49.6488 54.0618 50.2728 53.937 50.772 53.5314C49.7112 52.6266 49.056 51.5346 48.9624 49.9746ZM34.0176 95.9946C33.8616 95.8074 33.768 95.6826 33.612 95.589C32.9568 95.121 32.6448 94.3722 32.208 93.7482C31.896 93.3114 31.9272 93.2802 31.5216 93.6234C31.0536 94.029 30.5544 94.341 29.9928 94.6218C29.6496 94.7778 29.2752 94.8714 28.932 95.0898C30.0864 95.901 30.7728 96.9618 31.0536 98.3034C31.584 97.8978 31.8336 97.305 32.364 96.9618C32.9256 96.6186 33.3624 96.1818 34.0176 95.9946ZM23.9088 87.9138C24.5328 86.9154 25.2504 86.3226 26.124 85.8858C26.6856 85.605 26.7168 85.5114 26.28 85.0746C25.7496 84.5442 25.3128 83.9826 25.0944 83.2338C24.9384 82.6722 24.7512 82.6098 24.3144 83.0778C23.7528 83.6706 23.1288 84.1698 22.2864 84.3258C22.068 84.357 21.8808 84.4818 21.756 84.7002C22.7544 85.4802 23.628 86.385 23.9088 87.9138ZM69.3984 86.6034C70.4592 85.6674 71.3952 84.7938 72.8304 84.7314C72.5496 84.6066 72.456 84.3882 72.2376 84.2634C71.6136 83.9514 71.208 83.4522 70.8648 82.8906C70.7088 82.6098 70.6464 82.2666 70.428 82.0482C70.3032 81.9546 70.2408 81.7986 70.0848 81.9858C69.3672 82.7658 68.4624 83.2962 67.3704 83.8266C68.5248 84.4194 68.868 85.5426 69.3984 86.6034ZM51.6456 99.177C51.6144 99.0522 51.6456 99.021 51.6144 99.021C50.9592 98.3658 50.2416 97.773 49.8984 96.8682C49.836 96.681 49.5864 96.6186 49.3368 96.837C48.744 97.3362 48.1824 97.8978 47.3712 98.085C47.028 98.1786 46.9968 98.4594 47.2776 98.6778C47.8704 99.2082 48.3384 99.8322 48.4944 100.643C48.5256 100.862 48.6816 101.049 48.9 101.143C49.6488 100.269 50.3976 99.3642 51.6456 99.177ZM25.5312 78.6474C26.1552 77.7114 27.06 77.181 27.996 76.6818C27.4344 75.933 26.8104 75.309 26.5296 74.4666C26.436 74.1546 26.1864 74.1234 25.9368 74.4042C25.3752 74.9658 24.72 75.3714 23.94 75.5586C23.7528 75.5898 23.5968 75.6522 23.5344 75.8706C23.4408 76.1202 23.6904 76.1514 23.784 76.245C24.5328 76.869 25.188 77.5866 25.5312 78.6474ZM64.5624 62.4858C63.8448 63.4218 63.0336 64.077 61.8792 64.389C62.6592 65.2314 63.5016 65.949 63.8136 67.197C64.656 66.1674 65.6856 65.7618 66.9024 65.4186C65.6232 64.7634 65.0928 63.6714 64.5624 62.4858ZM42.6912 97.5546C41.9424 96.8058 41.2872 96.1506 40.9128 95.2458C40.8192 95.0274 40.6008 95.1834 40.476 95.277C39.9456 95.8074 39.3216 96.1818 38.604 96.4002C38.292 96.4938 38.2296 96.8058 38.448 97.0554C39.072 97.6482 39.5088 98.3346 39.696 99.177C39.7896 99.5202 40.1016 99.5514 40.2888 99.2706C40.8816 98.4594 41.6304 97.929 42.6912 97.5546ZM28.0272 65.2002C27.216 66.1362 26.3736 66.8538 25.1256 67.2594C26.0928 67.9146 26.5608 68.8818 27.0912 69.8178C27.8712 69.0066 28.62 68.2578 29.712 67.9146C29.0256 67.041 28.3704 66.261 28.0272 65.2002ZM62.1288 91.9698C61.3488 91.1274 60.6 90.3786 60.132 89.3802C59.4456 89.973 58.8528 90.5658 58.0104 90.8778C57.7296 90.9714 57.6984 91.2522 57.9168 91.533C58.4472 92.2194 59.0088 92.9058 59.1648 93.873C59.6328 93.4362 60.0072 92.9994 60.444 92.6562C60.912 92.313 61.4112 92.0322 62.1288 91.9698ZM55.3896 65.169C55.608 65.169 55.6704 65.013 55.7328 64.9194C56.1696 64.4514 56.7 64.1706 57.2928 63.9834C57.7296 63.8274 57.7608 63.765 57.4488 63.3906C56.9496 62.7978 56.4192 62.2674 56.2008 61.4874C56.1072 61.113 55.8888 61.0818 55.6392 61.3938C55.1712 61.9242 54.6096 62.2986 54.0168 62.6418C53.6112 62.8914 53.58 62.9538 53.9232 63.3282C54.3912 63.8274 54.8904 64.2954 55.14 64.9818C55.14 65.1066 55.2648 65.169 55.3896 65.169ZM40.1016 60.3954C39.072 59.865 38.9784 58.8042 38.3544 58.0242C37.6056 58.8354 36.888 59.6466 35.7336 60.0522C36.5136 60.489 36.8256 61.1442 37.2 61.7682C37.4184 62.1426 37.4808 62.1738 37.7928 61.9242C38.4792 61.3626 39.1968 60.8634 40.1016 60.3954ZM48.744 61.9242C47.7768 61.3938 47.7768 60.2394 46.9968 59.6466C46.404 60.4578 45.624 60.9258 44.7816 61.3938C45.3744 61.9866 45.9984 62.5482 46.3104 63.297C46.404 63.5466 46.6536 63.4218 46.8096 63.2658C47.2152 62.7978 47.7456 62.517 48.3072 62.2674C48.4008 62.205 48.4944 62.0802 48.744 61.9242ZM63.0024 71.8146C62.4408 72.2826 62.004 72.7818 61.38 73.0626C61.0368 73.2186 61.0368 73.4058 61.2552 73.7178C61.536 74.0922 61.848 74.4666 62.0352 74.8722C62.1912 75.1842 62.3784 75.4338 62.6592 75.621C63.2208 75.2154 63.6576 74.7474 64.3128 74.5602C64.7808 74.4354 64.7808 74.1546 64.4064 73.8426C63.7824 73.3122 63.3144 72.657 63.0024 71.8146ZM61.692 80.769C61.4112 80.8626 61.2864 81.0186 61.1304 81.1746C60.7872 81.5178 60.3816 81.7986 59.976 82.0794C59.6016 82.329 59.5704 82.3602 59.8512 82.7346C60.1632 83.1714 60.4752 83.6082 60.6936 84.0762C60.756 84.2322 60.8496 84.4506 61.0992 84.513C61.6296 83.7018 62.6592 83.5458 63.3456 82.8906C62.6592 82.2354 62.0352 81.6426 61.692 80.769ZM34.6728 87.009C34.7352 86.8218 34.5168 86.7594 34.392 86.6658C33.9864 86.2914 33.7056 85.8546 33.4872 85.3554C33.3624 85.0746 33.1128 85.0122 32.9568 85.2618C32.6136 85.761 32.052 85.8546 31.6152 86.1042C31.1784 86.3538 31.1472 86.3538 31.4904 86.7282C31.9272 87.1962 32.2704 87.7266 32.5824 88.257C32.8008 88.6002 32.8632 88.6314 33.1752 88.3506C33.5808 87.9762 33.9552 87.5394 34.5168 87.3522C34.6728 87.321 34.6728 87.1962 34.6728 87.009ZM37.7304 69.1314C37.5744 68.913 37.356 68.7258 37.2936 68.4762C37.2 68.1954 36.9816 67.977 36.888 67.6962C36.7944 67.3842 36.576 67.3218 36.264 67.5402C35.8584 67.821 35.4528 68.1642 34.9536 68.3514C34.548 68.5386 34.5168 68.757 34.8288 69.1002C35.1096 69.4122 35.4216 69.693 35.6088 70.0674C35.7648 70.473 35.9832 70.3794 36.2328 70.1922C36.732 69.8802 37.2 69.5058 37.7304 69.1314ZM49.368 89.6922C49.7736 90.3786 50.2104 90.9402 50.3976 91.6266C50.46 91.6266 50.4912 91.6266 50.5224 91.6266C51.1776 91.3146 51.6144 90.6594 52.332 90.3786C52.5504 90.3162 52.488 90.0666 52.3008 89.8794C52.02 89.5674 51.6768 89.2866 51.5208 88.8498C51.3648 88.4754 51.1464 88.5066 50.772 88.7874C50.3664 89.1306 49.992 89.5362 49.368 89.6922ZM34.86 76.401C34.2672 76.8378 33.6432 77.181 33.0192 77.493C33.2376 78.0858 33.7368 78.429 34.0176 78.9282C34.2672 79.365 34.2984 79.365 34.704 79.0218C34.9848 78.8034 35.2344 78.585 35.5152 78.3978C35.8896 78.1482 35.9208 78.0858 35.6712 77.7114C35.4216 77.3058 35.1096 76.9002 34.86 76.401ZM54.2352 70.5978C53.8296 70.941 53.5488 71.2842 53.1432 71.5026C52.7376 71.721 52.7688 71.7522 53.0808 72.189C53.2992 72.4698 53.5176 72.7818 53.6736 73.125C53.7984 73.3746 53.9856 73.4058 54.1416 73.281C54.516 73.0314 54.8904 72.813 55.296 72.6258C55.4208 72.5634 55.7016 72.3762 55.4832 72.1578C55.0152 71.6898 54.7032 71.097 54.2352 70.5978ZM42.0672 87.1338C41.6616 87.477 41.2248 87.7266 40.788 87.9762C40.5696 88.101 40.5384 88.257 40.6632 88.3818C41.0376 88.7874 41.2248 89.2866 41.5056 89.7546C41.6616 90.0042 41.7864 89.9418 41.9736 89.7858C42.2856 89.4738 42.5976 89.1618 42.972 88.9434C43.2528 88.7562 43.2216 88.5378 43.0656 88.3818C42.6912 88.0074 42.5352 87.4458 42.0672 87.1338ZM45.468 69.2562C45.156 69.225 45.0312 69.4434 44.844 69.5682C43.8768 70.317 43.908 70.317 44.6568 71.2842C44.8752 71.565 45.0936 71.565 45.2496 71.3778C45.5616 71.0346 46.2792 71.1594 46.248 70.473C46.248 70.4418 46.248 70.4106 46.248 70.4106C46.0296 70.0362 45.8424 69.693 45.624 69.3498C45.5616 69.2874 45.468 69.2562 45.468 69.2562ZM52.332 82.2354C52.7688 82.017 53.2056 81.7674 53.6112 81.4242C53.7672 81.2994 53.7984 81.2058 53.6736 81.0498C53.3928 80.7066 53.1744 80.3322 52.8312 80.0514C52.7376 79.989 52.6752 79.8954 52.5816 79.9578C52.2696 80.1762 51.9576 80.4258 51.6768 80.6754C51.552 80.8002 51.552 81.0186 51.6456 81.1434C51.8952 81.4866 51.9888 81.9234 52.332 82.2354ZM43.284 80.3946C43.6272 80.2698 43.908 80.0826 44.22 79.8954C44.4384 79.7394 44.4696 79.521 44.376 79.3962C44.22 79.1466 44.1264 78.8346 43.8768 78.6786C43.7832 78.6162 43.6896 78.4602 43.5648 78.5538C43.2216 78.741 42.816 78.897 42.66 79.2714C42.5664 79.521 42.816 79.7394 43.0032 79.9578C43.0968 80.0826 43.0968 80.2698 43.284 80.3946Z" fill="white"/>
<path d="M27.1536 49.3818C24.8136 49.4754 23.0352 47.4786 23.0664 45.1698C23.0976 42.7986 24.876 41.0514 27.216 41.0514C29.6808 41.0514 31.428 42.9546 31.3968 45.2946C31.3656 47.697 29.4624 49.5378 27.1536 49.3818Z" fill="white"/>
<path d="M59.1336 41.301C59.3208 43.329 57.1056 45.3882 54.8904 45.3882C52.7376 45.357 50.7096 43.2042 50.8032 41.0826C50.8968 38.9298 52.7376 37.0266 55.0464 37.0578C57.324 37.089 59.3208 39.0858 59.1336 41.301Z" fill="white"/>
<path d="M79.2576 81.8922C79.164 79.6458 81.192 77.9298 83.4072 77.961C85.716 77.9922 87.5256 79.833 87.4944 82.2042C87.4632 84.357 85.4352 86.3226 83.1888 86.2602C81.1296 86.1978 79.0392 84.2634 79.2576 81.8922Z" fill="white"/>
<path d="M77.7288 90.6594C77.604 88.4754 79.7568 86.5721 82.0032 86.6345C84.0312 86.6969 86.0592 88.6625 85.9656 91.0025C85.872 93.1241 83.844 95.0274 81.7224 94.9338C79.5384 94.9026 77.5104 93.0618 77.7288 90.6594Z" fill="white"/>
<path d="M80.7864 73.281C80.6616 71.253 82.7832 69.1626 84.9672 69.1938C87.12 69.225 89.148 71.3154 89.1168 73.437C89.0856 75.3714 87.1824 77.493 84.8736 77.4618C82.6896 77.4306 80.6304 75.4026 80.7864 73.281Z" fill="white"/>
<path d="M50.3352 39.7098C50.5224 41.8002 48.5256 43.797 46.1544 43.7346C43.9392 43.7034 42.0672 41.769 42.0984 39.5226C42.1296 37.4634 44.0016 35.4354 46.3104 35.4666C48.3072 35.529 50.5848 37.401 50.3352 39.7098Z" fill="white"/>
<path d="M20.976 52.4394C21.1632 54.6546 19.1352 56.589 16.92 56.589C14.8296 56.6202 12.8016 54.5298 12.7704 52.5018C12.7392 50.3178 14.7672 48.321 16.8576 48.321C19.1976 48.321 21.132 50.2242 20.976 52.4394Z" fill="white"/>
<path d="M13.488 95.8698C13.6128 97.929 11.772 99.9258 9.33839 99.8946C7.31039 99.8634 5.28239 97.8978 5.31359 95.7138C5.34479 93.717 7.34159 91.5954 9.55679 91.6578C11.6784 91.7514 13.6752 93.6546 13.488 95.8698Z" fill="white"/>
<path d="M33.456 38.1186C33.3 35.9658 35.3904 34.0002 37.4808 34.0002C39.7272 34.0002 41.568 35.841 41.568 38.0562C41.5368 40.3962 39.852 42.081 37.5744 42.1122C35.2968 42.1746 33.3624 40.2714 33.456 38.1186Z" fill="white"/>
<path d="M83.376 54.3114C83.532 56.1834 81.6288 58.3986 79.2888 58.3674C76.98 58.3362 75.2328 56.3394 75.2328 54.3426C75.2328 52.1586 77.0112 50.2866 79.2888 50.2554C81.5976 50.2242 83.4696 52.2834 83.376 54.3114Z" fill="white"/>
<path d="M90.552 64.6074C90.4896 66.885 88.7424 68.6322 86.5272 68.6946C84.2808 68.757 82.4088 66.729 82.4088 64.6386C82.3776 62.5482 84.4056 60.5202 86.5272 60.5514C88.5864 60.5514 90.552 62.3922 90.552 64.6074Z" fill="white"/>
<path d="M71.2392 48.477C71.1768 48.3834 71.1456 48.2586 71.0832 48.2274C70.584 48.165 70.2408 47.8218 69.8664 47.5722C69.0864 47.1042 68.6496 46.3866 68.3688 45.5442C67.9632 44.421 68.1816 43.4226 68.6496 42.393C69.0552 41.4882 69.804 40.989 70.6464 40.6458C71.1768 40.4274 71.7384 40.1154 72.3624 40.2402C73.1424 40.4274 73.9224 40.677 74.5776 41.1762C75.2016 41.6754 75.6384 42.2994 75.9192 43.0482C76.5744 44.6706 75.7944 46.6986 74.2968 47.6346C73.5792 48.1026 72.7992 48.3522 71.9256 48.3522C71.7072 48.4146 71.4576 48.4146 71.2392 48.477Z" fill="white"/>
<path d="M2.66159 59.553C2.84879 57.2442 4.34639 55.6842 6.68639 55.6842C9.02639 55.6842 10.68 57.525 10.6488 59.709C10.6176 61.9242 8.74559 63.7026 6.59279 63.6714C4.37759 63.5778 2.72399 61.893 2.66159 59.553Z" fill="white"/>
<path d="M28.776 40.5834C27.9024 40.365 26.9976 40.1466 26.28 39.585C25.6872 39.117 25.2816 38.493 25.0944 37.7754C25.032 37.5882 24.9696 37.401 24.876 37.2138C24.72 36.9642 24.6888 36.6834 24.7512 36.4026C25.032 35.2482 25.344 34.0938 26.4048 33.3762C27.0288 32.9394 27.7152 32.5962 28.4952 32.5026C29.4 32.409 30.2424 32.721 30.9912 33.2514C32.0832 34.0002 32.7072 35.061 32.8008 36.3402C32.9256 37.8378 31.8024 39.741 30.1488 40.209C29.6808 40.3026 29.3064 40.677 28.776 40.5834Z" fill="white"/>
<path d="M2.2872 89.5362C0.134396 89.349 -1.6128 87.8202 -1.7376 85.5426C-1.8 84.4818 -1.3008 83.5458 -0.552003 82.7658C0.227997 81.9546 1.2576 81.5178 2.2872 81.5178C3.2856 81.5178 4.3152 81.9546 5.064 82.7346C5.844 83.5146 6.2496 84.513 6.2496 85.5114C6.2496 86.5098 5.844 87.5394 5.0328 88.2882C4.3776 88.9746 3.1296 89.5362 2.2872 89.5362Z" fill="white"/>
<path d="M18.5112 47.6658C16.2648 47.541 14.5488 46.0746 14.5176 43.7346C14.4864 41.5194 16.2336 39.741 18.4488 39.741C20.5704 39.7098 22.4112 41.2698 22.4424 43.6722C22.4424 45.981 20.9448 47.4474 18.5112 47.6658Z" fill="white"/>
<path d="M12.0216 50.9106C12.084 52.9074 10.3368 54.717 8.1528 54.6858C5.9688 54.6546 4.37761 52.9074 4.40881 50.7858C4.44001 48.8202 6.12481 46.9794 8.34001 47.0106C10.3056 47.073 12.1776 48.9762 12.0216 50.9106Z" fill="white"/>
<path d="M88.2432 83.6706C88.1496 81.6114 89.9904 79.8018 92.0496 79.833C94.2336 79.8642 95.856 81.3618 95.8872 83.6394C95.8872 85.9482 94.1088 87.477 92.0808 87.5082C90.0528 87.5394 88.1496 85.6986 88.2432 83.6706Z" fill="white"/>
<path d="M56.232 36.2154C54.204 36.4026 52.4256 34.4994 52.4256 32.409C52.4256 30.537 54.36 28.6026 56.2632 28.6026C58.1976 28.6338 60.1008 30.4122 60.0696 32.5026C59.976 34.5618 58.3848 36.3714 56.232 36.2154Z" fill="white"/>
<path d="M93.7032 71.1594C95.7936 71.0346 97.4472 72.9066 97.4472 74.9658C97.4472 76.869 95.7312 78.741 93.6096 78.741C91.6752 78.741 89.8032 76.7754 89.8344 74.8722C89.8656 72.969 91.644 70.941 93.7032 71.1594Z" fill="white"/>
<path d="M47.808 27.105C49.68 26.9178 51.708 28.8834 51.6768 30.9114C51.6456 32.8146 49.9296 34.7178 47.8392 34.6866C45.7176 34.6554 44.064 33.0642 44.0328 30.9426C44.0016 28.7898 45.7488 27.0114 47.808 27.105Z" fill="white"/>
<path d="M90.5208 96.1194C88.3992 96.2442 86.7768 94.4658 86.7456 92.3442C86.7144 90.285 88.6176 88.5378 90.552 88.5066C92.5488 88.5066 94.3896 90.4722 94.3584 92.313C94.3584 94.4034 92.6424 96.3066 90.5208 96.1194Z" fill="white"/>
<path d="M84.5928 45.6378C84.6864 47.7282 82.9392 49.3818 80.7864 49.3818C78.7896 49.3818 77.0112 47.541 77.0112 45.5442C77.0112 43.7346 78.8208 41.7378 80.88 41.769C82.8144 41.8002 84.78 43.485 84.5928 45.6378Z" fill="white"/>
<path d="M4.5024 94.341C4.5336 96.3066 2.8176 98.1162 0.633604 98.0538C-1.4256 97.9914 -3.0792 96.3378 -3.048 94.1538C-3.0168 92.1882 -1.2696 90.4098 0.820804 90.441C2.6928 90.441 4.6896 92.313 4.5024 94.341Z" fill="white"/>
<path d="M91.7688 55.8402C91.9872 57.8994 89.928 59.6466 88.056 59.709C86.1216 59.7402 84.1872 57.7434 84.1872 55.9338C84.1872 53.937 85.9968 52.065 88.0248 52.065C90.1152 52.1274 91.8936 53.781 91.7688 55.8402Z" fill="white"/>
<path d="M64.9368 30.2874C66.8712 30.0378 68.7432 32.1594 68.7744 34.0002C68.7744 35.9658 66.9336 37.869 64.968 37.8378C62.9712 37.8378 61.1928 36.0282 61.1928 34.0626C61.1616 32.0346 63.0648 30.1002 64.9368 30.2874Z" fill="white"/>
<path d="M42.816 29.3202C42.972 31.473 40.8504 33.1266 39.1032 33.1266C37.4184 33.1578 35.2968 31.5042 35.2968 29.3514C35.328 27.261 37.2 25.5762 39.1032 25.6074C41.0064 25.6386 42.9096 27.261 42.816 29.3202Z" fill="white"/>
<path d="M23.784 34.9362C23.8776 37.1202 21.8808 38.7114 20.04 38.7114C18.2304 38.7114 16.296 37.1514 16.296 34.9674C16.296 32.8146 18.0744 31.2546 20.0088 31.2546C22.068 31.2234 23.8152 32.9394 23.784 34.9362Z" fill="white"/>
<path d="M95.232 69.849C93.1416 69.8802 91.488 68.0706 91.488 66.1362C91.488 64.1082 93.4224 62.3922 95.232 62.3922C96.9792 62.3922 98.9448 64.0458 98.9448 66.105C98.9448 68.1642 97.1976 69.8802 95.232 69.849Z" fill="white"/>
<path d="M13.4256 42.1122C13.2696 44.4522 11.928 45.669 9.7752 45.7938C8.808 45.8562 7.9032 45.4818 7.1856 44.733C6.468 44.0154 6.0624 43.1106 6.0312 42.1746C6 41.2074 6.4368 40.3026 7.1232 39.585C7.8096 38.8362 8.7456 38.3682 9.744 38.4306C11.8344 38.5866 13.2696 39.8034 13.4256 42.1122Z" fill="white"/>
<path d="M0.384009 66.885C0.196809 67.7274 0.0408096 68.6634 -0.739191 69.3498C-1.45679 70.0362 -2.36159 70.473 -3.29759 70.473C-4.26479 70.473 -5.16959 70.0674 -5.88719 69.381C-6.63599 68.6634 -7.10399 67.7274 -7.04159 66.7602C-6.88559 64.6698 -5.66879 63.141 -3.35999 63.141C-0.988791 63.1722 0.134409 64.6698 0.384009 66.885Z" fill="white"/>
<path d="M73.7976 39.3042C71.52 39.1482 70.0224 37.713 70.0848 35.5914C70.1472 33.2826 71.6136 32.0346 73.7352 31.941C74.5776 31.9098 75.4512 32.1906 76.1064 32.8146C76.8864 33.5634 77.448 34.5618 77.3856 35.6226C77.3544 36.621 76.9176 37.557 76.1688 38.3058C75.4512 38.961 74.6088 39.1482 73.7976 39.3042Z" fill="white"/>
<path d="M1.88161 58.0554C1.72561 60.177 0.415209 61.6434 -1.73759 61.7058C-3.73439 61.7682 -5.35679 60.1458 -5.38799 58.1178C-5.41919 56.2458 -3.98399 54.405 -1.76879 54.4362C0.47761 54.4986 1.66321 55.965 1.88161 58.0554Z" fill="white"/>
<path d="M30.4608 24.2346C32.6136 24.297 33.924 25.8882 33.8928 27.9162C33.8304 30.2562 32.0208 31.3794 30.336 31.4106C29.3376 31.4418 28.4328 30.9738 27.7152 30.225C27.0288 29.5386 26.9352 28.6026 26.7168 27.729C27.1224 25.6386 28.0272 24.2658 30.4608 24.2346Z" fill="white"/>
<path d="M89.6784 43.6098C91.332 43.4226 93.204 45.3258 93.1416 47.1666C93.1104 48.8826 91.488 50.661 89.5536 50.661C87.744 50.661 86.028 48.9138 86.0592 47.0418C86.0904 45.3882 87.8688 43.3602 89.6784 43.6098Z" fill="white"/>
<path d="M-0.208806 45.8562C1.35119 45.669 3.34799 47.4786 3.31679 49.3506C3.28559 51.0354 1.56959 52.845 -0.208806 52.845C-1.98721 52.845 -3.7032 51.0042 -3.7344 49.3818C-3.7656 47.5098 -1.80001 45.6378 -0.208806 45.8562Z" fill="white"/>
<path d="M78.9768 37.1202C78.852 35.5914 80.4744 33.657 82.4712 33.6882C84.2496 33.7194 85.9344 35.373 85.9344 37.1826C85.9344 39.0546 84 40.677 82.4088 40.6458C80.6928 40.6146 78.8208 38.9298 78.9768 37.1202Z" fill="white"/>
<path d="M93.36 57.4002C93.2664 55.5282 95.076 53.9994 96.792 53.9994C98.6952 53.9994 100.318 55.8402 100.255 57.4938C100.224 59.1474 98.664 60.8946 96.7296 60.8634C95.1072 60.8322 93.204 59.397 93.36 57.4002Z" fill="white"/>
<path d="M61.224 23.7042C61.3176 25.701 59.5392 27.1362 57.8232 27.1674C55.8264 27.1674 54.3288 25.4202 54.3288 23.7666C54.3288 22.113 55.8264 20.3346 57.7608 20.3346C59.5392 20.3034 61.2552 21.801 61.224 23.7042Z" fill="white"/>
<path d="M102.689 93.5922C102.845 95.4954 100.879 97.0866 99.3192 97.0866C97.416 97.1178 95.856 95.3082 95.7936 93.6858C95.7312 92.1258 97.2912 90.1602 99.2256 90.1602C101.004 90.1602 102.782 91.8138 102.689 93.5922Z" fill="white"/>
<path d="M100.942 81.7986C102.595 81.705 104.405 83.3586 104.311 85.3554C104.249 87.009 102.626 88.6938 100.723 88.6314C98.9136 88.569 97.3224 86.7906 97.3848 85.1058C97.416 83.4522 98.976 81.6426 100.942 81.7986Z" fill="white"/>
<path d="M49.1184 18.7746C51.084 18.8058 52.5192 20.3658 52.488 22.2378C52.4568 24.2346 50.8656 25.6698 48.9936 25.6074C47.184 25.545 45.6864 24.2658 45.6864 22.1754C45.6552 20.3034 47.0592 18.7434 49.1184 18.7746Z" fill="white"/>
<path d="M11.3976 30.0066C13.332 30.1002 14.736 31.5666 14.7048 33.4698C14.6736 35.529 13.0512 36.7458 11.2104 36.8394C10.3368 36.8706 9.49441 36.4026 8.87041 35.7474C8.24641 35.061 7.77841 34.2498 7.90321 33.2826C8.12161 31.473 9.30721 30.0378 11.3976 30.0066Z" fill="white"/>
<path d="M105.778 76.4946C105.653 78.4914 104.124 79.8954 102.314 79.833C100.411 79.7394 98.976 78.5226 98.976 76.4634C98.976 74.529 100.411 73.0938 102.377 73.0938C104.374 73.0626 105.715 74.7162 105.778 76.4946Z" fill="white"/>
<path d="M66.4968 28.665C64.5624 28.5714 63.1272 27.2298 63.1584 25.2642C63.1896 23.2674 64.6248 21.8946 66.5904 21.957C68.7744 22.0194 69.6168 23.3922 69.9912 25.2954C69.6168 27.1986 68.712 28.5402 66.4968 28.665Z" fill="white"/>
<path d="M18.2616 26.2314C18.3552 24.297 19.8216 22.893 21.6312 22.8618C22.4424 22.8618 23.2224 23.1426 23.8464 23.7354C24.564 24.4218 25.0008 25.2954 25.032 26.2314C25.0632 27.0738 24.6576 27.9162 24.0336 28.5714C23.4096 29.2266 22.5984 29.6634 21.6936 29.6322C19.884 29.5698 18.324 28.2594 18.2616 26.2314Z" fill="white"/>
<path d="M40.632 17.3082C42.4728 17.2458 43.9392 18.9618 43.9392 20.6154C43.9392 22.4874 42.2856 23.9538 40.6632 23.9538C38.8848 23.9226 37.3248 22.5186 37.3248 20.5842C37.3248 18.8682 38.76 17.3082 40.632 17.3082Z" fill="white"/>
<path d="M1.03918 37.2762C2.75518 37.245 4.34638 38.7426 4.31518 40.521C4.31518 41.3322 4.03439 42.1434 3.44159 42.7986C2.78639 43.5162 1.94398 43.8282 1.03918 43.797C-0.708016 43.7346 -2.20562 42.6114 -2.23682 40.5834C-2.23682 38.649 -0.801616 37.4322 1.03918 37.2762Z" fill="white"/>
<path d="M75.2328 23.7042C76.9488 23.6106 78.4464 24.9834 78.4776 26.8554C78.4776 28.5714 76.98 30.069 75.3264 30.069C73.4544 30.1002 72.0504 28.5402 72.0504 26.8242C72.0816 25.0458 73.4232 23.6418 75.2328 23.7042Z" fill="white"/>
<path d="M103.906 70.941C102.314 71.1282 100.692 69.4434 100.723 67.6962C100.754 65.8866 102.377 64.4826 103.999 64.5138C105.559 64.545 107.119 65.793 107.119 67.7586C107.119 69.5058 105.622 71.097 103.906 70.941Z" fill="white"/>
<path d="M94.3272 38.7738C94.3584 40.3962 92.8608 41.8938 91.1448 41.8938C89.4912 41.8938 87.9936 40.2714 87.9936 38.7114C87.9936 37.2762 89.4912 35.529 91.2696 35.5602C92.8608 35.5914 94.4208 37.1202 94.3272 38.7738Z" fill="white"/>
<path d="M98.3208 45.5442C100.068 45.3882 101.472 47.1354 101.503 48.6642C101.503 50.3802 100.006 51.8154 98.3832 51.8778C96.9168 51.9402 95.1384 50.349 95.1696 48.6954C95.1384 47.1042 96.8232 45.357 98.3208 45.5442Z" fill="white"/>
<path d="M31.8648 22.2066C30.2736 22.269 28.7448 20.6466 28.8072 18.993C28.8696 17.3082 30.2736 15.9354 31.9272 15.9042C33.2688 15.873 35.0472 17.277 35.0472 19.0866C35.0472 20.6778 33.2688 22.3938 31.8648 22.2066Z" fill="white"/>
<path d="M105.528 55.965C107.119 55.9962 108.554 57.4002 108.554 58.9914C108.586 60.5826 107.057 62.1426 105.466 62.049C103.625 61.9554 102.47 60.7698 102.47 59.0226C102.47 57.213 103.625 56.121 105.528 55.965Z" fill="white"/>
<path d="M87.0576 28.3842C86.9952 30.0066 85.5912 31.4418 83.9688 31.473C83.1576 31.473 82.44 31.0986 81.8784 30.537C81.2856 29.9442 80.9424 29.1954 80.9424 28.4154C80.9424 27.6666 81.2856 26.8866 81.8472 26.2938C82.44 25.6698 83.22 25.3266 84.0312 25.3266C84.78 25.3266 85.56 25.6698 86.1528 26.2626C86.652 26.8242 87.0576 27.729 87.0576 28.3842Z" fill="white"/>
<path d="M15.9528 24.6402C15.8592 26.2626 14.6112 27.6354 12.9264 27.729C11.4288 27.8226 9.8376 26.2626 9.8688 24.7026C9.9 23.9538 10.1496 23.2362 10.7112 22.6122C11.304 21.957 12.084 21.6762 12.8952 21.6138C14.3616 21.5202 15.9216 23.1426 15.9528 24.6402Z" fill="white"/>
<path d="M2.5992 34.7178C0.914404 34.749 -0.333596 33.6258 -0.364796 31.8162C-0.395996 30.1314 1.03921 28.9146 2.50561 28.8834C4.15921 28.8834 5.53201 30.1314 5.46961 31.8474C5.46961 33.6258 4.3464 34.7178 2.5992 34.7178Z" fill="white"/>
<path d="M112.392 86.7906C112.548 88.1322 111.113 89.7234 109.553 89.6298C107.899 89.5362 106.745 88.3506 106.682 86.697C106.62 85.2618 108.149 83.8266 109.615 83.889C111.144 83.9514 112.486 85.1682 112.392 86.7906Z" fill="white"/>
<path d="M26.0304 17.5266C26.2176 18.8682 24.72 20.397 23.1288 20.3658C21.756 20.3658 20.2272 18.9306 20.2896 17.433C20.352 15.9042 21.6312 14.5938 23.2224 14.625C24.7824 14.6874 26.124 15.9354 26.0304 17.5266Z" fill="white"/>
<path d="M110.801 95.2145C110.894 96.8681 109.49 98.0225 108.024 98.0537C106.464 98.0849 105.06 96.6186 105.122 95.1522C105.216 93.561 106.433 92.3753 107.993 92.2817C109.428 92.2193 110.988 93.6545 110.801 95.2145Z" fill="white"/>
<path d="M62.16 14.9994C62.2848 16.5906 60.912 17.7762 59.4144 17.8386C57.7608 17.8698 56.5128 16.341 56.4816 15.0618C56.4504 13.6266 58.0104 12.0978 59.3832 12.129C60.7248 12.129 62.3472 13.4394 62.16 14.9994Z" fill="white"/>
<path d="M70.896 16.5282C70.9896 18.213 69.4608 19.3674 68.0568 19.3986C66.8088 19.4298 65.1552 18.213 65.2176 16.5906C65.28 15.0306 66.4656 13.8138 67.9944 13.689C69.3672 13.5954 71.0832 15.1554 70.896 16.5282Z" fill="white"/>
<path d="M53.4552 13.5018C53.7048 14.8434 51.8328 16.4034 50.5536 16.341C49.3368 16.2786 47.7456 15.0618 47.808 13.4082C47.8704 11.973 49.0248 10.6002 50.6784 10.6626C52.3008 10.725 53.4552 11.8482 53.4552 13.5018Z" fill="white"/>
<path d="M113.921 78.0858C114.014 79.4898 112.61 80.8626 111.082 80.8626C109.865 80.8626 108.274 79.5834 108.305 77.9922C108.305 76.7442 109.74 75.1842 111.206 75.2154C112.548 75.2154 114.077 76.6194 113.921 78.0858Z" fill="white"/>
<path d="M44.9688 11.9106C44.8752 13.5018 43.6584 14.6562 42.1296 14.6874C40.788 14.7186 39.2904 13.1898 39.384 11.8482C39.4776 10.3506 40.632 9.07138 42.192 9.13378C43.9392 9.19618 44.7816 10.1322 44.9688 11.9106Z" fill="white"/>
<path d="M99.912 37.1826C101.472 37.245 102.626 38.337 102.658 39.9906C102.689 41.5818 101.098 42.7674 99.8496 42.7674C98.6328 42.7674 97.0416 41.4258 97.104 39.9282C97.1664 38.337 98.508 37.1826 99.912 37.1826Z" fill="white"/>
<path d="M79.5384 18.0882C79.3824 19.5546 78.4776 20.7402 76.7616 20.8026C75.3576 20.865 74.0784 19.4922 74.0784 18.0882C74.0784 16.6842 75.3888 15.3426 76.7928 15.3738C78.4464 15.4674 79.4136 16.7466 79.5384 18.0882Z" fill="white"/>
<path d="M107.057 52.9074C105.278 52.7514 104.436 51.909 104.374 50.2242C104.311 48.6642 105.559 47.5722 107.057 47.541C108.461 47.5098 109.802 48.6954 109.74 50.2242C109.709 51.8154 108.742 52.8138 107.057 52.9074Z" fill="white"/>
<path d="M92.7672 32.6586C91.0824 32.5026 90.1464 31.5354 90.0216 30.0066C89.9592 29.289 90.3336 28.6338 90.8328 28.1034C91.3632 27.5418 92.0808 27.261 92.736 27.2922C93.4224 27.2922 94.1088 27.6042 94.6392 28.1346C95.1696 28.665 95.3568 29.3514 95.388 30.0066C95.4504 31.4106 94.1712 32.6274 92.7672 32.6586Z" fill="white"/>
<path d="M115.325 69.2562C115.387 70.8786 114.108 71.877 112.735 71.877C111.362 71.877 110.083 71.0346 110.052 69.3186C110.021 67.821 111.206 66.6042 112.704 66.6042C114.077 66.6042 115.294 67.8522 115.325 69.2562Z" fill="white"/>
<path d="M6.6864 23.1738C6.6864 24.5466 5.4696 25.701 4.0656 25.6698C2.6616 25.6386 1.632 24.5154 1.6008 23.0178C1.5696 21.6138 2.88 20.553 4.1904 20.553C5.3448 20.553 6.8736 21.7386 6.6864 23.1738Z" fill="white"/>
<path d="M35.9208 10.2882C35.9208 11.817 34.9224 12.753 33.456 12.8466C32.0208 12.9402 30.8976 11.4738 30.8976 10.3194C30.8976 9.07137 31.9272 7.72977 33.3936 7.76097C34.9536 7.85457 35.9208 8.79057 35.9208 10.2882Z" fill="white"/>
<path d="M16.8888 15.9354C17.0136 17.0898 15.7968 18.4626 14.424 18.4626C13.02 18.4626 11.8968 17.0586 11.928 15.9354C11.9904 14.625 12.9888 13.4082 14.424 13.4082C15.8592 13.4394 16.92 14.5938 16.8888 15.9354Z" fill="white"/>
<path d="M111.799 60.7698C111.799 59.3034 112.985 58.0866 114.202 58.0866C115.418 58.0866 116.698 59.3346 116.698 60.5514C116.698 61.7058 115.325 63.1098 114.202 63.0474C113.546 63.0162 112.985 62.673 112.517 62.2362C112.049 61.7994 111.83 61.1754 111.799 60.7698Z" fill="white"/>
<path d="M120.754 88.0075C120.691 89.3491 119.599 90.4723 118.289 90.4099C116.916 90.3475 115.918 89.4739 115.886 88.0075C115.855 86.5411 117.072 85.6051 118.351 85.5739C119.599 85.6051 120.722 86.7283 120.754 88.0075Z" fill="white"/>
<path d="M63.3456 6.29457C63.3144 7.51137 62.0664 8.72817 60.912 8.72817C59.7888 8.72817 58.4472 7.38657 58.4784 6.26337C58.4784 5.10897 59.7888 3.82977 60.9744 3.86097C62.16 3.86097 63.3768 5.07777 63.3456 6.29457Z" fill="white"/>
<path d="M87.9624 19.6482C87.8688 20.9586 86.964 22.0818 85.5912 22.0818C84.2496 22.113 83.1888 21.0834 83.1888 19.6794C83.1888 18.3378 84 17.3394 85.5288 17.2146C86.7456 17.1834 87.9312 18.4002 87.9624 19.6482Z" fill="white"/>
<path d="M119.131 96.7122C119.1 98.1162 118.039 99.1146 116.76 99.1458C115.512 99.177 114.358 98.0226 114.358 96.7434C114.326 95.4642 115.606 94.3722 116.698 94.341C117.727 94.3098 119.1 95.2458 119.131 96.7122Z" fill="white"/>
<path d="M52.1448 7.04342C50.8344 7.07462 49.8048 5.95142 49.8672 4.67222C49.8984 3.36182 50.772 2.33222 52.2072 2.36342C53.4864 2.39462 54.6096 3.48662 54.516 4.70342C54.4536 5.88902 53.6112 7.10582 52.1448 7.04342Z" fill="white"/>
<path d="M26.9664 8.79063C26.9664 10.0698 25.9992 11.0058 24.72 11.0058C23.3784 11.0058 22.5048 10.0698 22.5048 8.69703C22.5048 7.41783 23.472 6.48183 24.7824 6.51303C25.9992 6.51303 26.9664 7.54263 26.9664 8.79063Z" fill="white"/>
<path d="M101.441 29.3826C102.502 29.1954 103.75 30.4746 103.718 31.5978C103.687 32.565 102.564 33.8442 101.472 33.813C100.318 33.7818 99.132 32.6898 99.1944 31.5978C99.2568 30.2562 100.099 29.3826 101.441 29.3826Z" fill="white"/>
<path d="M3.50401 14.3754C3.31681 13.1898 4.68961 12.0666 5.71921 12.129C6.93601 12.1914 7.87201 13.0962 7.90321 14.3442C7.90321 15.6858 7.02961 16.5282 5.71921 16.5906C4.50241 16.653 3.37921 15.5298 3.50401 14.3754Z" fill="white"/>
<path d="M108.679 43.6722C107.712 43.7658 106.464 42.8298 106.433 41.5818C106.433 40.2714 107.556 39.3666 108.617 39.3354C109.678 39.273 110.77 40.3026 110.801 41.4882C110.832 42.705 109.646 43.797 108.679 43.6722Z" fill="white"/>
<path d="M121.97 79.5834C121.97 80.7066 120.91 81.7986 119.818 81.7986C118.757 81.7986 117.665 80.6442 117.634 79.5834C117.602 78.4602 118.944 77.337 119.818 77.3682C120.972 77.3994 121.97 78.429 121.97 79.5834Z" fill="white"/>
<path d="M69.648 9.94502C68.556 9.91382 67.4952 9.00902 67.4952 7.82342C67.5264 6.57542 68.4936 5.70182 69.6792 5.67062C70.74 5.63942 71.8632 6.76262 71.8008 7.82342C71.7072 8.91542 70.9272 9.88262 69.648 9.94502Z" fill="white"/>
<path d="M117.602 51.8154C117.478 53.0634 116.635 53.9058 115.45 53.937C114.389 53.9682 113.328 52.8138 113.359 51.753C113.39 50.6922 114.451 49.6314 115.481 49.6314C116.542 49.6626 117.602 50.7546 117.602 51.8154Z" fill="white"/>
<path d="M96.2616 21.333C96.3552 22.3938 95.232 23.2674 94.14 23.205C93.048 23.1426 92.268 22.425 92.3304 21.2082C92.3616 19.9914 93.0168 19.2738 94.2648 19.2426C95.4192 19.2114 96.3864 20.241 96.2616 21.333Z" fill="white"/>
<path d="M43.44 1.2402C44.532 1.1154 45.3744 2.145 45.4056 3.081C45.4368 4.1418 44.5008 5.1402 43.4712 5.1402C42.504 5.1402 41.5056 4.1106 41.5056 3.1746C41.4432 2.1138 42.4728 1.1154 43.44 1.2402Z" fill="white"/>
<path d="M119.256 70.8474C119.162 69.7866 120.13 68.9754 121.097 68.9754C122.126 69.0066 122.969 69.7866 123 70.8474C123 71.6586 122.189 72.7506 121.128 72.7194C120.067 72.6882 119.256 71.9082 119.256 70.8474Z" fill="white"/>
<path d="M78.384 7.5426C79.5072 7.6674 80.1312 8.2602 80.1936 9.3834C80.2248 10.3818 79.3512 11.2242 78.3528 11.2242C77.4168 11.2242 76.4808 10.2882 76.512 9.3522C76.5432 8.385 77.3856 7.5426 78.384 7.5426Z" fill="white"/>
<path d="M35.0472 3.79863C33.7056 3.86103 32.8632 2.58183 33.2376 1.24023C33.3624 0.772228 33.5496 0.678628 34.0488 0.678628C34.392 0.678628 34.7352 0.678628 35.0784 0.678628C35.2656 0.678628 35.4528 0.678628 35.6088 0.522628C35.8584 0.273028 36.1392 0.366628 36.3576 0.616228C36.888 1.17783 37.0128 1.83303 36.7944 2.55063C36.5448 3.33063 35.8896 3.76743 35.0472 3.79863Z" fill="white"/>
<path d="M17.856 7.48019C17.8872 8.32259 16.92 9.35219 16.0464 9.32099C14.9232 9.28979 14.3616 8.60339 14.2056 7.57379C14.1432 7.07459 14.3928 6.66899 14.6736 6.29459C15.0168 5.82659 15.6096 5.82659 16.0464 5.73299C16.8264 5.57699 17.8248 6.63779 17.856 7.48019Z" fill="white"/>
<path d="M110.707 34.8738C109.646 35.2794 108.773 35.0298 108.211 34.125C107.868 33.5634 107.868 32.4402 108.274 31.9722C108.523 31.6914 108.804 31.7226 108.898 32.0658C108.96 32.2842 109.085 32.3778 109.21 32.5026C109.49 32.8146 109.74 33.1578 109.927 33.5322C110.177 34.0002 110.551 34.3746 110.707 34.8738Z" fill="white"/>
<path d="M122.407 63.141C122.376 63.3282 122.501 63.6402 122.251 63.7338C121.97 63.8274 121.752 63.7026 121.534 63.4842C120.785 62.829 120.691 61.6434 121.346 60.8946C121.44 60.801 121.534 60.6762 121.721 60.7698C121.877 60.8634 122.033 60.8946 122.002 61.113C122.002 61.3938 122.002 61.6434 122.002 61.9242C122.002 62.049 122.002 62.2362 122.064 62.2674C122.501 62.4546 122.376 62.829 122.407 63.141Z" fill="white"/>
<path d="M87.6816 12.0666C87.6504 12.2538 87.2448 12.5034 87.0264 12.441C86.4336 12.2538 85.9032 11.973 85.6848 11.3178C85.6536 11.2242 85.5912 11.1306 85.716 11.0682C85.8408 11.0058 85.9968 10.9434 86.0592 11.037C86.4336 11.5362 87.0264 11.6922 87.5568 11.9106C87.6504 11.9418 87.6816 12.0042 87.6816 12.0666Z" fill="white"/>
<path d="M26.8728 2.33222C26.6232 2.48822 26.3424 2.48822 25.968 2.42582C26.28 2.05142 26.592 2.23862 26.8728 2.33222Z" fill="white"/>
</g>
<rect width="279" height="96" rx="9" fill="url(#paint0_linear_8682_35851)"/>
<path d="M16.448 77.32C16.2453 76.9467 15.952 76.664 15.568 76.472C15.1947 76.2693 14.752 76.168 14.24 76.168C13.3547 76.168 12.6453 76.4613 12.112 77.048C11.5787 77.624 11.312 78.3973 11.312 79.368C11.312 80.4027 11.5893 81.2133 12.144 81.8C12.7093 82.376 13.4827 82.664 14.464 82.664C15.136 82.664 15.7013 82.4933 16.16 82.152C16.6293 81.8107 16.9707 81.32 17.184 80.68H13.712V78.664H19.664V81.208C19.4613 81.8907 19.1147 82.5253 18.624 83.112C18.144 83.6987 17.5307 84.1733 16.784 84.536C16.0373 84.8987 15.1947 85.08 14.256 85.08C13.1467 85.08 12.1547 84.84 11.28 84.36C10.416 83.8693 9.73867 83.192 9.248 82.328C8.768 81.464 8.528 80.4773 8.528 79.368C8.528 78.2587 8.768 77.272 9.248 76.408C9.73867 75.5333 10.416 74.856 11.28 74.376C12.144 73.8853 13.1307 73.64 14.24 73.64C15.584 73.64 16.7147 73.9653 17.632 74.616C18.56 75.2667 19.1733 76.168 19.472 77.32H16.448ZM23.9155 77.56C24.2355 77.0693 24.6355 76.6853 25.1155 76.408C25.5955 76.12 26.1288 75.976 26.7155 75.976V78.872H25.9635C25.2808 78.872 24.7688 79.0213 24.4275 79.32C24.0862 79.608 23.9155 80.12 23.9155 80.856V85H21.1795V76.072H23.9155V77.56ZM32.0873 85.128C31.2126 85.128 30.4233 84.9413 29.7193 84.568C29.0259 84.1947 28.4766 83.6613 28.0713 82.968C27.6766 82.2747 27.4793 81.464 27.4793 80.536C27.4793 79.6187 27.6819 78.8133 28.0872 78.12C28.4926 77.416 29.0473 76.8773 29.7513 76.504C30.4553 76.1307 31.2446 75.944 32.1193 75.944C32.9939 75.944 33.7833 76.1307 34.4873 76.504C35.1913 76.8773 35.7459 77.416 36.1513 78.12C36.5566 78.8133 36.7593 79.6187 36.7593 80.536C36.7593 81.4533 36.5513 82.264 36.1353 82.968C35.7299 83.6613 35.1699 84.1947 34.4553 84.568C33.7513 84.9413 32.9619 85.128 32.0873 85.128ZM32.0873 82.76C32.6099 82.76 33.0526 82.568 33.4153 82.184C33.7886 81.8 33.9753 81.2507 33.9753 80.536C33.9753 79.8213 33.7939 79.272 33.4313 78.888C33.0793 78.504 32.6419 78.312 32.1193 78.312C31.5859 78.312 31.1433 78.504 30.7913 78.888C30.4393 79.2613 30.2633 79.8107 30.2633 80.536C30.2633 81.2507 30.4339 81.8 30.7753 82.184C31.1273 82.568 31.5646 82.76 32.0873 82.76ZM47.0268 76.072V85H44.2908V83.784C44.0134 84.1787 43.6348 84.4987 43.1548 84.744C42.6854 84.9787 42.1628 85.096 41.5868 85.096C40.9041 85.096 40.3014 84.9467 39.7788 84.648C39.2561 84.3387 38.8508 83.896 38.5628 83.32C38.2748 82.744 38.1308 82.0667 38.1308 81.288V76.072H40.8508V80.92C40.8508 81.5173 41.0054 81.9813 41.3148 82.312C41.6241 82.6427 42.0401 82.808 42.5628 82.808C43.0961 82.808 43.5174 82.6427 43.8268 82.312C44.1361 81.9813 44.2908 81.5173 44.2908 80.92V76.072H47.0268ZM51.728 77.336C51.9947 76.92 52.3627 76.584 52.832 76.328C53.3013 76.072 53.8507 75.944 54.48 75.944C55.216 75.944 55.8827 76.1307 56.48 76.504C57.0773 76.8773 57.5467 77.4107 57.888 78.104C58.24 78.7973 58.416 79.6027 58.416 80.52C58.416 81.4373 58.24 82.248 57.888 82.952C57.5467 83.6453 57.0773 84.184 56.48 84.568C55.8827 84.9413 55.216 85.128 54.48 85.128C53.8613 85.128 53.312 85 52.832 84.744C52.3627 84.488 51.9947 84.1573 51.728 83.752V89.256H48.992V76.072H51.728V77.336ZM55.632 80.52C55.632 79.8373 55.44 79.304 55.056 78.92C54.6827 78.5253 54.2187 78.328 53.664 78.328C53.12 78.328 52.656 78.5253 52.272 78.92C51.8987 79.3147 51.712 79.8533 51.712 80.536C51.712 81.2187 51.8987 81.7573 52.272 82.152C52.656 82.5467 53.12 82.744 53.664 82.744C54.208 82.744 54.672 82.5467 55.056 82.152C55.44 81.7467 55.632 81.2027 55.632 80.52ZM73.29 85H70.554L65.978 78.072V85H63.242V73.768H65.978L70.554 80.728V73.768H73.29V85ZM74.7293 80.52C74.7293 79.6027 74.8999 78.7973 75.2413 78.104C75.5933 77.4107 76.0679 76.8773 76.6653 76.504C77.2626 76.1307 77.9293 75.944 78.6653 75.944C79.2946 75.944 79.8439 76.072 80.3133 76.328C80.7933 76.584 81.1613 76.92 81.4173 77.336V76.072H84.1533V85H81.4173V83.736C81.1506 84.152 80.7773 84.488 80.2973 84.744C79.8279 85 79.2786 85.128 78.6493 85.128C77.9239 85.128 77.2626 84.9413 76.6653 84.568C76.0679 84.184 75.5933 83.6453 75.2413 82.952C74.8999 82.248 74.7293 81.4373 74.7293 80.52ZM81.4173 80.536C81.4173 79.8533 81.2253 79.3147 80.8413 78.92C80.4679 78.5253 80.0093 78.328 79.4653 78.328C78.9213 78.328 78.4573 78.5253 78.0733 78.92C77.6999 79.304 77.5133 79.8373 77.5133 80.52C77.5133 81.2027 77.6999 81.7467 78.0733 82.152C78.4573 82.5467 78.9213 82.744 79.4653 82.744C80.0093 82.744 80.4679 82.5467 80.8413 82.152C81.2253 81.7573 81.4173 81.2187 81.4173 80.536ZM97.5246 75.976C98.634 75.976 99.514 76.312 100.165 76.984C100.826 77.656 101.157 78.5893 101.157 79.784V85H98.4366V80.152C98.4366 79.576 98.282 79.1333 97.9726 78.824C97.674 78.504 97.258 78.344 96.7246 78.344C96.1913 78.344 95.77 78.504 95.4606 78.824C95.162 79.1333 95.0126 79.576 95.0126 80.152V85H92.2926V80.152C92.2926 79.576 92.138 79.1333 91.8286 78.824C91.53 78.504 91.114 78.344 90.5806 78.344C90.0473 78.344 89.626 78.504 89.3166 78.824C89.018 79.1333 88.8686 79.576 88.8686 80.152V85H86.1326V76.072H88.8686V77.192C89.146 76.8187 89.5086 76.5253 89.9566 76.312C90.4046 76.088 90.9113 75.976 91.4766 75.976C92.1486 75.976 92.746 76.12 93.2686 76.408C93.802 76.696 94.218 77.1067 94.5166 77.64C94.826 77.1493 95.2473 76.7493 95.7806 76.44C96.314 76.1307 96.8953 75.976 97.5246 75.976ZM111.486 80.392C111.486 80.648 111.47 80.9147 111.438 81.192H105.246C105.289 81.7467 105.465 82.1733 105.774 82.472C106.094 82.76 106.483 82.904 106.942 82.904C107.625 82.904 108.099 82.616 108.366 82.04H111.278C111.129 82.6267 110.857 83.1547 110.462 83.624C110.078 84.0933 109.593 84.4613 109.006 84.728C108.419 84.9947 107.763 85.128 107.038 85.128C106.163 85.128 105.385 84.9413 104.702 84.568C104.019 84.1947 103.486 83.6613 103.102 82.968C102.718 82.2747 102.526 81.464 102.526 80.536C102.526 79.608 102.713 78.7973 103.086 78.104C103.47 77.4107 104.003 76.8773 104.686 76.504C105.369 76.1307 106.153 75.944 107.038 75.944C107.902 75.944 108.67 76.1253 109.342 76.488C110.014 76.8507 110.537 77.368 110.91 78.04C111.294 78.712 111.486 79.496 111.486 80.392ZM108.686 79.672C108.686 79.2027 108.526 78.8293 108.206 78.552C107.886 78.2747 107.486 78.136 107.006 78.136C106.547 78.136 106.158 78.2693 105.838 78.536C105.529 78.8027 105.337 79.1813 105.262 79.672H108.686Z" fill="white"/>
</g>
<defs>
<linearGradient id="paint0_linear_8682_35851" x1="139.5" y1="41" x2="139.5" y2="96" gradientUnits="userSpaceOnUse">
<stop offset="0.333333" stop-opacity="0"/>
<stop offset="0.916667" stop-opacity="0.13"/>
</linearGradient>
<clipPath id="clip0_8682_35851">
<rect width="279" height="96" rx="9" fill="white"/>
</clipPath>
<clipPath id="clip1_8682_35851">
<rect width="156" height="156" fill="white" transform="translate(-33)"/>
</clipPath>
</defs>
</svg>
