<svg width="185" height="184" viewBox="0 0 185 184" fill="none" xmlns="http://www.w3.org/2000/svg">
<g clip-path="url(#clip0_9753_20396)">
<path d="M184.5 92C184.5 142.81 143.31 184 92.5 184C41.6901 184 0.5 142.81 0.5 92C0.5 41.1901 41.6901 0 92.5 0C143.31 0 184.5 41.1901 184.5 92Z" fill="#002D5B"/>
<mask id="mask0_9753_20396" style="mask-type:alpha" maskUnits="userSpaceOnUse" x="10" y="9" width="165" height="166">
<circle cx="92.5" cy="92.0003" r="82.1429" fill="#D9D9D9"/>
</mask>
<g mask="url(#mask0_9753_20396)">
<path d="M23.6794 108.48C3.17861 108.48 -9.16273 116.489 -16.2848 124.175L-18.6335 109.902H-38.9285V233.823H-15.7046V171.86C-15.7046 145.3 -2.2578 129.445 20.2659 129.445C41.2432 129.445 52.3316 142.148 52.3316 166.18V233.823H75.5539V164.997C75.5539 115.825 43.0521 108.48 23.6794 108.48Z" fill="white"/>
<path d="M76.742 107.655L76.7161 107.629C73.1842 104.097 73.1842 98.3707 76.7161 94.8388L115.192 56.3608C118.724 52.8289 124.451 52.8289 127.984 56.3608L128.01 56.3868C131.542 59.9186 131.542 65.6468 128.01 69.1787L89.5323 107.655C86.0004 111.187 80.2739 111.187 76.742 107.655Z" fill="#00A9E0"/>
<path d="M48.6811 95.2658L48.6438 95.2626C43.6677 94.8266 39.9867 90.4405 40.4228 85.4644L45.1654 31.2575C45.5998 26.2814 49.9875 22.6004 54.9636 23.0348L55.0009 23.0381C59.977 23.4741 63.658 27.8602 63.222 32.8362L58.4793 87.0448C58.0449 92.0209 53.6572 95.7019 48.6811 95.2658Z" fill="#00A9E0"/>
<path d="M89.1061 135.691L89.1093 135.728C89.5454 140.705 93.9315 144.386 98.9075 143.95L153.114 139.207C158.091 138.772 161.772 134.385 161.337 129.409L161.334 129.371C160.898 124.395 156.512 120.714 151.536 121.15L97.3272 125.893C92.3511 126.327 88.6701 130.715 89.1061 135.691Z" fill="#00A9E0"/>
<circle cx="16.9286" cy="164.286" r="65.7143" fill="white"/>
</g>
</g>
<defs>
<clipPath id="clip0_9753_20396">
<rect width="184" height="184" fill="white" transform="translate(0.5)"/>
</clipPath>
</defs>
</svg>
