<svg width="48" height="48" viewBox="0 0 48 48" fill="none" xmlns="http://www.w3.org/2000/svg">
<g clip-path="url(#clip0_9727_8075)">
<rect width="48" height="48" rx="9" fill="#002D5B"/>
<g opacity="0.1" clip-path="url(#clip1_9727_8075)">
<path d="M25.7668 35.1525C25.8179 35.2206 25.886 35.2716 25.9711 35.2716C26.7879 35.4078 27.2985 35.9183 27.5878 36.6331C27.8601 37.3138 27.792 38.0116 27.4176 38.6753C27.0772 39.2709 26.5667 39.6283 25.886 39.7474C25.7328 39.7815 25.5796 39.8495 25.3584 39.9176C25.8689 40.2409 26.3455 40.4792 26.6348 40.9897C26.9241 41.5003 26.9071 42.0449 27.0092 42.5895C27.0772 42.3512 27.2134 42.147 27.3155 41.9428C27.4687 41.6535 27.6729 41.3982 27.9622 41.245C28.2515 41.0919 28.5238 40.9047 28.8641 40.8196C29.63 40.6664 30.2426 40.9047 30.8383 41.3812C31.7572 42.0959 31.8764 43.5765 31.2127 44.4444C30.8723 44.9039 30.4468 45.2954 29.8172 45.3804C29.63 45.3975 29.4598 45.4826 29.1705 45.5506C30.5319 46.1292 31.0425 47.1673 30.7702 48.4777C30.6 49.3287 30.1745 49.9754 28.4727 50.3668C29.0513 50.6561 29.5108 51.0135 29.7661 51.558C30.0384 52.1196 30.0724 52.7493 29.9363 53.3109C29.8342 53.7874 29.5619 54.2639 29.1194 54.5703C28.711 54.8426 28.2685 55.0978 27.7239 55.0808C27.8771 55.2169 27.9792 55.3701 28.1494 55.4722C28.5068 55.6935 28.745 56.0338 28.9322 56.4252C29.1024 56.7656 29.1535 57.106 29.1705 57.4804C29.2045 58.1441 28.8812 58.6376 28.4897 59.0971C28.0983 59.5566 27.6048 59.8289 26.9751 59.8459C26.9241 59.8459 26.873 59.8459 26.839 59.914C27.809 60.4075 28.4217 61.1563 28.4727 62.2965C28.7791 61.7179 29.1535 61.2584 29.7491 61.0031C30.3617 60.7479 31.0084 60.7308 31.6041 61.0372C32.6592 61.5817 33.0336 62.5177 32.7783 63.6069C32.5401 64.645 31.6721 65.3428 30.3788 65.2407C29.7831 65.1896 29.2896 64.9173 28.9152 64.4748C28.5408 64.0494 28.3706 63.5218 28.3706 62.9262C28.1324 63.3687 27.8771 63.7601 27.4857 64.0664C27.0772 64.3727 26.6177 64.5259 26.0561 64.645C26.6858 64.9854 27.1623 65.3938 27.3495 66.0065C27.5367 66.6191 27.5708 67.2999 27.2134 67.8615C26.5667 68.8825 25.8179 69.308 24.4735 68.9676C23.4524 68.7124 22.8908 67.8274 22.9248 66.7212C22.9588 65.6321 23.6225 64.628 25.0861 64.5259C25.0861 64.4068 25.0351 64.3217 24.9329 64.2706C24.2012 63.9303 23.8608 63.3006 23.6566 62.5688C23.6396 62.5177 23.6225 62.4667 23.5885 62.3476C23.3673 62.773 23.0609 63.0623 22.7376 63.3516C22.3972 63.675 21.9207 63.675 21.5123 63.9303C22.21 64.3387 22.6185 64.9003 22.7546 65.6321C22.9078 66.3639 22.7376 67.0276 22.2781 67.5892C21.8186 68.1848 21.1549 68.4231 20.4061 68.5252C21.0698 68.8485 21.5463 69.325 21.7335 70.0228C21.8527 70.4823 21.8697 70.9758 21.6825 71.4353C21.206 72.6776 20.2019 73.086 18.9596 72.8818C18.1257 72.7457 17.3769 71.7586 17.3088 70.7886C17.2407 69.7675 17.7853 68.6613 19.4531 68.372C19.1638 68.0316 18.7213 67.8955 18.466 67.5041C18.2278 67.1297 18.0746 66.7212 17.9555 66.1937C17.8023 66.5851 17.5811 66.8234 17.3599 67.0276C17.0705 67.3169 16.7132 67.5211 16.3047 67.6402C16.1005 67.7083 16.0665 67.8104 16.2196 67.9465C16.3728 68.0827 16.526 68.2188 16.6451 68.372C17.1216 68.9847 17.2918 69.6314 17.0705 70.4142C16.8833 71.1289 16.4409 71.6055 15.8282 71.9458C15.0113 72.3713 14.2115 72.2692 13.4457 71.7927C13.1734 71.6225 12.9692 71.3332 12.782 71.0609C12.5267 70.7035 12.4586 70.278 12.3395 69.7675C11.897 70.9928 11.0461 71.5033 9.85484 71.5884C10.2292 71.8607 10.6717 72.0139 10.927 72.3883C11.1823 72.7627 11.3524 73.1541 11.3865 73.6136C11.4205 74.0901 11.3014 74.5326 11.0461 74.924C10.5185 75.7239 9.54851 76.2004 8.64655 75.9111C7.45527 75.5367 6.84262 74.6347 6.97876 73.4434C7.08087 72.6095 7.5744 71.6906 9.36131 71.4523C8.83375 71.18 8.34022 70.9588 8.05091 70.4652C7.7616 69.9887 7.64247 69.4612 7.59142 68.8825C7.37018 69.3931 7.13193 69.8866 6.65542 70.1929C6.17891 70.4823 5.68538 70.6865 5.08975 70.7205C6.22997 71.2651 6.79156 72.116 6.58735 73.3753C5.97469 74.958 4.9536 75.1963 4.00058 75.0431C2.99651 74.89 2.31578 73.988 2.19666 73.1371C2.09455 72.4223 2.38385 71.8267 2.86036 71.3161C3.35389 70.7886 4.0176 70.6865 4.69833 70.6014C4.08567 70.4312 3.60916 70.0908 3.28582 69.5973C2.94545 69.1038 2.86036 68.5081 2.8944 67.9125C2.75825 67.8785 2.75825 67.9465 2.75825 67.9976C2.62211 68.6613 2.19665 69.1038 1.65207 69.4612C1.07345 69.8186 0.443783 69.8866 -0.18589 69.6654C-0.747491 69.4612 -1.224 69.1208 -1.51331 68.5592C-1.68349 68.2529 -1.73455 67.9295 -1.81964 67.6062C-1.85367 67.5041 -1.83666 67.3849 -1.95578 67.2488C-2.19404 68.0657 -2.77265 68.5252 -3.50444 68.7464C-3.98095 68.8825 -4.50851 68.8825 -4.968 68.6273C-6.00611 68.0657 -6.43157 67.3509 -6.26138 66.1426C-6.10822 65.1045 -5.12117 64.4068 -4.2192 64.3557C-3.48742 64.3047 -2.89178 64.594 -2.41527 65.0875C-1.92175 65.598 -1.83666 66.2788 -1.81964 66.9765C-1.44524 65.8193 -0.6624 65.2066 0.528872 65.0194C-0.339055 64.594 -0.883637 63.9643 -1.05382 63.0283C-1.24102 63.0623 -1.32611 63.2155 -1.4112 63.3346C-1.90473 63.9983 -3.11302 64.3217 -3.87884 64.1004C-5.03607 63.7431 -5.75084 62.5518 -5.54662 61.4456C-5.39345 60.5607 -4.89993 59.897 -3.99796 59.6247C-3.86182 59.5736 -3.72567 59.4885 -3.57251 59.4885C-3.52146 59.4885 -3.4704 59.4545 -3.45338 59.3864C-3.45338 59.3183 -3.48742 59.2843 -3.55549 59.2673C-4.2192 59.046 -4.55956 58.5185 -4.86589 57.9399C-4.95098 57.7697 -4.89993 57.5655 -5.00204 57.3953C-5.10415 57.4123 -5.18924 57.4634 -5.24029 57.5484C-5.64873 58.1781 -6.26138 58.4504 -6.95913 58.5695C-7.45266 58.6546 -7.91215 58.4504 -8.3376 58.2121C-9.05237 57.8207 -9.39273 57.157 -9.44378 56.3912C-9.49484 55.6424 -9.25658 54.9787 -8.62691 54.4681C-8.21847 54.1278 -7.75898 53.9916 -7.28248 53.8895C-7.19738 53.8725 -7.11229 53.8895 -7.04422 53.7704C-8.28655 53.413 -8.74604 52.477 -8.8992 51.1836C-9.18851 51.8814 -9.54589 52.3749 -10.1756 52.6472C-10.8052 52.9025 -11.4519 52.9025 -12.0305 52.6132C-12.9155 52.1537 -13.4601 51.2687 -13.2388 50.1796C-13.0176 49.1244 -12.2348 48.4948 -11.1626 48.4097C-10.7372 48.3756 -10.3457 48.5288 -9.97135 48.716C-9.54589 48.9202 -9.30764 49.2606 -9.10342 49.652C-8.91622 50.0264 -8.86517 50.4519 -8.81411 50.8773C-8.57586 50.3668 -8.35462 49.8392 -7.84407 49.5499C-7.36756 49.2776 -6.87404 49.0223 -6.2784 49.0223C-6.75491 48.7841 -7.19738 48.5799 -7.50371 48.1204C-7.79302 47.6949 -8.01426 47.2354 -8.08233 46.7079C-8.32058 47.2524 -8.64393 47.6949 -9.18851 47.9672C-9.71608 48.2395 -10.2607 48.3586 -10.8223 48.1544C-12.2177 47.6609 -12.5411 46.6057 -12.422 45.6697C-12.2688 44.5976 -11.3158 43.9339 -10.4989 43.8148C-9.81818 43.7127 -9.23957 43.9679 -8.74604 44.3764C-8.23549 44.8018 -8.06531 45.4145 -7.9632 46.0612C-7.776 45.5847 -7.46967 45.1932 -7.12931 44.8699C-6.77193 44.5295 -6.26138 44.4785 -5.78487 44.2743C-6.75491 43.6276 -7.33353 42.8277 -7.07826 41.6535C-6.78895 40.3431 -5.7168 39.8155 -4.89993 39.7644C-4.27026 39.7134 -3.72567 39.9857 -3.24916 40.3771C-2.75564 40.7855 -2.60247 41.3642 -2.39825 41.9257C-2.24509 41.9598 -2.27913 41.8407 -2.22807 41.7896C-1.90473 41.2791 -1.47927 40.8876 -0.934692 40.6494C-0.815565 40.5983 -0.696437 40.5983 -0.57731 40.5813C-0.4752 40.5643 -0.373091 40.5643 -0.356072 40.4452C-0.322036 40.309 -0.424147 40.292 -0.509237 40.241C-0.951711 39.9176 -1.29207 39.5262 -1.44524 38.9646C-1.63244 38.3179 -1.5984 37.7052 -1.30909 37.1096C-1.0368 36.565 -0.594329 36.2417 -0.0497475 35.9864C0.392726 35.7652 0.852219 35.8162 1.29469 35.8332C1.49891 35.8503 1.70313 36.0034 1.90734 36.1055C2.60509 36.4459 2.99651 37.0415 3.18371 37.7733C3.20073 37.8414 3.20073 37.9095 3.2688 37.9605C3.52407 37.6031 3.8304 37.2968 4.15375 36.9905C4.49411 36.6671 4.98764 36.7182 5.34502 36.4459C4.11971 35.612 3.86444 34.6079 4.10269 33.7911C4.49411 32.3956 5.56625 31.851 6.6384 31.9531C7.60844 32.0552 8.57847 32.5828 8.8848 34.3867C9.46342 33.0933 10.4505 32.6168 11.7779 32.753C12.816 33.1954 13.5818 33.8762 13.6329 35.1355C14.1945 34.1144 14.9603 33.5188 16.1516 33.6039C17.3769 33.689 18.0065 34.4378 18.3809 35.561C18.9426 34.8122 19.5892 34.2846 20.5593 34.2676C20.27 34.0804 20.0317 33.8762 19.7935 33.6549C19.4361 33.3486 19.2659 32.9402 19.1978 32.4977C19.1638 32.2084 19.1638 31.9191 19.1978 31.6468C19.2489 31.2894 19.4191 30.949 19.6573 30.6767C20.4402 29.7407 21.7676 29.6386 22.7206 30.2853C23.5204 30.8299 23.8097 31.9531 23.5034 32.838C23.2652 33.5528 22.7546 33.9783 22.0909 34.2676C21.9718 34.3186 21.8527 34.3016 21.7335 34.3186C21.6144 34.3356 21.4783 34.2846 21.3761 34.4207C21.9207 34.642 22.3121 35.0164 22.6185 35.5099C22.9248 36.0034 22.9929 36.531 23.0099 37.0926C23.146 36.9054 23.1631 36.6671 23.2481 36.4799C23.6736 35.629 24.3884 35.3057 25.2733 35.2206C25.4945 35.1525 25.6307 35.1695 25.7668 35.1525ZM1.10749 65.1556C1.80524 65.3938 2.3328 65.8363 2.67316 66.483C2.84334 66.8063 2.84334 67.1637 2.92843 67.5041C2.94545 67.5721 2.92844 67.6743 3.0816 67.6743C3.13265 67.1637 3.49004 66.8404 3.81338 66.5C4.15375 66.1426 4.68131 66.1256 5.1408 65.8703C4.7664 65.7172 4.52814 65.4789 4.30691 65.2407C4.03462 64.9514 3.81338 64.628 3.77934 64.2196C3.76233 64.1004 3.69425 63.9643 3.57513 63.9473C3.456 63.9132 3.43898 64.0664 3.40495 64.1345C2.97949 64.7471 2.40087 65.0705 1.65207 65.1045C1.46487 65.1045 1.27767 65.0875 1.10749 65.1556ZM26.3114 46.7419C26.6348 46.2824 26.9751 45.925 27.4006 45.7038C27.8431 45.4655 28.3366 45.5166 28.8131 45.4315C28.5748 45.3804 28.3706 45.2783 28.2004 45.1592C27.6559 44.8018 27.2134 44.3764 27.1113 43.6956C27.0772 43.5084 26.9581 43.3383 26.856 43.066C26.4816 44.019 25.8179 44.4955 24.9329 44.6997C25.6477 45.2103 26.1072 45.8229 26.3114 46.7419ZM-3.99796 51.2687C-3.55549 50.6391 -3.13004 50.0945 -2.38124 49.9073C-2.27913 49.8903 -2.19404 49.8562 -2.17702 49.7371C-2.16 49.635 -2.26211 49.618 -2.31316 49.5669C-2.75564 49.2095 -3.07898 48.7841 -3.21513 48.2225C-3.24916 48.0693 -3.31724 47.9162 -3.38531 47.729C-3.91287 48.6139 -4.64466 49.0734 -5.64873 49.0734C-5.7168 49.0734 -5.81891 49.0734 -5.81891 49.2266C-4.74677 49.4478 -4.23622 50.2476 -3.99796 51.2687ZM-6.70386 53.8555C-6.60175 53.9406 -6.58473 53.9746 -6.56771 53.9746C-5.93804 54.0938 -5.47855 54.4681 -5.13818 54.9957C-5.00204 55.2169 -4.89993 55.4382 -4.86589 55.7105C-4.83185 55.8807 -4.69571 55.9147 -4.57658 55.7786C-4.54255 55.7445 -4.52553 55.6764 -4.49149 55.6424C-4.18516 55.285 -3.89586 54.9447 -3.40233 54.7915C-3.23215 54.7404 -3.04495 54.7234 -2.85775 54.6213C-3.16407 54.2809 -3.50444 54.0087 -3.77673 53.6853C-4.06604 53.3449 -4.01498 52.8684 -4.28727 52.494C-4.79782 53.413 -5.58066 53.8385 -6.70386 53.8555ZM21.1549 39.1007C21.1719 39.1858 21.206 39.2028 21.24 39.2199C21.7846 39.5262 22.176 39.9687 22.3632 40.5813C22.4313 40.8026 22.5334 40.8026 22.7036 40.6494C23.2311 40.1899 23.7757 39.8155 24.5245 39.8495C24.6096 39.8495 24.7117 39.8495 24.8138 39.7815C24.5245 39.7304 24.3033 39.5262 24.065 39.4071C23.8268 39.2879 23.6736 39.1007 23.5375 38.8795C23.2652 38.4711 23.146 38.0286 23.078 37.5521C23.0609 37.484 23.0439 37.3989 22.9759 37.3989C22.8908 37.3989 22.8737 37.467 22.8567 37.5351C22.6525 38.1477 22.2271 38.5732 21.6484 38.8114C21.4612 38.8795 21.3081 38.9816 21.1549 39.1007ZM6.38313 66.1426C6.84262 66.3639 7.13193 66.7212 7.37018 67.1297C7.60844 67.5381 7.69353 67.9806 7.81266 68.4571C8.136 67.47 8.86778 66.9935 9.78676 66.7553C9.76974 66.7042 9.78677 66.6872 9.76975 66.6702C9.15709 66.2788 8.6976 65.7852 8.49338 65.0875C8.47637 65.0024 8.40829 64.9173 8.27215 64.9173C7.86371 65.6321 7.16596 65.9214 6.38313 66.1426ZM12.5267 69.1889C12.8671 68.4741 13.2755 67.8785 14.0753 67.6402C14.3987 67.5381 14.4157 67.419 14.1604 67.1807C13.752 66.8404 13.4116 66.449 13.3265 65.9044C13.3095 65.8533 13.3095 65.7852 13.2415 65.7852C13.1564 65.7682 13.0883 65.8023 13.0372 65.8703C12.6799 66.3128 12.2714 66.6702 11.6928 66.8233C11.5396 66.8744 11.3524 66.8744 11.1993 67.0106C11.6077 67.2488 11.914 67.5381 12.1523 67.9125C12.3565 68.3209 12.4416 68.7464 12.5267 69.1889ZM-3.14706 46.4526C-3.02793 46.4015 -3.01091 46.3505 -2.99389 46.2994C-2.70458 45.7208 -2.22807 45.3975 -1.64946 45.1762C-1.56436 45.1422 -1.44524 45.1762 -1.42822 45.0401C-1.42822 44.9209 -1.47927 44.8529 -1.58138 44.7848C-1.85367 44.5806 -2.05789 44.3083 -2.19404 43.9679C-2.27913 43.7637 -2.31316 43.5595 -2.36422 43.3553C-2.38124 43.2532 -2.43229 43.134 -2.55142 43.134C-2.67055 43.134 -2.65353 43.2362 -2.68757 43.3042C-3.04495 43.8148 -3.45338 44.2232 -4.10007 44.3423C-4.23622 44.3764 -4.38938 44.4104 -4.47447 44.5636C-3.74269 44.989 -3.31724 45.6357 -3.14706 46.4526ZM9.90589 37.1266C9.53149 36.8373 9.29324 36.531 9.10604 36.1736C8.91884 35.8162 8.93586 35.4078 8.86778 34.9653C8.61251 35.4418 8.35723 35.7992 8.03389 36.1226C7.69353 36.4629 7.2 36.497 6.75753 36.7182C7.35316 37.1777 7.93178 37.6031 8.11898 38.454C8.59549 37.7563 9.17411 37.3649 9.90589 37.1266ZM1.00538 60.2033C0.222546 59.7948 -0.117819 59.1311 -0.339056 58.3823C-0.985746 59.0631 -1.30909 59.3353 -2.26211 59.5566C-1.9728 59.8799 -1.56436 60.0161 -1.30909 60.3394C-1.05382 60.6798 -0.968727 61.1052 -0.747491 61.4967C-0.373091 60.901 0.0523643 60.5947 1.00538 60.2033ZM22.6355 59.1481C22.8057 59.2843 22.9078 59.4034 23.0269 59.5055C23.3673 59.8119 23.6396 60.1692 23.7076 60.6628C23.7247 60.8329 23.8097 60.9861 23.9629 61.1393C24.3713 60.3054 25.0521 59.931 25.954 59.7608C25.3754 59.4545 24.9159 59.1141 24.6266 58.6036C24.5585 58.4844 24.5756 58.3313 24.4905 58.2292C24.4054 58.1271 24.3373 58.042 24.2182 58.2121C23.8268 58.6887 23.2992 58.9609 22.6355 59.1481ZM17.1216 63.0623C17.2237 63.1815 17.2748 63.2665 17.3428 63.3346C17.6662 63.7431 18.0916 64.0834 18.1257 64.645C18.1257 64.7471 18.1767 64.8833 18.3639 64.9173C18.7724 64.1855 19.4361 63.8111 20.304 63.6409C19.5552 63.2155 19.0787 62.6709 18.8745 61.8881C18.5341 62.1093 18.398 62.4497 18.1257 62.6199C17.8364 62.8411 17.53 62.9772 17.1216 63.0623ZM4.08567 41.0238C3.86444 40.7515 3.66022 40.4962 3.456 40.258C3.25178 40.0027 3.31985 39.5943 3.04757 39.339C2.82633 39.7134 2.53702 39.9857 2.21367 40.2239C1.89033 40.4622 1.48189 40.5303 1.0224 40.6324C1.80524 40.9898 2.21367 41.5854 2.53702 42.3852C2.82633 41.5684 3.47302 41.3301 4.08567 41.0238ZM26.0391 48.1714C25.6477 48.7841 25.2393 49.2265 24.6436 49.4478C24.4905 49.4988 24.5415 49.5839 24.5926 49.669C24.6266 49.7201 24.6947 49.7541 24.7458 49.8052C25.0691 50.0775 25.3244 50.4008 25.4605 50.7922C25.4945 50.9114 25.5796 51.0135 25.6647 51.1496C25.92 50.8263 26.2263 50.6561 26.5327 50.4689C26.839 50.2817 27.2134 50.2647 27.5708 50.1796C26.7369 49.7711 26.2774 49.1074 26.0391 48.1714ZM18.2278 37.0926C17.8193 37.7563 17.2918 38.0967 16.6281 38.403C17.3258 38.7774 17.496 39.4411 17.8193 40.0367C18.1427 39.5432 18.5511 39.2028 19.0957 39.0667C19.2659 39.0156 19.368 38.9135 19.5212 38.7604C18.8575 38.403 18.5001 37.8414 18.2278 37.0926ZM13.6159 35.9864C13.2415 36.531 12.9521 36.9905 12.4416 37.2457C12.3395 37.2968 12.2033 37.3138 12.1012 37.3819C11.9991 37.45 11.914 37.5351 12.0672 37.6542C12.3055 37.8584 12.4586 38.1137 12.6628 38.3519C12.833 38.5562 12.85 38.8455 13.1053 39.0497C13.2415 38.7434 13.4797 38.5561 13.735 38.386C13.9903 38.2158 14.3306 38.1477 14.6029 37.9265C14.0243 37.433 13.6669 36.8373 13.6159 35.9864ZM5.46415 61.0882C5.37906 60.9861 5.328 60.918 5.24291 60.867C4.88553 60.6117 4.71535 60.2033 4.47709 59.8629C4.30691 59.6247 4.32393 59.6076 4.10269 59.7948C3.84742 60.0161 3.57513 60.1863 3.2688 60.3394C3.0816 60.4245 2.87738 60.4756 2.69018 60.5947C3.31985 61.0372 3.69426 61.6158 3.84742 62.3476C4.13673 62.1263 4.27287 61.803 4.56218 61.6158C4.86851 61.4286 5.10676 61.1903 5.46415 61.0882ZM-0.0497475 56.6805C0.290617 56.1359 0.682036 55.8126 1.15855 55.5743C1.46487 55.4212 1.48189 55.3701 1.24364 55.1319C0.954327 54.8425 0.716072 54.5362 0.596945 54.1278C0.511853 53.8215 0.409744 53.7874 0.17149 54.0427C-0.134837 54.366 -0.475201 54.6383 -0.934692 54.7234C-1.05382 54.7404 -1.15593 54.8085 -1.224 54.9276C-0.679419 55.3531 -0.20291 55.8466 -0.0497475 56.6805ZM24.7628 55.9658C25.3414 55.4552 25.8519 54.9787 26.6348 54.9447C26.4816 54.8766 26.4305 54.7575 26.3114 54.6894C25.9711 54.5192 25.7498 54.2469 25.5626 53.9406C25.4775 53.7874 25.4435 53.6002 25.3244 53.4811C25.2563 53.43 25.2223 53.3449 25.1372 53.4471C24.7457 53.8725 24.2522 54.1618 23.6566 54.4511C24.2863 54.7745 24.4735 55.3871 24.7628 55.9658ZM15.0794 62.8241C15.0624 62.756 15.0794 62.739 15.0624 62.739C14.705 62.3816 14.3136 62.0583 14.1264 61.5647C14.0924 61.4626 13.9562 61.4286 13.8201 61.5477C13.4967 61.82 13.1904 62.1263 12.7479 62.2284C12.5607 62.2795 12.5437 62.4327 12.6969 62.5518C13.0202 62.8411 13.2755 63.1815 13.3606 63.6239C13.3776 63.7431 13.4627 63.8452 13.5818 63.8962C13.9903 63.4197 14.3987 62.9262 15.0794 62.8241ZM0.8352 51.6261C1.17556 51.1156 1.66909 50.8263 2.17964 50.554C1.87331 50.1455 1.53295 49.8052 1.37978 49.3457C1.32873 49.1755 1.19258 49.1585 1.05643 49.3116C0.750108 49.618 0.392727 49.8392 -0.0327282 49.9413C-0.134837 49.9583 -0.219929 49.9924 -0.253964 50.1115C-0.305019 50.2476 -0.168873 50.2647 -0.117819 50.3157C0.290618 50.6561 0.648001 51.0475 0.8352 51.6261ZM22.125 42.8107C21.7335 43.3212 21.2911 43.6786 20.6614 43.8488C21.0868 44.3083 21.5463 44.6997 21.7165 45.3804C22.176 44.8188 22.7376 44.5976 23.4013 44.4104C22.7036 44.053 22.4143 43.4574 22.125 42.8107ZM10.1952 61.9391C9.78677 61.5307 9.42938 61.1733 9.22516 60.6798C9.17411 60.5607 9.05498 60.6458 8.98691 60.6968C8.6976 60.9861 8.35724 61.1903 7.96582 61.3095C7.79564 61.3605 7.7616 61.5307 7.88073 61.6668C8.22109 61.9902 8.45935 62.3646 8.56145 62.8241C8.61251 63.0113 8.78269 63.0283 8.8848 62.8751C9.20815 62.4327 9.61658 62.1433 10.1952 61.9391ZM2.19666 44.2913C1.75418 44.8018 1.29469 45.1932 0.613964 45.4145C1.14153 45.7719 1.3968 46.2994 1.68611 46.81C2.11156 46.3675 2.52 45.9591 3.11564 45.7719C2.74124 45.2954 2.38386 44.8699 2.19666 44.2913ZM20.7975 58.8929C20.3721 58.4334 19.9636 58.025 19.7084 57.4804C19.334 57.8037 19.0106 58.1271 18.5511 58.2972C18.398 58.3483 18.3809 58.5015 18.5001 58.6546C18.7894 59.029 19.0957 59.4034 19.1808 59.931C19.4361 59.6927 19.6403 59.4545 19.8785 59.2673C20.1338 59.0801 20.4061 58.9269 20.7975 58.8929ZM17.1216 44.2743C17.2407 44.2743 17.2748 44.1892 17.3088 44.1381C17.5471 43.8828 17.8364 43.7297 18.1597 43.6276C18.398 43.5425 18.415 43.5084 18.2448 43.3042C17.9725 42.9809 17.6832 42.6916 17.5641 42.2661C17.513 42.0619 17.3939 42.0449 17.2577 42.2151C17.0025 42.5044 16.6961 42.7086 16.3728 42.8958C16.1516 43.0319 16.1345 43.066 16.3217 43.2702C16.577 43.5425 16.8493 43.7977 16.9855 44.1721C16.9855 44.2402 17.0535 44.2743 17.1216 44.2743ZM8.78269 41.6705C8.22109 41.3812 8.17004 40.8026 7.82967 40.3771C7.42124 40.8196 7.02982 41.262 6.40015 41.4833C6.8256 41.7215 6.99578 42.0789 7.2 42.4193C7.31913 42.6235 7.35316 42.6405 7.52334 42.5044C7.89775 42.198 8.28917 41.9257 8.78269 41.6705ZM13.4967 42.5044C12.9692 42.2151 12.9692 41.5854 12.5437 41.262C12.2204 41.7045 11.7949 41.9598 11.3354 42.2151C11.6588 42.5384 11.9991 42.8447 12.1693 43.2532C12.2204 43.3893 12.3565 43.3212 12.4416 43.2361C12.6628 42.9809 12.9521 42.8277 13.2585 42.6916C13.3095 42.6575 13.3606 42.5895 13.4967 42.5044ZM21.274 47.8991C20.9677 48.1544 20.7295 48.4267 20.3891 48.5799C20.2019 48.665 20.2019 48.7671 20.321 48.9372C20.4742 49.1415 20.6444 49.3457 20.7465 49.5669C20.8316 49.7371 20.9337 49.8732 21.0868 49.9753C21.3932 49.7541 21.6314 49.4988 21.9888 49.3967C22.2441 49.3287 22.2441 49.1755 22.0399 49.0053C21.6995 48.716 21.4442 48.3586 21.274 47.8991ZM20.5593 52.7833C20.4061 52.8344 20.338 52.9195 20.2529 53.0046C20.0658 53.1918 19.8445 53.345 19.6233 53.4981C19.4191 53.6343 19.402 53.6513 19.5552 53.8555C19.7254 54.0937 19.8956 54.332 20.0147 54.5873C20.0487 54.6724 20.0998 54.7915 20.2359 54.8255C20.5252 54.3831 21.0868 54.298 21.4612 53.9406C21.0868 53.5832 20.7465 53.2599 20.5593 52.7833ZM5.82153 56.187C5.85556 56.0849 5.73644 56.0508 5.66836 55.9998C5.44713 55.7956 5.29396 55.5573 5.17484 55.285C5.10677 55.1319 4.97062 55.0978 4.88553 55.234C4.69833 55.5063 4.392 55.5573 4.15375 55.6935C3.91549 55.8296 3.89847 55.8296 4.08567 56.0338C4.32393 56.2891 4.51113 56.5784 4.68131 56.8677C4.80044 57.0549 4.83447 57.0719 5.00466 56.9188C5.22589 56.7145 5.43011 56.4763 5.73643 56.3742C5.82153 56.3572 5.82153 56.2891 5.82153 56.187ZM7.48931 46.4356C7.40422 46.3164 7.28509 46.2143 7.25105 46.0782C7.2 45.925 7.08087 45.8059 7.02982 45.6527C6.97876 45.4826 6.85964 45.4485 6.68946 45.5676C6.46822 45.7208 6.24698 45.908 5.97469 46.0101C5.75346 46.1122 5.73643 46.2314 5.90662 46.4186C6.05978 46.5887 6.22996 46.7419 6.33207 46.9461C6.41716 47.1673 6.53629 47.1163 6.67244 47.0142C6.94473 46.844 7.2 46.6398 7.48931 46.4356ZM13.8371 57.6506C14.0583 58.025 14.2966 58.3313 14.3987 58.7057C14.4327 58.7057 14.4497 58.7057 14.4668 58.7057C14.8241 58.5355 15.0624 58.1781 15.4538 58.0249C15.5729 57.9909 15.5389 57.8548 15.4368 57.7527C15.2836 57.5825 15.0964 57.4293 15.0113 57.1911C14.9263 56.9868 14.8071 57.0039 14.6029 57.157C14.3817 57.3442 14.1775 57.5655 13.8371 57.6506ZM5.92364 50.4008C5.60029 50.6391 5.25993 50.8263 4.91957 50.9964C5.03869 51.3198 5.31098 51.507 5.46415 51.7793C5.60029 52.0175 5.61731 52.0175 5.83854 51.8303C5.99171 51.7112 6.12786 51.5921 6.28102 51.49C6.48524 51.3538 6.50226 51.3198 6.36611 51.1156C6.22997 50.8943 6.05978 50.6731 5.92364 50.4008ZM16.4919 47.2354C16.2707 47.4226 16.1175 47.6098 15.8963 47.729C15.6751 47.8481 15.6921 47.8651 15.8623 48.1033C15.9814 48.2565 16.1005 48.4267 16.1856 48.6139C16.2537 48.75 16.3558 48.7671 16.4409 48.699C16.6451 48.5628 16.8493 48.4437 17.0705 48.3416C17.1386 48.3076 17.2918 48.2055 17.1727 48.0863C16.9174 47.8311 16.7472 47.5077 16.4919 47.2354ZM9.85484 56.2551C9.6336 56.4423 9.39535 56.5784 9.15709 56.7146C9.03796 56.7826 9.02095 56.8677 9.08902 56.9358C9.29324 57.157 9.39535 57.4293 9.54851 57.6846C9.6336 57.8207 9.70167 57.7867 9.80378 57.7016C9.97396 57.5314 10.1441 57.3612 10.3484 57.2421C10.5015 57.14 10.4845 57.0209 10.3994 56.9358C10.1952 56.7316 10.1101 56.4252 9.85484 56.2551ZM11.7098 46.5036C11.5396 46.4866 11.4716 46.6058 11.3695 46.6738C10.8419 47.0823 10.8589 47.0823 11.2673 47.6098C11.3865 47.763 11.5056 47.763 11.5907 47.6609C11.7609 47.4737 12.1523 47.5417 12.1353 47.1674C12.1353 47.1503 12.1353 47.1333 12.1353 47.1333C12.0161 46.9291 11.914 46.7419 11.7949 46.5547C11.7609 46.5207 11.7098 46.5036 11.7098 46.5036ZM15.4538 53.5832C15.6921 53.4641 15.9303 53.3279 16.1516 53.1407C16.2367 53.0727 16.2537 53.0216 16.1856 52.9365C16.0324 52.7493 15.9133 52.5451 15.7261 52.3919C15.6751 52.3579 15.641 52.3068 15.59 52.3409C15.4198 52.46 15.2496 52.5962 15.0964 52.7323C15.0284 52.8004 15.0284 52.9195 15.0794 52.9876C15.2156 53.1748 15.2666 53.413 15.4538 53.5832ZM10.5185 52.5791C10.7057 52.5111 10.8589 52.409 11.0291 52.3068C11.1482 52.2218 11.1652 52.1026 11.1142 52.0346C11.0291 51.8984 10.978 51.7282 10.8419 51.6431C10.7908 51.6091 10.7398 51.524 10.6717 51.5751C10.4845 51.6772 10.2633 51.7623 10.1782 51.9665C10.1271 52.1026 10.2633 52.2217 10.3654 52.3409C10.4164 52.4089 10.4164 52.5111 10.5185 52.5791Z" fill="#E5E8EA"/>
<path d="M1.72014 35.663C0.443779 35.7141 -0.526258 34.6249 -0.50924 33.3655C-0.492222 32.0722 0.477815 31.1191 1.75418 31.1191C3.09861 31.1191 4.05163 32.1573 4.03461 33.4336C4.0176 34.744 2.97949 35.7481 1.72014 35.663Z" fill="#E5E8EA"/>
<path d="M19.1638 31.2551C19.2659 32.3613 18.0576 33.4845 16.8493 33.4845C15.6751 33.4675 14.5689 32.2932 14.6199 31.136C14.671 29.9617 15.6751 28.9236 16.9344 28.9406C18.1767 28.9577 19.2659 30.0468 19.1638 31.2551Z" fill="#E5E8EA"/>
<path d="M30.9744 48.6993C30.9063 47.5931 32.0636 46.4529 33.2548 46.4699C34.4291 46.4869 35.5353 47.6272 35.5183 48.7844C35.5012 49.8395 34.4631 50.9968 33.2038 50.9797C32.0125 50.9627 30.8893 49.8565 30.9744 48.6993Z" fill="#E5E8EA"/>
<path d="M14.3647 30.3879C14.4668 31.5281 13.3776 32.6173 12.0842 32.5833C10.8759 32.5662 9.85483 31.5111 9.87185 30.2858C9.88887 29.1626 10.91 28.0564 12.1693 28.0734C13.2585 28.1075 14.5008 29.1286 14.3647 30.3879Z" fill="#E5E8EA"/>
<path d="M5.15782 29.5198C5.07273 28.3456 6.21295 27.2734 7.35316 27.2734C8.57847 27.2734 9.58255 28.2775 9.58255 29.4858C9.56553 30.7622 8.64655 31.6811 7.40422 31.6982C6.16189 31.7322 5.10677 30.6941 5.15782 29.5198Z" fill="#E5E8EA"/>
<path d="M32.3869 38.3522C32.472 39.3733 31.4339 40.5816 30.1575 40.5646C28.8982 40.5475 27.9452 39.4584 27.9452 38.3692C27.9452 37.1779 28.9152 36.1569 30.1575 36.1398C31.4169 36.1228 32.438 37.246 32.3869 38.3522Z" fill="#E5E8EA"/>
<path d="M36.3011 43.9684C36.2671 45.2107 35.314 46.1638 34.1058 46.1978C32.8804 46.2318 31.8594 45.1257 31.8594 43.9854C31.8423 42.8452 32.9485 41.739 34.1058 41.7561C35.229 41.7561 36.3011 42.7601 36.3011 43.9684Z" fill="#E5E8EA"/>
<path d="M25.7668 35.1695C25.7328 35.1184 25.7158 35.0504 25.6817 35.0334C25.4094 34.9993 25.2223 34.8121 25.018 34.676C24.5926 34.4207 24.3543 34.0293 24.2012 33.5698C23.9799 32.9571 24.099 32.4126 24.3543 31.851C24.5756 31.3574 24.984 31.0851 25.4435 30.8979C25.7328 30.7788 26.0391 30.6086 26.3795 30.6767C26.8049 30.7788 27.2304 30.915 27.5878 31.1872C27.9281 31.4595 28.1664 31.7999 28.3196 32.2083C28.6769 33.0933 28.2515 34.1995 27.4346 34.71C27.0432 34.9653 26.6177 35.1014 26.1412 35.1014C26.0221 35.1355 25.886 35.1355 25.7668 35.1695Z" fill="#E5E8EA"/>
<path d="M2.60509 30.864C2.12858 30.7448 1.63505 30.6257 1.24364 30.3194C0.92029 30.0641 0.699054 29.7238 0.596944 29.3323C0.562908 29.2302 0.528872 29.1281 0.477818 29.026C0.392727 28.8899 0.37571 28.7367 0.409746 28.5835C0.56291 27.9539 0.733089 27.3242 1.31171 26.9328C1.65207 26.6945 2.02647 26.5073 2.45193 26.4563C2.94545 26.4052 3.40495 26.5754 3.81338 26.8647C4.40902 27.2731 4.74938 27.8518 4.80043 28.5495C4.86851 29.3664 4.25585 30.4045 3.35389 30.6598C3.09862 30.7108 2.8944 30.915 2.60509 30.864Z" fill="#E5E8EA"/>
<path d="M17.5811 28.4815C16.4749 28.5836 15.5049 27.5455 15.5049 26.4053C15.5049 25.3842 16.56 24.3291 17.5981 24.3291C18.6532 24.3461 19.6913 25.3162 19.6743 26.4564C19.6233 27.5796 18.7553 28.5666 17.5811 28.4815Z" fill="#E5E8EA"/>
<path d="M38.0199 47.542C39.1602 47.474 40.0621 48.4951 40.0621 49.6183C40.0621 50.6564 39.1261 51.6775 37.9689 51.6775C36.9137 51.6775 35.8927 50.6053 35.9097 49.5672C35.9267 48.5291 36.8967 47.4229 38.0199 47.542Z" fill="#E5E8EA"/>
<path d="M12.9862 23.5116C14.0073 23.4095 15.1135 24.4817 15.0964 25.5879C15.0794 26.626 14.1434 27.6641 13.0032 27.6471C11.846 27.63 10.944 26.7621 10.927 25.6049C10.91 24.4306 11.863 23.4606 12.9862 23.5116Z" fill="#E5E8EA"/>
<path d="M33.0506 33.6212C33.1017 34.7614 32.1487 35.6634 30.9744 35.6634C29.8852 35.6634 28.9152 34.6593 28.9152 33.5701C28.9152 32.5831 29.9023 31.4939 31.0255 31.5109C32.0806 31.528 33.1527 32.4469 33.0506 33.6212Z" fill="#E5E8EA"/>
<path d="M36.9648 39.1862C37.0839 40.3094 35.9607 41.2624 34.9396 41.2964C33.8845 41.3134 32.8294 40.2243 32.8294 39.2372C32.8294 38.148 33.8164 37.127 34.9226 37.127C36.0628 37.161 37.0329 38.063 36.9648 39.1862Z" fill="#E5E8EA"/>
<path d="M22.3292 25.2483C23.3843 25.1121 24.4054 26.2694 24.4224 27.2734C24.4224 28.3456 23.4183 29.3837 22.3462 29.3667C21.257 29.3667 20.287 28.3796 20.287 27.3075C20.27 26.2013 21.3081 25.1462 22.3292 25.2483Z" fill="#E5E8EA"/>
<path d="M10.2633 24.7207C10.3484 25.895 9.19113 26.7969 8.23811 26.7969C7.31913 26.8139 6.16189 25.912 6.16189 24.7377C6.17891 23.5975 7.2 22.6785 8.23811 22.6955C9.27622 22.7126 10.3143 23.5975 10.2633 24.7207Z" fill="#E5E8EA"/>
<path d="M38.8538 46.8271C37.7136 46.8441 36.8116 45.8571 36.8116 44.8019C36.8116 43.6958 37.8668 42.7598 38.8538 42.7598C39.8068 42.7598 40.879 43.6617 40.879 44.7849C40.879 45.9081 39.926 46.8441 38.8538 46.8271Z" fill="#E5E8EA"/>
<path d="M27.1623 30.166C25.92 30.0809 25.1031 29.2981 25.1372 28.1408C25.1712 26.8815 25.9711 26.2008 27.1283 26.1497C27.5878 26.1327 28.0643 26.2859 28.4217 26.6262C28.8471 27.0347 29.1535 27.5792 29.1194 28.1579C29.1024 28.7024 28.8641 29.213 28.4557 29.6214C28.0643 29.9788 27.6048 30.0809 27.1623 30.166Z" fill="#E5E8EA"/>
<path d="M3.52407 21.9463C4.69832 21.9803 5.41309 22.8483 5.39607 23.9544C5.36203 25.2308 4.37498 25.8435 3.456 25.8605C2.91142 25.8775 2.41789 25.6222 2.02647 25.2138C1.65207 24.8394 1.60102 24.3288 1.48189 23.8523C1.70312 22.7121 2.19665 21.9633 3.52407 21.9463Z" fill="#E5E8EA"/>
<path d="M35.8246 32.5144C36.7265 32.4123 37.7476 33.4504 37.7136 34.4544C37.6966 35.3904 36.8116 36.3605 35.7565 36.3605C34.7694 36.3605 33.8335 35.4075 33.8505 34.3864C33.8675 33.4844 34.8375 32.3782 35.8246 32.5144Z" fill="#E5E8EA"/>
<path d="M29.9873 28.9747C29.9193 28.1409 30.8042 27.0857 31.8934 27.1027C32.8634 27.1198 33.7824 28.0217 33.7824 29.0088C33.7824 30.0299 32.7273 30.9148 31.8593 30.8978C30.9233 30.8808 29.9023 29.9618 29.9873 28.9747Z" fill="#E5E8EA"/>
<path d="M37.8327 40.0366C37.7817 39.0155 38.7687 38.1816 39.7047 38.1816C40.7428 38.1816 41.6278 39.1857 41.5938 40.0877C41.5767 40.9896 40.7258 41.9427 39.6707 41.9256C38.7858 41.9086 37.7476 41.1258 37.8327 40.0366Z" fill="#E5E8EA"/>
<path d="M20.304 21.6576C20.3551 22.7467 19.385 23.5296 18.449 23.5466C17.3599 23.5466 16.543 22.5936 16.543 21.6916C16.543 20.7896 17.3599 19.8196 18.415 19.8196C19.385 19.8026 20.321 20.6195 20.304 21.6576Z" fill="#E5E8EA"/>
<path d="M13.7009 18.968C14.7731 18.985 15.5559 19.836 15.5389 20.857C15.5219 21.9462 14.654 22.729 13.6329 22.695C12.6458 22.661 11.8289 21.9632 11.8289 20.823C11.8119 19.8019 12.5777 18.951 13.7009 18.968Z" fill="#E5E8EA"/>
<path d="M23.1801 24.3631C22.1249 24.3121 21.3421 23.5803 21.3591 22.5082C21.3761 21.419 22.159 20.6702 23.2311 20.7042C24.4224 20.7383 24.8819 21.4871 25.0861 22.5252C24.8819 23.5633 24.3884 24.2951 23.1801 24.3631Z" fill="#E5E8EA"/>
<path d="M-3.13004 23.0352C-3.07898 21.9801 -2.27913 21.2143 -1.29207 21.1973C-0.849599 21.1973 -0.424146 21.3504 -0.0837829 21.6738C0.307635 22.0482 0.54589 22.5247 0.562908 23.0352C0.579926 23.4947 0.358691 23.9542 0.0183272 24.3116C-0.322036 24.669 -0.764509 24.9072 -1.25804 24.8902C-2.24509 24.8562 -3.096 24.1414 -3.13004 23.0352Z" fill="#E5E8EA"/>
<path d="M9.07199 18.1679C10.0761 18.1339 10.8759 19.0699 10.8759 19.9718C10.8759 20.9929 9.97396 21.7928 9.08901 21.7928C8.11898 21.7757 7.26807 21.0099 7.26807 19.9548C7.26807 19.0188 8.0509 18.1679 9.07199 18.1679Z" fill="#E5E8EA"/>
<path d="M27.9452 21.6568C28.8812 21.6057 29.698 22.3545 29.715 23.3756C29.715 24.3116 28.8982 25.1285 27.9962 25.1285C26.9751 25.1455 26.2093 24.2946 26.2093 23.3586C26.2263 22.3885 26.9581 21.6227 27.9452 21.6568Z" fill="#E5E8EA"/>
<path d="M43.5849 47.423C42.7169 47.5251 41.832 46.6061 41.849 45.6531C41.866 44.6661 42.751 43.9003 43.6359 43.9173C44.4868 43.9343 45.3377 44.615 45.3377 45.6872C45.3377 46.6402 44.5209 47.5081 43.5849 47.423Z" fill="#E5E8EA"/>
<path d="M38.3603 29.8771C38.3773 30.7621 37.5604 31.5789 36.6244 31.5789C35.7225 31.5789 34.9056 30.694 34.9056 29.8431C34.9056 29.0602 35.7225 28.1072 36.6925 28.1242C37.5604 28.1413 38.4113 28.9752 38.3603 29.8771Z" fill="#E5E8EA"/>
<path d="M40.5386 33.57C41.4916 33.485 42.2574 34.438 42.2745 35.2719C42.2745 36.2079 41.4576 36.9907 40.5726 37.0247C39.7728 37.0588 38.8028 36.1908 38.8198 35.2889C38.8028 34.421 39.7217 33.4679 40.5386 33.57Z" fill="#E5E8EA"/>
<path d="M4.28989 20.8403C3.42196 20.8743 2.58807 19.9894 2.62211 19.0874C2.65615 18.1684 3.42196 17.4196 4.32393 17.4026C5.05571 17.3856 6.02575 18.1514 6.02575 19.1385C6.02575 20.0064 5.05571 20.9424 4.28989 20.8403Z" fill="#E5E8EA"/>
<path d="M44.4698 39.2539C45.3377 39.2709 46.1206 40.0367 46.1206 40.9047C46.1376 41.7726 45.3037 42.6235 44.4358 42.5725C43.4317 42.5214 42.802 41.8747 42.802 40.9217C42.802 39.9346 43.4317 39.339 44.4698 39.2539Z" fill="#E5E8EA"/>
<path d="M34.3951 24.2098C34.361 25.0947 33.5952 25.8776 32.7103 25.8946C32.2678 25.8946 31.8764 25.6904 31.57 25.384C31.2467 25.0607 31.0595 24.6522 31.0595 24.2268C31.0595 23.8184 31.2467 23.3929 31.553 23.0696C31.8764 22.7292 32.3018 22.542 32.7443 22.542C33.1527 22.542 33.5782 22.7292 33.9015 23.0525C34.1738 23.3589 34.3951 23.8524 34.3951 24.2098Z" fill="#E5E8EA"/>
<path d="M1.1075 18.2871C1.20961 19.0189 0.392733 19.8528 -0.475195 19.8357C-1.22399 19.8357 -2.05788 19.0529 -2.02385 18.236C-1.98981 17.4021 -1.29207 16.6874 -0.424139 16.7044C0.42677 16.7384 1.15855 17.4192 1.1075 18.2871Z" fill="#E5E8EA"/>
<path d="M20.8145 16.9087C20.8826 17.7766 20.1338 18.4233 19.3169 18.4574C18.415 18.4744 17.7342 17.6405 17.7172 16.9427C17.7002 16.1599 18.5511 15.326 19.2999 15.343C20.0317 15.343 20.9167 16.0578 20.8145 16.9087Z" fill="#E5E8EA"/>
<path d="M25.5796 17.7432C25.6307 18.6622 24.7968 19.2919 24.031 19.3089C23.3503 19.3259 22.4483 18.6622 22.4823 17.7773C22.5164 16.9264 23.1631 16.2626 23.997 16.1946C24.7458 16.1435 25.6818 16.9944 25.5796 17.7432Z" fill="#E5E8EA"/>
<path d="M16.0665 16.0918C16.2026 16.8235 15.1815 17.6745 14.4838 17.6404C13.8201 17.6064 12.9521 16.9427 12.9862 16.0407C13.0202 15.2579 13.6499 14.5091 14.5519 14.5431C15.4368 14.5771 16.0665 15.1898 16.0665 16.0918Z" fill="#E5E8EA"/>
<path d="M11.4375 15.2238C11.3865 16.0917 10.7228 16.7214 9.88887 16.7384C9.15709 16.7555 8.34022 15.9216 8.39127 15.1898C8.44232 14.3729 9.072 13.6752 9.92291 13.7092C10.8759 13.7432 11.3354 14.2538 11.4375 15.2238Z" fill="#E5E8EA"/>
<path d="M41.4065 29.0088C42.2575 29.0428 42.8871 29.6385 42.9041 30.5404C42.9212 31.4084 42.0532 32.055 41.3725 32.055C40.7088 32.055 39.8409 31.3233 39.8749 30.5064C39.9089 29.6385 40.6407 29.0088 41.4065 29.0088Z" fill="#E5E8EA"/>
<path d="M30.2937 18.5942C30.2086 19.394 29.715 20.0407 28.779 20.0747C28.0132 20.1088 27.3155 19.36 27.3155 18.5942C27.3155 17.8283 28.0302 17.0966 28.7961 17.1136C29.698 17.1646 30.2256 17.8624 30.2937 18.5942Z" fill="#E5E8EA"/>
<path d="M45.3037 37.5857C44.3337 37.5006 43.8742 37.0411 43.8401 36.1221C43.8061 35.2712 44.4868 34.6755 45.3037 34.6585C46.0695 34.6415 46.8013 35.2882 46.7673 36.1221C46.7503 36.99 46.2227 37.5346 45.3037 37.5857Z" fill="#E5E8EA"/>
<path d="M37.5094 26.5417C36.5904 26.4566 36.0799 25.929 36.0118 25.0951C35.9777 24.7037 36.182 24.3463 36.4543 24.057C36.7436 23.7507 37.135 23.5975 37.4924 23.6146C37.8668 23.6146 38.2412 23.7847 38.5305 24.0741C38.8198 24.3634 38.9219 24.7378 38.9389 25.0951C38.9729 25.861 38.2752 26.5247 37.5094 26.5417Z" fill="#E5E8EA"/>
<path d="M49.8135 46.5032C49.8476 47.3881 49.1498 47.9327 48.401 47.9327C47.6522 47.9327 46.9545 47.4732 46.9375 46.5372C46.9204 45.7203 47.5671 45.0566 48.384 45.0566C49.1328 45.0566 49.7965 45.7374 49.8135 46.5032Z" fill="#E5E8EA"/>
<path d="M6.50226 14.3397C6.50226 15.1736 5.95768 15.6841 5.15782 15.7352C4.37498 15.7862 3.76233 14.9864 3.76233 14.3567C3.76233 13.676 4.32393 12.9442 5.12379 12.9612C5.9747 13.0123 6.50226 13.5228 6.50226 14.3397Z" fill="#E5E8EA"/>
<path d="M47.8905 41.8747C47.8905 41.0748 48.5372 40.4111 49.2009 40.4111C49.8646 40.4111 50.5623 41.0919 50.5623 41.7556C50.5623 42.3852 49.8135 43.1511 49.2009 43.117C48.8435 43.1 48.5372 42.9128 48.2819 42.6746C48.0266 42.4363 47.9075 42.0959 47.8905 41.8747Z" fill="#E5E8EA"/>
<path d="M21.4612 12.1607C21.4442 12.8244 20.7635 13.4881 20.1338 13.4881C19.5212 13.4881 18.7894 12.7564 18.8064 12.1437C18.8064 11.514 19.5212 10.8163 20.1679 10.8333C20.8145 10.8333 21.4782 11.497 21.4612 12.1607Z" fill="#E5E8EA"/>
<path d="M34.8886 19.4449C34.8375 20.1597 34.344 20.7723 33.5952 20.7723C32.8634 20.7894 32.2848 20.2278 32.2848 19.4619C32.2848 18.7302 32.7273 18.1856 33.5612 18.1175C34.2249 18.1005 34.8716 18.7642 34.8886 19.4449Z" fill="#E5E8EA"/>
<path d="M15.3517 12.5697C14.6369 12.5867 14.0753 11.9741 14.1094 11.2763C14.1264 10.5616 14.6029 9.99996 15.3857 10.017C16.0835 10.034 16.6961 10.6296 16.6451 11.2933C16.6111 11.94 16.1516 12.6037 15.3517 12.5697Z" fill="#E5E8EA"/>
<path d="M1.61803 13.522C1.61803 14.2198 1.09047 14.7303 0.392725 14.7303C-0.339057 14.7303 -0.815567 14.2198 -0.815567 13.471C-0.815567 12.7732 -0.288003 12.2627 0.42676 12.2797C1.09047 12.2797 1.61803 12.8413 1.61803 13.522Z" fill="#E5E8EA"/>
<path d="M42.2404 24.7542C42.8191 24.6521 43.4998 25.3498 43.4828 25.9625C43.4657 26.49 42.8531 27.1878 42.2575 27.1707C41.6278 27.1537 40.9811 26.5581 41.0151 25.9625C41.0492 25.2307 41.5087 24.7542 42.2404 24.7542Z" fill="#E5E8EA"/>
<path d="M46.1887 32.5486C45.6611 32.5997 44.9804 32.0891 44.9633 31.4084C44.9633 30.6937 45.576 30.2001 46.1546 30.1831C46.7332 30.1491 47.3289 30.7107 47.3459 31.3574C47.3629 32.0211 46.7162 32.6167 46.1887 32.5486Z" fill="#E5E8EA"/>
<path d="M24.8989 14.1522C24.3033 14.1351 23.7247 13.6416 23.7247 12.9949C23.7417 12.3142 24.2692 11.8377 24.9159 11.8207C25.4945 11.8036 26.1072 12.4163 26.0732 12.9949C26.0221 13.5906 25.5967 14.1181 24.8989 14.1522Z" fill="#E5E8EA"/>
<path d="M39.4154 20.3633C39.4665 20.9419 38.8538 21.4184 38.2582 21.3843C37.6625 21.3503 37.2371 20.9589 37.2711 20.2952C37.2881 19.6315 37.6455 19.2401 38.3262 19.223C38.9559 19.206 39.4835 19.7676 39.4154 20.3633Z" fill="#E5E8EA"/>
<path d="M10.6036 9.40421C11.1993 9.33614 11.6588 9.89774 11.6758 10.4083C11.6928 10.9869 11.1823 11.5315 10.6207 11.5315C10.0931 11.5315 9.54851 10.9699 9.54851 10.4593C9.51447 9.88072 10.0761 9.33614 10.6036 9.40421Z" fill="#E5E8EA"/>
<path d="M29.664 12.8418C30.2766 12.9099 30.617 13.2332 30.651 13.8459C30.6681 14.3905 30.1916 14.8499 29.647 14.8499C29.1364 14.8499 28.6259 14.3394 28.6429 13.8289C28.6599 13.3013 29.1194 12.8418 29.664 12.8418Z" fill="#E5E8EA"/>
<path d="M6.02574 10.7996C5.29396 10.8337 4.83447 10.1359 5.03869 9.40413C5.10676 9.14885 5.20887 9.0978 5.48116 9.0978C5.66836 9.0978 5.85556 9.0978 6.04276 9.0978C6.14487 9.0978 6.24698 9.0978 6.33207 9.01271C6.46821 8.87656 6.62138 8.92762 6.74051 9.06376C7.02982 9.37009 7.09789 9.72747 6.97876 10.1189C6.84261 10.5443 6.48523 10.7826 6.02574 10.7996Z" fill="#E5E8EA"/>
<path d="M47.2948 27.7496C46.7162 27.9708 46.2397 27.8346 45.9334 27.3411C45.7462 27.0348 45.7462 26.4221 45.9674 26.1669C46.1036 26.0137 46.2567 26.0307 46.3078 26.2179C46.3418 26.337 46.4099 26.3881 46.478 26.4562C46.6311 26.6264 46.7673 26.8136 46.8694 27.0178C47.0055 27.273 47.2097 27.4773 47.2948 27.7496Z" fill="#E5E8EA"/>
<path d="M34.7354 15.3093C34.7184 15.4114 34.4972 15.5476 34.378 15.5135C34.0547 15.4114 33.7654 15.2583 33.6462 14.9009C33.6292 14.8498 33.5952 14.7988 33.6633 14.7647C33.7313 14.7307 33.8164 14.6967 33.8505 14.7477C34.0547 15.02 34.378 15.1051 34.6673 15.2242C34.7184 15.2412 34.7354 15.2753 34.7354 15.3093Z" fill="#E5E8EA"/>
<path d="M1.56698 9.99983C1.43083 10.0849 1.27767 10.0849 1.07346 10.0509C1.24364 9.84666 1.41382 9.94877 1.56698 9.99983Z" fill="#E5E8EA"/>
</g>
<mask id="mask0_9727_8075" style="mask-type:alpha" maskUnits="userSpaceOnUse" x="2" y="2" width="44" height="44">
<circle cx="24" cy="23.9999" r="21.4286" fill="#D9D9D9"/>
</mask>
<g mask="url(#mask0_9727_8075)">
<path d="M6.04678 28.2988C0.698743 28.2988 -2.52074 30.3881 -4.37868 32.3932L-4.99137 28.6697H-10.2857V60.9968H-4.22731V44.8326C-4.22731 37.904 -0.719451 33.7678 5.15629 33.7678C10.6286 33.7678 13.5213 37.0816 13.5213 43.351V60.9968H19.5793V43.0423C19.5793 30.2147 11.1005 28.2988 6.04678 28.2988Z" fill="white"/>
<path d="M19.8892 28.0838L19.8825 28.0771C18.9611 27.1557 18.9611 25.6618 19.8825 24.7405L29.9198 14.7027C30.8411 13.7814 32.335 13.7814 33.2568 14.7027L33.2636 14.7095C34.1849 15.6309 34.1849 17.1252 33.2636 18.0465L23.2258 28.0838C22.3045 29.0052 20.8106 29.0052 19.8892 28.0838Z" fill="white"/>
<path d="M12.569 24.852L12.5593 24.8511C11.2612 24.7374 10.3009 23.5932 10.4147 22.2951L11.6519 8.15413C11.7652 6.85602 12.9098 5.89576 14.2079 6.00908L14.2177 6.00993C15.5158 6.12367 16.476 7.26787 16.3623 8.56598L15.1251 22.7073C15.0117 24.0054 13.8671 24.9657 12.569 24.852Z" fill="white"/>
<path d="M23.1146 35.3981L23.1155 35.4078C23.2292 36.706 24.3734 37.6662 25.6715 37.5525L39.8125 36.3153C41.1106 36.2019 42.0708 35.0573 41.9575 33.7592L41.9567 33.7495C41.8429 32.4514 40.6987 31.4911 39.4006 31.6049L25.2593 32.8421C23.9612 32.9554 23.0009 34.1 23.1146 35.3981Z" fill="white"/>
<circle cx="4.28572" cy="42.8567" r="17.1429" fill="white"/>
</g>
</g>
<defs>
<clipPath id="clip0_9727_8075">
<rect width="48" height="48" rx="9" fill="white"/>
</clipPath>
<clipPath id="clip1_9727_8075">
<rect width="85.0909" height="85.0909" fill="white" transform="translate(-31.0909 8.72754)"/>
</clipPath>
</defs>
</svg>
